<svg width="146" height="60" viewBox="0 0 146 60" fill="none" xmlns="http://www.w3.org/2000/svg">
<path fill-rule="evenodd" clip-rule="evenodd" d="M30.5469 28.8683V35.574L42.8369 29.3128V22.6875L30.5469 28.8683Z" fill="#FFFFFF"/>
<path fill-rule="evenodd" clip-rule="evenodd" d="M17.9766 16.2969V22.1728L23.9663 25.1108V19.5651L17.9766 16.2969Z" fill="#FFFFFF"/>
<path fill-rule="evenodd" clip-rule="evenodd" d="M17.9766 28.1363L23.9663 25.1094V38.8129L17.9766 41.7678V28.1363Z" fill="#FFFFFF"/>
<path fill-rule="evenodd" clip-rule="evenodd" d="M63.3116 23.3261H59.8828V20.2188H63.3116V23.3261ZM59.8828 24.8586H63.3116V37.7323H59.8828V24.8586ZM79.5664 20.3161V23.4023H74.3297V37.7323H70.6541V23.415H65.4004V20.3161H79.5664ZM87.5641 24.5495V27.9955C87.3514 27.9955 87.1642 27.9574 86.9983 27.9489H86.5729C85.2159 27.9489 84.3012 28.3723 83.8333 29.2698C83.5262 29.9942 83.3908 30.7794 83.4376 31.5643V37.7323H80.0344V24.8586H83.2547V27.0896C83.6256 26.4393 84.0964 25.8508 84.6501 25.3454C85.3498 24.794 86.2256 24.5115 87.1174 24.5495H87.2833C87.3216 24.5495 87.4195 24.5495 87.5641 24.5495ZM98.4248 31.323C98.4248 30.0275 98.1653 29.0327 97.6335 28.3342C97.3508 28.0074 97.0005 27.7452 96.6066 27.5655C96.2127 27.3858 95.7845 27.2927 95.3512 27.2927C94.9179 27.2927 94.4897 27.3858 94.0958 27.5655C93.7019 27.7452 93.3516 28.0074 93.0689 28.3342C92.5385 29.0341 92.2719 30.0304 92.2691 31.323C92.2663 32.6156 92.5329 33.6034 93.0689 34.2863C93.3484 34.6182 93.6976 34.8851 94.0919 35.0682C94.4862 35.2514 94.9161 35.3463 95.3512 35.3463C95.7863 35.3463 96.2162 35.2514 96.6105 35.0682C97.0048 34.8851 97.354 34.6182 97.6335 34.2863C98.1653 33.5878 98.4248 32.593 98.4248 31.323ZM95.3618 38.1768C93.1355 38.1768 91.4807 37.5051 90.3973 36.1617C89.2913 34.7933 88.7093 33.0785 88.7552 31.323C88.7176 29.5712 89.2987 27.8619 90.3973 26.4927C91.4821 25.1253 93.1369 24.4479 95.3618 24.4479C97.5867 24.4479 99.2373 25.1253 100.335 26.4927C101.43 27.8633 102.01 29.572 101.973 31.323C102.018 33.0778 101.438 34.792 100.335 36.1617C99.2373 37.5037 97.5867 38.1768 95.3618 38.1768ZM116.811 31.1325C116.811 33.1306 116.339 34.7901 115.386 36.0982C114.634 37.0615 113.561 37.7257 112.361 37.971C111.16 38.2163 109.911 38.0265 108.839 37.436C108.338 37.0743 107.906 36.6271 107.563 36.1152V37.7323H104.257V20.35H107.622V26.5392C107.997 25.9935 108.477 25.5273 109.034 25.1676C109.737 24.7532 110.545 24.5489 111.361 24.5792C112.126 24.5451 112.887 24.6933 113.582 25.0115C114.276 25.3296 114.885 25.8084 115.356 26.408C116.313 27.6272 116.794 29.2063 116.794 31.1325H116.811ZM113.267 31.4881C113.291 30.7162 113.17 29.9466 112.91 29.219C112.738 28.7039 112.401 28.2592 111.951 27.9533C111.5 27.6473 110.962 27.4971 110.417 27.5256C109.869 27.4941 109.325 27.6411 108.869 27.9443C108.412 28.2475 108.067 28.6905 107.886 29.2063C107.629 29.9417 107.51 30.7182 107.537 31.4965C107.499 32.4598 107.756 33.4118 108.273 34.2271C108.518 34.5876 108.853 34.8781 109.246 35.0697C109.638 35.2613 110.074 35.3473 110.511 35.3193C110.911 35.332 111.309 35.2422 111.665 35.0584C112.021 34.8746 112.324 34.6029 112.544 34.2694C113.061 33.4436 113.313 32.481 113.267 31.5092V31.4881ZM121.695 30.0064H126.948C126.949 29.2558 126.662 28.5332 126.144 27.987C125.903 27.7581 125.619 27.5789 125.308 27.4598C124.997 27.3406 124.665 27.2838 124.332 27.2928C123.993 27.2724 123.654 27.3276 123.339 27.4543C123.024 27.581 122.741 27.776 122.511 28.0251C122.047 28.5906 121.762 29.2799 121.69 30.0064H121.695ZM129.373 27.043C129.892 27.8444 130.229 28.7488 130.36 29.6931C130.461 30.5358 130.495 31.3851 130.462 32.2331H121.614C121.661 33.5286 122.073 34.4303 122.839 34.9468C123.34 35.2841 123.936 35.4546 124.541 35.4336C125.163 35.4601 125.772 35.248 126.242 34.8409C126.504 34.5886 126.716 34.29 126.868 33.9604H130.318C130.169 34.8377 129.751 35.6478 129.122 36.2803C128.012 37.5503 126.463 38.1599 124.472 38.1599C122.877 38.1769 121.329 37.614 120.121 36.5766C118.844 35.5225 118.232 33.808 118.232 31.4288C118.232 29.202 118.799 27.4931 119.933 26.3021C120.502 25.7119 121.19 25.248 121.952 24.9409C122.714 24.6337 123.532 24.4903 124.353 24.5199C125.355 24.5025 126.348 24.7094 127.259 25.1253C128.138 25.5421 128.877 26.2038 129.386 27.0303L129.373 27.043ZM135.38 33.6429C135.397 34.1033 135.558 34.547 135.839 34.9129C136.265 35.3362 137.031 35.586 138.162 35.586C138.708 35.611 139.253 35.5096 139.753 35.2897C139.928 35.2167 140.077 35.0936 140.182 34.9361C140.286 34.7785 140.341 34.5936 140.34 34.4049C140.343 34.2345 140.3 34.0663 140.217 33.9176C140.133 33.7689 140.011 33.6449 139.864 33.5582C139.545 33.3592 138.371 33.0248 136.337 32.5464C134.871 32.1823 133.837 31.7294 133.236 31.1875C132.928 30.8887 132.688 30.5269 132.534 30.1271C132.38 29.7274 132.314 29.2991 132.343 28.8718C132.341 28.2904 132.465 27.7154 132.707 27.1864C132.95 26.6573 133.304 26.1867 133.746 25.8068C134.682 24.9602 136 24.5368 137.698 24.5368C139.078 24.4643 140.45 24.7829 141.655 25.4555C142.667 26.0989 143.254 27.2123 143.403 28.7787H140.021C140 28.4089 139.874 28.0525 139.66 27.75C139.285 27.3012 138.651 27.0726 137.758 27.0726C137.212 27.0253 136.665 27.1434 136.188 27.4113C136.049 27.4975 135.934 27.6163 135.853 27.7573C135.771 27.8984 135.726 28.0572 135.72 28.2199C135.708 28.3939 135.748 28.5677 135.836 28.7186C135.924 28.8695 136.056 28.9908 136.214 29.0666C136.546 29.2528 137.724 29.5619 139.74 29.9979C140.857 30.2007 141.9 30.6927 142.765 31.4246C143.091 31.738 143.349 32.1154 143.521 32.533C143.693 32.9506 143.776 33.3991 143.765 33.8503C143.781 34.4448 143.66 35.035 143.412 35.5759C143.163 36.1167 142.794 36.5937 142.331 36.9703C141.375 37.7775 139.901 38.1811 137.907 38.1811C135.878 38.1811 134.384 37.7577 133.41 36.9111C132.941 36.5088 132.567 36.0076 132.316 35.4438C132.065 34.88 131.943 34.2677 131.96 33.6513L135.38 33.6429Z" fill="#FFFFFF"/>
<path opacity="0.74" fill-rule="evenodd" clip-rule="evenodd" d="M30.5469 28.8683V35.574L42.8369 29.3128V22.6875L30.5469 28.8683Z" fill="url(#paint0_linear_1_252)"/>
<path fill-rule="evenodd" clip-rule="evenodd" d="M42.8965 35.1072L42.8369 41.7706L30.5469 35.5729V28.8672L42.8965 35.1072Z" fill="#FFFFFF"/>
<path fill-rule="evenodd" clip-rule="evenodd" d="M24.5234 19.5343L30.4706 16.5625L42.8415 22.6882V29.3135L24.5234 19.5343Z" fill="#FFFFFF"/>
<path d="M28.2899 4.08594C23.1375 4.08678 18.101 5.60798 13.8174 8.4572C9.53371 11.3064 6.19523 15.3557 4.22407 20.093C2.25291 24.8303 1.7376 30.0429 2.7433 35.0717C3.749 40.1004 6.23055 44.7195 9.87415 48.3448C13.5178 51.9701 18.1598 54.4388 23.2133 55.4388C28.2667 56.4388 33.5047 55.9251 38.2648 53.9628C43.025 52.0004 47.0935 48.6775 49.9559 44.4142C52.8183 40.1509 54.3462 35.1387 54.3462 30.0113C54.3462 26.6064 53.6722 23.2348 52.3627 20.0891C51.0532 16.9434 49.1338 14.0852 46.7142 11.6778C44.2946 9.27035 41.4222 7.36079 38.2609 6.05817C35.0996 4.75555 31.7115 4.08538 28.2899 4.08594ZM29.4938 54.256C15.9361 54.256 4.93929 43.4015 4.93929 30.0113C4.93929 16.621 15.9361 5.7666 29.4938 5.7666C43.0516 5.7666 54.0484 16.621 54.0484 30.0113C54.0484 43.4015 43.0558 54.256 29.4938 54.256Z" fill="#FFFFFF"/>
<defs>
<linearGradient id="paint0_linear_1_252" x1="34.3245" y1="32.8519" x2="41.3454" y2="21.5899" gradientUnits="userSpaceOnUse">
<stop offset="0.05" stop-color="#FFFFFF"/>
<stop offset="0.21" stop-color="#CCCCCC" stop-opacity="0.68"/>
<stop offset="0.43" stop-color="#FFFFFF" stop-opacity="0"/>
<stop offset="0.45" stop-color="#EEEEEE" stop-opacity="0.16"/>
<stop offset="0.52" stop-color="#CCCCCC" stop-opacity="0.63"/>
<stop offset="0.6" stop-color="#FFFFFF" stop-opacity="0.91"/>
<stop offset="0.7" stop-color="#FFFFFF"/>
</linearGradient>
</defs>
</svg>
