<svg width="154" height="34" viewBox="0 0 154 34" fill="none" xmlns="http://www.w3.org/2000/svg">
<path d="M151.07 10.4286C150.853 9.77655 150.418 8.90711 149.984 8.47239L149.766 8.25502C149.549 8.03766 149.549 7.8203 149.332 7.8203C149.114 7.60294 149.114 7.60294 149.114 7.60294C148.897 7.38558 148.679 7.16822 148.462 6.95086C148.027 6.51614 147.593 6.29878 147.158 6.08142C146.506 5.6467 145.636 5.42934 144.767 5.42934C142.811 5.21198 140.637 5.6467 138.898 6.7335C138.464 7.16822 138.029 7.38558 137.594 7.8203C136.725 8.68974 136.29 9.55919 135.855 10.646C134.986 12.8196 134.986 15.2106 135.855 17.3842C136.725 19.5578 138.246 21.0793 140.42 21.9487C141.507 22.3834 142.593 22.6008 143.68 22.6008C144.767 22.6008 145.854 22.3834 146.941 21.9487C148.027 21.514 148.897 20.8619 149.549 19.9925C150.418 19.123 150.853 18.2536 151.288 17.1668C151.94 15.2106 151.94 12.6022 151.07 10.4286ZM149.332 13.037C149.332 13.2543 149.332 13.2543 149.332 13.037L149.114 13.2543C147.81 14.3411 146.506 15.6453 145.636 17.1668L145.419 17.3842C145.202 17.3842 145.202 17.6015 144.984 17.6015C144.55 17.8189 143.898 17.8189 143.463 17.8189C143.028 17.8189 142.376 17.6015 141.941 17.6015C141.072 17.1668 140.202 16.2974 139.985 15.4279C139.55 14.3411 139.55 13.2543 139.985 12.1675C140.202 11.7328 140.42 11.2981 140.855 10.8633C141.289 10.4286 141.724 10.2113 142.159 9.99391C142.593 9.77654 143.245 9.77655 143.68 9.77655C144.115 9.77655 144.767 9.77654 145.202 9.99391C145.636 10.2113 146.071 10.4286 146.506 10.8633L146.723 11.0807C146.941 11.2981 147.158 11.7328 147.375 11.9502C147.375 12.1675 147.593 12.3849 147.593 12.3849L149.332 13.037Z" fill="#686868"/>
<path d="M132.162 14.7762C133.249 14.5588 134.118 13.6894 134.118 12.1679V9.55954C134.118 6.51649 133.031 5.42969 128.032 5.42969H113.469V22.6012H119.99V16.7324V12.8199V9.77689H126.293C127.38 9.77689 127.597 10.2116 127.597 10.8637V11.7331C127.597 12.6026 127.597 12.8199 126.293 12.8199H120.642V16.7324H125.858C127.162 16.7324 127.38 17.1671 127.38 17.8192V22.6012H133.901V17.1671C133.901 16.5151 133.683 16.0803 133.466 15.6456C133.249 15.2109 132.814 14.7762 132.162 14.7762Z" fill="#686868"/>
<path d="M42.1746 22.5998V14.7748L38.6968 22.5998H32.8281L29.133 14.7748V22.5998H23.0469V5.21094H30.4371L35.8711 15.8616L41.3051 5.21094H48.2607V22.5998H42.1746Z" fill="#686868"/>
<path d="M2.60832 33.2588C0.652079 33.2588 0 33.0415 0 31.5199V27.8248C0 26.5207 0.652079 26.0859 2.60832 26.0859H8.25969V27.8248H3.26041C2.60832 27.8248 2.39096 28.0422 2.39096 28.2595V30.6505C2.39096 31.0852 2.60832 31.0852 3.26041 31.0852H5.65137V30.2158H3.26041V28.4769H8.25969V32.8241H2.60832V33.2588Z" fill="#686868"/>
<path d="M11.9531 33.2602V26.3047H14.5614V31.5213H18.2566V33.2602H11.9531Z" fill="#686868"/>
<path d="M24.124 33.2588C22.1677 33.2588 21.5156 33.0415 21.5156 31.5199V27.8248C21.5156 26.5207 22.1677 26.0859 24.124 26.0859H27.6017C29.558 26.0859 30.21 26.3033 30.21 27.8248V31.5199C30.21 32.8241 29.558 33.2588 27.6017 33.2588H24.124ZM27.6017 28.4769C27.6017 28.0422 27.3844 28.0422 26.7323 28.0422H24.776C24.1239 28.0422 23.9066 28.0422 23.9066 28.4769V30.8679C23.9066 31.3026 24.1239 31.3026 24.776 31.3026H26.7323C27.3844 31.3026 27.6017 31.0852 27.6017 30.8679V28.4769Z" fill="#686868"/>
<path d="M42.1659 31.7401C42.1659 33.0442 41.5139 33.479 39.5576 33.479H33.9062V26.5234H39.5576C41.5139 26.5234 42.1659 26.7408 42.1659 28.2623V29.1318C42.1659 29.3491 42.1659 29.5665 41.9486 29.7838C41.7312 30.0012 41.5139 30.0012 41.2965 30.2186C41.5139 30.2186 41.7312 30.4359 41.9486 30.6533C42.1659 30.8706 42.1659 31.088 42.1659 31.3054V31.7401ZM39.1229 28.9144C39.5576 28.9144 39.5576 28.9144 39.5576 28.4797V28.2623C39.5576 28.045 39.3403 27.8276 39.1229 27.8276H36.5146V28.697L39.1229 28.9144ZM36.2972 30.6533V31.5227H38.9055C39.3403 31.5227 39.3403 31.5227 39.3403 31.088V30.8706C39.3403 30.6533 39.1229 30.4359 38.9055 30.4359L36.2972 30.6533Z" fill="#686868"/>
<path d="M50.65 32.3922H48.0417L47.6069 33.479H44.7812L47.6069 26.5234H51.0847L53.9104 33.479H51.0847L50.65 32.3922ZM48.6937 30.6533H50.2153L49.5632 28.4797L48.6937 30.6533Z" fill="#686868"/>
<path d="M56.9531 33.2602V26.3047H59.5615V31.5213H63.2566V33.2602H56.9531Z" fill="#686868"/>
<path d="M72.375 33.2588V31.5199H77.809C78.0264 31.5199 78.2437 31.5199 78.2437 31.0852C78.2437 30.8679 78.2437 30.6505 77.809 30.6505H74.3312C73.0271 30.6505 72.375 29.9984 72.375 29.129V27.8248C72.375 26.738 72.8097 26.0859 74.766 26.0859H80.4173V27.8248H75.418C75.2007 27.8248 74.9833 28.0422 74.9833 28.2595C74.9833 28.4769 74.9833 28.6943 75.418 28.6943H78.8958C80.4173 28.6943 80.852 29.3463 80.852 30.4331V31.5199C80.852 32.6067 80.2 33.2588 78.6784 33.2588H72.375Z" fill="#686868"/>
<path d="M89.7764 33.2602V30.6519H86.7333V33.2602H84.125V26.3047H86.7333V28.913H89.7764V26.3047H92.3847V33.2602H89.7764Z" fill="#686868"/>
<path d="M96.0781 33.2602V26.3047H98.6865V33.2602H96.0781Z" fill="#686868"/>
<path d="M104.983 31.0866V33.2602H102.375V26.3047H108.026C109.983 26.3047 110.635 26.5221 110.635 28.0436V29.3477C110.635 30.6519 109.983 31.0866 108.026 31.0866H104.983ZM107.809 28.4783C107.809 28.2609 107.592 28.0436 107.374 28.0436H104.766V29.3477H107.374C107.809 29.3477 107.809 29.1304 107.809 28.913V28.4783Z" fill="#686868"/>
<path d="M116.499 31.0866V33.2602H113.891V26.3047H119.542C121.498 26.3047 122.15 26.5221 122.15 28.0436V29.3477C122.15 30.6519 121.498 31.0866 119.542 31.0866H116.499ZM119.542 28.4783C119.542 28.2609 119.325 28.0436 119.107 28.0436H116.499V29.3477H119.107C119.542 29.3477 119.542 29.1304 119.542 28.913V28.4783Z" fill="#686868"/>
<path d="M125.422 33.2602V26.3047H128.03V33.2602H125.422Z" fill="#686868"/>
<path d="M137.378 33.2602L134.335 29.9998V33.2602H131.727V26.3047H134.552L137.595 29.7825V26.3047H139.986V33.2602H137.378Z" fill="#686868"/>
<path d="M146.069 33.2588C144.113 33.2588 143.461 33.0415 143.461 31.5199V27.8248C143.461 26.5207 144.113 26.0859 146.069 26.0859H151.721V27.8248H146.721C146.069 27.8248 145.852 28.0422 145.852 28.2595V30.6505C145.852 31.0852 146.069 31.0852 146.721 31.0852H149.112V30.2158H146.721V28.4769H151.721V32.8241H146.069V33.2588Z" fill="#686868"/>
<path d="M148.244 13.9062H147.809H147.592C144.984 13.9062 142.375 14.5583 139.984 15.4278V15.6451V15.8625C140.202 16.0798 140.202 16.2972 140.419 16.5146C140.854 16.9493 141.071 17.1667 141.723 17.384C141.941 17.384 142.158 17.6014 142.158 17.6014C142.375 17.6014 142.81 17.8187 143.027 17.8187H143.462C143.897 17.8187 144.332 17.6014 144.766 17.6014C144.984 17.6014 144.984 17.384 145.201 17.384C145.636 16.7319 146.505 15.6451 147.375 14.7757C147.592 14.5583 147.592 14.5583 147.809 14.341C147.809 14.1236 148.027 14.1236 148.244 13.9062ZM141.071 15.8625C140.854 15.8625 140.854 15.8625 141.071 15.8625C140.854 15.6451 140.854 15.6451 140.854 15.6451V15.4278H141.071H141.289V15.6451C141.289 15.6451 141.289 15.8625 141.071 15.8625ZM141.941 15.6451C141.723 15.4278 141.723 15.4278 141.723 15.2104V14.9931C141.723 14.9931 141.941 14.993 141.941 14.7757C141.941 14.7757 142.158 14.7757 142.158 14.9931V15.2104C142.375 15.4278 142.158 15.4278 141.941 15.6451C142.158 15.6451 142.158 15.6451 141.941 15.6451ZM143.027 15.4278C142.81 15.4278 142.593 15.2104 142.593 15.2104V14.9931V14.7757C142.593 14.7757 142.81 14.7757 142.81 14.5583H143.027C143.027 14.5583 143.245 14.5583 143.245 14.7757V14.9931V15.2104C143.245 15.4278 143.245 15.4278 143.027 15.4278Z" fill="#686868"/>
<path d="M147.8 13.0391C146.061 13.0391 144.322 13.2564 142.801 13.6911C141.931 13.9085 140.193 14.5606 139.758 14.7779C139.758 14.7779 139.758 14.7779 139.758 14.9953V15.2127C142.149 14.1259 144.974 13.6911 147.583 13.4738H147.8C148.017 13.4738 148.452 13.4738 148.67 13.4738L148.887 13.2564L149.104 13.0391C148.67 13.0391 148.235 13.0391 147.8 13.0391Z" fill="#686868"/>
<path d="M141.065 11.9517C141.065 11.7344 141.065 11.7344 141.065 11.7344C141.065 11.7344 141.065 11.7344 140.847 11.7344C140.847 11.7344 140.847 11.7344 140.63 11.7344C140.63 11.7344 140.63 11.7344 140.413 11.7344C140.413 11.7344 140.413 11.7344 140.195 11.7344C140.195 11.7344 140.195 11.7344 140.195 11.9517C140.195 11.9517 140.195 11.9517 140.195 12.1691V12.8212L140.847 12.3865V11.9517H141.065Z" fill="#686868"/>
<path d="M139.989 13.9062L139.555 14.1236C139.555 14.341 139.555 14.5583 139.555 14.7757L139.772 14.5583V13.9062H139.989Z" fill="#686868"/>
<path d="M139.984 14.5634C140.419 14.346 140.636 14.346 141.071 14.1286V13.4766L139.984 13.9113V14.5634Z" fill="#686868"/>
<path d="M139.975 13.0391L139.758 13.2564C139.758 13.4738 139.758 13.6911 139.758 13.9085L140.193 13.6911V13.0391H139.975Z" fill="#686868"/>
<path d="M139.984 13.6806L141.071 13.2458V12.5938L139.984 13.0285V13.6806Z" fill="#686868"/>
<path d="M144.766 12.5938V12.8111L145.852 13.0285L144.766 12.5938Z" fill="#686868"/>
<path d="M142.812 11.7344L141.508 12.3865V13.0385L142.812 12.3865L143.681 12.6038V11.9517L142.812 11.7344Z" fill="#686868"/>
<path d="M143.68 12.8332L144.549 13.0505V12.8332L143.68 12.3984V12.8332Z" fill="#686868"/>
<path d="M142.811 12.8125L141.289 13.2472V13.8993C141.724 13.6819 142.159 13.6819 142.811 13.4646L143.68 13.2472V13.0299L142.811 12.8125Z" fill="#686868"/>
<path d="M143.68 13.4738L144.766 13.2564V13.0391H143.68V13.4738Z" fill="#686868"/>
<path d="M118.465 9.12914V4.12985C117.813 3.69513 116.509 2.82569 116.291 2.60833C116.074 2.39097 115.639 2.1736 115.422 1.73888V1.52152C115.422 1.52152 115.422 1.30416 115.639 1.30416C115.857 1.30416 115.857 1.0868 116.074 1.0868C116.291 1.0868 116.291 1.0868 116.509 1.0868C116.726 1.0868 116.726 1.0868 116.943 1.30416L119.334 2.39096L123.029 0H123.899L121.291 3.69513L122.812 4.56456L125.42 3.91248L123.464 5.86873L123.029 8.47706L122.16 5.86873L120.639 4.99929L119.117 9.34649L118.465 9.12914Z" fill="#686868"/>
<path d="M124.56 4.79252L122.821 5.22724L121.517 4.3578L120.865 3.92307L122.169 1.96684L123.256 0.445312H123.039L121.3 1.53211L119.344 2.83627L116.735 1.53211C116.518 1.53211 116.518 1.53211 116.301 1.31475C116.083 1.31475 115.866 1.31475 115.648 1.31475C115.648 1.53211 116.083 1.74948 116.301 1.96684C116.518 2.1842 118.474 3.48835 118.474 3.48835V4.3578V6.74876V8.48765L118.691 8.705L119.126 7.18348L119.996 4.57515L121.952 5.66196L122.604 7.40085L122.821 5.66196L123.039 5.4446L124.56 4.79252Z" fill="#686868"/>
<path d="M62.5925 11.9531H56.2891V16.083H62.5925V11.9531Z" fill="#686868"/>
<path d="M68.9034 9.77689V5.42969H48.9062V22.8185H68.9034V18.4713H55.6444V16.2977V12.1679V9.99425H68.9034V9.77689Z" fill="#686868"/>
<path d="M106.067 5.42969H92.1562V22.8185H98.6771V9.99425H104.981C106.067 9.99425 106.285 10.429 106.285 11.0811V11.7331C106.285 12.6026 106.067 13.0373 104.981 13.0373H99.5465V17.3845H106.285C111.284 17.3845 113.023 16.7324 113.023 13.2547V9.77689C112.805 6.08177 111.284 5.42969 106.067 5.42969Z" fill="#686868"/>
<path d="M22.6069 22.5998L15.6513 5.21094H7.17428L0.21875 22.5998H7.39164L8.26108 19.9914H13.9125L12.3909 15.6442H9.56524L11.3041 9.99286L13.2604 15.6442L14.5645 19.7741L14.9993 20.8609L15.434 22.3824H22.6069V22.5998Z" fill="#686868"/>
<path d="M80.6415 9.34078L77.3811 5.21094H69.7734L76.9463 13.9054L69.7734 22.5998H77.3811L80.6415 18.6873L84.5539 14.1227L80.6415 9.34078Z" fill="#686868"/>
<path d="M91.5178 5.42969L84.7797 13.6894L80.8672 9.12482L83.6929 5.64704H91.5178V5.42969Z" fill="#686868"/>
<path d="M91.5036 22.6126H83.896L81.0703 19.1349L84.9828 14.5703L91.5036 22.6126Z" fill="#686868"/>
<path d="M152.806 9.55987C152.371 8.69043 151.937 7.82099 151.284 6.95155L151.067 6.73418C150.85 6.51682 150.632 6.29946 150.415 6.0821C150.198 5.86474 150.198 5.86474 149.98 5.64738C149.763 5.43002 149.328 5.21266 149.111 4.9953C147.589 3.69114 145.633 3.03906 143.677 3.03906C142.373 3.03906 141.069 3.25642 139.764 3.9085H139.547C139.33 3.9085 139.33 4.12586 139.112 4.12586C138.895 4.34322 138.46 4.34322 138.46 4.56058C137.808 4.9953 137.156 5.43002 136.504 5.64738C135.852 6.0821 134.33 6.95155 134.33 6.95155C133.026 7.82099 131.505 8.25571 129.766 8.25571C127.592 8.25571 125.636 7.60363 124.114 6.29947C123.897 6.08211 123.68 6.0821 123.68 6.0821C123.68 6.0821 123.68 6.08211 123.68 6.29947C124.549 7.16891 125.419 7.82099 126.505 8.25571C127.592 8.69043 128.679 8.90779 129.983 8.90779H130.2H130.418C130.853 8.90779 131.07 8.90779 131.505 8.69043C131.939 8.69043 132.591 8.47307 133.026 8.25571C133.244 8.25571 133.678 8.03834 133.896 7.82098C134.548 7.60362 135.2 7.16891 135.635 6.95155C136.721 6.29947 138.025 5.43002 138.895 4.9953C140.634 4.12586 142.373 3.69114 144.329 3.9085H144.546H144.764H144.981C145.85 4.12586 146.503 4.34322 147.372 4.77794C148.024 4.9953 148.459 5.43002 148.893 5.64738C149.111 5.86474 149.546 6.08211 149.763 6.29947L149.98 6.51683C150.198 6.73419 150.415 6.95154 150.415 7.1689L150.632 7.38627C151.284 8.03835 151.719 8.90779 151.937 9.77723C153.023 12.1682 153.023 14.9939 151.937 17.6022C151.502 18.689 150.85 19.7758 149.98 20.8626C149.111 21.732 148.024 22.3841 146.937 23.0362C145.85 23.6883 144.546 23.9057 143.242 23.9057C141.938 23.9057 140.634 23.6883 139.547 23.0362C138.46 22.6015 137.373 21.732 136.504 20.8626C136.287 20.6452 136.069 20.4279 135.852 20.2105C136.287 20.8626 136.721 21.2973 137.156 21.7321C138.025 22.6015 138.895 23.2536 139.982 23.6883H140.199C140.851 23.9057 141.286 24.123 141.938 24.123C142.59 24.123 143.242 24.3404 143.677 24.3404C144.764 24.3404 145.85 24.123 146.937 23.6883H147.155C148.459 23.0362 149.546 22.3841 150.415 21.2973C152.371 19.3411 153.458 16.5154 153.458 13.6897C153.675 12.3856 153.458 11.0814 152.806 9.55987Z" fill="#686868"/>
</svg>
