<svg width="162" height="19" viewBox="0 0 162 19" fill="none" xmlns="http://www.w3.org/2000/svg">
<path d="M33.8976 4.62321V3.7426H35.2186C35.4388 3.7426 35.8791 3.7426 35.8791 3.52245C36.0992 3.3023 36.0992 3.08214 36.0992 2.64184C36.0992 2.42168 36.0992 2.20153 35.8791 1.98137C35.8791 1.76122 35.6589 1.76123 35.4387 1.54108C35.2186 1.54108 34.9985 1.32093 34.7783 1.32093H33.4573V0.440314H34.7783C35.2186 0.440314 35.6589 0.440311 35.8791 0.660463C36.3194 0.880615 36.5394 1.10077 36.7596 1.32093C36.9797 1.54108 36.9798 1.98138 36.9798 2.42169C36.9798 2.86199 36.9797 3.08214 36.7596 3.52245C36.5394 3.7426 36.3193 4.18289 36.0992 4.18289C35.879 4.40305 35.4387 4.40304 34.9984 4.40304H33.8976V4.62321ZM32.7969 0.440314H33.8976V6.82473H32.7969V0.440314ZM38.741 4.40304C38.741 3.96274 38.741 3.52244 38.9611 3.08213C39.1813 2.86198 39.4015 2.42169 39.6217 2.42169C39.8418 2.20154 40.282 2.20152 40.5022 2.20152V3.08213C40.282 3.08213 40.062 3.08213 39.6217 3.30228C39.4015 3.30228 39.1813 3.52244 38.9611 3.7426C38.741 3.96275 38.741 4.18289 38.741 4.40304ZM38.0806 2.20152H39.1813V6.82473H38.0806V2.20152ZM43.5844 7.04488C43.1441 7.04488 42.7038 7.04488 42.4836 6.82473C42.0433 6.60458 41.8231 6.38442 41.603 5.94412C41.3828 5.50381 41.3829 5.06351 41.3829 4.62321C41.3829 4.18291 41.3828 3.74259 41.603 3.30228C41.8231 2.86198 42.0433 2.64184 42.4836 2.42169C42.9239 2.20154 43.144 2.20152 43.8045 2.20152C44.2448 2.20152 44.6851 2.20154 44.9052 2.42169C45.3455 2.64184 45.5658 2.86198 45.7859 3.30228C46.0061 3.74259 46.006 4.18291 46.006 4.62321H44.9052C44.9052 4.18291 44.9053 3.96275 44.6851 3.7426C44.6851 3.52244 44.465 3.30229 44.2448 3.08213C44.0247 2.86198 43.8045 2.86199 43.5844 2.86199C43.3642 2.86199 43.1441 2.86198 42.924 3.08213C42.7038 3.30229 42.4836 3.3023 42.4836 3.52245C42.4836 3.7426 42.2634 3.96274 42.2634 4.40304C42.2634 4.6232 42.2635 5.0635 42.4836 5.28366C42.7038 5.50381 42.7038 5.72397 42.924 5.72397C43.1441 5.94412 43.3642 5.94412 43.5844 5.94412C43.8045 5.94412 44.0247 5.94412 44.2448 5.72397C44.465 5.50382 44.465 5.50381 44.6851 5.28366L45.5657 5.72397C45.3455 5.94412 45.3456 6.16426 45.1255 6.38442C44.9053 6.60457 44.6851 6.60458 44.4649 6.82473C44.2448 7.04488 43.8045 7.04488 43.5844 7.04488ZM41.8232 3.96275H45.1255V4.84336H41.8232V3.96275ZM46.4463 6.82473V2.20152H47.327V3.08213V6.82473H46.4463ZM49.7486 6.82473V4.40304L50.8494 4.18289V6.82473H49.7486ZM52.8308 6.82473V4.40304L53.9316 4.18289V6.82473H52.8308ZM49.7486 4.62321C49.7486 4.18291 49.7487 3.96275 49.5285 3.7426C49.5285 3.52244 49.3083 3.30228 49.0882 3.30228C48.868 3.30228 48.868 3.08213 48.6479 3.08213C48.2076 3.08213 47.9873 3.08214 47.7672 3.52245C47.547 3.7426 47.5471 4.18291 47.5471 4.62321H47.1068C47.1068 4.18291 47.1068 3.74259 47.327 3.30228C47.5472 2.86198 47.7673 2.64184 47.9874 2.42169C48.2076 2.20154 48.6478 2.20152 48.868 2.20152C49.5284 2.20152 49.7486 2.42168 50.189 2.64184C50.4091 3.08214 50.6293 3.52244 50.6293 4.18289L49.7486 4.62321ZM52.8308 4.62321C52.8308 4.18291 52.8307 3.96275 52.6106 3.7426C52.6106 3.52244 52.3904 3.30228 52.1702 3.30228C51.9501 3.30228 51.9502 3.08213 51.73 3.08213C51.2897 3.08213 51.0695 3.08214 50.8494 3.52245C50.6292 3.7426 50.6293 4.18291 50.6293 4.62321H50.189C50.189 4.18291 50.1889 3.74259 50.409 3.30228C50.6292 2.86198 50.8493 2.64184 51.0695 2.42169C51.2896 2.20154 51.73 2.20152 51.9501 2.20152C52.6106 2.20152 53.0508 2.42168 53.271 2.64184C53.4912 3.08214 53.7113 3.52244 53.7113 4.18289L52.8308 4.62321ZM55.0323 6.82473V2.20152H56.1331V6.82473H55.0323ZM55.4725 1.32093C55.2524 1.32093 55.2525 1.32091 55.0323 1.10076C54.8122 0.880609 54.8121 0.880615 54.8121 0.660463C54.8121 0.440311 54.8122 0.440318 55.0323 0.220166C55.2525 1.34337e-05 55.2524 0 55.4725 0C55.6927 0 55.6927 1.34337e-05 55.9129 0.220166C56.133 0.440318 56.1331 0.440311 56.1331 0.660463C56.1331 0.880615 56.133 0.880609 55.9129 1.10076C55.6927 1.32091 55.6927 1.32093 55.4725 1.32093ZM59.2151 7.04488C58.7748 7.04488 58.3345 7.04488 58.1144 6.82473C57.6741 6.60458 57.454 6.38442 57.2338 5.94412C57.0137 5.50381 57.0136 5.06351 57.0136 4.62321C57.0136 4.18291 57.0137 3.74259 57.2338 3.30228C57.454 2.86198 57.6741 2.64184 58.1144 2.42169C58.5547 2.20154 58.7749 2.20152 59.4354 2.20152C59.8757 2.20152 60.316 2.20154 60.5361 2.42169C60.9764 2.64184 61.1965 2.86198 61.4167 3.30228C61.6368 3.74259 61.6369 4.18291 61.6369 4.62321H60.5361C60.5361 4.18291 60.5361 3.96275 60.3159 3.7426C60.3159 3.52244 60.0957 3.30229 59.8756 3.08213C59.6554 2.86198 59.4353 2.86199 59.2151 2.86199C58.995 2.86199 58.7749 2.86198 58.5547 3.08213C58.3346 3.30229 58.1144 3.3023 58.1144 3.52245C58.1144 3.7426 57.8943 3.96274 57.8943 4.40304C57.8943 4.6232 57.8942 5.0635 58.1144 5.28366C58.3345 5.50381 58.3346 5.72397 58.5547 5.72397C58.7749 5.94412 58.995 5.94412 59.2151 5.94412C59.4353 5.94412 59.6554 5.94412 59.8756 5.72397C60.0957 5.50382 60.0957 5.50381 60.3159 5.28366L61.1966 5.72397C60.9764 5.94412 60.9764 6.16426 60.7562 6.38442C60.5361 6.60457 60.316 6.60458 60.0958 6.82473C59.8756 7.04488 59.6554 7.04488 59.2151 7.04488ZM57.674 3.96275H60.9763V4.84336H57.674V3.96275ZM62.9578 4.40304C62.9578 3.96274 62.9577 3.52244 63.1779 3.08213C63.398 2.86198 63.6183 2.42169 63.8384 2.42169C64.0586 2.20154 64.4988 2.20152 64.7189 2.20152V3.08213C64.4988 3.08213 64.2787 3.08213 63.8384 3.30228C63.6183 3.30228 63.398 3.52244 63.1779 3.7426C62.9577 3.96275 62.9578 4.18289 62.9578 4.40304ZM62.2973 2.20152H63.3981V6.82473H62.2973V2.20152ZM72.4243 6.82473L70.0026 0.440314H71.1034L73.7453 6.82473H72.4243ZM67.3608 6.82473L70.0026 0.440314H71.1034L68.6817 6.82473H67.3608ZM68.4616 4.40304H72.4243V5.28366H68.4616V4.40304ZM77.2676 6.82473V5.94412V2.20152H78.3684V6.82473H77.2676ZM74.1855 4.84336V2.20152H75.2862V4.62321L74.1855 4.84336ZM75.2862 4.62321C75.2862 5.06351 75.2863 5.28365 75.5065 5.5038C75.5065 5.72396 75.7266 5.94412 75.9468 5.94412C76.1669 5.94412 76.1668 6.16427 76.387 6.16427C76.8273 6.16427 77.0475 6.16427 77.2676 5.72397C77.4878 5.50382 77.4877 5.06351 77.4877 4.62321H77.9281C77.9281 5.06351 77.9281 5.50381 77.708 5.94412C77.4878 6.38442 77.2677 6.60458 77.0475 6.82473C76.8274 7.04488 76.387 7.04488 76.1669 7.04488C75.5064 7.04488 75.0662 6.82472 74.846 6.60457C74.6259 6.16426 74.4057 5.72396 74.4057 5.06351L75.2862 4.62321ZM82.7715 6.82473V5.94412V0.440314H83.8722V6.82473H82.7715ZM81.2304 7.04488C80.7901 7.04488 80.3497 7.04488 80.1296 6.82473C79.9094 6.60458 79.6893 6.38442 79.4692 5.94412C79.249 5.50381 79.2491 5.06351 79.2491 4.62321C79.2491 4.18291 79.249 3.74259 79.4692 3.30228C79.6893 2.86198 79.9094 2.64184 80.1296 2.42169C80.3497 2.20154 80.7901 2.20152 81.2304 2.20152C81.6707 2.20152 81.8908 2.20154 82.3311 2.42169C82.5513 2.64184 82.7714 2.86198 82.9915 3.30228C83.2117 3.74259 83.2118 4.18291 83.2118 4.62321C83.2118 5.06351 83.2117 5.50381 82.9915 5.94412C82.7714 6.38442 82.5513 6.60458 82.3311 6.82473C81.8908 6.82473 81.6707 7.04488 81.2304 7.04488ZM81.4506 5.94412C81.6707 5.94412 81.8909 5.94412 82.111 5.72397C82.3312 5.50382 82.3312 5.50381 82.5513 5.28366C82.5513 5.0635 82.7715 4.84336 82.7715 4.62321C82.7715 4.40306 82.7715 4.1829 82.5513 3.96275C82.5513 3.74259 82.3312 3.52245 82.111 3.52245C81.8909 3.3023 81.6707 3.30228 81.4506 3.30228C81.2304 3.30228 81.0102 3.3023 80.79 3.52245C80.5699 3.7426 80.3498 3.74259 80.3498 3.96275C80.3498 4.1829 80.1296 4.40306 80.1296 4.62321C80.1296 4.84336 80.1297 5.0635 80.3498 5.28366C80.3498 5.50381 80.5699 5.72397 80.79 5.72397C81.0102 5.94412 81.2304 5.94412 81.4506 5.94412ZM84.973 6.82473V2.20152H86.0737V6.82473H84.973ZM85.4133 1.32093C85.1931 1.32093 85.1931 1.32091 84.973 1.10076C84.7528 0.880609 84.7529 0.880615 84.7529 0.660463C84.7529 0.440311 84.7528 0.440318 84.973 0.220166C85.1931 1.34337e-05 85.1931 0 85.4133 0C85.6335 0 85.6335 1.34337e-05 85.8536 0.220166C86.0738 0.440318 86.0737 0.440311 86.0737 0.660463C86.0737 0.880615 86.0738 0.880609 85.8536 1.10076C85.8536 1.32091 85.6335 1.32093 85.4133 1.32093ZM88.9357 7.04488C88.4954 7.04488 88.0551 6.82472 87.8349 6.60457C87.6148 6.38441 87.3946 5.94411 87.3946 5.5038V0.660463H88.4953V5.28366C88.4953 5.50381 88.4954 5.72397 88.7156 5.72397C88.7156 5.94412 88.9358 5.94412 89.1559 5.94412H89.376C89.376 5.94412 89.5961 5.94412 89.5961 5.72397L90.0364 6.60457C89.8163 6.82472 89.8163 6.82473 89.5961 6.82473C89.376 7.04488 89.1558 7.04488 88.9357 7.04488ZM86.7342 2.20152H89.8163V3.08213H86.7342V2.20152ZM90.9171 6.82473V2.20152H92.0179V6.82473H90.9171ZM91.3574 1.32093C91.1373 1.32093 91.1373 1.32091 90.9171 1.10076C90.697 0.880609 90.6969 0.880615 90.6969 0.660463C90.6969 0.440311 90.697 0.440318 90.9171 0.220166C91.1373 1.34337e-05 91.1373 0 91.3574 0C91.5776 0 91.5775 1.34337e-05 91.7976 0.220166C92.0178 0.440318 92.0179 0.440311 92.0179 0.660463C92.0179 0.880615 92.0178 0.880609 91.7976 1.10076C91.7976 1.32091 91.5776 1.32093 91.3574 1.32093ZM93.1186 6.82473V2.20152H93.9992V3.08213V6.82473H93.1186ZM96.2007 6.82473V4.40304L97.3014 4.18289V6.82473H96.2007ZM96.2007 4.62321C96.2007 4.18291 96.2007 3.96275 95.9806 3.7426C95.9806 3.52244 95.7604 3.30228 95.5402 3.30228C95.3201 3.30228 95.3201 3.08213 95.0999 3.08213C94.6596 3.08213 94.4395 3.08214 94.2194 3.52245C93.9992 3.7426 93.9992 4.18291 93.9992 4.62321H93.7791C93.7791 4.18291 93.779 3.74259 93.9992 3.30228C94.2193 2.86198 94.4396 2.64184 94.6597 2.42169C94.8799 2.20154 95.3201 2.20152 95.5402 2.20152C96.2007 2.20152 96.4209 2.42168 96.8612 2.64184C97.0814 3.08214 97.3014 3.52244 97.3014 4.18289L96.2007 4.62321ZM100.384 8.80609C100.163 8.80609 99.7231 8.80609 99.503 8.80609C99.2828 8.80609 99.0627 8.58594 98.8425 8.58594C98.6224 8.58594 98.6224 8.36579 98.4022 8.36579L98.8425 7.48518C98.8425 7.48518 99.0627 7.48517 99.2829 7.70533C99.503 7.70533 99.503 7.92549 99.7232 7.92549C99.9433 7.92549 100.163 7.92549 100.384 7.92549C100.604 7.92549 100.824 7.92548 101.044 7.70533C101.264 7.70533 101.484 7.48518 101.484 7.26503C101.705 7.04488 101.704 6.82472 101.704 6.38442V2.20152H102.805V6.38442C102.805 6.82472 102.805 7.26502 102.585 7.70533C102.365 8.14563 102.145 8.36579 101.704 8.58594C101.264 8.80609 100.824 8.80609 100.384 8.80609ZM100.164 6.82473C99.7232 6.82473 99.2829 6.82472 99.0628 6.60457C98.8426 6.38441 98.6224 6.16427 98.4022 5.72397C98.182 5.28367 98.1821 5.06351 98.1821 4.62321C98.1821 4.18291 98.182 3.74259 98.4022 3.30228C98.6224 2.86198 98.8426 2.64184 99.0628 2.42169C99.2829 2.20154 99.7232 2.20152 100.164 2.20152C100.604 2.20152 100.824 2.20154 101.044 2.42169C101.264 2.64184 101.484 2.86198 101.704 3.30228C101.925 3.74259 101.925 3.96275 101.925 4.62321C101.925 5.06351 101.925 5.50382 101.704 5.72397C101.484 6.16427 101.264 6.38441 101.044 6.60457C100.824 6.60457 100.604 6.82473 100.164 6.82473ZM100.384 5.94412C100.604 5.94412 100.824 5.94412 101.044 5.72397C101.264 5.50382 101.264 5.50381 101.484 5.28366C101.484 5.0635 101.704 4.84336 101.704 4.62321C101.704 4.40306 101.705 4.1829 101.484 3.96275C101.484 3.74259 101.264 3.52245 101.044 3.52245C100.824 3.3023 100.604 3.30228 100.384 3.30228C100.163 3.30228 99.9433 3.3023 99.7232 3.52245C99.503 3.7426 99.2829 3.74259 99.2829 3.96275C99.2829 4.1829 99.0628 4.40306 99.0628 4.62321C99.0628 4.84336 99.0627 5.0635 99.2829 5.28366C99.503 5.50381 99.503 5.72397 99.7232 5.72397C99.9433 5.94412 100.163 5.94412 100.384 5.94412ZM107.869 7.04488C107.429 7.04488 107.208 7.04488 106.768 6.82473C106.548 6.60458 106.328 6.38442 106.108 6.16427C105.887 5.94412 105.887 5.50381 105.887 5.28366C105.887 5.0635 105.887 4.84336 106.108 4.62321C106.108 4.40306 106.328 4.1829 106.548 3.96275C106.768 3.74259 106.988 3.7426 106.988 3.52245L108.089 2.86199C108.309 2.86199 108.309 2.64184 108.529 2.64184C108.749 2.64184 108.749 2.42167 108.97 2.20152C108.97 1.98137 109.19 1.98138 109.19 1.76122C109.19 1.54107 109.19 1.32093 108.97 1.32093C108.749 1.10077 108.749 1.10076 108.529 1.10076C108.309 1.10076 108.089 1.10077 108.089 1.32093C107.869 1.54108 107.869 1.54107 107.869 1.76122C107.869 1.98138 107.869 1.98137 108.089 2.20152C108.089 2.42167 108.309 2.42168 108.529 2.64184L109.63 3.96275L111.832 6.82473H110.511L108.749 4.62321L107.429 3.08213C107.208 2.86198 107.208 2.64184 106.988 2.64184C106.988 2.42168 106.768 2.42167 106.768 2.20152C106.768 1.98137 106.768 1.98138 106.768 1.76122C106.768 1.54107 106.768 1.32091 106.988 1.10076C107.208 0.880609 107.428 0.660463 107.649 0.660463C107.869 0.440311 108.089 0.440314 108.529 0.440314C108.97 0.440314 109.19 0.440311 109.41 0.660463C109.63 0.880615 109.85 0.880609 110.07 1.10076C110.291 1.32091 110.29 1.54107 110.29 1.98137C110.29 2.20153 110.291 2.42168 110.07 2.64184C109.85 2.86199 109.85 3.08213 109.41 3.30228C109.19 3.52243 108.97 3.74259 108.529 3.96275L107.869 4.40304C107.649 4.40304 107.649 4.62321 107.649 4.62321C107.649 4.62321 107.429 4.84335 107.429 5.06351C107.429 5.28366 107.429 5.28365 107.429 5.5038C107.429 5.72396 107.428 5.94412 107.649 6.16427C107.869 6.38442 108.089 6.38442 108.309 6.38442C108.529 6.38442 108.97 6.38442 109.19 6.16427C109.41 6.16427 109.63 5.94412 109.85 5.72397C110.07 5.50382 110.29 5.28366 110.29 5.06351C110.511 4.84335 110.511 4.6232 110.511 4.18289H111.391C111.391 4.84335 111.171 5.28367 110.951 5.72397C110.731 6.16427 110.29 6.60458 109.85 6.82473C108.97 6.82473 108.309 7.04488 107.869 7.04488ZM118.876 6.82473L116.455 0.440314H117.555L120.197 6.82473H118.876ZM113.593 6.82473L116.235 0.440314H117.335L114.914 6.82473H113.593ZM114.914 4.40304H118.876V5.28366H114.914V4.40304ZM122.619 7.04488C122.179 7.04488 121.738 7.04488 121.298 6.82473C120.858 6.60458 120.638 6.38442 120.417 5.94412C120.197 5.50381 120.197 5.06351 120.197 4.62321C120.197 4.18291 120.197 3.74259 120.417 3.30228C120.638 2.86198 120.858 2.64184 121.298 2.42169C121.738 2.20154 122.179 2.20152 122.619 2.20152C123.059 2.20152 123.5 2.42168 123.94 2.64184C124.38 2.86199 124.6 3.08214 124.82 3.52245L123.94 3.96275C123.94 3.74259 123.72 3.52245 123.5 3.52245C123.279 3.3023 123.059 3.30228 122.839 3.30228C122.619 3.30228 122.399 3.3023 122.179 3.52245C121.959 3.7426 121.738 3.74259 121.738 3.96275C121.518 4.1829 121.518 4.40306 121.518 4.62321C121.518 4.84336 121.518 5.0635 121.738 5.28366C121.959 5.50381 121.959 5.72397 122.179 5.72397C122.399 5.94412 122.619 5.94412 122.839 5.94412C123.059 5.94412 123.279 5.94412 123.5 5.72397C123.72 5.50382 123.94 5.50381 123.94 5.28366L124.82 5.72397C124.6 6.16427 124.38 6.38441 123.94 6.60457C123.5 6.82472 123.059 7.04488 122.619 7.04488ZM127.683 7.04488C127.242 7.04488 126.802 7.04488 126.362 6.82473C125.921 6.60458 125.701 6.38442 125.481 5.94412C125.261 5.50381 125.261 5.06351 125.261 4.62321C125.261 4.18291 125.261 3.74259 125.481 3.30228C125.701 2.86198 125.921 2.64184 126.362 2.42169C126.802 2.20154 127.242 2.20152 127.683 2.20152C128.123 2.20152 128.563 2.42168 129.003 2.64184C129.444 2.86199 129.664 3.08214 129.884 3.52245L129.003 3.96275C129.003 3.74259 128.783 3.52245 128.563 3.52245C128.343 3.3023 128.123 3.30228 127.903 3.30228C127.682 3.30228 127.462 3.3023 127.242 3.52245C127.022 3.7426 126.802 3.74259 126.802 3.96275C126.582 4.1829 126.582 4.40306 126.582 4.62321C126.582 4.84336 126.582 5.0635 126.802 5.28366C127.022 5.50381 127.022 5.72397 127.242 5.72397C127.462 5.94412 127.682 5.94412 127.903 5.94412C128.123 5.94412 128.343 5.94412 128.563 5.72397C128.783 5.50382 129.003 5.50381 129.003 5.28366L129.884 5.72397C129.664 6.16427 129.444 6.38441 129.003 6.60457C128.563 6.82472 128.123 7.04488 127.683 7.04488ZM132.746 7.04488C132.306 7.04488 131.865 7.04488 131.425 6.82473C130.985 6.60458 130.765 6.38442 130.545 5.94412C130.324 5.50381 130.324 5.06351 130.324 4.62321C130.324 4.18291 130.324 3.74259 130.545 3.30228C130.765 2.86198 130.985 2.64184 131.425 2.42169C131.865 2.20154 132.086 2.20152 132.746 2.20152C133.406 2.20152 133.627 2.20154 134.067 2.42169C134.507 2.64184 134.727 2.86198 134.948 3.30228C135.168 3.74259 135.168 4.18291 135.168 4.62321C135.168 5.06351 135.168 5.50381 134.948 5.94412C134.727 6.38442 134.507 6.60458 134.067 6.82473C133.627 6.82473 133.186 7.04488 132.746 7.04488ZM132.746 5.94412C132.966 5.94412 133.186 5.94412 133.406 5.72397C133.627 5.50382 133.847 5.50381 133.847 5.28366C134.067 5.0635 134.067 4.84336 134.067 4.62321C134.067 4.40306 134.067 4.1829 133.847 3.96275C133.847 3.74259 133.627 3.52245 133.406 3.52245C133.186 3.3023 132.966 3.30228 132.746 3.30228C132.526 3.30228 132.306 3.3023 132.086 3.52245C131.865 3.7426 131.645 3.74259 131.645 3.96275C131.425 4.1829 131.425 4.40306 131.425 4.62321C131.425 4.84336 131.425 5.0635 131.645 5.28366C131.865 5.50381 131.865 5.72397 132.086 5.72397C132.086 5.94412 132.306 5.94412 132.746 5.94412ZM138.91 6.82473V5.94412V2.20152H140.011V6.82473H138.91ZM135.828 4.84336V2.20152H136.929V4.62321L135.828 4.84336ZM136.929 4.62321C136.929 5.06351 136.929 5.28365 137.149 5.5038C137.149 5.72396 137.369 5.94412 137.589 5.94412C137.81 5.94412 137.809 6.16427 138.03 6.16427C138.47 6.16427 138.69 6.16427 138.91 5.72397C139.13 5.50382 139.13 5.06351 139.13 4.62321H139.571C139.571 5.06351 139.571 5.50381 139.351 5.94412C139.13 6.38442 138.91 6.60458 138.69 6.82473C138.47 7.04488 138.03 7.04488 137.809 7.04488C137.149 7.04488 136.709 6.82472 136.489 6.60457C136.268 6.16426 136.048 5.72396 136.048 5.06351L136.929 4.62321ZM141.112 6.82473V2.20152H141.992V3.08213V6.82473H141.112ZM144.194 6.82473V4.40304L145.295 4.18289V6.82473H144.194ZM144.194 4.62321C144.194 4.18291 144.194 3.96275 143.974 3.7426C143.974 3.52244 143.754 3.30228 143.533 3.30228C143.313 3.30228 143.313 3.08213 143.093 3.08213C142.653 3.08213 142.433 3.08214 142.213 3.52245C141.992 3.7426 141.992 4.18291 141.992 4.62321H141.552C141.552 4.18291 141.552 3.74259 141.772 3.30228C141.992 2.86198 142.212 2.64184 142.433 2.42169C142.653 2.20154 143.093 2.20152 143.313 2.20152C143.974 2.20152 144.194 2.42168 144.634 2.64184C144.854 3.08214 145.074 3.52244 145.074 4.18289L144.194 4.62321ZM148.157 7.04488C147.716 7.04488 147.276 6.82472 147.056 6.60457C146.836 6.38441 146.616 5.94411 146.616 5.5038V0.660463H147.716V5.28366C147.716 5.50381 147.716 5.72397 147.936 5.72397C147.936 5.94412 148.157 5.94412 148.377 5.94412H148.597C148.597 5.94412 148.817 5.94412 148.817 5.72397L149.257 6.60457C149.037 6.82472 149.037 6.82473 148.817 6.82473C148.377 7.04488 148.377 7.04488 148.157 7.04488ZM145.955 2.20152H149.037V3.08213H145.955V2.20152ZM149.918 6.82473V2.20152H151.019V6.82473H149.918ZM150.578 1.32093C150.358 1.32093 150.358 1.32091 150.138 1.10076C149.918 0.880609 149.918 0.880615 149.918 0.660463C149.918 0.440311 149.918 0.440318 150.138 0.220166C150.358 1.34337e-05 150.358 0 150.578 0C150.798 0 150.798 1.34337e-05 151.019 0.220166C151.239 0.440318 151.239 0.440311 151.239 0.660463C151.239 0.880615 151.239 0.880609 151.019 1.10076C150.798 1.32091 150.578 1.32093 150.578 1.32093ZM152.119 6.82473V2.20152H153V3.08213V6.82473H152.119ZM155.422 6.82473V4.40304L156.522 4.18289V6.82473H155.422ZM155.422 4.62321C155.422 4.18291 155.422 3.96275 155.202 3.7426C155.202 3.52244 154.981 3.30228 154.761 3.30228C154.541 3.30228 154.541 3.08213 154.321 3.08213C153.881 3.08213 153.66 3.08214 153.44 3.52245C153.22 3.7426 153.22 4.18291 153.22 4.62321H152.78C152.78 4.18291 152.78 3.74259 153 3.30228C153.22 2.86198 153.44 2.64184 153.66 2.42169C153.881 2.20154 154.321 2.20152 154.541 2.20152C155.201 2.20152 155.422 2.42168 155.862 2.64184C156.082 3.08214 156.302 3.52244 156.302 4.18289L155.422 4.62321ZM159.384 8.80609C159.164 8.80609 158.724 8.80609 158.504 8.80609C158.284 8.80609 158.063 8.58594 157.843 8.58594C157.623 8.58594 157.623 8.36579 157.403 8.36579L157.843 7.48518C157.843 7.48518 158.063 7.48517 158.284 7.70533C158.504 7.70533 158.504 7.92549 158.724 7.92549C158.944 7.92549 159.164 7.92549 159.384 7.92549C159.605 7.92549 159.825 7.92548 160.045 7.70533C160.265 7.70533 160.485 7.48518 160.485 7.26503C160.705 7.04488 160.705 6.82472 160.705 6.38442V2.20152H161.806V6.38442C161.806 6.82472 161.806 7.26502 161.586 7.70533C161.366 8.14563 161.146 8.36579 160.705 8.58594C160.265 8.80609 159.825 8.80609 159.384 8.80609ZM159.164 6.82473C158.724 6.82473 158.284 6.82472 158.064 6.60457C157.843 6.38441 157.623 6.16427 157.403 5.72397C157.183 5.28367 157.183 5.06351 157.183 4.62321C157.183 4.18291 157.183 3.74259 157.403 3.30228C157.623 2.86198 157.843 2.64184 158.064 2.42169C158.284 2.20154 158.724 2.20152 159.164 2.20152C159.605 2.20152 159.825 2.20154 160.045 2.42169C160.265 2.64184 160.485 2.86198 160.705 3.30228C160.926 3.74259 160.925 3.96275 160.925 4.62321C160.925 5.06351 160.926 5.50382 160.705 5.72397C160.485 6.16427 160.265 6.38441 160.045 6.60457C159.825 6.60457 159.605 6.82473 159.164 6.82473ZM159.605 5.94412C159.825 5.94412 160.045 5.94412 160.265 5.72397C160.485 5.50382 160.485 5.50381 160.705 5.28366C160.705 5.0635 160.925 4.84336 160.925 4.62321C160.925 4.40306 160.926 4.1829 160.705 3.96275C160.705 3.74259 160.485 3.52245 160.265 3.52245C160.045 3.3023 159.825 3.30228 159.605 3.30228C159.384 3.30228 159.164 3.3023 158.944 3.52245C158.724 3.7426 158.504 3.74259 158.504 3.96275C158.504 4.1829 158.284 4.40306 158.284 4.62321C158.284 4.84336 158.284 5.0635 158.504 5.28366C158.504 5.50381 158.724 5.72397 158.944 5.72397C158.944 5.94412 159.164 5.94412 159.605 5.94412Z" fill="#686868"/>
<g opacity="0.7">
<mask id="mask0_1_3757" style="mask-type:luminance" maskUnits="userSpaceOnUse" x="52" y="11" width="90" height="7">
<path d="M141.998 11.6562H52.8359V17.1601H141.998V11.6562Z" fill="white"/>
</mask>
<g mask="url(#mask0_1_3757)">
<path d="M55.4777 17.3802C55.0374 17.3802 54.5971 17.1601 54.1568 16.9399C53.7165 16.7198 53.4963 16.2794 53.2761 16.0593C53.056 15.619 52.8359 15.1787 52.8359 14.5182C52.8359 14.0779 53.056 13.4175 53.2761 12.9772C53.4963 12.5369 53.7165 12.3167 54.1568 12.0965C54.5971 11.8764 55.0374 11.6562 55.4777 11.6562C55.918 11.6562 56.1382 11.6562 56.3583 11.8764C56.5785 12.0966 57.0188 12.0966 57.239 12.3167C57.4591 12.5369 57.6793 12.757 57.8994 12.9772L57.0187 13.1973C57.0187 12.9772 56.7986 12.757 56.5784 12.757C56.3583 12.5369 56.1382 12.5369 56.1382 12.3167C55.9181 12.3167 55.6978 12.0965 55.4777 12.0965C55.0374 12.0965 54.8173 12.0966 54.5971 12.3167C54.377 12.5369 54.1569 12.757 53.9367 12.9772C53.7165 13.1973 53.7165 13.6376 53.7165 14.0779C53.7165 14.5182 53.7165 14.7384 53.9367 15.1787C54.1569 15.3988 54.377 15.619 54.5971 15.8391C54.8173 16.0593 55.2575 16.0593 55.4777 16.0593C55.6978 16.0593 55.9181 16.0593 56.1382 15.8391C56.3584 15.8391 56.5784 15.619 56.5784 15.3988C56.7986 15.1787 56.7986 14.9585 57.0187 14.7384L57.8994 15.1787C57.6793 15.3988 57.6792 15.8391 57.4591 16.0593C57.2389 16.2794 57.0187 16.4996 56.5784 16.4996C56.1381 17.16 55.6978 17.3802 55.4777 17.3802ZM58.7799 17.1601V11.6562H59.6606V17.1601H58.7799ZM61.4218 17.1601V15.1787L62.3025 14.9585V17.1601H61.4218ZM61.4218 15.1787C61.4218 14.9585 61.4218 14.7384 61.4218 14.5182C61.4218 14.2981 61.2017 14.2981 61.2017 14.0779C60.9815 14.0779 60.9815 14.0779 60.7614 14.0779C60.5412 14.0779 60.3211 14.0779 60.1009 14.2981C59.8808 14.5182 59.8807 14.7384 59.8807 15.1787H59.4405C59.4405 14.7384 59.4404 14.5182 59.6606 14.0779C59.8808 13.8578 59.8808 13.6376 60.1009 13.4175C60.3211 13.1973 60.5412 13.1973 60.9815 13.1973C61.4218 13.1973 61.8621 13.4175 62.0822 13.6376C62.3024 13.8578 62.5226 14.2981 62.5226 14.9585L61.4218 15.1787ZM65.8248 17.1601V16.4996V15.1787C65.8248 14.9585 65.8248 14.7384 65.8248 14.5182C65.8248 14.2981 65.6047 14.2981 65.6047 14.0779C65.3846 14.0779 65.3846 13.8578 65.1644 13.8578C64.9443 13.8578 64.7241 13.8578 64.7241 14.0779C64.5039 14.0779 64.5039 14.2981 64.2837 14.5182L63.4032 14.2981C63.4032 14.0779 63.6234 14.0779 63.8435 13.8578C64.0637 13.6376 64.0636 13.6376 64.2837 13.4175C64.5039 13.4175 64.7242 13.1973 64.9443 13.1973C65.3846 13.1973 65.6047 13.1973 65.8248 13.4175C66.045 13.6376 66.2651 13.8578 66.4853 14.0779C66.7054 14.2981 66.7055 14.7384 66.7055 15.1787V17.3802H65.8248V17.1601ZM64.7241 17.3802C64.2838 17.3802 63.8435 17.3802 63.6233 17.1601C63.4032 16.9399 63.183 16.7197 63.183 16.2794C63.183 15.8391 63.4032 15.619 63.6233 15.3988C63.8435 15.1787 64.2838 15.1787 64.7241 15.1787H65.8248V15.8391H65.1644C64.7241 15.8391 64.504 15.8391 64.504 16.0593C64.2838 16.0593 64.2837 16.2794 64.2837 16.4996C64.2837 16.7197 64.2838 16.7198 64.504 16.9399C64.7241 16.9399 64.7242 17.1601 64.9443 17.1601C65.1645 17.1601 65.3845 17.1601 65.3845 16.9399C65.6047 16.9399 65.6047 16.7197 65.8248 16.4996C65.8248 16.2794 66.0451 16.2794 66.0451 16.0593H66.2652C66.2652 16.4996 66.045 16.9399 65.8248 17.3802C65.6047 17.1601 65.3845 17.3802 64.7241 17.3802ZM68.4667 15.1787C68.4667 14.7384 68.4666 14.5182 68.6868 14.0779C68.9069 13.8578 69.1272 13.6376 69.3474 13.4175C69.5675 13.1973 69.7876 13.1973 70.2279 13.1973V14.0779C70.0077 14.0779 69.7876 14.0779 69.5674 14.0779C69.3473 14.0779 69.1271 14.2981 69.1271 14.2981C68.907 14.5182 68.907 14.7384 68.907 14.9585L68.4667 15.1787ZM68.0264 13.4175H68.907V17.1601H68.0264V13.4175ZM72.6496 17.3802C72.2093 17.3802 71.9891 17.3802 71.769 17.1601C71.5488 16.9399 71.5489 16.7197 71.5489 16.2794V12.3167H72.4294V16.0593C72.4294 16.2794 72.4295 16.2794 72.6496 16.4996C72.6496 16.4996 72.8697 16.7198 73.0898 16.7198C73.0898 16.7198 73.0899 16.7198 73.3101 16.7198C73.3101 16.7198 73.5302 16.7197 73.5302 16.4996L73.7504 17.1601C73.5302 17.1601 73.5302 17.3802 73.3101 17.3802C72.8698 17.3802 72.8698 17.3802 72.6496 17.3802ZM70.8883 13.4175H73.3101V14.0779H70.8883V13.4175ZM76.172 17.3802C75.7317 17.3802 75.5116 17.3802 75.0713 17.1601C74.8511 16.9399 74.631 16.7197 74.4108 16.4996C74.1907 16.2794 74.1906 15.8391 74.1906 15.3988C74.1906 14.9585 74.1907 14.7384 74.4108 14.2981C74.631 14.0779 74.8511 13.8578 75.0713 13.6376C75.2914 13.4175 75.7317 13.4175 76.172 13.4175C76.6123 13.4175 76.8325 13.4175 77.0527 13.6376C77.2728 13.8578 77.493 14.0779 77.7131 14.2981C77.9333 14.7384 77.9332 14.9585 77.9332 15.3988H77.0527C77.0527 14.9585 77.0526 14.7384 76.8324 14.5182C76.8324 14.2981 76.6123 14.0779 76.3921 14.0779C76.172 14.0779 76.1721 13.8578 75.9519 13.8578C75.7318 13.8578 75.5115 13.8578 75.2914 14.0779C75.0712 14.0779 75.0713 14.2981 74.8512 14.5182C74.8512 14.7384 74.6309 14.9585 74.6309 15.1787C74.6309 15.3988 74.631 15.619 74.8512 15.8391C74.8512 16.0593 75.0712 16.0593 75.2914 16.2794C75.5115 16.2794 75.7318 16.4996 75.9519 16.4996C76.1721 16.4996 76.3922 16.4996 76.6123 16.2794C76.8325 16.2794 76.8325 16.0593 77.0527 15.8391L77.9332 16.2794C77.9332 16.4996 77.713 16.7198 77.4929 16.7198C77.2727 16.9399 77.0526 16.9399 76.8324 17.1601C76.8324 17.3802 76.6123 17.3802 76.172 17.3802ZM74.8512 14.7384H77.7131V15.3988H74.8512V14.7384ZM79.6944 15.1787C79.6944 14.7384 79.6945 14.5182 79.9146 14.0779C80.1348 13.8578 80.3549 13.6376 80.5751 13.4175C80.7952 13.1973 81.0154 13.1973 81.4557 13.1973V14.0779C81.2356 14.0779 81.0153 14.0779 80.7952 14.0779C80.575 14.0779 80.355 14.2981 80.355 14.2981C80.1348 14.5182 80.1347 14.7384 80.1347 14.9585L79.6944 15.1787ZM79.034 13.4175H79.9146V17.1601H79.034V13.4175ZM84.0974 17.3802C83.6571 17.3802 83.437 17.3802 82.9967 17.1601C82.7765 16.9399 82.5564 16.7197 82.3363 16.4996C82.1161 16.2794 82.1162 15.8391 82.1162 15.3988C82.1162 14.9585 82.1161 14.7384 82.3363 14.2981C82.5564 14.0779 82.7765 13.8578 82.9967 13.6376C83.2168 13.4175 83.6571 13.4175 84.0974 13.4175C84.5377 13.4175 84.758 13.4175 84.9781 13.6376C85.1983 13.8578 85.4184 14.0779 85.6385 14.2981C85.8587 14.7384 85.8588 14.9585 85.8588 15.3988H84.9781C84.9781 14.9585 84.9782 14.7384 84.758 14.5182C84.758 14.2981 84.5378 14.0779 84.3177 14.0779C84.0975 14.0779 84.0975 13.8578 83.8773 13.8578C83.6572 13.8578 83.4371 13.8578 83.2169 14.0779C82.9968 14.0779 82.9967 14.2981 82.7766 14.5182C82.7766 14.7384 82.5565 14.9585 82.5565 15.1787C82.5565 15.3988 82.5564 15.619 82.7766 15.8391C82.7766 16.0593 82.9968 16.0593 83.2169 16.2794C83.4371 16.2794 83.6572 16.4996 83.8773 16.4996C84.0975 16.4996 84.3176 16.4996 84.5378 16.2794C84.7579 16.2794 84.758 16.0593 84.9781 15.8391L85.8588 16.2794C85.8588 16.4996 85.6386 16.7198 85.4184 16.7198C85.1983 16.9399 84.9782 16.9399 84.758 17.1601C84.5379 17.3802 84.3176 17.3802 84.0974 17.3802ZM82.5565 14.7384H85.4184V15.3988H82.5565V14.7384ZM89.6012 17.1601V16.4996V11.8764H90.4819V17.1601H89.6012ZM88.5005 17.3802C88.0602 17.3802 87.8401 17.3802 87.62 17.1601C87.3998 16.9399 87.1797 16.7197 86.9595 16.4996C86.7394 16.2794 86.7393 15.8391 86.7393 15.3988C86.7393 14.9585 86.7394 14.7384 86.9595 14.2981C87.1797 14.0779 87.3998 13.8578 87.62 13.6376C87.8401 13.4175 88.2803 13.4175 88.5005 13.4175C88.7206 13.4175 89.161 13.4175 89.3811 13.6376C89.6013 13.8578 89.8215 14.0779 89.8215 14.2981C90.0416 14.5182 90.0416 14.9585 90.0416 15.3988C90.0416 15.8391 90.0416 16.0593 89.8215 16.4996C89.6013 16.7197 89.6013 16.9399 89.3811 17.1601C88.9408 17.1601 88.7206 17.3802 88.5005 17.3802ZM88.7207 16.4996C88.9409 16.4996 89.161 16.4996 89.161 16.2794C89.3812 16.2794 89.3811 16.0593 89.6012 15.8391C89.6012 15.619 89.8215 15.3988 89.8215 15.1787C89.8215 14.9585 89.8214 14.7384 89.6012 14.5182C89.6012 14.2981 89.3812 14.2981 89.161 14.0779C88.9409 14.0779 88.9409 13.8578 88.7207 13.8578C88.5006 13.8578 88.2804 13.8578 88.2804 14.0779C88.0602 14.0779 88.0602 14.2981 87.8401 14.5182C87.8401 14.7384 87.62 14.9585 87.62 15.1787C87.62 15.3988 87.6199 15.619 87.8401 15.8391C87.8401 16.0593 88.0602 16.2794 88.2804 16.2794C88.2804 16.4996 88.5006 16.4996 88.7207 16.4996ZM97.9671 17.1601L95.7656 11.8764H96.6461L98.8477 17.1601H97.9671ZM93.5641 17.1601L95.7656 11.8764H96.6461L94.4446 17.1601H93.5641ZM94.6649 15.1787H97.9671V16.0593H94.6649V15.1787ZM101.49 17.3802C101.049 17.3802 100.829 17.3802 100.389 17.1601C100.169 16.9399 99.9485 16.7197 99.7283 16.4996C99.5082 16.2794 99.5081 15.8391 99.5081 15.3988C99.5081 14.9585 99.5082 14.7384 99.7283 14.2981C99.9485 14.0779 100.169 13.8578 100.389 13.6376C100.609 13.4175 101.049 13.4175 101.49 13.4175C101.93 13.4175 102.15 13.4175 102.59 13.6376C102.81 13.8578 103.031 14.0779 103.251 14.5182L102.37 14.7384C102.37 14.5182 102.15 14.5182 101.93 14.2981C101.71 14.2981 101.49 14.0779 101.269 14.0779C101.049 14.0779 100.829 14.0779 100.609 14.2981C100.389 14.2981 100.389 14.5182 100.169 14.7384C100.169 14.9585 99.9484 15.1787 99.9484 15.3988C99.9484 15.619 99.9485 15.8391 100.169 16.0593C100.169 16.2794 100.389 16.2794 100.609 16.4996C100.829 16.4996 101.049 16.7198 101.269 16.7198C101.49 16.7198 101.71 16.7197 101.93 16.4996C102.15 16.2794 102.15 16.2794 102.37 16.0593L103.251 16.2794C103.031 16.7197 102.81 16.9399 102.59 17.1601C102.15 17.1601 101.93 17.3802 101.49 17.3802ZM106.113 17.3802C105.672 17.3802 105.452 17.3802 105.012 17.1601C104.792 16.9399 104.572 16.7197 104.351 16.4996C104.131 16.2794 104.131 15.8391 104.131 15.3988C104.131 14.9585 104.131 14.7384 104.351 14.2981C104.572 14.0779 104.792 13.8578 105.012 13.6376C105.232 13.4175 105.672 13.4175 106.113 13.4175C106.553 13.4175 106.773 13.4175 107.213 13.6376C107.434 13.8578 107.654 14.0779 107.874 14.5182L106.993 14.7384C106.993 14.5182 106.773 14.5182 106.553 14.2981C106.333 14.2981 106.113 14.0779 105.893 14.0779C105.672 14.0779 105.452 14.0779 105.232 14.2981C105.012 14.2981 105.012 14.5182 104.792 14.7384C104.792 14.9585 104.572 15.1787 104.572 15.3988C104.572 15.619 104.572 15.8391 104.792 16.0593C104.792 16.2794 105.012 16.2794 105.232 16.4996C105.452 16.4996 105.672 16.7198 105.893 16.7198C106.113 16.7198 106.333 16.7197 106.553 16.4996C106.773 16.2794 106.773 16.2794 106.993 16.0593L107.874 16.2794C107.654 16.7197 107.434 16.9399 107.213 17.1601C106.773 17.1601 106.553 17.3802 106.113 17.3802ZM110.516 17.3802C110.075 17.3802 109.855 17.3802 109.415 17.1601C109.195 16.9399 108.975 16.7197 108.755 16.4996C108.534 16.2794 108.534 15.8391 108.534 15.3988C108.534 14.9585 108.534 14.7384 108.755 14.2981C108.975 14.0779 109.195 13.8578 109.415 13.6376C109.635 13.4175 110.075 13.4175 110.516 13.4175C110.956 13.4175 111.176 13.4175 111.616 13.6376C111.837 13.8578 112.057 14.0779 112.277 14.2981C112.497 14.5182 112.497 14.9585 112.497 15.3988C112.497 15.8391 112.497 16.0593 112.277 16.4996C112.057 16.7197 111.837 16.9399 111.616 17.1601C111.396 17.1601 110.956 17.3802 110.516 17.3802ZM110.516 16.4996C110.736 16.4996 110.956 16.4996 111.176 16.2794C111.396 16.2794 111.396 16.0593 111.616 15.8391C111.616 15.619 111.837 15.3988 111.837 15.1787C111.837 14.9585 111.837 14.7384 111.616 14.5182C111.616 14.2981 111.396 14.2981 111.176 14.0779C110.956 14.0779 110.736 13.8578 110.516 13.8578C110.296 13.8578 110.075 13.8578 109.855 14.0779C109.635 14.0779 109.635 14.2981 109.415 14.5182C109.415 14.7384 109.195 14.9585 109.195 15.1787C109.195 15.3988 109.195 15.619 109.415 15.8391C109.415 16.0593 109.635 16.0593 109.855 16.2794C110.296 16.4996 110.296 16.4996 110.516 16.4996ZM116.24 17.1601V16.4996V13.4175H117.12V17.1601H116.24ZM113.598 15.619V13.4175H114.479V15.3988L113.598 15.619ZM114.479 15.3988C114.479 15.619 114.479 15.8391 114.479 16.0593C114.479 16.2794 114.699 16.2794 114.699 16.4996C114.919 16.4996 114.919 16.4996 115.139 16.4996C115.359 16.4996 115.579 16.4996 115.799 16.2794C116.02 16.0593 116.02 15.8391 116.02 15.3988H116.24C116.24 15.8391 116.24 16.0593 116.02 16.4996C115.799 16.7197 115.799 16.9399 115.579 17.1601C115.359 17.3802 115.139 17.3802 114.699 17.3802C114.258 17.3802 113.818 17.1601 113.598 16.9399C113.378 16.7198 113.158 16.2795 113.158 15.619L114.479 15.3988ZM118.441 17.1601V13.4175H119.322V14.0779V17.1601H118.441ZM121.083 17.1601V15.1787L121.964 14.9585V17.1601H121.083ZM121.083 15.1787C121.083 14.9585 121.083 14.7384 121.083 14.5182C121.083 14.2981 120.863 14.2981 120.863 14.0779C120.643 14.0779 120.643 14.0779 120.423 14.0779C120.202 14.0779 119.982 14.0779 119.762 14.2981C119.542 14.5182 119.542 14.7384 119.542 15.1787H119.322C119.322 14.7384 119.322 14.5182 119.542 14.0779C119.762 13.8578 119.762 13.6376 119.982 13.4175C120.203 13.1973 120.423 13.1973 120.863 13.1973C121.303 13.1973 121.743 13.4175 121.964 13.6376C122.184 13.8578 122.404 14.2981 122.404 14.9585L121.083 15.1787ZM124.605 17.3802C124.165 17.3802 123.945 17.3802 123.725 17.1601C123.505 16.9399 123.505 16.7197 123.505 16.2794V12.3167H124.385V16.0593C124.385 16.2794 124.385 16.2794 124.605 16.4996C124.605 16.4996 124.826 16.7198 125.046 16.7198C125.046 16.7198 125.046 16.7198 125.266 16.7198C125.266 16.7198 125.486 16.7197 125.486 16.4996L125.706 17.1601C125.486 17.1601 125.486 17.3802 125.266 17.3802C124.826 17.3802 124.826 17.3802 124.605 17.3802ZM122.844 13.4175H125.266V14.0779H122.844V13.4175ZM128.788 17.1601V16.4996V15.1787C128.788 14.9585 128.788 14.7384 128.788 14.5182C128.788 14.2981 128.568 14.2981 128.568 14.0779C128.348 14.0779 128.348 13.8578 128.128 13.8578C127.908 13.8578 127.688 13.8578 127.688 14.0779C127.468 14.0779 127.467 14.2981 127.247 14.5182L126.367 14.2981C126.367 14.0779 126.587 14.0779 126.807 13.8578C127.027 13.6376 127.027 13.6376 127.247 13.4175C127.467 13.4175 127.688 13.1973 127.908 13.1973C128.348 13.1973 128.568 13.1973 128.788 13.4175C129.009 13.6376 129.229 13.8578 129.449 14.0779C129.669 14.2981 129.669 14.7384 129.669 15.1787V17.3802H128.788V17.1601ZM127.688 17.3802C127.247 17.3802 126.807 17.3802 126.587 17.1601C126.367 16.9399 126.147 16.7197 126.147 16.2794C126.147 15.8391 126.367 15.619 126.587 15.3988C126.807 15.1787 127.247 15.1787 127.688 15.1787H128.788V15.8391H128.128C127.688 15.8391 127.467 15.8391 127.467 16.0593C127.247 16.0593 127.247 16.2794 127.247 16.4996C127.247 16.7197 127.247 16.7198 127.467 16.9399C127.688 16.9399 127.688 17.1601 127.908 17.1601C128.128 17.1601 128.348 17.1601 128.348 16.9399C128.568 16.9399 128.568 16.7197 128.568 16.4996C128.568 16.2794 128.788 16.2794 128.788 16.0593H129.009C129.009 16.4996 128.788 16.9399 128.568 17.3802C128.568 17.1601 128.128 17.3802 127.688 17.3802ZM130.77 17.1601V13.4175H131.65V14.0779V17.1601H130.77ZM133.412 17.1601V15.1787L134.292 14.9585V17.1601H133.412ZM133.412 15.1787C133.412 14.9585 133.412 14.7384 133.412 14.5182C133.412 14.2981 133.191 14.2981 133.191 14.0779C132.971 14.0779 132.971 14.0779 132.751 14.0779C132.531 14.0779 132.311 14.0779 132.091 14.2981C131.871 14.5182 131.87 14.7384 131.87 15.1787H131.65C131.65 14.7384 131.65 14.5182 131.87 14.0779C132.091 13.8578 132.091 13.6376 132.311 13.4175C132.531 13.1973 132.751 13.1973 133.191 13.1973C133.632 13.1973 134.072 13.4175 134.292 13.6376C134.512 13.8578 134.732 14.2981 134.732 14.9585L133.412 15.1787ZM137.154 17.3802C136.714 17.3802 136.494 17.3802 136.274 17.1601C136.053 16.9399 136.053 16.7197 136.053 16.2794V12.3167H136.934V16.0593C136.934 16.2794 136.934 16.2794 137.154 16.4996C137.154 16.4996 137.374 16.7198 137.595 16.7198C137.595 16.7198 137.594 16.7198 137.815 16.7198C137.815 16.7198 138.035 16.7197 138.035 16.4996L138.255 17.1601C138.035 17.1601 138.035 17.3802 137.815 17.3802C137.374 17.3802 137.154 17.3802 137.154 17.3802ZM135.173 13.4175H137.595V14.0779H135.173V13.4175ZM140.456 17.3802C140.236 17.3802 140.016 17.3802 139.796 17.1601C139.576 17.1601 139.356 16.9399 139.135 16.9399C138.915 16.7198 138.915 16.7197 138.695 16.4996L139.356 16.0593C139.356 16.2794 139.576 16.2794 139.796 16.4996C140.016 16.4996 140.016 16.7198 140.236 16.7198C140.456 16.7198 140.677 16.7198 140.677 16.7198C140.897 16.7198 140.897 16.4996 140.897 16.4996C140.897 16.2794 140.897 16.2794 140.677 16.2794C140.677 16.2794 140.456 16.0593 140.236 16.0593H139.796C139.356 16.0593 139.136 15.8391 138.915 15.619C138.695 15.3988 138.695 15.1787 138.695 14.9585C138.695 14.5182 138.915 14.2981 139.135 14.0779C139.356 13.8578 139.796 13.8578 140.236 13.8578C140.456 13.8578 140.677 13.8578 140.897 13.8578C141.117 13.8578 141.337 14.0779 141.337 14.0779C141.557 14.2981 141.557 14.2981 141.557 14.5182L140.897 14.7384C140.897 14.5182 140.677 14.5182 140.677 14.5182C140.456 14.5182 140.456 14.5182 140.236 14.5182C140.016 14.5182 140.016 14.5182 139.796 14.7384L139.576 14.9585C139.576 14.9585 139.576 15.1787 139.796 15.1787C139.796 15.1787 140.016 15.3988 140.236 15.3988H140.677C140.897 15.3988 141.117 15.619 141.337 15.619C141.557 15.8391 141.557 15.8391 141.777 16.0593C141.777 16.2794 141.998 16.2794 141.998 16.4996C141.998 16.7197 141.997 16.9399 141.777 17.1601C141.557 17.3802 141.557 17.3802 141.337 17.6004C140.897 17.3802 140.677 17.3802 140.456 17.3802Z" fill="#686868"/>
</g>
</g>
<path d="M0 6.60754C0 6.60754 12.7687 -2.63884 27.9592 6.8277C27.9592 6.8277 15.851 0.00297022 0 6.60754Z" fill="#686868"/>
<path d="M0 14.5391C0 14.5391 12.5486 24.2258 27.9592 14.9794C27.9592 14.9794 15.6308 21.5839 0 14.5391Z" fill="#686868"/>
<path d="M6.59338 11.4527H6.37314H4.39185V10.1318H4.61195H6.15304C6.8135 10.1318 7.91423 10.1318 7.91423 8.8109C7.91423 7.48998 6.59338 7.48999 6.59338 7.48999H4.17162V14.5349L4.39185 14.9752H2.63053L3.07086 14.5349V11.2326H1.75V10.1318H3.07086V6.82954L2.85076 6.60938H6.81347C8.35454 6.60938 9.23509 7.49 9.23509 9.03106C9.23509 10.7923 7.91429 11.2326 6.59338 11.4527Z" fill="#686868"/>
<path d="M7.25 14.5285V14.9688H8.79109V14.7486L8.57086 14.5285L11.8731 8.58433L12.9739 10.3456H11.4328L10.9926 11.4463H13.4142L15.1754 14.5285H14.9553V14.9688H16.4964V14.5285H16.2762L14.7351 11.4463H18.4777L16.9366 14.5285H16.7165V14.9688H18.0374V14.7486L21.3397 8.58433L22.4404 10.5657H20.6792L20.4591 11.6665H22.8808L24.6419 14.5285H24.4218V14.9688H25.9629V14.5285H25.5226L24.2017 11.6665H25.5226V10.5657H23.5412L21.3397 6.38281L19.1381 10.5657H14.0747L12.0934 6.38281L7.4701 14.5285H7.25Z" fill="#686868"/>
</svg>
