<svg width="91" height="41" viewBox="0 0 91 41" fill="none" xmlns="http://www.w3.org/2000/svg">
<path d="M3.22779 36.9534C3.22779 36.8 3.07435 36.6466 2.92091 36.4931C2.76748 36.3397 2.61405 36.3397 2.30718 36.3397C2.0003 36.3397 1.69343 36.4931 1.54 36.6466C1.38656 36.9534 1.23312 37.2603 1.23312 37.7206C1.23312 38.1809 1.38656 38.4878 1.54 38.7947C1.69343 39.1015 2.0003 39.1015 2.30718 39.1015C2.61405 39.1015 2.92092 38.9481 3.07436 38.7947C3.2278 38.6412 3.38123 38.4878 3.38123 38.1809H2.46061V37.4137H4.30184V38.0275C4.30184 38.4878 4.14841 38.7947 3.99498 39.1015C3.84154 39.4084 3.53466 39.5619 3.38123 39.7153C3.07435 39.8687 2.76748 39.8687 2.46061 39.8687C2.0003 39.8687 1.69342 39.7153 1.38655 39.5618C1.07968 39.4084 0.772804 39.1015 0.619368 38.7947C0.465932 38.4878 0.3125 38.0275 0.3125 37.5672C0.3125 37.1069 0.465932 36.6465 0.619368 36.3397C0.772804 36.0328 1.07968 35.7259 1.38655 35.5725C1.69342 35.4191 2.0003 35.2656 2.46061 35.2656C2.76748 35.2656 3.07435 35.2656 3.38123 35.4191C3.6881 35.5725 3.84154 35.7259 3.99498 35.8794C4.14841 36.0328 4.30184 36.3397 4.30184 36.6466L3.22779 36.9534Z" fill="#686868"/>
<path d="M7.05718 38.6459V36.8047H7.97779V40.1803H7.05718V39.5665C7.05718 39.72 6.90373 39.8734 6.7503 40.0269C6.59686 40.1803 6.29 40.1803 6.13656 40.1803C5.82969 40.1803 5.52282 40.0269 5.36938 39.8734C5.21594 39.72 5.0625 39.4131 5.0625 38.9528V36.8047H5.98312V38.7994C5.98312 38.9528 5.98313 39.1062 6.13656 39.2597C6.29 39.4131 6.44343 39.4131 6.59686 39.4131C6.7503 39.4131 6.90374 39.4131 7.05718 39.2597C7.05718 38.9528 7.05718 38.7994 7.05718 38.6459Z" fill="#686868"/>
<path d="M9.67844 35.5625H8.75781V40.0122H9.67844V35.5625Z" fill="#686868"/>
<path d="M12.2837 36.6337V37.4009H11.67V40.0093H10.7494V37.4009H10.2891V36.6337H10.7494V36.4803C10.7494 36.1734 10.9028 35.8666 11.0562 35.7131C11.2097 35.5597 11.5166 35.4062 11.8234 35.4062C11.9769 35.4062 12.1303 35.4062 12.2837 35.4062C12.4372 35.4062 12.4372 35.4062 12.5906 35.4062L12.4372 36.1734H12.2837H12.1303C11.9769 36.1734 11.9769 36.1734 11.8234 36.3269C11.8234 36.3269 11.67 36.4803 11.67 36.6337V36.7872H12.2837V36.6337Z" fill="#686868"/>
<path d="M18.1144 37.1069H17.1937C17.1937 36.8 17.0403 36.6466 16.8869 36.4931C16.7334 36.3397 16.4265 36.3397 16.2731 36.3397C15.9662 36.3397 15.6594 36.4931 15.5059 36.6466C15.3525 36.9534 15.199 37.2603 15.199 37.7206C15.199 38.1809 15.3525 38.4878 15.5059 38.7947C15.6594 39.1015 15.9662 39.1015 16.2731 39.1015C16.58 39.1015 16.7334 39.1015 16.8869 38.9481C17.0403 38.7947 17.1937 38.6412 17.1937 38.3344H18.1144C18.1144 38.6412 17.9609 38.7947 17.8075 39.1015C17.654 39.4084 17.5006 39.5619 17.1937 39.7153C16.8869 39.8687 16.58 39.8687 16.2731 39.8687C15.8128 39.8687 15.5059 39.7153 15.199 39.5618C14.8922 39.4084 14.5853 39.1015 14.4319 38.7947C14.2784 38.4878 14.125 38.0275 14.125 37.5672C14.125 37.1069 14.2784 36.6465 14.4319 36.3397C14.5853 36.0328 14.8922 35.7259 15.199 35.5725C15.5059 35.4191 15.8128 35.2656 16.2731 35.2656C16.58 35.2656 16.8869 35.2656 17.1937 35.4191C17.5006 35.5725 17.654 35.7259 17.8075 36.0328C18.1143 36.4931 18.1144 36.8 18.1144 37.1069Z" fill="#686868"/>
<path d="M19.7878 38.0175V40.0122H18.8672V35.5625H19.7878V37.2503C19.7878 37.0969 19.9412 36.9434 20.0947 36.79C20.2481 36.6366 20.4015 36.6366 20.7084 36.6366C21.0153 36.6366 21.3222 36.79 21.4756 36.9434C21.629 37.0969 21.7825 37.4037 21.7825 37.864V40.0122H20.8618V38.0175C20.8618 37.8641 20.8619 37.7106 20.7084 37.5572C20.555 37.4037 20.4015 37.4038 20.2481 37.4038C20.0947 37.4038 19.9412 37.4037 19.7878 37.5572C19.7878 37.7106 19.7878 37.8641 19.7878 38.0175Z" fill="#686868"/>
<path d="M23.6287 40.0212C23.3219 40.0212 23.015 39.8678 22.8616 39.7144C22.7081 39.5609 22.5547 39.2541 22.5547 38.9472C22.5547 38.6403 22.5547 38.4869 22.7081 38.3334C22.8616 38.18 23.015 38.0266 23.1684 38.0266C23.3219 38.0266 23.6287 37.8731 23.7822 37.8731C24.0891 37.8731 24.2425 37.8731 24.3959 37.7197C24.5494 37.7197 24.5494 37.5662 24.5494 37.5662C24.5494 37.4128 24.5494 37.2594 24.3959 37.2594C24.2425 37.2594 24.2425 37.1059 24.0891 37.1059C23.9356 37.1059 23.7822 37.1059 23.6287 37.2594C23.4753 37.2594 23.4753 37.4128 23.4753 37.5662H22.5547C22.5547 37.2594 22.7081 36.9525 23.015 36.7991C23.3219 36.6456 23.6287 36.4922 23.9356 36.4922C24.2425 36.4922 24.3959 36.4922 24.7028 36.6456C24.8562 36.7991 25.1631 36.7991 25.1631 36.9525C25.3165 37.1059 25.3165 37.2594 25.3165 37.5662V39.8678H24.3959V39.5609C24.2425 39.7144 24.2425 39.8678 24.0891 39.8678C24.0891 40.0212 23.7822 40.0212 23.6287 40.0212ZM23.9356 39.4075C24.089 39.4075 24.2425 39.4075 24.3959 39.254C24.5494 39.1006 24.5494 38.9472 24.5494 38.7937V38.4869H24.3959C24.3959 38.4869 24.2425 38.4869 24.0891 38.4869C23.9356 38.4869 23.9356 38.4869 23.7822 38.4869C23.6287 38.4869 23.4753 38.4869 23.3219 38.6403C23.1684 38.6403 23.1684 38.7937 23.1684 38.9472C23.1684 39.1006 23.1684 39.1006 23.3219 39.254C23.6287 39.4075 23.7822 39.4075 23.9356 39.4075Z" fill="#686868"/>
<path d="M26.2422 40.024V36.6484H27.1628V37.2622C27.1628 37.1087 27.3162 36.9553 27.4697 36.8019C27.6231 36.6484 27.7766 36.6484 27.93 36.6484C28.0834 36.6484 28.0834 36.6484 28.2369 36.6484V37.4156H28.0834H27.93C27.7766 37.4156 27.6231 37.4156 27.4697 37.569C27.3162 37.7225 27.3163 37.8759 27.3163 38.0294V39.8706L26.2422 40.024Z" fill="#686868"/>
<path d="M30.685 36.65V37.4172H30.0712V39.105C30.0712 39.2584 30.0712 39.2584 30.2247 39.4118H30.3781H30.5315C30.5315 39.4118 30.5315 39.4118 30.685 39.4118L30.8384 40.0256H30.685C30.5315 40.0256 30.5316 40.0256 30.3781 40.0256C30.0712 40.0256 29.7644 40.0256 29.6109 39.8721C29.4575 39.7187 29.304 39.4118 29.304 39.105V37.4172H28.8438V36.65H29.304V35.8828H30.2247V36.65H30.685Z" fill="#686868"/>
<path d="M32.6878 40.024C32.3809 40.024 32.0741 40.024 31.7672 39.8706C31.4603 39.7172 31.3069 39.5637 31.1534 39.2569C31 38.95 31 38.6431 31 38.3362C31 38.0294 31 37.7225 31.1534 37.4156C31.3069 37.1087 31.4603 36.9553 31.7672 36.8019C32.0741 36.6484 32.2275 36.6484 32.6878 36.6484C32.9947 36.6484 33.3016 36.6484 33.455 36.8019C33.7619 36.9553 33.9153 37.1087 34.0687 37.4156C34.2222 37.7225 34.2222 38.0294 34.2222 38.3362V38.6431H31.9206C31.9206 38.95 31.9206 39.1034 32.074 39.2569C32.2275 39.4103 32.3809 39.4103 32.6878 39.4103C32.8412 39.4103 32.9947 39.4103 33.1481 39.2569C33.3015 39.2569 33.3016 39.1034 33.455 38.95H34.3756C34.3756 39.2569 34.2222 39.5637 33.9153 39.7172C33.455 40.024 33.1481 40.024 32.6878 40.024ZM32.074 38.0294H33.455C33.455 37.8759 33.455 37.7225 33.3015 37.569C33.1481 37.4156 32.9947 37.4156 32.8412 37.4156C32.6878 37.4156 32.5344 37.4156 32.3809 37.569C32.074 37.569 32.074 37.8759 32.074 38.0294Z" fill="#686868"/>
<path d="M34.8359 40.024V36.6484H35.7566V37.2622C35.7566 37.1087 35.91 36.9553 36.0634 36.8019C36.2169 36.6484 36.3703 36.6484 36.5237 36.6484C36.6772 36.6484 36.6772 36.6484 36.8306 36.6484C36.8306 36.6484 36.984 36.6484 36.984 36.8019L36.6772 37.569H36.5237H36.3703C36.2169 37.569 36.0634 37.5691 35.91 37.7225C35.7566 37.8759 35.7566 38.0294 35.7566 38.1828V40.024H34.8359Z" fill="#686868"/>
<path d="M38.8206 40.024C38.5137 40.024 38.2069 40.024 37.9 39.8706C37.5931 39.7172 37.4397 39.5637 37.2863 39.2569C37.1328 38.95 37.1328 38.6431 37.1328 38.3362C37.1328 38.0294 37.1328 37.7225 37.2863 37.4156C37.4397 37.1087 37.5931 36.9553 37.9 36.8019C38.2069 36.6484 38.3603 36.6484 38.8206 36.6484C39.1275 36.6484 39.4344 36.6484 39.5878 36.8019C39.8947 36.9553 40.0481 37.1087 40.2015 37.4156C40.355 37.7225 40.355 38.0294 40.355 38.3362V38.6431H38.0534C38.0534 38.95 38.0534 39.1034 38.2069 39.2569C38.3603 39.4103 38.5137 39.4103 38.8206 39.4103C38.9741 39.4103 39.1275 39.4103 39.2809 39.2569C39.4343 39.2569 39.4344 39.1034 39.5878 38.95H40.5084C40.5084 39.2569 40.355 39.5637 40.0481 39.7172C39.5878 40.024 39.2809 40.024 38.8206 40.024ZM38.0534 38.0294H39.4344C39.4344 37.8759 39.4343 37.7225 39.2809 37.569C39.1275 37.4156 38.9741 37.4156 38.8206 37.4156C38.6672 37.4156 38.5137 37.4156 38.3603 37.569C38.2069 37.569 38.2069 37.8759 38.0534 38.0294Z" fill="#686868"/>
<path d="M42.1962 40.015C41.8894 40.015 41.7359 40.015 41.5825 39.8615C41.429 39.7081 41.2756 39.5547 41.1222 39.2478C40.9688 38.9409 40.9688 38.634 40.9688 38.3272C40.9688 38.0203 40.9688 37.56 41.1222 37.4066C41.2756 37.0997 41.429 36.9462 41.5825 36.7928C41.7359 36.6394 42.0428 36.6394 42.1962 36.6394C42.3497 36.6394 42.5031 36.6394 42.6566 36.7928C42.81 36.9462 42.81 36.9462 42.9634 37.0997C43.1169 37.2531 43.1168 37.2531 43.1168 37.4066V35.7188H44.0375V40.1684H43.2703V39.7081C43.2703 39.8615 43.1168 39.8615 43.1168 40.015C42.9634 40.1684 42.9634 40.1684 42.81 40.1684C42.5031 40.015 42.3497 40.015 42.1962 40.015ZM42.5031 39.2478C42.6566 39.2478 42.9634 39.0944 42.9634 38.9409C43.1169 38.7875 43.1168 38.4806 43.1168 38.1737C43.1168 37.8669 43.1169 37.7134 42.9634 37.4066C42.81 37.2531 42.6566 37.0997 42.5031 37.0997C42.3497 37.0997 42.0428 37.2531 42.0428 37.4066C41.8894 37.56 41.8894 37.8669 41.8894 38.1737C41.8894 38.4806 41.8894 38.6341 42.0428 38.9409C42.0428 39.2478 42.3497 39.2478 42.5031 39.2478Z" fill="#686868"/>
<path d="M47.1053 40.0122H46.0312L47.5656 35.5625H48.7931L50.3275 40.0122H49.4068L49.1 38.9381H47.5656L47.1053 40.0122ZM47.5656 38.1709H48.6397L48.0259 36.4831L47.5656 38.1709Z" fill="#686868"/>
<path d="M52.1722 40.024C51.8653 40.024 51.5584 40.024 51.2516 39.8706C50.9447 39.7172 50.7913 39.5637 50.6378 39.2569C50.4844 38.95 50.4844 38.6431 50.4844 38.3362C50.4844 38.0294 50.4844 37.7225 50.6378 37.4156C50.7913 37.1087 50.9447 36.9553 51.2516 36.8019C51.5584 36.6484 51.7119 36.6484 52.1722 36.6484C52.4791 36.6484 52.7859 36.6484 52.9394 36.8019C53.0928 36.9553 53.3997 37.1087 53.3997 37.2622C53.5531 37.4156 53.5531 37.7225 53.5531 37.8759H52.6325C52.6325 37.7225 52.4791 37.5691 52.4791 37.4156C52.3256 37.2622 52.1722 37.2622 52.0187 37.2622C51.8653 37.2622 51.5584 37.4156 51.5584 37.569C51.405 37.7225 51.405 38.0294 51.405 38.3362C51.405 38.6431 51.405 38.95 51.5584 39.1034C51.7119 39.2568 51.8653 39.4103 52.0187 39.4103C52.1722 39.4103 52.3256 39.4103 52.4791 39.2569C52.6325 39.1034 52.6325 38.95 52.6325 38.7965H53.5531C53.5531 39.1034 53.3997 39.2568 53.3997 39.4103C53.2462 39.5637 53.0928 39.7172 52.9394 39.8706C52.7859 40.024 52.4791 40.024 52.1722 40.024Z" fill="#686868"/>
<path d="M55.8518 40.024C55.545 40.024 55.2381 40.024 54.9312 39.8706C54.6244 39.7172 54.4709 39.5637 54.3175 39.2569C54.164 38.95 54.1641 38.6431 54.1641 38.3362C54.1641 38.0294 54.164 37.7225 54.3175 37.4156C54.4709 37.1087 54.6244 36.9553 54.9312 36.8019C55.2381 36.6484 55.3915 36.6484 55.8518 36.6484C56.1587 36.6484 56.4656 36.6484 56.619 36.8019C56.7725 36.9553 57.0793 37.1087 57.0793 37.2622C57.2328 37.4156 57.2328 37.7225 57.2328 37.8759H56.3122C56.3122 37.7225 56.1587 37.5691 56.1587 37.4156C56.0053 37.2622 55.8519 37.2622 55.6984 37.2622C55.545 37.2622 55.2381 37.4156 55.2381 37.569C55.0847 37.7225 55.0847 38.0294 55.0847 38.3362C55.0847 38.6431 55.0847 38.95 55.2381 39.1034C55.3915 39.2568 55.545 39.4103 55.6984 39.4103C55.8519 39.4103 56.0053 39.4103 56.1587 39.2569C56.3122 39.1034 56.3122 38.95 56.3122 38.7965H57.2328C57.2328 39.1034 57.0793 39.2568 57.0793 39.4103C56.9259 39.5637 56.7725 39.7172 56.619 39.8706C56.3122 40.024 56.1587 40.024 55.8518 40.024Z" fill="#686868"/>
<path d="M59.3831 40.024C59.0762 40.024 58.7694 40.024 58.4625 39.8706C58.1556 39.7172 58.0022 39.5637 57.8488 39.2569C57.6953 38.95 57.6953 38.6431 57.6953 38.3362C57.6953 38.0294 57.6953 37.7225 57.8488 37.4156C58.0022 37.1087 58.1556 36.9553 58.4625 36.8019C58.7694 36.6484 58.9228 36.6484 59.3831 36.6484C59.69 36.6484 59.9969 36.6484 60.3037 36.8019C60.6106 36.9553 60.764 37.1087 60.9175 37.4156C61.0709 37.7225 61.0709 38.0294 61.0709 38.3362C61.0709 38.6431 61.0709 38.95 60.9175 39.2569C60.764 39.5637 60.6106 39.7172 60.3037 39.8706C59.9969 40.024 59.69 40.024 59.3831 40.024ZM59.3831 39.4103C59.5366 39.4103 59.8434 39.2568 59.8434 39.1034C59.9969 38.95 59.9969 38.6431 59.9969 38.3362C59.9969 38.0294 59.9969 37.8759 59.8434 37.569C59.69 37.4156 59.5366 37.2622 59.3831 37.2622C59.0762 37.2622 58.9228 37.4156 58.9228 37.569C58.7694 37.7225 58.7694 38.0294 58.7694 38.3362C58.7694 38.6431 58.7694 38.7965 58.9228 39.1034C58.9228 39.2568 59.0762 39.4103 59.3831 39.4103Z" fill="#686868"/>
<path d="M63.8306 38.6459V36.8047H64.7512V40.1803H63.8306V39.5665C63.8306 39.72 63.6772 39.8734 63.5237 40.0269C63.3703 40.1803 63.0634 40.1803 62.91 40.1803C62.6031 40.1803 62.2962 40.0269 62.1428 39.8734C61.9894 39.72 61.8359 39.4131 61.8359 38.9528V36.8047H62.7565V38.7994C62.7565 38.9528 62.7566 39.1062 62.91 39.2597C63.0634 39.4131 63.2169 39.4131 63.3703 39.4131C63.5237 39.4131 63.6772 39.4131 63.8306 39.2597C63.6772 38.9528 63.8306 38.7994 63.8306 38.6459Z" fill="#686868"/>
<path d="M66.2878 38.0294V40.024H65.3672V36.6484H66.2878V37.2622C66.2878 37.1087 66.4412 36.9553 66.5947 36.8019C66.7481 36.6484 66.9016 36.6484 67.2084 36.6484C67.5153 36.6484 67.8222 36.8019 67.9756 36.9553C68.1291 37.1087 68.2825 37.4156 68.2825 37.8759V40.024H67.3619V38.0294C67.3619 37.8759 67.3619 37.7225 67.2084 37.569C67.055 37.4156 66.9016 37.4156 66.7481 37.4156C66.5947 37.4156 66.4413 37.4156 66.2878 37.569C66.4413 37.7225 66.2878 37.8759 66.2878 38.0294Z" fill="#686868"/>
<path d="M71.0444 36.65V37.4172H70.4306V39.105C70.4306 39.2584 70.4306 39.2584 70.5841 39.4118H70.7375H70.8909C70.8909 39.4118 70.8909 39.4118 71.0444 39.4118L71.1978 40.0256H71.0444C70.8909 40.0256 70.8909 40.0256 70.7375 40.0256C70.4306 40.0256 70.1237 40.0256 69.9703 39.8721C69.8169 39.7187 69.6634 39.4118 69.6634 39.105V37.4172H69.2031V36.65H69.6634V35.8828H70.5841V36.65H71.0444Z" fill="#686868"/>
<path d="M72.5819 40.0212C72.275 40.0212 71.9681 39.8678 71.8147 39.7144C71.6613 39.5609 71.5078 39.2541 71.5078 38.9472C71.5078 38.6403 71.5078 38.4869 71.6613 38.3334C71.8147 38.18 71.9681 38.0266 72.1216 38.0266C72.275 38.0266 72.5819 37.8731 72.7353 37.8731C73.0422 37.8731 73.1956 37.8731 73.3491 37.7197C73.5025 37.7197 73.5025 37.5662 73.5025 37.5662C73.5025 37.4128 73.5025 37.2594 73.3491 37.2594C73.1956 37.2594 73.1956 37.1059 73.0422 37.1059C72.8887 37.1059 72.7353 37.1059 72.5819 37.2594C72.4284 37.2594 72.4284 37.4128 72.4284 37.5662H71.5078C71.5078 37.2594 71.6613 36.9525 71.9681 36.7991C72.275 36.6456 72.5819 36.4922 72.8888 36.4922C73.1956 36.4922 73.3491 36.4922 73.6559 36.6456C73.8094 36.7991 74.1162 36.7991 74.1162 36.9525C74.2697 37.1059 74.2697 37.2594 74.2697 37.5662V39.8678H73.3491V39.5609C73.1956 39.7144 73.1956 39.8678 73.0422 39.8678C73.0422 40.0212 72.7353 40.0212 72.5819 40.0212ZM72.8888 39.4075C73.0422 39.4075 73.1956 39.4075 73.3491 39.254C73.5025 39.1006 73.5025 38.9472 73.5025 38.7937V38.4869H73.3491C73.3491 38.4869 73.1956 38.4869 73.0422 38.4869C72.8887 38.4869 72.8887 38.4869 72.7353 38.4869C72.5819 38.4869 72.4284 38.4869 72.275 38.6403C72.1216 38.6403 72.1216 38.7937 72.1216 38.9472C72.1216 39.1006 72.1216 39.1006 72.275 39.254C72.5819 39.4075 72.7353 39.4075 72.8888 39.4075Z" fill="#686868"/>
<path d="M76.1081 38.0294V40.024H75.1875V36.6484H76.1081V37.2622C76.1081 37.1087 76.2616 36.9553 76.415 36.8019C76.5684 36.6484 76.7219 36.6484 77.0287 36.6484C77.3356 36.6484 77.6425 36.8019 77.7959 36.9553C77.9493 37.1087 78.1028 37.4156 78.1028 37.8759V40.024H77.1822V38.0294C77.1822 37.8759 77.1822 37.7225 77.0287 37.569C76.8753 37.4156 76.7219 37.4156 76.5684 37.4156C76.415 37.4156 76.2615 37.4156 76.1081 37.569C76.1081 37.7225 76.1081 37.8759 76.1081 38.0294Z" fill="#686868"/>
<path d="M80.7084 36.65V37.4172H80.0947V39.105C80.0947 39.2584 80.0947 39.2584 80.2481 39.4118H80.4016H80.555C80.555 39.4118 80.555 39.4118 80.7084 39.4118L80.8619 40.0256H80.7084C80.555 40.0256 80.555 40.0256 80.4016 40.0256C80.0947 40.0256 79.7878 40.0256 79.6344 39.8721C79.4809 39.7187 79.3275 39.4118 79.3275 39.105V37.4172H78.8672V36.65H79.3275V35.8828H80.2481V36.65H80.7084Z" fill="#686868"/>
<path d="M84.085 37.569H83.3178C83.3178 37.4156 83.1644 37.4156 83.1644 37.2622C83.0109 37.2622 83.0109 37.1087 82.8575 37.1087C82.7041 37.1087 82.5506 37.1087 82.5506 37.2622C82.3972 37.2622 82.3972 37.4156 82.3972 37.569C82.3972 37.7225 82.3972 37.7225 82.5506 37.7225C82.5506 37.7225 82.7041 37.8759 82.8575 37.8759L83.4712 38.0294C84.085 38.1828 84.3919 38.4897 84.3919 38.95C84.3919 39.1034 84.3919 39.4103 84.2384 39.5637C84.085 39.7172 83.9315 39.8706 83.7781 40.024C83.6247 40.1775 83.3178 40.1775 83.0109 40.1775C82.5506 40.1775 82.2437 40.024 81.9369 39.8706C81.63 39.7172 81.4766 39.4103 81.4766 39.1034H82.3972C82.3972 39.2568 82.5506 39.4103 82.5506 39.4103C82.7041 39.4103 82.8575 39.5637 83.0109 39.5637C83.1644 39.5637 83.3178 39.5637 83.4712 39.4103C83.6247 39.4103 83.6247 39.2568 83.6247 39.1034C83.6247 38.95 83.4712 38.7965 83.1644 38.7965L82.5506 38.6431C81.9369 38.4897 81.63 38.1828 81.63 37.7225C81.63 37.4156 81.7834 37.1087 82.0903 36.9553C82.3972 36.8019 82.7041 36.6484 83.1644 36.6484C83.6247 36.6484 83.9316 36.8019 84.085 36.9553C83.7781 37.1087 83.9316 37.2622 84.085 37.569Z" fill="#686868"/>
<path d="M21.9414 10.2496C21.3277 8.25493 20.2536 6.72058 18.7192 5.49309C17.1849 4.2656 15.4971 3.80528 13.1955 3.80528C11.3543 3.80528 9.81992 4.26561 8.28555 5.18622C6.75119 6.10684 5.67714 7.48776 4.75653 9.329C3.83591 11.1702 3.52903 13.3184 3.52903 15.9268C3.52903 18.5352 3.98934 20.8367 4.90996 22.5245C5.83058 24.3658 6.90464 25.7467 8.439 26.6673C9.97336 27.5879 11.6612 28.0482 13.5024 28.0482C15.1902 28.0482 16.7246 27.7414 18.1055 26.9742C19.4864 26.207 20.407 25.2864 21.1742 23.9055C21.9414 22.5245 22.2483 20.9902 22.4017 19.1489H14.423V15.9268H25.9307V19.1489C25.9307 21.6039 25.4704 23.752 24.3964 25.5932C23.3223 27.4345 21.9414 28.8154 19.9467 29.8895C18.1055 30.9635 15.9574 31.4238 13.5024 31.4238C10.7406 31.4238 8.439 30.8101 6.44432 29.5826C4.44965 28.3551 2.76185 26.5139 1.6878 24.2123C0.613743 21.9108 0 19.1489 0 15.9268C0 12.7046 0.613743 9.94274 1.6878 7.64119C2.76185 5.33965 4.44965 3.49841 6.44432 2.27092C8.439 1.04343 10.7405 0.429688 13.349 0.429688C15.4971 0.429688 17.4917 0.890001 19.1795 1.65718C20.8673 2.42436 22.4017 3.65186 23.4758 5.18622C24.7033 6.72059 25.4704 8.40838 25.7773 10.4031L21.9414 10.2496Z" fill="#686868"/>
<path d="M36.209 28.2023C36.5159 28.2023 36.8228 28.5092 36.9762 28.9695C36.9762 29.123 36.9762 29.2764 36.8228 29.4298C36.9762 29.5832 36.9762 29.7367 36.9762 29.7367C37.1296 30.197 37.2831 30.5039 37.4365 30.9642C37.7434 31.4245 38.2037 31.7314 38.664 31.5779C39.1243 31.2711 38.9709 30.8108 38.8175 30.5039C38.5106 29.8901 38.3572 29.1229 38.0503 28.3558C38.5106 28.5092 38.5106 28.6626 38.5106 28.9695C38.8174 29.5833 38.9709 30.3504 39.2778 30.9642C39.5846 31.4245 39.8915 31.8848 40.5053 31.5779C40.9656 31.4245 41.119 30.9642 40.6587 30.197C40.3518 29.5832 40.0449 28.9695 39.7381 28.2023C40.3518 28.3558 40.3518 28.8161 40.5053 29.1229C40.8121 29.7367 41.119 30.3504 41.4259 30.8108C41.7328 31.2711 42.0396 31.4245 42.4999 31.1176C42.9602 30.8107 42.8068 30.3504 42.6534 30.0436C42.3465 29.5833 42.1931 28.9695 41.8862 28.5092C41.7328 28.3558 41.4259 28.0489 41.7327 27.8954C42.0396 27.742 42.0396 28.2023 42.1931 28.3558C42.4999 28.9695 42.8068 29.5833 43.1137 30.0436C43.4205 30.6573 44.1877 30.9642 44.648 30.6573C45.2618 30.3504 45.4152 29.7367 44.9549 28.9695C44.4946 28.0489 43.7274 27.1283 43.2671 26.2077C42.4999 24.6733 41.5793 23.9061 39.7381 24.0595C38.3571 24.0595 37.2831 23.2924 36.6693 21.9114C36.209 20.8374 36.6693 20.2236 37.7434 20.0702C38.2037 20.0702 38.8175 20.0702 39.4312 19.9168C38.8175 19.1496 38.2037 18.6893 37.2831 18.5358C36.3625 18.3824 35.5953 18.5358 34.6747 18.6893C33.6006 18.8427 32.8334 18.229 32.68 17.1549C32.2197 14.393 32.8334 11.7846 34.3678 9.32966C34.5212 9.17623 34.5212 9.02278 34.5212 8.7159C34.5212 8.40903 34.2144 8.86936 34.0609 9.02279C33.1403 9.94341 32.5266 11.0175 31.9128 12.0915C31.7594 12.245 31.7594 12.7052 31.2991 12.5518C32.68 7.64185 35.5953 4.11283 40.3518 2.42503C45.1084 0.737227 49.558 1.65785 53.7008 4.72657C53.5474 4.26626 53.3939 4.11281 53.3939 4.11281C51.2458 2.11814 48.7908 0.890649 45.8755 0.276904C39.4312 -0.950587 33.1403 1.96472 29.9182 7.7953C27.1563 12.7053 27.3097 17.7687 30.0716 22.8321C30.225 23.2924 30.5319 23.2924 30.9922 23.2924C31.4525 23.1389 31.9128 23.1389 32.3731 22.9855C32.68 22.9855 32.9869 22.8321 33.2937 23.1389C33.6006 23.1389 33.9075 23.4458 33.9075 23.7527C33.9075 23.9061 33.9075 24.213 33.7541 24.3664C33.7541 24.5199 33.9075 24.6733 34.0609 24.8267C34.3678 24.9802 34.5212 25.1336 34.6747 25.4405C34.6747 25.5939 34.6747 25.7474 34.6747 25.9008C34.8281 26.0542 34.8281 26.3611 34.9816 26.5145C35.135 26.668 35.2884 26.8214 35.4418 27.1283C35.4418 27.2817 35.4418 27.2817 35.4418 27.4352" fill="#686868"/>
<path d="M58.1577 19.6097C58.1577 19.4562 58.0043 19.7631 58.0043 19.9166C57.0837 21.7578 55.7027 23.2922 54.0149 24.3662C53.8615 24.5197 53.7081 24.6731 53.4012 24.6731C54.4752 22.525 54.9355 20.2234 54.4752 17.9219C53.8615 20.2234 52.7874 22.0647 50.9462 23.599C49.7187 24.6731 48.1843 24.5196 47.1103 23.2921C46.65 22.6784 46.1897 22.0647 45.7294 21.4509C45.4225 20.9906 45.1156 20.6837 44.5019 20.6837C42.5072 20.6837 40.5125 20.6837 38.3644 20.6837C37.7507 20.6837 37.5972 20.9906 37.7507 21.4509C38.0575 22.525 39.1316 23.4456 40.2056 23.4456C40.8194 23.4456 41.2797 23.599 41.8935 23.599C42.6606 23.599 43.1209 23.9059 43.4278 24.5196C44.195 25.9006 45.1156 27.1281 45.7294 28.509C45.8828 28.9693 46.3431 29.4296 46.65 29.7365C46.8034 30.0434 47.1103 30.0434 47.4171 30.0434C47.724 30.0434 48.0309 29.8899 48.3378 29.7365C53.2477 28.0487 56.4699 24.8265 58.1577 19.9166C58.1577 19.9166 58.1577 19.7631 58.1577 19.6097Z" fill="#686868"/>
<path d="M31.7574 25.2952L33.2918 24.9883C33.7521 24.8349 33.9055 24.528 33.9055 24.0677C33.9055 23.6074 33.4452 23.3005 32.9849 23.454L31.9109 23.6074H31.4505C30.9902 23.6074 30.6834 24.0677 30.8368 24.528C30.9902 24.9883 31.4505 25.2952 31.7574 25.2952Z" fill="#686868"/>
<path d="M34.0646 26.675C34.5249 26.5216 34.8317 26.2147 34.6783 25.7544C34.6783 25.2941 34.218 25.1406 33.9111 25.1406C33.9111 25.1406 33.9111 25.1406 33.7577 25.1406L31.763 25.4475C31.3027 25.6009 30.9959 25.9078 31.1493 26.3681C31.3027 26.8284 31.6096 27.1353 32.0699 26.9819L32.5302 26.8284L34.0646 26.675Z" fill="#686868"/>
<path d="M34.8258 28.3555C35.2861 28.2021 35.4396 27.8952 35.4396 27.4349C35.4396 26.9746 34.9793 26.6677 34.519 26.8212L33.5983 26.9746H33.138C32.6777 26.9746 32.3709 27.4349 32.5243 27.8952C32.5243 28.3555 32.9846 28.6624 33.4449 28.509L34.8258 28.3555Z" fill="#686868"/>
<path d="M35.4428 28.2031L34.6756 28.3565H34.3687C33.9084 28.3565 33.6016 28.8169 33.6016 29.2772C33.6016 29.7375 34.0619 30.0444 34.5222 30.0444L35.7497 29.8909H35.9031C36.21 29.7375 36.5169 29.4306 36.3634 28.9703C36.3634 28.51 35.9031 28.2031 35.4428 28.2031Z" fill="#686868"/>
<path d="M74.8759 19.3065L69.8125 5.34375L74.8759 19.3065Z" fill="#686868"/>
<path d="M69.665 5.34375L64.6016 19.3065L69.665 5.34375Z" fill="#686868"/>
<path d="M79.1823 31.4238H83.1717L71.6639 0.429688H67.828L56.3203 31.4238H60.3097L64.6059 19.3024L69.6693 5.33965L69.8227 5.03278V5.33965L74.8861 19.3024L75.9602 22.678H76.1136L79.1823 31.4238Z" fill="#686868"/>
<path d="M70.7387 31.4283L66.2891 24.5237C66.2891 24.5237 77.6434 21.7618 90.9923 15.1641C90.9923 15.1641 77.9502 22.9893 71.5059 25.2908C71.5059 25.2908 71.5059 26.5184 72.8868 29.7405L70.7387 31.4283Z" fill="#686868"/>
</svg>
