<svg width="124" height="44" viewBox="0 0 124 44" fill="none" xmlns="http://www.w3.org/2000/svg">
<path d="M2.87647 19.2223C0.542497 12.3999 5.0309 8.09103 5.0309 8.09103C5.92858 10.2455 10.9556 16.1702 10.9556 16.1702C11.3147 16.3497 11.1351 16.1702 11.1351 16.1702C11.1351 16.1702 10.7761 15.0929 10.7761 14.5543C10.7761 14.0157 11.1351 14.1952 11.1351 14.1952C11.8533 14.5543 12.3919 14.7339 13.11 14.9134C15.0849 15.452 17.2394 15.2725 19.2142 14.5543C19.7529 14.3748 20.1119 14.1953 20.6505 14.0157C20.8301 13.8362 20.8301 14.1952 20.8301 14.1952C20.8301 14.1952 20.6505 15.2725 20.471 15.9906C20.2915 16.5292 20.6505 16.5292 20.6505 16.5292L26.9343 8.27055C29.8069 12.759 30.1659 15.6315 29.4478 17.786C28.7297 19.9404 29.0887 19.7609 29.0887 19.7609C30.8841 16.8883 30.7046 14.7339 30.7046 14.7339C30.7046 9.88638 26.3957 4.85938 26.3957 4.85938C26.3957 4.85938 25.1389 11.3227 19.3938 13.118C19.0347 13.2976 18.6756 13.2976 18.3166 13.4771C16.3417 13.8362 14.7258 13.8362 13.2896 13.4771C10.0579 12.759 8.62162 10.9636 8.62162 10.9636C7.18533 9.88637 5.38997 5.21844 5.38997 5.21844C-2.68915 14.3748 2.87647 19.2223 2.87647 19.2223Z" fill="#686868"/>
<path d="M8.79764 20.4681C9.51578 21.5453 10.0544 21.0067 11.3111 21.3658C12.5679 21.7249 13.286 23.8793 13.4656 24.2384C13.6451 24.5975 13.6451 24.4179 13.6451 24.4179C13.6451 24.4179 13.4656 19.75 10.7725 19.2114C8.07949 18.8523 7.89995 18.4932 7.72042 18.6728C7.54088 18.8523 7.72042 19.0318 7.72042 19.0318C7.72042 19.0318 8.07949 19.3909 8.79764 20.4681Z" fill="#686868"/>
<path d="M24.0575 18.8603C23.878 18.6807 23.6984 19.0398 21.0054 19.3989C18.3123 19.7579 18.1328 24.6054 18.1328 24.6054C18.1328 24.6054 18.1328 24.7849 18.3123 24.4259C18.4919 24.0668 19.21 21.9124 20.4668 21.5533C21.7235 21.1942 22.2621 21.5533 22.9803 20.6556C23.6984 19.5784 24.237 19.3989 24.237 19.3989C24.237 19.3989 24.237 18.8603 24.0575 18.8603Z" fill="#686868"/>
<path d="M20.6432 34.6496C21.1818 34.111 21.3614 33.3929 21.5409 32.6747C21.5409 32.6747 23.1567 25.4933 26.927 25.6728C26.927 25.6728 23.6953 24.5956 21.9 28.5454C21.9 28.5454 21.7204 28.7249 21.7204 28.3659C21.7204 28.3659 21.1818 26.391 19.566 26.0319C19.566 26.0319 21.1818 28.0068 21.1818 29.6226C21.0023 31.2384 19.566 33.2133 19.566 33.2133C19.566 33.2133 17.7706 32.8543 17.232 33.0338C17.232 33.0338 16.1548 32.8543 16.6934 32.1361C16.6934 32.1361 17.0525 31.777 17.7706 31.5975C17.7706 31.5975 18.8479 31.0589 18.8479 29.9817C18.6683 28.9045 17.7706 28.3659 17.7706 28.3659C17.7706 28.3659 16.6934 28.0068 14.3595 28.3659C14.3595 28.3659 13.1027 28.7249 13.1027 29.9817C13.1027 30.1612 13.1027 30.5203 13.1027 30.6998C13.2822 30.8794 13.4618 31.0589 13.6413 31.2384C14.539 31.777 15.2571 31.5975 15.2571 32.4952C15.2571 32.4952 14.8981 32.6747 13.8209 32.6747H13.6413C13.1027 32.6747 12.7436 32.8543 12.205 33.0338C12.205 33.0338 10.2301 30.8794 10.7687 28.3659C10.9483 27.4682 11.4869 26.5705 12.205 25.8523C12.205 25.8523 10.5892 26.391 9.69153 28.1863C9.69153 28.1863 9.33245 28.3659 9.33245 27.8273C9.33245 27.8273 8.79385 24.7751 5.20312 25.3137C5.20312 25.3137 7.89617 25.6728 8.97338 29.084C10.0506 32.4952 10.7687 34.111 10.7687 34.111C10.7687 34.111 11.1278 35.3678 12.205 35.9064C13.2822 36.2655 13.2822 36.6245 15.2571 36.8041C15.2571 36.8041 16.873 37.3427 19.2069 35.9064C19.7455 35.7268 20.2842 35.1882 20.6432 34.6496ZM15.0776 35.1882C13.8209 35.1882 12.7436 34.111 12.7436 34.111C16.5139 33.0338 18.8479 34.2905 18.8479 34.2905C17.7707 35.7268 15.0776 35.1882 15.0776 35.1882Z" fill="#686868"/>
<path d="M30.7007 23.7014C30.5211 23.1628 29.2644 19.5721 26.2123 17.9563C26.2123 17.9563 26.0327 17.9563 26.2123 17.5972L26.9304 16.879L25.3146 17.0586C25.3146 17.0586 26.5713 13.4678 27.1099 12.9292C27.1099 12.9292 25.4941 14.3655 24.2374 17.4176H25.4941L24.776 18.1358V18.3153C24.776 18.3153 24.776 18.3153 24.776 18.4949C25.4941 18.6744 26.7509 19.3925 27.8281 21.0084C30.1621 25.8558 30.3416 27.8307 30.3416 27.8307C30.3416 27.8307 28.5462 26.7535 28.1872 26.0354C27.6486 25.3172 27.6485 25.6763 27.6485 25.6763C27.6485 25.6763 28.0076 28.1898 28.5462 29.8056C29.0848 31.601 28.5462 32.1396 28.5462 32.1396L25.8532 36.2689C25.6737 36.628 25.4941 36.4485 25.4941 36.4485L23.5192 31.601C22.6215 36.628 21.3648 38.7824 21.1853 38.962C21.1853 38.962 20.8262 39.6801 16.5173 41.655C16.5173 41.655 16.3378 41.655 16.3378 41.8346C16.1582 42.0141 15.7992 42.1936 15.081 41.8346C14.3629 41.2959 10.7722 39.321 10.7722 39.321C10.7722 39.321 10.2336 39.1415 10.054 38.2438C9.87448 37.3462 8.79727 34.1145 8.79727 33.3963C8.79727 33.3963 8.25866 33.3963 6.4633 36.628C6.4633 36.4485 4.66794 34.4736 3.94979 32.8578C3.94979 32.6782 3.77025 32.4987 3.77025 32.3191C3.77025 32.1396 3.77026 31.9601 3.94979 31.7805C4.12933 31.601 4.12933 31.4214 4.30886 31.2419C4.66794 30.5238 5.20655 28.7284 5.38608 28.3694C5.38608 28.3694 5.56562 28.1898 5.20654 28.3694C4.30886 28.7284 3.59072 29.0875 2.87257 29.6261C2.87257 29.6261 2.69304 29.8056 2.87257 29.4466C2.87257 29.0875 3.41118 27.2921 5.92469 24.4195C4.84747 24.5991 3.94979 24.9581 2.87257 25.3172C2.87257 25.3172 2.69304 25.3172 2.87257 24.9581C3.05211 24.7786 3.94979 22.6242 4.30886 21.7265C5.74515 18.3153 8.25866 17.7767 8.43819 17.5972C8.79727 17.5972 8.43819 17.4176 8.43819 17.4176L7.36098 16.879C8.43819 16.1609 13.1061 19.3925 13.1061 19.3925C13.1061 19.3925 12.2085 18.3153 10.4131 17.4176C8.43819 16.3404 8.25866 15.8018 8.25866 15.8018C6.4633 12.9292 5.20654 12.3906 5.20654 12.3906C7.89959 16.6995 7.18144 16.3404 7.18144 16.3404L5.56562 16.52L6.64283 17.5972C5.20654 18.3153 4.66793 19.0335 4.66793 19.0335C3.23165 20.6493 1.9749 22.9833 1.61582 23.7014C1.07722 24.9582 0.359072 26.7535 0 28.3694C0 28.3694 -2.74218e-06 28.5489 0.179533 28.3694C0.538605 28.1898 2.15443 27.2921 2.15443 27.2921C2.15443 27.2921 1.07721 29.267 0.538607 32.6782C0.538607 32.6782 1.97489 31.0624 3.05211 30.8828C3.05211 30.8828 3.23165 30.8829 2.69304 32.3191C2.69304 32.3191 2.15443 33.2168 3.05211 34.294C4.12933 36.2689 5.56562 38.0643 7.36098 39.5006C7.36098 39.5006 7.72005 37.1666 8.25866 36.9871C8.25866 36.9871 8.61773 39.321 9.15634 39.8596C9.69494 40.3983 15.4401 43.6299 15.4401 43.6299C15.4401 43.6299 15.9787 44.1685 17.0559 43.4504L22.0829 40.9369C22.0829 40.9369 22.9806 40.5778 23.1602 39.8596L24.0578 36.9871C24.4169 36.2689 24.776 39.6801 24.776 39.6801C24.776 40.3982 24.9555 40.2187 24.9555 40.2187C30.1621 35.5508 30.3416 31.601 30.3416 31.601C30.3416 31.601 29.4439 27.8307 30.3416 29.267C30.8802 30.1647 31.5983 30.8829 32.3165 31.4215C32.137 27.4717 31.4188 25.1377 30.7007 23.7014Z" fill="#686868"/>
<path d="M9.33548 9.16582H19.569L18.3123 7.55H14.0034L17.4146 3.24115L16.3374 1.98438L13.4648 5.39558L8.79688 2.52299L9.33548 9.16582ZM12.2081 6.83187L13.2853 7.55H10.9513L10.7718 5.93419L12.2081 6.83187Z" fill="#686868"/>
<path d="M19.747 9.15859H21.5423L19.747 6.6451L23.3377 4.67019L23.6968 2.69531L18.8493 5.38835L17.2335 3.41345L16.1562 4.67019L19.747 9.15859Z" fill="#686868"/>
<path d="M21.3588 6.10064L21.1792 7.53693H20.6406L21.8974 9.15274H22.436L23.3337 5.02344L21.3588 6.10064Z" fill="#686868"/>
<path d="M15.7946 1.79536L14.1788 0L13.1016 1.25675L14.8969 3.05211L15.7946 1.79536Z" fill="#686868"/>
<path d="M9.33594 9.5233C9.33594 9.70283 9.33594 9.70283 9.33594 9.88236L9.51547 10.0619L9.69501 10.2414C9.87455 10.2414 9.87455 10.2414 10.0541 10.2414H21.7239C21.9035 10.2414 21.9035 10.2414 22.083 10.2414L22.2625 10.0619L22.4421 9.88236C22.4421 9.70283 22.4421 9.70283 22.4421 9.5233V9.34375L9.33594 9.5233Z" fill="#686868"/>
<path d="M8.43674 2.32661C8.43674 2.14707 8.43674 1.96752 8.43674 1.96752C8.43674 1.78798 8.61628 1.78799 8.61628 1.60845C8.79582 1.42891 8.79582 1.42893 8.97535 1.42893C9.15489 1.42893 9.33442 1.42893 9.33442 1.42893C9.15489 1.42893 8.97535 1.42893 8.97535 1.42893C8.79582 1.42893 8.79582 1.24938 8.61628 1.24938C8.43674 1.06985 8.43674 1.06985 8.43674 0.890317C8.43674 0.710781 8.43674 0.53125 8.43674 0.53125C8.43674 0.710786 8.43674 0.890317 8.43674 0.890317C8.43674 1.06985 8.25721 1.06985 8.25721 1.24938C8.07767 1.42892 8.07767 1.42893 7.89814 1.42893C7.7186 1.42893 7.53906 1.42893 7.53906 1.42893C7.89813 1.42893 8.07767 1.60846 8.25721 1.788C8.25721 1.788 8.43674 1.96754 8.43674 2.32661Z" fill="#686868"/>
<path d="M23.5227 2.3421C23.5227 1.98302 23.7022 1.80347 23.8818 1.62393C24.0613 1.4444 24.4204 1.26487 24.5999 1.26487C24.4204 1.26487 24.2408 1.26487 24.2408 1.26487C24.0613 1.26487 24.0613 1.08532 23.8818 1.08532C23.7022 0.905785 23.7022 0.90579 23.7022 0.726254C23.7022 0.546718 23.7022 0.367188 23.7022 0.367188C23.7022 0.72626 23.5227 0.905785 23.3431 1.08532C23.1636 1.26486 22.8045 1.44441 22.625 1.44441C22.9841 1.44441 23.1636 1.62395 23.3431 1.80348C23.3431 1.80348 23.5227 2.16256 23.5227 2.3421Z" fill="#686868"/>
<path d="M15.8038 38.4294C15.8038 38.2498 15.8038 38.0703 15.8038 38.0703C15.8038 38.4294 15.6242 38.6089 15.4447 38.7884C15.2652 38.968 14.9061 39.1475 14.7266 39.1475C15.0856 39.1475 15.2652 39.3271 15.4447 39.5066C15.6242 39.6861 15.8038 40.0452 15.8038 40.2247C15.8038 39.8657 15.9833 39.6861 16.1629 39.5066C16.3424 39.3271 16.7015 39.1475 16.881 39.1475C16.7015 39.1475 16.5219 39.1475 16.5219 39.1475C16.3424 39.1475 16.3424 38.968 16.1629 38.968C15.9833 38.6089 15.9833 38.6089 15.8038 38.4294Z" fill="#686868"/>
<path d="M43.7994 11.3202H47.9287V24.7854C47.9287 29.2738 45.9538 31.7873 41.8245 31.7873C40.2087 31.7873 38.4133 31.2487 37.5156 30.71V26.0421C38.5928 26.9398 39.8496 27.6579 41.1063 27.6579C42.7222 27.6579 43.7994 26.7603 43.7994 24.7854V11.3202ZM64.087 25.5035H54.0329C54.392 27.1193 55.8283 28.1966 57.9827 28.1966C59.7781 28.1966 61.5735 27.6579 63.0097 26.7603V30.71C61.753 31.4282 59.7781 31.7873 57.6237 31.7873C53.3148 31.7873 49.9036 28.7352 49.9036 24.0672C49.9036 19.7584 52.9557 16.3472 57.2646 16.3472C61.5735 16.3472 64.2665 19.5788 64.2665 23.3491C64.2665 24.0672 64.087 24.9649 64.087 25.5035ZM57.2646 19.7584C55.4692 19.7584 54.2125 20.8356 53.8534 22.2719H60.3167C60.3167 20.8356 59.06 19.7584 57.2646 19.7584ZM75.5773 19.9379L70.0117 28.017H75.5773V31.4282H65.3437V28.1966L70.5503 20.1174H65.5233V16.7063H75.3977V19.9379H75.5773ZM81.861 29.6328V31.6077H77.7317V11.1406H81.6815V18.6811C82.7587 17.2448 84.3745 16.5267 86.1699 16.5267C90.2992 16.5267 93.1718 19.9379 93.1718 24.2468C93.1718 28.5556 90.2992 31.9668 86.1699 31.9668C84.3745 31.9668 82.7587 31.0691 81.861 29.6328ZM81.861 24.2468C81.861 26.2217 83.4769 28.017 85.6313 28.017C87.7857 28.017 89.222 26.2217 89.222 24.2468C89.222 22.2719 87.6062 20.4765 85.6313 20.4765C83.2973 20.4765 81.861 22.0923 81.861 24.2468ZM108.612 25.5035H98.5579C98.917 27.1193 100.353 28.1966 102.508 28.1966C104.303 28.1966 106.098 27.6579 107.535 26.7603V30.71C106.278 31.4282 104.303 31.7873 102.149 31.7873C97.8397 31.7873 94.4286 28.7352 94.4286 24.0672C94.4286 19.7584 97.4807 16.3472 101.79 16.3472C106.098 16.3472 108.791 19.5788 108.791 23.3491C108.791 24.0672 108.612 24.9649 108.612 25.5035ZM101.79 19.7584C99.9942 19.7584 98.7374 20.8356 98.3783 22.2719H104.842C104.842 20.8356 103.585 19.7584 101.79 19.7584ZM114.716 16.7063V18.5016C115.434 17.2449 116.691 16.3472 118.666 16.3472C121.898 16.3472 123.872 18.6811 123.872 21.9128V31.4282H119.743V22.99C119.743 21.3742 118.845 20.297 117.23 20.297C115.793 20.297 114.716 21.1946 114.716 22.8105V31.4282H110.766V16.7063H114.716Z" fill="#686868"/>
</svg>
