<svg width="78" height="70" viewBox="0 0 78 70" fill="none" xmlns="http://www.w3.org/2000/svg">
<path d="M33.3585 0.0131916C40.172 -0.161515 45.4132 1.41085 49.6062 4.03145C50.6544 4.73027 51.7027 5.4291 52.5762 6.30264C52.7509 6.47734 53.275 7.00146 53.1003 7.52558C52.9256 7.87499 52.5762 7.87498 52.0521 7.87498C51.3533 7.70028 50.6545 7.35086 49.7809 7.00145C48.7327 6.47733 47.5098 6.12792 46.2868 5.77851C45.588 5.60381 44.7144 5.42909 44.0155 5.25439C43.3167 5.07968 42.4432 5.07969 41.7444 4.90498C41.5697 4.90498 41.2203 4.90498 41.0456 4.90498C40.3468 4.73027 39.2985 4.73026 38.425 4.73026H37.202C36.6779 4.90497 36.1538 4.73027 35.6296 4.90498C35.2802 5.07969 34.7561 4.90499 34.4067 5.0797C33.5331 5.2544 32.485 5.25438 31.6114 5.60379C30.2138 5.95321 28.8161 6.30264 27.4184 6.82676C24.6231 8.04971 22.352 9.44735 20.0808 11.0197C19.5567 11.3691 19.0326 11.8932 18.5084 12.4174C18.3337 12.5921 18.159 12.7668 18.159 12.9415C17.2855 13.6403 16.412 14.5138 15.7132 15.3874C15.5385 15.5621 15.189 15.9115 15.0143 16.0862C14.4902 16.785 13.7914 17.6586 13.2672 18.5321C12.0443 20.2792 11.1707 22.3756 10.2972 24.2974C9.77308 25.5204 9.59842 26.7433 9.24901 27.9662C9.0743 28.3156 9.24894 28.6651 9.07424 29.0145C8.89953 29.7133 8.89962 30.5868 8.72491 31.2857C8.72491 31.6351 8.72491 31.8098 8.72491 32.1592C8.72491 32.6833 8.72491 33.0327 8.72491 33.5568C8.5502 34.081 8.5502 34.9545 8.72491 35.3039V36.1774C8.89962 36.7016 8.72487 37.4004 8.89957 37.9245C9.07428 38.6233 9.07424 39.1475 9.07424 39.8463C9.24894 40.7198 9.42369 41.7681 9.77311 42.6416C10.2972 43.8645 10.6466 45.2622 11.1707 46.4851C11.3454 47.0093 11.5202 47.5334 11.8696 48.0575C12.219 48.7563 12.5684 49.4551 12.9178 49.9793C13.0925 50.3287 13.6166 50.6781 13.4419 51.3769C13.4419 51.3769 13.4419 51.3769 13.2672 51.3769C12.7431 51.5516 12.0443 50.6781 11.8696 50.5034C10.6467 49.2804 9.59838 47.7081 8.55014 46.3104C7.5019 44.7381 6.62837 42.991 5.92954 41.2439C5.40542 40.1957 5.23076 38.9727 4.88135 37.9245C4.53193 36.8763 4.53189 35.4786 4.18248 34.4304C4.18248 34.081 4.18248 33.7315 4.18248 33.5568C4.00777 33.0327 4.00781 32.5086 4.00781 31.9845V30.9362C4.00781 30.7615 4.00781 30.4121 4.00781 30.0627C4.00781 29.7133 4.00781 29.1892 4.00781 29.0145V28.3156C4.00781 27.7915 4.18248 27.0927 4.18248 26.5686C4.53189 24.9962 4.7066 23.5986 5.05601 22.2009C5.58013 20.6286 6.10429 19.2309 6.62841 17.8333C7.32724 16.2609 8.37547 14.6885 9.24901 13.2909C12.7431 8.39911 17.2854 4.73027 23.0508 2.28438C24.4484 1.76026 26.0208 1.41085 27.4184 1.06144C28.1172 0.886735 28.8161 0.88674 29.5149 0.712034C30.3885 0.537327 31.262 0.537317 32.1355 0.537317C32.8343 0.013197 33.1838 0.187898 33.3585 0.0131916Z" fill="#686868"/>
<path d="M4.71699 17.4766C4.8917 17.4766 5.06642 17.4766 5.06642 17.6513C5.24113 18.0007 4.8917 18.8742 4.71699 19.2236C4.19287 20.6213 3.84354 22.1936 3.49413 23.766C3.31942 24.6395 3.3194 25.3384 3.1447 26.2119C2.96999 27.0854 2.96997 28.3084 2.79526 29.3566V30.5795C2.62055 30.929 2.79526 32.1519 2.79526 32.676C2.79526 33.0254 2.79526 33.3749 2.79526 33.899C2.79526 34.2484 2.79522 34.5978 2.96993 34.9472C3.14463 35.8207 3.14465 36.6943 3.31936 37.3931C3.49407 38.2667 3.66875 39.1402 3.84346 40.0137C4.19287 41.062 4.36764 42.2849 4.89176 43.1584C5.24117 43.8572 5.59054 44.7308 5.93996 45.4296C6.11466 45.9537 6.28941 46.4779 6.63883 47.002C6.98824 47.7008 7.33767 48.3996 7.86179 49.0984C8.56062 50.3214 9.43409 51.3696 10.3076 52.5926C10.8317 53.4661 11.5306 53.9902 12.2295 54.8638C12.4042 55.0385 12.7535 55.3879 12.9282 55.5626C13.2776 56.0867 13.8018 56.4361 14.1512 56.7855C14.3259 56.9603 14.3259 57.1349 14.5006 57.1349C14.85 57.4843 15.1994 57.659 15.5488 58.0085C15.8982 58.1832 16.2477 58.5326 16.5971 58.882C17.4706 59.5808 18.5188 60.2797 19.567 60.8038C20.9647 61.6773 22.7118 62.5508 24.2841 63.2497C24.8083 63.4244 25.3324 63.5991 25.8565 63.7738C27.7783 64.4726 29.7001 64.822 31.9713 65.5209C32.6701 65.6956 33.5436 65.6955 34.2424 65.8703C34.4171 65.8703 34.7666 65.8703 34.9413 65.8703C35.8148 66.045 36.863 66.045 37.7366 66.045H38.9595C40.0078 66.045 40.8813 65.8703 41.9296 65.8703C42.6284 65.6955 43.3271 65.6956 44.026 65.5209C45.5983 65.1715 47.3455 64.822 48.9178 64.2979C49.9661 63.9485 51.0142 63.5991 51.8877 63.2497C52.4119 63.075 52.7613 62.5509 53.4601 62.7256C53.4601 62.9003 53.4601 62.9002 53.4601 63.0749C53.2854 63.2496 53.2855 63.2497 53.2855 63.4244C52.5867 63.9485 51.7131 64.2979 50.8396 64.822C48.9178 65.8702 46.8213 66.7438 44.5502 67.4426C43.3272 67.792 41.9295 68.1414 40.7066 68.4909C40.0078 68.6656 39.4836 68.6656 38.7848 68.8403C37.9112 68.8403 37.2125 69.015 36.3389 69.015H35.2906C34.9412 69.015 34.2425 69.1897 33.7183 69.015H33.0195C32.4953 69.015 31.9712 69.015 31.6218 68.8403C30.923 68.6656 30.0495 68.8403 29.3507 68.6656C28.8266 68.4909 28.1277 68.4908 27.4288 68.3161C26.2059 67.9667 24.9829 67.792 23.9347 67.4426C13.1029 63.7738 5.06642 56.0867 1.57229 45.0802C1.04818 43.5078 0.698741 41.5861 0.349328 39.839C0.174621 39.1402 0.34937 38.4414 0.174664 37.7425C-4.26556e-05 37.0437 0 36.1702 0 35.2966C0 34.9472 0 34.5978 0 34.2484V33.2001C0 32.5013 0.174664 31.6278 0.174664 30.929C0.34937 29.8807 0.524056 29.0072 0.698762 27.959C1.22288 25.8625 1.57229 23.9407 2.44583 22.1936C2.96995 21.1454 3.31934 19.9225 3.84346 19.0489C4.01816 18.6995 4.19291 18.1754 4.54233 17.826C4.54233 17.6513 4.71699 17.4766 4.71699 17.4766Z" fill="#686868"/>
<path d="M27.779 42.8125C29.1766 42.8125 29.7007 43.1619 30.3996 43.8607C30.0502 44.0355 29.8755 44.3849 29.526 44.3849C29.1766 44.0355 28.4778 43.3366 27.6043 43.686C27.4296 43.8607 27.2549 43.8607 27.0802 44.0354C27.0802 44.2101 27.0802 44.3849 27.0802 44.5596C27.9537 45.0837 29.5261 45.0837 30.2249 45.9572C30.3996 46.1319 30.5743 46.4813 30.3996 46.8308C30.3996 47.1802 30.2248 47.5296 30.0501 47.7043C29.526 48.2284 28.1285 48.5778 27.0802 48.4031C26.3814 48.2284 26.0319 47.879 25.6825 47.3549C25.8572 47.1802 26.2066 47.0055 26.556 46.8308C26.7307 47.3549 28.1284 47.879 29.0019 47.5296C29.1766 47.5296 29.1767 47.3549 29.3514 47.1802C29.3514 46.8307 29.3514 46.8307 29.3514 46.656C28.3031 46.1319 26.7308 46.3066 26.2067 45.0837C26.032 44.7343 26.032 44.3849 26.2067 44.0354C26.3814 43.8607 26.3814 43.5113 26.7308 43.3366C26.9055 43.1619 27.2549 42.9872 27.6043 42.9872C27.4296 42.8125 27.6043 42.9872 27.779 42.8125ZM55.2079 44.909C55.2079 44.2101 54.3343 43.686 53.6355 44.0354C52.9367 44.2101 52.5873 44.909 52.5873 45.7825V46.3066C52.762 47.1802 53.1115 47.5296 53.8103 47.7043C53.985 47.7043 54.3344 47.7043 54.6838 47.7043C54.8585 47.5296 55.0332 47.3549 55.2079 47.1802C55.3826 47.0055 55.3826 46.8307 55.3826 46.656C55.732 46.8307 55.9067 47.0055 56.2561 47.0055C56.0814 48.0537 54.3344 49.1019 52.9368 48.5778C52.0632 48.2284 51.5391 47.5296 51.3644 46.656C51.3644 46.4813 51.3644 46.1319 51.3644 45.9572C51.3644 45.7825 51.3644 45.2584 51.3644 45.0837C51.7138 43.8607 52.4126 43.3366 53.6355 42.9872C54.6838 42.8125 55.5573 43.5113 55.732 44.0354C55.732 44.2101 56.0814 44.5596 56.0814 44.7343C56.0814 44.7343 55.5573 44.909 55.2079 44.909ZM57.8285 42.9872V44.909C58.3526 44.2101 59.7503 44.3849 60.2744 45.0837C60.6239 45.6078 60.4491 47.5296 60.4491 48.5778C60.2744 48.5778 59.7503 48.5778 59.5756 48.5778C59.5756 48.4031 59.5756 48.0537 59.5756 47.7043V45.9572L59.4009 45.7825C59.2262 45.7825 59.2262 45.6078 59.0515 45.6078C58.8768 45.6078 58.5273 45.6078 58.3526 45.7825C57.4791 46.1319 57.8285 47.5296 57.8285 48.7525H56.955V43.1619C57.1297 43.1619 57.1297 43.1619 57.3044 43.1619C57.4791 42.9872 57.6538 42.9872 57.8285 42.9872ZM66.3892 42.9872V44.0354H65.5156C65.5156 43.8607 65.5156 43.3366 65.5156 43.1619C65.6903 42.9872 66.0398 42.9872 66.3892 42.9872ZM44.2014 42.9872H45.075V48.5778H44.2014V42.9872ZM65.3409 44.5596H66.2144V48.5778H65.3409V44.5596ZM70.5821 48.5778H69.7085C69.7085 47.879 69.8832 45.7825 69.3591 45.6078C69.1844 45.4331 68.835 45.6078 68.4856 45.6078C67.9614 45.9572 68.1362 47.5296 68.1362 48.5778H67.2627V44.7343H68.1362V45.0837C68.4857 44.3849 70.058 44.3849 70.4074 45.0837C70.7568 45.6078 70.5821 47.7043 70.5821 48.5778ZM30.9237 44.5596H31.7972C31.7972 45.0837 31.6225 47.0055 31.7972 47.3549C31.7972 47.5296 31.9719 47.5296 32.1466 47.7043C32.3213 47.7043 32.496 47.7043 32.6707 47.7043C33.5443 47.5296 33.3696 45.7825 33.3696 44.5596C33.5443 44.5596 34.0684 44.5596 34.2431 44.5596C34.4178 45.0837 34.2431 46.1319 34.2431 46.8308C34.0684 47.0055 34.2431 48.2284 34.2431 48.5778H33.3696V48.2284C32.8455 48.9272 31.4478 48.7525 30.9237 48.2284C30.749 47.5296 30.9237 45.6078 30.9237 44.5596ZM46.6473 44.5596C46.9967 45.4331 47.1714 46.4813 47.5208 47.3549C47.6955 46.4813 48.045 45.4331 48.2197 44.5596H49.2679C49.0931 44.7343 49.0932 45.0837 49.0932 45.4331C48.7438 46.3066 48.5691 47.5296 48.2197 48.4031C48.045 48.9272 48.0449 49.2767 47.5208 49.6261C47.1714 49.8008 46.6473 49.8008 46.2979 49.6261V48.7525C46.4726 48.9272 46.822 48.7525 46.9967 48.7525C46.9967 48.5778 47.1715 48.5778 47.1715 48.4031C46.9968 48.0537 46.9967 47.7043 46.822 47.3549C46.4726 46.4813 45.9484 45.4331 45.7737 44.5596H46.6473ZM36.3396 49.8008H35.4661C35.4661 48.0537 35.4661 46.3066 35.4661 44.5596H36.3396C36.3396 44.7343 36.3396 44.7343 36.3396 44.909C36.5143 44.5596 37.3878 44.3849 37.9119 44.5596C38.6108 44.7343 39.3096 45.7825 39.1349 47.0055C38.9602 47.879 38.2613 48.9272 37.0384 48.5778C36.689 48.5778 36.5143 48.4031 36.3396 48.2284V49.2766C36.3396 49.2766 36.3396 49.6261 36.3396 49.8008ZM37.0384 45.4331C35.8155 45.7825 36.1649 48.0537 37.3878 47.7043C38.6108 47.5296 38.6108 45.4331 37.0384 45.4331ZM40.7073 49.8008H39.8338V44.7343C40.0085 44.7343 40.5326 44.7343 40.7073 44.7343V45.0837C41.0567 44.7343 41.9302 44.5596 42.4544 44.7343C42.9785 44.909 43.6773 45.9572 43.5026 47.0055C43.3279 47.879 42.9785 48.4031 42.1049 48.7525C41.9302 48.7525 41.5808 48.9272 41.2314 48.7525C41.0567 48.7525 40.8819 48.4031 40.5325 48.4031V49.8008H40.7073ZM41.5808 45.4331C41.0567 45.7825 40.882 45.6078 40.7073 46.3066C40.5326 47.0055 41.0567 48.0537 41.7555 47.879C42.9784 47.5296 42.9785 45.4331 41.5808 45.4331ZM63.5938 48.5778C63.5938 48.4031 63.5938 48.4031 63.5938 48.2284C62.7203 48.7525 61.6721 48.7525 61.148 47.879C61.148 47.7043 60.9732 47.5296 60.9732 47.1802C61.1479 46.3066 61.8468 46.3066 62.895 45.9572C63.0698 45.9572 63.4191 45.7825 63.5938 45.7825C63.5938 45.6078 63.5938 45.6078 63.5938 45.4331C63.4191 45.4331 63.4191 45.2584 63.4191 45.2584C63.2444 45.0837 62.7203 45.2584 62.3708 45.2584C62.1961 45.4331 62.1962 45.4331 62.1962 45.7825C62.0215 45.7825 61.4973 45.7825 61.3226 45.7825C61.3226 45.0837 61.8467 44.7343 62.3708 44.5596C63.2444 44.3849 64.4674 44.5596 64.6421 45.0837C64.8168 45.2584 64.6421 45.7825 64.6421 46.1319C64.6421 47.0055 64.6421 47.879 64.8168 48.5778C64.2927 48.5778 63.9432 48.5778 63.5938 48.5778ZM63.5938 46.656C63.2444 46.8307 62.7203 46.8308 62.3708 47.0055C62.1961 47.0055 62.1962 47.1802 62.0215 47.3549C62.0215 47.5296 62.0215 47.7043 62.0215 47.7043C62.7203 48.2284 63.0697 47.879 63.5938 47.3549V46.656ZM27.6043 50.6743C28.6526 50.6743 29.1767 50.849 29.7008 51.1984C29.8755 51.3731 30.0502 51.5478 30.2249 51.7225C30.0502 51.8972 29.3514 52.2467 29.3514 52.2467C29.1767 52.072 29.1766 51.8972 29.0019 51.7225C28.6525 51.5478 27.9537 51.1984 27.4295 51.5478C27.2548 51.7225 27.0801 51.8972 26.9054 52.0719V52.2467C27.779 53.2949 29.8755 52.5961 30.2249 54.1684C30.5743 55.7408 28.6525 56.6143 27.2549 56.2649C26.2066 56.0902 26.0319 55.7408 25.5078 55.2166C25.8572 55.0419 26.0319 54.8673 26.3813 54.6925C26.7308 55.2167 27.779 55.7408 28.6525 55.3914C28.8272 55.2167 29.0019 55.042 29.1766 54.8673C29.1766 54.6926 29.1766 54.5178 29.1766 54.5178C29.0019 53.9937 27.2548 53.9937 26.556 53.6443C25.8572 53.1202 25.5078 51.7225 26.3813 51.1984C26.5561 51.0237 26.9055 50.849 27.2549 50.6743C27.4296 50.6743 27.6043 50.6743 27.6043 50.6743ZM35.4661 50.849H36.3396V56.4396H35.2913C35.2913 54.5178 35.4661 52.5961 35.4661 50.849ZM41.7555 50.849H42.629V52.4214H43.5026V53.1202H42.629V54.8673C42.629 55.2167 42.6291 55.3914 42.8038 55.5661C42.9785 55.7408 43.3279 55.5661 43.5026 55.5661V56.2649C42.9784 56.2649 42.105 56.4396 41.9303 55.9155C41.7556 55.7408 41.7555 55.2167 41.7555 54.8673V52.9455H41.2314V52.2467H41.7555C41.7555 51.8973 41.7555 51.3731 41.7555 50.849ZM43.852 50.849H44.7255V51.7225H43.852V50.849ZM53.4609 56.4396H52.5873C52.5873 55.5661 52.7621 54.3431 52.4127 53.6443C52.2379 53.6443 52.2379 53.4696 52.0632 53.4696C51.7138 53.2949 51.3644 53.4696 51.1897 53.6443C50.6656 54.1684 50.8403 55.5661 50.8403 56.4396H49.9667V52.5961H50.8403V53.1202C51.015 52.9455 51.1896 52.7708 51.3644 52.5961C51.5391 52.4214 52.0632 52.4214 52.2379 52.5961C52.5873 52.5961 52.762 52.7708 52.9368 52.9455C53.6356 53.2949 53.4609 55.3914 53.4609 56.4396ZM55.3826 52.4214C56.2561 52.4214 57.3044 52.5961 57.4791 53.1202C57.3044 53.2949 57.1297 53.4696 56.7803 53.6443C56.6056 53.2949 55.9067 52.7708 55.3826 53.1202C55.2079 53.1202 55.2079 53.2949 55.2079 53.2949C55.0332 53.6443 55.7321 53.819 55.9068 53.819C56.6056 53.9937 57.8286 54.1684 57.6539 55.2166C57.3044 56.4396 55.9068 56.6143 54.6838 56.0902C54.3344 55.9155 54.1597 55.9155 53.9849 55.5661C54.1597 55.5661 54.6838 55.042 54.6838 55.042C55.2079 55.5661 55.5573 55.5661 56.2561 55.3914C56.4308 55.2167 56.4309 55.2167 56.4309 54.8673C55.5574 54.3431 54.5091 54.6925 54.1597 53.819C54.1597 53.6443 53.985 53.2949 54.1597 53.1202C54.1597 52.9455 54.3343 52.7708 54.509 52.5961C54.8585 52.4214 55.2079 52.5961 55.3826 52.4214ZM43.852 52.4214H44.7255V56.4396C44.5508 56.4396 44.0267 56.4396 43.852 56.4396V52.4214ZM37.2132 52.4214H38.0867C38.0867 53.4696 38.0867 54.5178 38.2614 55.3914C38.4361 55.5661 38.9603 55.7408 39.3097 55.5661C40.0085 55.3914 39.8338 53.4696 39.8338 52.5961H40.7073C40.882 52.9455 40.7073 53.4696 40.7073 53.819V56.4396H39.659V56.0902C39.1349 56.789 37.7372 56.6143 37.3878 55.9155C37.0384 55.3914 37.2132 53.2949 37.2132 52.4214ZM32.3214 52.2467C33.5444 52.2467 34.2432 52.596 34.5926 53.4696C35.1167 54.6925 34.4178 56.0902 33.3696 56.4396C31.7972 56.9637 30.2249 55.5661 30.749 53.819C30.9237 53.2949 31.2731 52.7708 31.6225 52.5961C31.972 52.4214 32.1467 52.4214 32.3214 52.2467ZM32.6707 53.1202C32.496 53.1202 32.3214 53.2949 32.3214 53.2949C32.1467 53.4696 31.972 53.6443 31.972 53.819C31.7973 54.6925 32.3214 55.7408 33.1949 55.5661C34.2432 55.2167 34.0684 53.1202 32.6707 53.1202ZM47.3461 52.2467C48.9185 52.2467 49.9667 53.6443 49.2679 55.3914C49.0931 55.9155 48.3944 56.2649 47.6956 56.4396C46.1232 56.789 44.9003 54.8672 45.4244 53.4696C45.5991 53.1202 45.9485 52.5961 46.2979 52.4214C46.822 52.4214 47.1714 52.4214 47.3461 52.2467ZM47.1715 53.1202C46.822 53.2949 46.4726 53.4696 46.4726 53.819C46.2979 54.6925 46.822 55.7408 47.6956 55.5661C48.9185 55.2167 48.7438 53.1202 47.1715 53.1202Z" fill="#686868"/>
<path d="M66.3966 18.5312C70.0654 18.5312 72.5112 19.4048 74.6077 20.9771C74.9571 21.1518 75.3066 21.5013 75.656 21.676L76.1801 22.2001C76.3548 22.2001 76.7042 22.5495 76.7042 22.7242C76.5295 23.0736 76.0054 23.2483 75.8307 23.423C75.1319 23.9472 74.433 24.4713 73.7342 24.8207C73.3848 24.9954 73.2101 25.3448 72.686 25.5195C72.5113 25.1701 72.1619 24.9954 71.8125 24.8207C71.463 24.646 71.1137 24.2965 70.7643 23.9471C69.8907 23.423 69.0172 23.2483 67.7942 23.0736C67.4448 23.0736 66.9206 23.0736 66.7459 23.0736C65.6977 23.2483 65.1737 23.423 64.6495 24.2966C64.4748 24.646 64.3001 25.1701 64.4748 25.6942C64.9989 27.2666 67.4448 26.9172 69.1919 27.2666C72.1619 27.9654 74.6078 28.1401 76.1801 30.2366C76.5295 30.7607 76.7043 31.4595 76.879 32.3331C77.0537 33.0319 77.0537 34.0801 76.879 34.779C76.1802 37.5743 74.6078 38.9719 72.1619 40.0202C71.4631 40.1949 70.7642 40.3695 70.0654 40.5443C69.8907 40.5443 69.716 40.5443 69.5413 40.5443C69.0172 40.719 67.6195 40.8937 67.0954 40.719C66.7459 40.719 66.2218 40.719 65.8724 40.719C64.9989 40.5443 64.1254 40.5443 63.4266 40.1948C61.8542 39.6707 60.6313 38.9719 59.4083 38.0984C58.8842 37.5743 58.3601 36.8754 57.8359 36.526C58.8842 36.0019 59.7577 35.3031 60.806 34.779C61.1554 34.6043 61.5048 34.0801 62.0289 34.0801C62.7278 35.1284 64.4747 36.0019 65.8724 36.3513C66.3965 36.526 66.746 36.526 67.2701 36.526H67.9689C69.3665 36.526 70.5895 36.1766 71.1136 35.3031C71.2883 34.9536 71.8125 34.4295 71.6378 33.7307C71.2884 32.6825 70.0654 32.5078 69.0172 32.3331C68.8425 32.3331 68.493 32.3331 68.3183 32.3331C67.6195 32.1583 66.9207 32.1584 66.3966 32.1584C64.6495 31.809 62.9024 31.4595 61.6795 30.7607C60.806 30.2366 59.9324 29.363 59.583 28.3148C59.4083 27.9654 59.4083 27.616 59.2336 27.0919C59.0589 26.5677 59.2336 25.5195 59.2336 24.9954C59.4083 24.4713 59.4083 24.1219 59.4083 23.7724C59.9325 22.3748 60.9807 21.1518 62.2036 20.453C63.0771 19.9289 64.1254 19.5795 65.1736 19.4048C65.3483 18.706 65.8725 18.706 66.3966 18.5312Z" fill="#686868"/>
<path d="M38.2669 23.5888H32.1521V38.0894C32.1521 38.6135 32.1521 39.4871 32.1521 40.0112C31.8027 40.1859 30.9292 40.0112 30.4051 40.0112H26.7363V23.5888H21.3203V19.0464C21.495 18.8717 22.1939 19.0464 22.3686 19.0464H35.4716C35.821 19.0464 36.3452 19.0464 36.6946 19.0464C36.6946 19.5705 37.044 20.0946 37.2187 20.444C37.3934 21.1429 37.5681 21.667 37.7428 22.3658C38.0922 22.7152 38.2669 23.0646 38.2669 23.5888Z" fill="#686868"/>
<path d="M38.9531 19.0469H42.6219C43.3207 19.0469 44.0196 19.0469 44.5438 19.0469C45.9414 23.9387 47.339 28.6557 48.7366 33.5475C48.7366 33.0234 49.086 32.3246 49.2607 31.9751C49.6102 30.7522 49.9596 29.5293 50.309 28.481C51.0079 26.2098 51.532 23.9387 52.2308 21.6675C52.5802 20.7939 52.5802 20.0951 52.9296 19.2216C53.4538 19.0469 54.1526 19.2216 54.6767 19.2216H58.5203C58.5203 19.2216 58.5202 19.2216 58.6949 19.2216C58.6949 19.571 58.5202 19.9204 58.3455 20.0951C58.1708 20.6192 57.9962 21.318 57.6467 21.8422C57.1226 23.0651 56.9479 24.2881 56.4238 25.3363C56.2491 25.8604 56.0744 26.5592 55.8997 27.0834C54.8514 29.704 54.1525 32.4993 53.1043 35.1199C53.1043 35.2946 52.9296 35.644 52.9296 35.8187C52.5802 36.6922 52.2308 37.7404 51.8813 38.7887C51.8813 38.9634 51.532 40.0116 51.3572 40.1863H45.9414C45.4173 38.9634 45.0678 37.5658 44.7184 36.3428C43.6702 33.8969 43.1461 31.1016 42.0978 28.6557C41.7484 27.7822 41.5737 27.0834 41.2243 26.2098C40.5255 24.6375 40.176 23.0651 39.6519 21.4928C39.4772 20.9686 39.3025 20.4445 39.1278 19.9204C39.1278 19.571 38.9531 19.3963 38.9531 19.0469Z" fill="#686868"/>
</svg>
