<svg width="163" height="38" viewBox="0 0 163 38" fill="none" xmlns="http://www.w3.org/2000/svg">
<path d="M2.17514 34.8024C16.1928 29.7271 20.5431 23.4433 20.5431 12.0842V11.6008H2.17514V34.8024ZM2.17514 9.42565C11.6008 9.42565 15.9511 7.2505 16.9179 2.17514H2.17514V9.42565ZM0 0H19.5764C19.5764 4.35031 17.643 7.49218 14.0177 9.42565H23.2016V11.8425C23.2016 25.1351 17.6429 31.9022 0 37.9443V0Z" fill="#686868"/>
<path d="M48.5849 26.3435C45.9264 20.0597 44.2346 11.8425 43.7513 2.17514H41.5761C40.8511 12.0842 39.401 20.0597 36.7425 26.3435H48.5849ZM49.5517 28.7603C49.31 28.277 49.31 28.0353 49.0683 27.5519H36.2591C36.0174 28.0353 36.0174 28.277 35.7757 28.7603H49.5517ZM56.0772 37.7027C53.902 35.7692 51.7268 33.1106 50.0351 29.9688H34.8089C33.1172 33.1106 31.1837 35.7692 28.7669 37.7027H25.625C33.8422 30.6938 37.9509 19.3347 38.9176 0H45.4431C46.4098 19.3347 50.5184 30.6938 58.7357 37.7027H56.0772Z" fill="#686868"/>
<path d="M69.12 34.8024C83.1376 29.7271 87.4879 23.4433 87.4879 12.0842V11.6008H69.12V34.8024ZM69.12 9.42565C78.5456 9.42565 82.8959 7.2505 83.8627 2.17514H69.12V9.42565ZM66.7031 0H86.2795C86.2795 4.35031 84.346 7.49218 80.7207 9.42565H89.9048V11.8425C89.9048 25.1351 84.346 31.9022 66.7031 37.9443V0Z" fill="#686868"/>
<path d="M2.17514 34.8024C16.1928 29.7271 20.5431 23.4433 20.5431 12.0842V11.6008H2.17514V34.8024ZM2.17514 9.42565C11.6008 9.42565 15.9511 7.2505 16.9179 2.17514H2.17514V9.42565ZM0 0H19.5764C19.5764 4.35031 17.643 7.49218 14.0177 9.42565H23.2016V11.8425C23.2016 25.1351 17.6429 31.9022 0 37.9443V0Z" fill="#686868"/>
<path d="M48.5849 26.3435C45.9264 20.0597 44.2346 11.8425 43.7513 2.17514H41.5761C40.8511 12.0842 39.401 20.0597 36.7425 26.3435H48.5849ZM49.5517 28.7603C49.31 28.277 49.31 28.0353 49.0683 27.5519H36.2591C36.0174 28.0353 36.0174 28.277 35.7757 28.7603H49.5517ZM56.0772 37.7027C53.902 35.7692 51.7268 33.1106 50.0351 29.9688H34.8089C33.1172 33.1106 31.1837 35.7692 28.7669 37.7027H25.625C33.8422 30.6938 37.9509 19.3347 38.9176 0H45.4431C46.4098 19.3347 50.5184 30.6938 58.7357 37.7027H56.0772Z" fill="#686868"/>
<path d="M69.12 34.8024C83.1376 29.7271 87.4879 23.4433 87.4879 12.0842V11.6008H69.12V34.8024ZM69.12 9.42565C78.5456 9.42565 82.8959 7.2505 83.8627 2.17514H69.12V9.42565ZM66.7031 0H86.2795C86.2795 4.35031 84.346 7.49218 80.7207 9.42565H89.9048V11.8425C89.9048 25.1351 84.346 31.9022 66.7031 37.9443V0Z" fill="#686868"/>
<path d="M95.4642 22.2223V17.6303H93.2891V16.4219H99.0895V17.6303H96.6726V22.2223H95.7059H95.4642Z" fill="#686868"/>
<path d="M101.013 19.5814H103.43V18.8564H101.013V19.5814ZM100.53 21.9983C100.288 21.9983 100.288 21.7565 100.046 21.5149C100.046 21.2732 99.8047 21.2732 99.8047 21.0315V18.6147C99.8047 18.373 99.8046 18.1313 100.046 18.1313C100.046 17.8896 100.288 17.8896 100.53 17.6479C100.771 17.6479 100.771 17.4062 101.013 17.4062H103.43C103.672 17.4062 103.913 17.4063 103.913 17.6479C104.155 17.6479 104.155 17.8896 104.397 18.1313C104.638 18.373 104.638 18.373 104.638 18.6147V20.3064H101.013V20.7898H104.397V21.9983H100.771C100.771 22.2399 100.771 22.2399 100.53 21.9983Z" fill="#686868"/>
<path d="M105.844 22.2248V17.6328H109.469C109.711 17.6328 109.952 17.6328 109.952 17.8745C110.194 17.8745 110.194 18.1162 110.436 18.3579C110.677 18.5996 110.677 18.5995 110.677 18.8412V22.2248H109.469V18.8412H107.052V22.2248H105.844Z" fill="#686868"/>
<path d="M112.389 21.9957C112.147 21.9957 112.147 21.754 111.906 21.5123C111.906 21.2707 111.664 21.2707 111.664 21.029V16.1953H112.872V17.6454H114.564V18.8538H112.872V21.2707H114.564V22.4791H112.872C112.631 22.2374 112.631 22.2374 112.389 21.9957Z" fill="#686868"/>
<path d="M116.241 21.9983C115.999 21.9983 115.999 21.7565 115.757 21.5149C115.757 21.2732 115.516 21.2732 115.516 21.0315V20.7898H116.724V21.0315H119.141V20.5481H116.724C116.482 20.5481 116.241 20.5481 116.241 20.3064C115.999 20.3064 115.999 20.0648 115.757 19.8231C115.757 19.5814 115.516 19.5814 115.516 19.3397V18.6147C115.516 18.373 115.516 18.1313 115.757 18.1313C115.757 17.8896 115.999 17.8896 116.241 17.6479C116.482 17.6479 116.482 17.4062 116.724 17.4062H119.141C119.383 17.4062 119.624 17.4063 119.624 17.6479C119.866 17.6479 119.866 17.8896 120.108 18.1313C120.349 18.373 120.349 18.373 120.349 18.6147V18.8564H119.141V18.6147H116.724V19.098H119.141C119.383 19.098 119.624 19.098 119.624 19.3397C119.866 19.3397 119.866 19.5814 120.108 19.8231C120.108 20.0648 120.349 20.0648 120.349 20.3064V21.0315C120.349 21.2732 120.349 21.5149 120.108 21.5149C120.108 21.7565 119.866 21.7566 119.624 21.9983C119.383 21.9983 119.383 22.2399 119.141 22.2399H116.724C116.724 22.2399 116.482 22.2399 116.241 21.9983Z" fill="#686868"/>
<path d="M125.677 16.4219H124.469V22.2223H125.677V16.4219Z" fill="#686868"/>
<path d="M126.883 22.2248V17.6328H130.508C130.75 17.6328 130.991 17.6328 130.991 17.8745C130.991 18.1162 131.233 18.1162 131.475 18.3579C131.716 18.5996 131.716 18.5995 131.716 18.8412V22.2248H130.508V18.8412H128.091V22.2248H126.883Z" fill="#686868"/>
<path d="M133.661 21.0285H136.078V18.8533H133.661V21.0285ZM132.936 21.9952C132.694 21.9952 132.694 21.7535 132.453 21.5118C132.453 21.2701 132.211 21.2701 132.211 21.0285V18.6116C132.211 18.3699 132.211 18.1283 132.453 18.1283C132.453 17.8866 132.694 17.8866 132.936 17.6449C133.178 17.6449 133.178 17.4032 133.419 17.4032H135.836V15.9531H137.045V21.9952H133.419C133.419 22.2369 133.178 22.2369 132.936 21.9952Z" fill="#686868"/>
<path d="M139.685 21.0234H138.477V22.2319H139.685V21.0234Z" fill="#686868"/>
<path d="M143.555 22.2223V16.4219H144.763V21.0139H149.355V22.2223H143.555Z" fill="#686868"/>
<path d="M150.086 22.2223V16.4219H151.294V21.0139H155.886V22.2223H150.086Z" fill="#686868"/>
<path d="M157.818 22.2223C157.576 22.2223 157.334 22.2223 157.334 21.9806C157.334 21.7389 157.093 21.7389 156.851 21.4972C156.851 21.2555 156.609 21.0139 156.609 21.0139V17.6303C156.609 17.3886 156.609 17.1469 156.851 17.1469C156.851 16.9052 157.093 16.9052 157.334 16.6635C157.576 16.6635 157.818 16.4219 157.818 16.4219H162.41V17.6303H158.059H157.818C157.818 17.6303 157.818 17.6303 157.818 17.872V20.7722V21.0139C157.818 21.0139 157.818 21.0139 158.059 21.0139H162.41V22.2223H157.818Z" fill="#686868"/>
<path d="M94.498 13.7727H97.3982V12.806H94.498V13.7727ZM94.498 11.5975H97.3982V10.6308H94.498V11.5975ZM93.5312 9.66406H97.3982C97.6399 9.66406 97.6398 9.66408 97.8815 9.90576C98.1232 9.90576 98.1232 10.1474 98.1232 10.1474C98.1232 10.3891 98.3649 10.3891 98.3649 10.6308V11.5975C98.3649 11.5975 98.3649 11.5975 98.3649 11.8392C98.3649 11.8392 98.3649 11.8392 98.3649 12.0809L98.6066 12.3226V12.5643V13.7727C98.6066 14.0144 98.6066 14.0144 98.3649 14.256C98.3649 14.4977 98.1232 14.4977 98.1232 14.4977C97.8815 14.4977 97.8815 14.7394 97.6398 14.7394H93.5312V9.66406Z" fill="#686868"/>
<path d="M100.787 13.7674H102.962V13.0423H100.787V13.7674C100.545 13.7674 100.545 13.7674 100.787 13.7674ZM100.545 14.7341C100.303 14.7341 100.303 14.7341 100.061 14.4924C99.8198 14.4924 99.8198 14.2507 99.8198 14.2507C99.8198 14.0091 99.5781 14.0091 99.5781 13.7674V12.3173H102.72V11.8339H99.5781V10.8672H102.72C102.962 10.8672 102.962 10.8672 103.203 11.1089C103.445 11.1089 103.445 11.3505 103.445 11.3505C103.445 11.5922 103.687 11.5922 103.687 11.8339V14.9758H100.545V14.7341Z" fill="#686868"/>
<path d="M104.641 14.7337V11.5918C104.641 11.3501 104.641 11.3501 104.882 11.1084C104.882 10.8667 105.124 10.8667 105.124 10.8667C105.366 10.8667 105.366 10.625 105.607 10.625H107.782V11.5918H105.607V14.7337H104.641Z" fill="#686868"/>
<path d="M109.725 12.3168H111.9V11.5918H109.725V12.3168ZM109.241 14.492C109 14.492 109 14.2503 109 14.2503C109 14.0086 108.758 14.0086 108.758 13.7669V11.5918C108.758 11.3501 108.758 11.3501 109 11.1084C109.241 10.8667 109.241 10.8667 109.241 10.8667C109.483 10.8667 109.483 10.625 109.725 10.625H111.9C112.141 10.625 112.141 10.625 112.383 10.8667C112.625 10.8667 112.625 11.1084 112.625 11.1084C112.625 11.3501 112.866 11.3501 112.866 11.5918V13.0418H109.725V13.5252H112.866V14.492H109.725C109.725 14.7336 109.483 14.7336 109.241 14.492Z" fill="#686868"/>
<path d="M114.795 12.3168H116.97V11.5918H114.795V12.3168ZM114.312 14.492C114.07 14.492 114.07 14.2503 114.07 14.2503C114.07 14.0086 113.828 14.0086 113.828 13.7669V11.5918C113.828 11.3501 113.828 11.3501 114.07 11.1084C114.07 10.8667 114.312 10.8667 114.312 10.8667C114.553 10.8667 114.553 10.625 114.795 10.625H116.97C117.212 10.625 117.212 10.625 117.453 10.8667C117.695 10.8667 117.695 11.1084 117.695 11.1084C117.695 11.3501 117.937 11.3501 117.937 11.5918V13.0418H114.795V13.5252H117.937V14.492H114.795C114.553 14.7336 114.553 14.7336 114.312 14.492Z" fill="#686868"/>
<path d="M119.141 14.7389V9.42188H120.107V12.3221H120.832L122.282 10.6303H123.249V10.872L121.557 12.8055L123.249 14.4972V14.7389H122.282L120.832 13.0471H120.107V14.7389H119.141Z" fill="#686868"/>
<path d="M130.507 12.0809V10.6308H127.607V12.0809H130.507ZM126.398 10.6308C126.398 10.3891 126.398 10.3891 126.64 10.1474C126.64 9.90574 126.882 9.90576 126.882 9.90576C127.123 9.90576 127.123 9.66406 127.365 9.66406H130.507C130.749 9.66406 130.749 9.66408 130.99 9.90576C131.232 9.90576 131.232 10.1474 131.232 10.1474C131.232 10.3891 131.474 10.3891 131.474 10.6308V14.7394H130.507V13.0476H127.365V14.7394H126.398V10.6308Z" fill="#686868"/>
<path d="M133.163 14.4972C132.921 14.4972 132.921 14.2555 132.921 14.2555C132.921 14.0139 132.68 14.0139 132.68 13.7722V9.42188H133.646V13.7722H134.372V14.7389H133.646C133.405 14.7389 133.405 14.7389 133.163 14.4972Z" fill="#686868"/>
<path d="M138.966 13.7727H141.866V12.806H138.966V13.7727ZM138.966 11.5975H141.866V10.6308H138.966V11.5975ZM137.758 9.66406H141.625C141.866 9.66406 141.866 9.66408 142.108 9.90576C142.35 9.90576 142.35 10.1474 142.35 10.1474C142.35 10.3891 142.591 10.3891 142.591 10.6308V11.5975C142.591 11.5975 142.591 11.5975 142.591 11.8392C142.591 11.8392 142.591 11.8392 142.591 12.0809L142.833 12.3226V12.5643V13.7727C142.833 14.0144 142.833 14.0144 142.591 14.256C142.591 14.4977 142.35 14.4977 142.35 14.4977C142.108 14.4977 142.108 14.7394 141.866 14.7394H137.758V9.66406Z" fill="#686868"/>
<path d="M145.006 13.7674H147.181V13.0423H145.006V13.7674ZM145.006 14.7341C144.764 14.7341 144.764 14.7341 144.522 14.4924C144.281 14.4924 144.281 14.2507 144.281 14.2507C144.281 14.0091 144.039 14.0091 144.039 13.7674V12.3173H147.181V11.8339H144.039V10.8672H147.181C147.423 10.8672 147.423 10.8672 147.664 11.1089C147.906 11.1089 147.906 11.3505 147.906 11.3505C147.906 11.5922 148.148 11.5922 148.148 11.8339V14.9758H145.006V14.7341Z" fill="#686868"/>
<path d="M149.125 14.7389V9.42188H150.092V10.872H152.267C152.509 10.872 152.509 10.872 152.75 11.1137C152.992 11.1137 152.992 11.3554 152.992 11.3554C152.992 11.597 153.234 11.597 153.234 11.8387V14.9806H152.509V11.8387H150.092V14.9806H149.125V14.7389Z" fill="#686868"/>
<path d="M155.146 13.7674H157.322V13.0423H155.146V13.7674ZM155.146 14.7341C154.905 14.7341 154.905 14.7341 154.663 14.4924C154.421 14.4924 154.421 14.2507 154.421 14.2507C154.421 14.0091 154.18 14.0091 154.18 13.7674V12.3173H157.322V11.8339H154.18V10.8672H157.322C157.563 10.8672 157.563 10.8672 157.805 11.1089C158.047 11.1089 158.047 11.3505 158.047 11.3505C158.047 11.5922 158.288 11.5922 158.288 11.8339V14.9758H155.146V14.7341Z" fill="#686868"/>
<path d="M159.266 14.7337V11.5918C159.266 11.3501 159.266 11.3501 159.507 11.1084C159.507 10.8667 159.749 10.8667 159.749 10.8667C159.991 10.8667 159.991 10.625 160.232 10.625H162.408V11.5918H160.232V14.7337H159.266Z" fill="#686868"/>
</svg>
