<svg width="112" height="44" viewBox="0 0 112 44" fill="none" xmlns="http://www.w3.org/2000/svg">
<path d="M91.0346 32.4376C90.3384 28.6265 91.7309 23.776 95.2122 17.3664V17.1932C98.1712 11.8231 100.434 9.57104 102.001 10.264C103.393 10.7837 103.045 13.9018 102.523 16.3271C102.523 16.5003 102.349 16.6735 102.001 16.6735C101.826 16.6735 101.652 16.5003 101.652 16.1538C102.175 13.0357 102.001 11.1301 101.478 10.9569C101.13 10.7837 99.5637 10.7837 95.7344 17.5397V17.7129C92.2531 23.9492 90.8606 28.6265 91.5568 32.2643C91.7309 33.1305 92.0791 35.5557 93.4716 36.2487C95.5603 37.2881 99.2155 34.1699 101.652 30.532C101.826 30.3588 102.001 30.3588 102.175 30.3588C102.349 30.532 102.349 30.7053 102.349 30.8785C99.9118 34.6896 96.6047 37.1148 94.3419 37.1148C93.9938 37.1148 93.4715 37.1148 93.1234 36.9416C91.5569 36.0754 91.2087 33.477 91.0346 32.4376ZM49.6078 31.3982C47.5191 30.7053 45.6043 30.3588 43.6896 30.1856C42.1231 30.0123 40.7306 30.1856 39.8602 30.1856C38.4677 30.1856 37.5975 30.1856 37.4234 29.6659C36.7272 32.0911 36.2049 34.5163 35.5087 36.9416C35.5087 37.1148 35.3347 37.288 35.1606 37.288C35.1606 37.288 35.1606 37.288 34.9865 37.288C34.8125 37.288 34.6384 36.9416 34.6384 36.7684C35.3346 34.1699 36.0309 31.0517 36.7271 28.4533C37.9456 23.776 38.8159 20.8311 40.2084 17.02C40.9046 15.1144 41.6009 13.2089 42.2972 11.4766C41.775 11.6498 41.0787 11.823 40.5565 12.1695C40.3825 12.3427 40.0344 12.1695 40.0344 11.9963C39.8603 11.8231 40.0343 11.4766 40.2084 11.4766C43.8637 9.74427 47.6931 10.0907 49.0856 12.1695C50.4781 14.075 49.2597 17.1932 48.7375 18.4058C48.2153 19.7917 47.345 21.1775 44.9081 23.6028C42.8193 25.6816 41.0787 26.8942 39.8602 27.9336C38.9899 28.6265 38.1196 29.3194 38.1196 29.4926C38.2937 29.6659 39.164 29.4926 39.8602 29.4926C40.9046 29.4926 42.1231 29.4926 43.8638 29.4926C45.9525 29.6659 47.8672 30.0123 49.9559 30.7053C50.13 30.7053 50.304 31.0517 50.304 31.2249C49.9559 31.2249 49.7819 31.3982 49.6078 31.3982ZM39.3381 27.0674C40.5565 26.028 42.2971 24.8154 44.2118 22.9099C46.6487 20.6579 47.345 19.272 47.8672 18.0594C48.3894 16.8468 49.4337 14.2483 48.3893 12.516C47.519 11.1301 45.4302 10.7837 43.3415 11.1301C42.4712 13.2089 41.7749 15.1144 41.0787 17.1932C39.6862 21.0043 38.9899 23.9492 37.5975 28.4533C37.9456 28.1068 38.6418 27.7603 39.3381 27.0674ZM31.8534 23.776C31.6793 23.6028 31.5053 23.6028 31.3312 23.776C28.0241 27.0674 27.3278 26.7209 27.3278 26.7209C27.1538 26.5477 27.1537 25.8548 27.1537 25.5083C27.1537 24.8154 27.1537 23.9492 26.6315 23.776C25.7612 23.4296 24.891 24.4689 23.8466 25.5083C23.6725 25.6816 23.4984 25.8548 23.3243 26.028C23.3243 25.8548 23.4984 25.5083 23.4984 25.3351C23.8466 24.2957 24.0206 23.776 23.6725 23.4295C23.3243 23.2563 22.9762 23.6028 22.454 23.9492C22.1059 24.4689 21.4097 24.9886 20.5394 25.6815C19.1469 26.7209 18.6246 26.8942 18.4506 26.7209C18.2765 26.5477 18.2765 25.8548 18.4506 25.5083C18.4506 24.8154 18.6246 23.9492 18.1024 23.776C17.4062 23.4296 16.71 24.1225 15.8396 24.8154C15.3175 25.1619 14.9693 25.6816 14.6212 25.8548C14.7952 25.5083 14.9694 24.8154 15.3175 23.776C15.3175 23.6028 15.3175 23.2563 14.9693 23.2563C14.7953 23.2563 14.4472 23.2563 14.4472 23.6028C13.4028 26.7209 13.5769 27.0674 13.925 27.2406C14.2731 27.4139 14.6212 27.0674 14.9693 26.7209C15.3175 26.3745 15.6656 26.028 16.3618 25.5083C16.884 25.1619 17.5803 24.4689 17.7544 24.4689C17.7544 24.6422 17.7544 25.1619 17.7544 25.5083C17.7544 26.2013 17.5803 27.0674 18.2766 27.5871C19.1469 28.1068 20.5394 27.0674 21.4097 26.5477C22.1059 26.028 22.6281 25.5083 22.9763 25.1618C22.6281 26.2012 22.28 27.0674 22.8021 27.4139C23.3243 27.7603 23.8466 27.2406 24.7169 26.3745C25.065 25.8548 26.2834 24.8154 26.6315 24.8154C26.8056 24.9886 26.8056 25.5083 26.8056 25.8548C26.8056 26.5477 26.8056 27.4139 27.3278 27.7603C27.5019 27.9335 27.6759 27.9336 27.85 27.9336C28.7203 27.9336 30.1128 26.8942 32.3756 24.8154C32.0275 24.1225 32.0275 23.9492 31.8534 23.776ZM14.4472 11.9963C14.6212 10.9569 14.4472 10.7837 14.4472 10.7837C14.4472 10.7837 13.5769 10.6104 9.92158 15.2877C7.13658 18.7523 4.52559 22.5634 2.08872 26.5477C1.91466 26.7209 1.74061 26.7209 1.56655 26.7209C1.39249 26.5477 1.39248 26.3745 1.39248 26.2012C3.82935 22.0437 6.44029 18.2326 9.22529 14.768C10.9659 12.6892 12.1844 11.3034 13.0547 10.6104C13.7509 10.0907 14.099 9.9175 14.4472 10.0907C14.7953 10.264 14.9694 10.7837 14.7953 11.6498C14.7953 12.8624 14.2731 14.768 13.7509 17.5397C13.4027 19.272 13.0547 20.6578 12.7065 21.8705C12.8806 21.6972 13.0546 21.6972 13.2287 21.524C14.9693 20.6578 16.71 19.4452 17.7544 17.7129C18.2766 17.02 18.6247 16.1538 18.7987 15.2877C19.3209 13.7286 19.3209 12.1695 18.7987 10.7837C18.2765 9.57105 17.2322 8.8781 16.8841 8.70487C16.71 8.53164 16.3619 8.35841 16.1878 8.35841C16.0137 8.18518 15.8397 8.1852 15.6656 8.1852C14.2731 8.01197 12.7066 7.49226 11.6622 6.6261C11.14 6.27964 10.4437 5.58671 10.4437 4.89379C10.4437 4.20086 10.7918 3.68118 11.1399 3.33472C11.314 3.16149 11.4881 2.81501 11.6622 2.64178L11.8362 2.46856C11.8362 2.46856 11.8362 2.46855 11.8362 2.29532C11.8362 1.77563 12.1843 1.42917 12.3584 1.08271C12.8806 0.216549 14.099 -0.129924 14.9693 0.043307C15.4915 0.216538 16.0137 0.389786 16.5359 0.736248C16.71 0.563017 17.0581 0.563022 17.2321 0.389791C17.5802 0.389791 17.7543 0.216559 18.1024 0.389791C19.669 0.563022 20.7134 1.77564 20.5394 3.33472C20.5394 3.68118 20.3653 4.02763 20.1912 4.37409C20.0171 4.72055 19.8431 5.06703 19.669 5.41349C19.495 5.75995 19.3209 5.93318 19.1469 6.27964C18.9728 6.45288 18.6247 6.79934 18.2766 6.79934C17.9284 6.97258 17.5803 7.14581 17.4062 7.31904C17.2322 7.49227 17.0581 7.6655 16.8841 7.6655L16.3618 8.01196C16.5359 8.18519 16.884 8.18518 17.2321 8.35841C17.5802 8.53165 18.7988 9.22458 19.495 10.6104C19.8431 11.3034 20.1912 12.1695 20.1912 13.2089C20.1912 15.8074 18.7988 18.7523 16.8841 20.4846C15.6656 21.6972 14.099 22.3902 12.7065 23.0831C12.7065 23.2563 12.5325 23.4296 12.5325 23.776C12.3585 24.6422 12.0103 25.5083 11.8362 26.3745C10.9659 29.6659 10.4437 33.1305 10.2696 36.7684C10.2696 36.9416 10.0956 37.1148 9.92158 37.1148C9.74752 37.1148 9.57344 36.9416 9.57344 36.7684C9.7475 33.1305 10.2696 29.4926 11.1399 26.2012C11.314 25.3351 11.6622 24.4689 11.8362 23.6028V23.4295C10.0956 24.1225 8.35498 24.6422 6.61435 25.5083C3.82935 26.8942 2.08871 28.9729 1.91464 32.0911C1.91464 32.4376 1.91464 32.784 1.91464 33.1305C1.91464 33.1305 1.91469 33.3037 1.74062 33.3037C1.74062 33.3037 1.56655 33.3037 1.56655 33.1305C1.04436 29.8391 2.43687 26.7209 5.22187 24.9886C7.31062 23.6028 9.92156 22.9099 12.1844 22.0437C12.5325 20.6579 12.8806 19.272 13.4028 17.1932C13.925 15.1144 14.2731 13.2089 14.4472 11.9963ZM16.1878 8.01196C16.3619 7.49226 16.884 6.62611 17.9284 5.93319C18.2765 5.75996 18.4506 5.75996 18.7987 5.58673L18.9727 5.41349C19.669 4.89379 20.0172 4.02764 20.0172 3.33472C20.0172 2.81502 20.0172 2.29531 19.669 1.77562C18.9728 0.736232 17.9285 0.563006 16.8841 0.563006L17.0581 0.736248C17.9284 1.6024 18.4506 3.3347 18.1024 4.37409C18.1024 4.72055 17.7543 5.06702 17.5803 5.24025C17.4062 5.41348 17.0581 5.75996 16.8841 5.93319C16.536 6.45288 16.1878 6.97256 15.8396 7.49226C15.8396 6.45287 16.1878 5.41349 17.0581 4.54733C17.4062 4.20087 17.5803 4.02764 17.7544 3.68118C18.1025 2.98825 17.7543 1.94886 17.2321 1.42916C16.884 1.0827 16.3618 0.736238 15.8396 0.563006C15.3175 0.389775 14.7953 0.389791 14.2731 0.389791C13.5769 0.563022 12.8806 1.08271 12.5325 1.6024C12.7066 1.42917 12.7065 1.42916 12.8806 1.42916C13.7509 0.909469 15.1434 0.736238 15.8396 1.42916C16.71 2.12209 16.884 3.50794 16.3618 4.54733C15.8396 5.41349 14.9693 6.10642 13.7509 5.58673C13.4027 5.4135 13.0546 5.06703 12.8806 4.54733C12.5324 3.85441 12.7065 2.81502 13.5769 2.46856C14.2731 2.1221 15.1435 2.29532 15.1435 3.16148C15.1435 3.50794 14.9694 3.68117 14.7953 4.02763C14.7953 4.20086 14.6212 4.20086 14.4472 4.37409C14.6212 4.02763 14.7952 3.68118 14.6212 3.33472C14.6212 3.16149 14.6212 3.16148 14.4472 3.16148C14.2731 2.98824 13.9249 3.16148 13.7509 3.16148C13.5768 3.33471 13.4028 3.50795 13.4028 3.85442C13.4028 4.37411 13.751 5.06702 14.2731 5.24025C14.6213 5.24025 14.7953 5.24025 15.1435 5.24025C15.6656 5.06702 16.0137 4.54733 16.1878 4.02763C16.5359 2.81501 15.8397 1.60239 14.4472 1.77562C13.4028 1.94885 12.8806 2.29532 12.1844 3.16148C11.8362 3.68117 11.314 4.20086 11.4881 4.89379C11.6621 5.24025 12.0103 5.58672 12.1844 5.93319C12.5325 6.27965 13.2287 6.79933 14.6212 7.49226C15.1434 7.66549 15.4915 7.83873 16.1878 8.01196C16.1878 8.18519 16.1878 8.18519 16.1878 8.01196ZM70.8434 24.6422C71.0175 24.8154 71.0175 25.1618 70.8434 25.1618C69.2769 26.5477 66.84 28.28 64.7513 28.6265C63.8809 28.7997 63.3588 28.6265 63.0106 28.28C62.4884 27.7603 62.3143 27.0674 62.3143 26.3745C60.3997 27.5871 58.8331 28.4533 57.7888 28.973C56.3963 29.6659 55.874 30.0123 55.5259 30.0123C55.3518 30.0123 55.3519 30.0123 55.1778 29.8391C55.0038 29.4926 55.1778 29.1462 56.2222 28.4533V25.5083C55.5259 25.8548 54.6556 26.028 53.7852 26.028C53.089 26.028 52.5668 25.8548 52.0446 25.6815C52.0446 26.028 52.0447 26.5477 51.6966 27.4139C51.3484 28.1068 50.304 29.1462 49.4337 28.7997C48.9115 28.4533 48.9115 27.7603 48.9115 27.4139C48.9115 26.5477 49.2597 25.5083 50.13 24.9886C50.13 24.8154 50.13 24.8154 50.13 24.6422V24.4689H50.304C50.4781 24.4689 50.6522 24.4689 51.0003 24.6422C51.5225 24.8154 52.5668 25.3351 53.6112 25.3351C54.8297 25.3351 55.8741 24.8154 56.5703 24.4689C57.0925 24.2957 57.4406 23.9492 57.6146 24.4689C57.7887 24.8154 57.6146 25.1619 56.7443 25.8548V28.6265C57.7887 28.1068 59.7034 27.0674 62.6625 25.1618C64.4031 24.1225 64.9252 24.2957 65.0993 24.6422C65.4474 24.9886 65.2734 25.6816 65.0993 25.8548C64.9252 26.3745 64.229 26.7209 63.7068 26.7209C63.1846 26.7209 62.8366 26.5477 62.6625 26.3745C62.6625 26.5477 62.6625 26.7209 62.6625 26.8942C62.6625 27.2406 62.8366 27.5871 63.0106 27.7603C63.1847 27.9335 63.3587 28.1068 64.229 27.9336C65.7955 27.7603 67.8844 26.5477 69.9731 24.6422C70.4953 24.4689 70.8434 24.4689 70.8434 24.6422ZM63.7068 25.6815C63.8809 25.8548 64.0549 25.8548 64.229 25.8548C64.403 25.8548 64.7512 25.6816 64.9253 25.5083V25.3351C64.7512 25.1619 64.4031 25.3351 63.7068 25.6815ZM51.1743 25.8548C51.0002 25.6816 51.0002 25.6816 51.1743 25.8548C51.0002 25.6816 51.0003 25.6815 50.8263 25.6815C50.6522 25.6815 50.6522 25.6815 50.4781 25.6815C50.13 25.8548 49.9559 26.2012 49.7818 26.8942C49.6078 27.4139 49.7818 27.9336 49.7818 27.9336C49.9559 27.9336 50.4781 27.4139 50.8263 26.8942C51.1744 26.5477 51.3484 26.2013 51.1743 25.8548ZM84.5943 25.1618C84.0721 26.2012 83.5499 27.2406 82.8537 27.9336L82.6797 28.1068C83.0278 28.7997 83.55 29.4926 84.0722 30.0123C84.2462 30.1856 84.2462 30.532 84.0722 30.532C84.0722 30.532 83.8981 30.7053 83.724 30.7053C83.5499 30.7053 83.5499 30.7053 83.3759 30.532C83.0277 30.0123 82.5056 29.3194 81.9834 28.6265C80.939 29.4926 79.7206 30.0123 78.5021 30.1856C77.4578 30.3588 76.5874 30.0123 75.8912 29.3194C75.369 28.6265 75.195 27.7603 75.369 26.5477C75.8912 23.9492 77.6318 22.5634 79.7206 21.0043C79.8947 20.8311 80.0687 20.8311 80.0687 20.6578C80.2428 19.4452 80.7649 17.8861 81.9834 17.02C82.1574 16.8467 83.5499 15.8074 84.2462 16.3271C84.4202 16.5003 84.7684 16.8468 83.55 18.5791C82.6797 19.7917 81.9834 20.3114 80.939 21.0043C80.939 21.524 80.939 21.8705 80.939 22.2169C80.939 24.1225 81.4613 25.8548 82.1575 27.2406C82.8538 26.5477 83.3759 25.6816 83.724 24.6422C83.8981 24.4689 84.0721 24.2957 84.2462 24.4689C84.5943 24.6422 84.5943 24.9886 84.5943 25.1618ZM81.2872 19.9649C81.9834 19.4452 82.5056 18.9255 83.0278 18.2326C83.3759 17.7129 83.5499 17.3665 83.724 17.1932C83.5499 17.3665 83.0278 17.5397 82.8537 17.7129C81.9834 18.4058 81.4613 19.272 81.2872 19.9649ZM81.6352 27.9336C80.7649 26.3745 80.2428 24.4689 80.2428 22.3902C80.2428 22.2169 80.2428 22.0437 80.2428 21.8705C78.3281 23.2563 76.7615 24.6422 76.4134 26.8942C76.2393 27.5871 76.2393 28.4533 76.7615 28.973C77.2837 29.4926 77.9799 29.6659 78.5021 29.4926C79.3724 29.3194 80.5909 28.7997 81.6352 27.9336ZM111.4 24.9886C110.182 25.5083 108.963 25.8548 107.745 25.6815C107.222 25.6815 106.526 25.5083 106.004 25.3351C106.178 25.6816 106.004 26.3745 105.656 27.0674C105.308 27.5871 104.612 28.4533 103.741 28.4533C103.567 28.4533 103.567 28.4532 103.393 28.28C102.871 27.9336 102.871 27.2406 102.871 26.8942C102.871 26.028 103.219 24.9886 104.089 24.4689C104.089 24.2957 104.089 24.2957 104.089 24.1225C104.263 23.776 104.611 23.9492 105.134 23.9492C105.656 24.1225 106.7 24.4689 107.745 24.6422C108.789 24.6422 109.833 24.4689 110.878 23.9492C111.052 23.776 111.4 23.9492 111.4 24.1225C111.748 24.6422 111.574 24.9886 111.4 24.9886ZM105.308 25.5083C105.134 25.5083 105.134 25.5083 105.308 25.5083C105.134 25.3351 105.134 25.3351 104.96 25.3351C104.786 25.3351 104.786 25.3351 104.612 25.3351C104.263 25.5083 104.089 25.8548 103.915 26.5477C103.741 27.0674 103.915 27.5871 103.915 27.5871C104.089 27.5871 104.612 27.0674 104.96 26.5477C105.308 26.2012 105.308 25.8548 105.308 25.5083ZM26.6315 41.7921L26.4575 41.6188C26.4575 41.6188 26.2834 41.6188 26.1094 41.6188C25.9353 41.6188 25.9353 41.6188 25.7612 41.6188L25.5872 41.7921V40.9259H25.0649V43.1779H25.5872V42.3118C25.5872 42.1385 25.5872 42.1385 25.7612 41.9653C25.7612 41.9653 25.9353 41.7921 26.1094 41.7921C26.2834 41.7921 26.2834 41.7921 26.2834 41.9653V42.1385V43.1779H26.8056V42.1385C26.8056 41.9653 26.8056 41.9653 26.8056 41.7921C26.8056 41.9653 26.6315 41.9653 26.6315 41.7921ZM29.5906 41.7921C29.7647 41.9653 29.7646 42.1385 29.7646 42.485C29.7646 42.6582 29.7647 43.0047 29.5906 43.1779C29.4166 43.3512 29.2425 43.5244 28.8943 43.5244C28.5462 43.5244 28.3722 43.3512 28.1981 43.1779C28.0241 43.0047 28.024 42.8314 28.024 42.485C28.024 42.3117 28.0241 41.9653 28.1981 41.7921C28.3722 41.6188 28.5462 41.4456 28.8943 41.4456C29.2425 41.6188 29.4166 41.6188 29.5906 41.7921ZM29.2425 42.485C29.2425 42.3117 29.2425 42.1385 29.0685 42.1385C29.0685 41.9653 28.8944 41.9653 28.7203 41.9653C28.5462 41.9653 28.5462 41.9653 28.3722 42.1385C28.3722 42.3118 28.1981 42.3117 28.1981 42.485C28.1981 42.6582 28.1981 42.8315 28.3722 42.8315C28.5462 42.8315 28.5462 43.0047 28.7203 43.0047C28.8944 43.0047 28.8944 43.0047 29.0685 42.8315C29.2425 42.8315 29.2425 42.6582 29.2425 42.485ZM32.0274 42.485C32.0274 42.6582 32.0274 42.6582 32.0274 42.8315C32.0274 43.0047 31.8535 43.0047 31.6794 43.0047C31.5053 43.0047 31.5053 43.0047 31.5053 42.8315V42.6582V41.6188H30.9831V42.6582C30.9831 42.8315 30.9831 43.0047 30.9831 43.1779C31.1572 43.3512 31.1571 43.5244 31.5053 43.5244C31.6793 43.5244 31.6794 43.5244 31.6794 43.5244C31.6794 43.5244 31.8534 43.5244 31.8534 43.3511V43.5244H32.2016V41.7921H31.6794L32.0274 42.485ZM34.8125 42.3118C34.4644 42.3118 34.4644 42.1385 34.2903 42.1385C34.2903 42.1385 34.2903 42.1385 34.2903 41.9653C34.2903 41.9653 34.2903 41.9653 34.2903 41.7921H34.4643C34.6384 41.7921 34.6384 41.7921 34.6384 41.9653C34.8124 42.1385 34.8125 42.1385 34.8125 42.3118L35.3347 42.1385C35.3347 41.9653 35.1606 41.7921 35.1606 41.6188C34.9866 41.6188 34.8124 41.4456 34.6384 41.4456C34.4643 41.4456 34.2903 41.4456 34.1162 41.6188C33.9421 41.7921 33.9422 41.7921 33.9422 41.9653C33.9422 42.1385 33.9421 42.1385 34.1162 42.3118C34.1162 42.3118 34.2903 42.485 34.4643 42.485C34.8125 42.485 34.8125 42.6582 34.9865 42.6582C34.9865 42.6582 34.9865 42.6582 34.9865 42.8315C34.9865 43.0047 34.9865 43.0047 34.9865 43.0047H34.8125C34.6384 43.0047 34.6384 43.0047 34.4643 42.8315V42.6582H33.9422C33.9422 42.8315 33.9421 43.0047 34.1162 43.0047C34.2903 43.1779 34.4643 43.1779 34.6384 43.1779C34.9865 43.1779 35.1606 43.1779 35.1606 43.0047C35.3347 42.8314 35.3347 42.8315 35.3347 42.6582C35.3347 42.485 35.3347 42.485 35.1606 42.3118C35.1606 42.485 34.9866 42.3118 34.8125 42.3118ZM38.1196 42.3118C38.1196 42.3118 38.1196 42.485 38.1196 42.6582H36.9013C36.9013 42.8315 36.9012 43.0047 37.0753 43.0047H37.2493C37.4234 43.0047 37.4234 43.0047 37.4234 43.0047C37.4234 43.0047 37.4234 43.0047 37.4234 42.8315H37.9456C37.9456 43.0047 37.9456 43.0047 37.7716 43.1779C37.5975 43.3512 37.4234 43.3511 37.2493 43.3511C37.0752 43.3511 36.9012 43.3512 36.7271 43.1779C36.5531 43.0047 36.5531 42.8314 36.5531 42.485C36.5531 42.1385 36.5531 41.9653 36.7271 41.7921C36.9012 41.6188 37.0752 41.6188 37.2493 41.6188C37.4234 41.6188 37.5975 41.6188 37.5975 41.6188C37.7715 41.6188 37.7715 41.7921 37.9456 41.7921C37.9456 41.9653 38.1196 42.1385 38.1196 42.3118ZM37.5975 42.3118C37.5975 42.1385 37.5975 42.1385 37.4234 41.9653L37.2493 41.7921C37.0752 41.7921 37.0753 41.7921 37.0753 41.9653C37.0753 41.9653 36.9013 42.1385 36.9013 42.3118H37.5975ZM42.6453 41.7921C42.8194 41.9653 42.8193 42.1385 42.8193 42.485C42.8193 42.6582 42.8194 43.0047 42.6453 43.1779C42.4712 43.3512 42.2971 43.5244 41.949 43.5244C41.6009 43.5244 41.4269 43.3512 41.2528 43.1779C41.0788 43.0047 41.0787 42.8314 41.0787 42.485C41.0787 42.3117 41.0788 41.9653 41.2528 41.7921C41.4269 41.6188 41.6009 41.4456 41.949 41.4456C42.2971 41.6188 42.4712 41.6188 42.6453 41.7921ZM42.2972 42.485C42.2972 42.3117 42.2972 42.1385 42.1231 42.1385C42.1231 41.9653 41.9491 41.9653 41.775 41.9653C41.6009 41.9653 41.6009 41.9653 41.4268 42.1385C41.4268 42.3118 41.2528 42.3117 41.2528 42.485C41.2528 42.6582 41.2528 42.8315 41.4268 42.8315C41.4268 43.0047 41.6009 43.0047 41.775 43.0047C41.9491 43.0047 41.9491 43.0047 42.1231 42.8315C42.2972 42.6582 42.2972 42.6582 42.2972 42.485ZM44.5599 41.4456C44.734 41.2724 44.734 41.2724 44.9081 41.2724V40.9259C44.9081 40.9259 44.9081 40.9259 44.7341 40.9259C44.56 40.9259 44.3859 40.9259 44.2118 41.0991C44.2118 41.0991 44.0378 41.2724 44.0378 41.4456V41.6188H43.8638V41.9653H44.0378V43.3511H44.5599V41.9653H44.9081V41.6188L44.5599 41.4456ZM48.3893 41.2724H47.8672V41.7921H47.6931V42.1385H47.8672V43.1779C47.8672 43.3512 47.8672 43.3511 47.8672 43.3511C47.8672 43.3511 48.0413 43.5244 48.2153 43.5244H48.3893V43.1779C48.2153 43.1779 48.2153 43.1779 48.2153 43.1779C48.2153 43.1779 48.2153 43.1779 48.2153 43.0047V42.1385H48.5634V41.7921H48.2153L48.3893 41.2724ZM49.9559 41.4456H50.4781V41.0991H49.9559V41.4456ZM49.9559 43.3511H50.4781V41.6188H49.9559V43.3511ZM54.1334 41.7921L53.9594 41.6188H53.7852C53.6112 41.6188 53.6113 41.6188 53.4372 41.6188L53.2631 41.7921C53.2631 41.7921 53.2631 41.6188 53.0891 41.6188C53.0891 41.6188 52.915 41.6188 52.7409 41.6188C52.5668 41.6188 52.5668 41.6188 52.3928 41.7921L52.2187 41.9653V41.7921H51.8706V43.5244H52.3928V42.485C52.3928 42.3117 52.3928 42.3118 52.3928 42.3118L52.5669 42.1385C52.7409 42.1385 52.7409 42.1385 52.7409 42.3118V42.485V43.5244H53.2631V42.485V42.3118C53.2631 42.1385 53.4372 42.1385 53.4372 42.1385C53.6113 42.1385 53.6112 42.1385 53.6112 42.3118V42.485V43.5244H54.1334V42.485C54.1334 42.3117 54.1334 42.3118 54.1334 42.3118C54.1334 41.9653 54.1334 41.7921 54.1334 41.7921ZM56.9184 42.3118C56.9184 42.3118 56.9184 42.485 56.9184 42.6582H55.7C55.7 42.8315 55.6999 43.0047 55.874 43.0047H56.0481C56.2222 43.0047 56.2222 43.0047 56.2222 43.0047C56.2222 43.0047 56.2222 43.0047 56.2222 42.8315H56.7443C56.7443 43.0047 56.7444 43.0047 56.5703 43.1779C56.3962 43.3512 56.2222 43.3511 56.0481 43.3511C55.8741 43.3511 55.6999 43.3512 55.5259 43.1779C55.3518 43.0047 55.3518 42.8314 55.3518 42.485C55.3518 42.1385 55.3518 41.9653 55.5259 41.7921C55.6999 41.6188 55.8741 41.6188 56.0481 41.6188C56.2222 41.6188 56.3962 41.6188 56.3962 41.6188C56.5702 41.6188 56.5703 41.7921 56.7443 41.7921C56.9184 41.9653 56.9184 42.1385 56.9184 42.3118ZM56.5703 42.3118C56.5703 42.1385 56.5702 42.1385 56.3962 41.9653L56.2222 41.7921C56.0481 41.7921 56.0481 41.7921 56.0481 41.9653C56.0481 41.9653 55.874 42.1385 55.874 42.3118H56.5703ZM58.3109 43.3511H58.8331V41.0991H58.3109V43.3511ZM61.618 42.3118C61.618 42.3118 61.618 42.485 61.618 42.6582H60.3997C60.3997 42.8315 60.3997 43.0047 60.5737 43.0047H60.7477C60.9218 43.0047 60.9219 43.0047 60.9219 43.0047C60.9219 43.0047 60.9219 43.0047 60.9219 42.8315H61.444C61.444 43.0047 61.4441 43.0047 61.27 43.1779C61.0959 43.3512 60.9218 43.3511 60.7477 43.3511C60.5737 43.3511 60.3996 43.3512 60.2256 43.1779C60.0515 43.0047 60.0516 42.8314 60.0516 42.485C60.0516 42.1385 60.0515 41.9653 60.2256 41.7921C60.3996 41.6188 60.5737 41.6188 60.7477 41.6188C60.9218 41.6188 61.0959 41.6188 61.0959 41.6188C61.2699 41.6188 61.27 41.7921 61.444 41.7921C61.444 41.9653 61.444 42.1385 61.618 42.3118ZM61.0959 42.3118C61.0959 42.1385 61.0959 42.1385 60.9219 41.9653L60.7477 41.7921C60.5737 41.7921 60.5737 41.7921 60.5737 41.9653C60.5737 41.9653 60.3997 42.1385 60.3997 42.3118H61.0959ZM63.7068 42.3118C63.3587 42.3118 63.3587 42.1385 63.1847 42.1385C63.1847 42.1385 63.1847 42.1385 63.1847 41.9653C63.1847 41.9653 63.1847 41.9653 63.1847 41.7921H63.3587C63.5327 41.7921 63.5328 41.7921 63.5328 41.9653C63.7069 42.1385 63.7068 42.1385 63.7068 42.3118L64.229 42.1385C64.229 41.9653 64.055 41.7921 64.055 41.6188C63.8809 41.6188 63.7069 41.4456 63.5328 41.4456C63.3587 41.4456 63.1847 41.4456 63.0106 41.6188C62.8366 41.7921 62.8365 41.7921 62.8365 41.9653C62.8365 42.1385 62.8366 42.1385 63.0106 42.3118C63.0106 42.3118 63.1846 42.485 63.3587 42.485C63.7068 42.485 63.7069 42.6582 63.8809 42.6582C63.8809 42.6582 63.8809 42.6582 63.8809 42.8315C63.8809 43.0047 63.8809 43.0047 63.8809 43.0047H63.7068C63.5328 43.0047 63.5327 43.0047 63.3587 42.8315V42.6582H62.8365C62.8365 42.8315 62.8366 43.0047 63.0106 43.0047C63.1847 43.1779 63.3587 43.1779 63.5328 43.1779C63.8809 43.1779 64.055 43.1779 64.055 43.0047C64.229 42.8314 64.229 42.8315 64.229 42.6582C64.229 42.485 64.229 42.485 64.055 42.3118C64.055 42.485 63.8809 42.3118 63.7068 42.3118ZM66.4919 42.3118C66.1438 42.3118 66.1437 42.1385 65.9696 42.1385C65.9696 42.1385 65.9696 42.1385 65.9696 41.9653C65.9696 41.9653 65.9696 41.9653 65.9696 41.7921H66.1437C66.3178 41.7921 66.3178 41.7921 66.3178 41.9653C66.4918 42.1385 66.4919 42.1385 66.4919 42.3118L67.0141 42.1385C67.0141 41.9653 66.8399 41.7921 66.8399 41.6188C66.6659 41.6188 66.4918 41.4456 66.3178 41.4456C66.1437 41.4456 65.9697 41.4456 65.7956 41.6188C65.6215 41.7921 65.6216 41.7921 65.6216 41.9653C65.6216 42.1385 65.6215 42.1385 65.7956 42.3118C65.7956 42.3118 65.9697 42.485 66.1437 42.485C66.4919 42.485 66.4918 42.6582 66.6659 42.6582C66.6659 42.6582 66.6659 42.6582 66.6659 42.8315C66.6659 43.0047 66.6659 43.0047 66.6659 43.0047H66.4919C66.3178 43.0047 66.3178 43.0047 66.1437 42.8315V42.6582H65.6216C65.6216 42.8315 65.6215 43.0047 65.7956 43.0047C65.9697 43.1779 66.1437 43.1779 66.3178 43.1779C66.6659 43.1779 66.8399 43.1779 66.8399 43.0047C67.014 42.8314 67.0141 42.8315 67.0141 42.6582C67.0141 42.485 67.014 42.485 66.8399 42.3118C66.6659 42.485 66.6659 42.3118 66.4919 42.3118ZM70.4953 41.2724H70.1472V41.7921H69.9731V42.1385H70.1472V43.1779C70.1472 43.3512 70.1472 43.3511 70.1472 43.3511C70.1472 43.3511 70.3212 43.5244 70.4953 43.5244H70.6693V43.1779C70.4953 43.1779 70.4953 43.1779 70.4953 43.1779C70.4953 43.1779 70.4953 43.1779 70.4953 43.0047V42.1385H70.8434V41.7921H70.4953V41.2724ZM73.4544 41.7921L73.2803 41.6188C73.2803 41.6188 73.1062 41.6188 72.9321 41.6188C72.758 41.6188 72.7581 41.6188 72.5841 41.6188L72.4099 41.7921V40.9259H71.8878V43.1779H72.4099V42.3118C72.4099 42.1385 72.41 42.1385 72.5841 41.9653C72.5841 41.9653 72.758 41.7921 72.9321 41.7921C73.1062 41.7921 73.1062 41.7921 73.1062 41.9653V42.1385V43.1779H73.6284V42.1385C73.6284 41.9653 73.6284 41.9653 73.6284 41.7921C73.6284 41.9653 73.6284 41.9653 73.4544 41.7921ZM75.8912 41.6188C75.7171 41.6188 75.7171 41.6188 75.543 41.7921L75.369 41.9653V41.6188H75.0209V43.3511H75.543V42.485C75.543 42.3117 75.543 42.3118 75.543 42.1385C75.543 41.9653 75.7171 41.9653 75.8912 41.9653V41.6188ZM78.6763 42.3118C78.6763 42.3118 78.6763 42.485 78.6763 42.6582H77.4578C77.4578 42.8315 77.4578 43.0047 77.6318 43.0047H77.8059C77.98 43.0047 77.98 43.0047 77.98 43.0047C77.98 43.0047 77.98 43.0047 77.98 42.8315H78.5021C78.5021 43.0047 78.5022 43.0047 78.3281 43.1779C78.154 43.3512 77.98 43.3511 77.8059 43.3511C77.6319 43.3511 77.4577 43.3512 77.2837 43.1779C77.1096 43.0047 77.1096 42.8314 77.1096 42.485C77.1096 42.1385 77.1096 41.9653 77.2837 41.7921C77.4577 41.6188 77.6319 41.6188 77.8059 41.6188C77.98 41.6188 78.154 41.6188 78.154 41.6188C78.328 41.6188 78.3281 41.7921 78.5021 41.7921C78.5021 41.9653 78.6763 42.1385 78.6763 42.3118ZM78.154 42.3118C78.154 42.1385 78.154 42.1385 77.98 41.9653L77.8059 41.7921C77.6319 41.7921 77.6318 41.7921 77.6318 41.9653C77.6318 41.9653 77.4578 42.1385 77.4578 42.3118H78.154ZM81.2872 43.1779L80.939 43.3511C80.939 43.3511 80.939 43.3512 80.939 43.1779C80.939 43.1779 80.939 43.1779 80.939 43.0047L80.7649 43.1779C80.5909 43.1779 80.5909 43.1779 80.4169 43.1779C80.2428 43.1779 80.0687 43.1779 80.0687 43.0047C79.8947 42.8314 79.8946 42.8315 79.8946 42.6582C79.8946 42.485 79.8947 42.3118 80.0687 42.1385C80.2428 42.1385 80.2428 41.9653 80.4169 41.9653H80.5909H80.7649C80.7649 41.9653 80.939 41.9653 80.939 41.7921V41.6188H80.7649C80.5909 41.6188 80.5909 41.6188 80.5909 41.6188V41.7921H80.2428C80.2428 41.6188 80.2428 41.4456 80.4169 41.4456C80.5909 41.2724 80.765 41.2724 80.939 41.2724C81.1131 41.2724 81.2871 41.2724 81.4612 41.4456C81.6353 41.4456 81.6352 41.6188 81.6352 41.7921V42.485C81.2871 43.0047 81.2872 43.0047 81.2872 43.1779ZM80.7649 42.485C80.5909 42.485 80.5909 42.485 80.5909 42.485H80.4169C80.2428 42.485 80.2428 42.485 80.2428 42.485L80.0687 42.6582V42.8315H80.2428C80.4168 42.8315 80.4168 42.8315 80.5909 42.8315C80.765 43.0047 80.7649 42.8314 80.7649 42.485ZM83.724 41.0991H84.2462V43.3511H83.8981V43.1779C83.8981 43.3512 83.724 43.3511 83.724 43.3511C83.724 43.3511 83.5499 43.3511 83.3759 43.3511C83.2018 43.3511 83.0278 43.3512 82.8537 43.1779C82.6796 43.0047 82.6797 42.8314 82.6797 42.485C82.6797 42.1385 82.6796 41.9653 82.8537 41.7921C83.0278 41.6188 83.2018 41.6188 83.3759 41.6188C83.5499 41.6188 83.5499 41.6188 83.724 41.6188L83.8981 41.7921V41.0991H83.724ZM83.724 42.485C83.724 42.3117 83.724 42.1385 83.55 41.9653H83.3759C83.2018 41.9653 83.2019 41.9653 83.0278 42.1385C83.0278 42.3118 82.8537 42.3117 82.8537 42.485C82.8537 42.6582 82.8538 42.8315 83.0278 42.8315C83.0278 43.0047 83.2018 43.0047 83.3759 43.0047C83.5499 43.0047 83.5499 43.0047 83.724 42.8315C83.724 42.8315 83.724 42.6582 83.724 42.485ZM86.3349 42.3118C85.9868 42.3118 85.9868 42.1385 85.8128 42.1385C85.8128 42.1385 85.8128 42.1385 85.8128 41.9653C85.8128 41.9653 85.8128 41.9653 85.8128 41.7921H85.9868C86.1609 41.7921 86.1609 41.7921 86.1609 41.9653C86.509 42.1385 86.509 42.1385 86.3349 42.3118L86.8571 42.1385C86.8571 41.9653 86.6831 41.7921 86.6831 41.6188C86.509 41.6188 86.335 41.4456 86.1609 41.4456C85.9869 41.4456 85.8128 41.4456 85.6388 41.6188C85.4647 41.7921 85.4646 41.7921 85.4646 41.9653C85.4646 42.1385 85.4647 42.1385 85.6388 42.3118C85.6388 42.3118 85.8127 42.485 85.9868 42.485C86.3349 42.485 86.335 42.6582 86.5091 42.6582C86.5091 42.6582 86.5091 42.6582 86.5091 42.8315C86.5091 43.0047 86.5091 43.0047 86.5091 43.0047H86.3349C86.1609 43.0047 86.1609 43.0047 85.9868 42.8315V42.6582H85.4646C85.4646 42.8315 85.4647 43.0047 85.6388 43.0047C85.8128 43.1779 85.9869 43.1779 86.1609 43.1779C86.509 43.1779 86.6831 43.1779 86.6831 43.0047C86.8571 42.8314 86.8571 42.8315 86.8571 42.6582C86.8571 42.485 86.8571 42.485 86.6831 42.3118C86.6831 42.485 86.509 42.3118 86.3349 42.3118ZM0 42.6582V42.8315C8.00687 42.8315 15.8396 42.8315 22.454 42.8315V42.6582C15.8396 42.6582 8.00687 42.6582 0 42.6582ZM89.6422 42.6582V42.8315C96.9528 42.8315 104.263 42.8315 110.356 42.8315V42.6582C104.089 42.6582 96.9528 42.6582 89.6422 42.6582Z" fill="#686868"/>
</svg>
