<svg width="155" height="40" viewBox="0 0 155 40" fill="none" xmlns="http://www.w3.org/2000/svg">
<path d="M33.6315 6.22423C18.6933 0.414945 7.28222 5.60181 5 6.63919C5.20747 6.43171 5.41496 6.22424 5.62243 6.01676C7.4897 4.14949 9.7719 2.69717 12.0541 1.6598C14.5438 0.622426 17.0335 0 19.7307 0C22.4279 0 24.9176 0.622426 27.4073 1.6598C29.6895 2.69717 31.7642 4.35696 33.6315 6.22423C33.424 6.22423 33.424 6.22423 33.6315 6.22423Z" fill="#686868"/>
<path d="M33.2108 8.71968C33.2108 8.71968 31.136 5.40008 19.5174 5.40008C7.69136 5.40008 5.8241 8.92715 5.20168 9.54958C5.20168 9.54958 3.54187 8.71968 4.99419 6.85241C7.27641 5.60756 18.6875 0.628169 33.6257 6.43746C34.4556 7.47483 33.2108 8.71968 33.2108 8.71968Z" fill="#686868"/>
<path d="M6.24219 33.6182C21.5953 38.3901 32.5914 32.5808 34.8737 31.3359C34.6662 31.5434 34.4587 31.9584 34.2513 32.1658C32.5915 34.2406 30.5167 35.9004 28.027 36.9378C25.7448 38.1826 23.0476 38.805 20.3504 39.0125C17.6533 39.22 15.1636 38.805 12.6739 37.7676C10.3917 36.9377 8.10946 35.4854 6.24219 33.6182Z" fill="#686868"/>
<path d="M6.44057 31.1147C6.44057 31.1147 8.72278 34.2268 20.3414 33.6044C31.9599 32.982 33.8272 29.2474 34.4496 28.625C34.4496 28.625 36.1094 29.4549 34.8646 31.3222C32.5824 32.567 21.5862 38.3763 6.23311 33.6044C5.19574 32.567 6.44057 31.1147 6.44057 31.1147Z" fill="#686868"/>
<path d="M38.8058 19.9204C38.8058 22.4101 38.5983 23.8624 37.9759 24.6923C37.9759 23.8624 37.3535 22.6176 35.9011 20.7503C32.9965 17.6382 27.1872 16.6008 25.7349 16.1859C24.2826 15.7709 20.7555 14.941 18.0583 14.3186C16.1911 13.6962 14.3238 13.0737 12.4565 12.2438C10.7967 10.999 10.3818 9.54666 13.2864 8.30182C18.0583 6.22707 25.7349 7.47192 29.8844 8.5093C34.0339 9.33919 35.2787 8.09435 35.2787 8.09435C35.4862 9.13172 38.8058 12.0364 38.8058 19.9204Z" fill="#686868"/>
<path d="M38.1956 24.9016C37.1582 27.1838 35.4984 26.3539 35.4984 26.3539C37.9881 20.9596 29.6891 18.0549 27.6144 17.4325C25.5396 16.8101 20.9752 15.9802 17.0332 14.7354C15.3734 14.3204 13.7136 13.4905 12.4688 12.4531C14.336 13.283 16.2033 14.1129 18.0706 14.5279C20.7677 15.1503 24.2948 15.9802 25.7471 16.3951C27.1994 16.8101 33.0087 17.8475 35.9134 20.9596C37.5732 22.6194 37.9881 24.0717 38.1956 24.9016Z" fill="#686868"/>
<path d="M28.2253 28.4243C25.9431 31.5364 19.0965 31.7439 15.3619 31.5364C11.6274 31.329 9.13769 30.914 7.27042 30.2916C6.02557 30.0841 4.57323 29.8766 3.32838 30.0841C3.32838 30.0841 -0.198667 25.3122 0.00880713 19.2954C0.00880713 17.0132 0.423737 14.731 1.25364 12.6562C1.46111 14.1086 2.70598 18.4655 13.4947 20.5403C20.1338 21.9926 23.8684 23.03 25.9431 23.6524C28.0179 24.8973 29.4702 26.557 28.2253 28.4243Z" fill="#686868"/>
<path d="M25.9395 23.866C23.8648 23.2436 20.1302 22.2062 13.491 20.7539C2.70234 18.6791 1.45747 14.3222 1.25 12.8698C1.25 12.6624 1.25001 12.6624 1.45749 12.4549C1.87244 11.625 3.53223 11.625 3.94718 11.625C3.94718 11.625 1.04253 15.982 9.13404 18.8866C17.2256 21.7913 19.5078 21.3763 22.4124 22.4137C23.6573 22.8286 24.6947 23.2436 25.9395 23.866Z" fill="#686868"/>
<path d="M45.0312 23.6406V30.4873H109.141C109.556 27.3752 111.838 24.4705 114.535 24.4705H154.37V23.6406H45.0312Z" fill="#686868"/>
<path d="M48.1517 18.2643C47.9442 19.7166 48.7741 19.9241 49.1891 19.9241C49.604 19.9241 49.8115 19.7166 50.019 19.5091C50.2265 19.3016 50.4339 19.0942 50.4339 18.6792C50.6414 18.0568 50.019 17.8493 48.3592 17.0194C47.5293 16.6045 45.662 15.7746 46.077 13.4924C46.4919 11.0027 48.9816 9.75781 51.0564 9.75781C52.7161 9.75781 54.9984 10.5877 54.376 13.4924H51.2638C51.2638 13.0774 51.2638 12.2475 50.4339 12.2475C50.2264 12.2475 49.8115 12.2475 49.604 12.455C49.3966 12.6625 49.1891 12.8699 49.1891 13.0774C48.9816 13.6998 49.3965 13.6998 51.4713 14.7372C53.546 15.7746 53.961 16.812 53.546 18.2643C53.1311 20.1315 51.8863 22.2063 48.5667 22.2063C45.4545 22.2063 44.4172 20.339 45.0396 18.0568L48.1517 18.2643Z" fill="#686868"/>
<path d="M54.3672 22.1976L56.6494 10.1641H60.7989L61.6288 18.0481L65.3633 10.1641H69.5128L67.2306 22.1976H64.326L66.1932 13.0687L61.8363 22.1976H59.7615L58.9316 13.0687L57.2718 22.1976H54.3672Z" fill="#686868"/>
<path d="M71.593 22.1976H68.2734L75.3276 10.1641H78.0247L80.5144 22.1976H77.1949L76.9874 20.3303H72.8379L71.593 22.1976ZM75.95 13.6911L73.8752 17.8406H76.5724L75.95 13.6911Z" fill="#686868"/>
<path d="M83.8334 9.94531H87.7754C89.6427 9.94531 90.8876 10.3603 91.3025 10.7752C92.1324 11.6051 92.3399 12.85 92.1324 14.0948C91.9249 14.9247 91.7175 15.7546 91.0951 16.377C90.6801 16.9994 90.0577 17.4144 89.2278 17.6219L90.8876 22.1863H87.7754L85.7007 16.377H86.1157C86.7381 16.377 87.3605 16.377 87.9829 15.9621C88.1904 15.7546 88.3979 15.5471 88.6054 15.3396C88.8128 15.1322 88.8128 14.7172 89.0203 14.5097C89.0203 14.3023 89.0203 13.8873 89.0203 13.6799C89.0203 13.4724 88.8128 13.2649 88.6054 13.0574C88.1904 12.85 87.7755 12.6425 87.3605 12.6425H86.1157L84.4559 21.9788H81.3438L83.8334 9.94531Z" fill="#686868"/>
<path d="M95.4541 12.8612H93.1719L93.5868 10.1641H101.471L101.056 12.8612H98.7737L97.1139 22.1976H94.0018L95.4541 12.8612Z" fill="#686868"/>
<path d="M108.725 18.2643C108.517 19.7166 109.347 19.9241 109.762 19.9241C110.177 19.9241 110.385 19.7166 110.592 19.5091C110.8 19.3016 111.007 19.0942 111.007 18.6792C111.215 18.0568 110.592 17.8493 108.932 17.0194C108.102 16.6045 106.235 15.7746 106.65 13.4924C107.065 11.0027 109.555 9.75781 111.63 9.75781C113.289 9.75781 115.572 10.5877 114.949 13.4924H111.837C111.837 13.0774 111.837 12.2475 111.007 12.2475C110.8 12.2475 110.385 12.2475 110.177 12.455C109.97 12.6625 109.762 12.8699 109.762 13.0774C109.555 13.6998 109.97 13.6998 112.044 14.7372C114.119 15.7746 114.534 16.812 114.119 18.2643C113.704 20.1315 112.459 22.2063 109.14 22.2063C105.82 22.2063 104.99 20.339 105.613 18.0568L108.725 18.2643Z" fill="#686868"/>
<path d="M117.247 9.94531H124.093L123.678 12.6425H119.944L119.529 14.5097H123.263L122.848 17.2069H119.114L118.699 19.2817H122.433L122.019 21.9788H115.172L117.247 9.94531Z" fill="#686868"/>
<path d="M131.768 17.4144L133.013 9.94531H135.917L133.635 21.9788H130.938L127.618 14.7172L126.373 21.9788H123.469L125.751 9.94531H128.448L131.768 17.4144Z" fill="#686868"/>
<path d="M139.019 18.2643C138.811 19.7166 139.641 19.9241 140.056 19.9241C140.471 19.9241 140.679 19.7166 140.886 19.5091C141.094 19.3016 141.301 19.0942 141.301 18.6792C141.509 18.0568 140.886 17.8493 139.226 17.0194C138.396 16.6045 136.529 15.7746 136.944 13.4924C137.359 11.0027 139.849 9.75781 141.924 9.75781C143.583 9.75781 145.866 10.5877 145.243 13.4924H142.131C142.131 13.0774 142.131 12.2475 141.301 12.2475C141.094 12.2475 140.679 12.2475 140.471 12.455C140.264 12.6625 140.056 12.8699 140.056 13.0774C139.849 13.6998 140.264 13.6998 142.339 14.7372C144.413 15.7746 144.828 16.812 144.413 18.2643C143.998 20.1315 142.753 22.2063 139.434 22.2063C136.322 22.2063 135.284 20.339 135.907 18.0568L139.019 18.2643Z" fill="#686868"/>
<path d="M147.512 9.94531H154.359L153.944 12.6425H150.209L149.794 14.5097H153.529L153.114 17.2069H149.38L148.965 19.2817H152.699L152.284 21.9788H145.438L147.512 9.94531Z" fill="#686868"/>
<path d="M48.1517 18.2643C47.9442 19.7166 48.7741 19.9241 49.1891 19.9241C49.604 19.9241 49.8115 19.7166 50.019 19.5091C50.2265 19.3016 50.4339 19.0942 50.4339 18.6792C50.6414 18.0568 50.019 17.8493 48.3592 17.0194C47.5293 16.6045 45.662 15.7746 46.077 13.4924C46.4919 11.0027 48.9816 9.75781 51.0564 9.75781C52.7161 9.75781 54.9984 10.5877 54.376 13.4924H51.2638C51.2638 13.0774 51.2638 12.2475 50.4339 12.2475C50.2264 12.2475 49.8115 12.2475 49.604 12.455C49.3966 12.6625 49.1891 12.8699 49.1891 13.0774C48.9816 13.6998 49.3965 13.6998 51.4713 14.7372C53.546 15.7746 53.961 16.812 53.546 18.2643C53.1311 20.1315 51.8863 22.2063 48.5667 22.2063C45.4545 22.2063 44.4172 20.339 45.0396 18.0568L48.1517 18.2643Z" fill="#686868"/>
<path d="M54.3672 22.1976L56.6494 10.1641H60.7989L61.6288 18.0481L65.3633 10.1641H69.5128L67.2306 22.1976H64.326L66.1932 13.0687L61.8363 22.1976H59.7615L58.9316 13.0687L57.2718 22.1976H54.3672Z" fill="#686868"/>
<path d="M71.593 22.1976H68.2734L75.3276 10.1641H78.0247L80.5144 22.1976H77.1949L76.9874 20.3303H72.8379L71.593 22.1976ZM75.95 13.6911L73.8752 17.8406H76.5724L75.95 13.6911Z" fill="#686868"/>
<path d="M83.8334 9.94531H87.7754C89.6427 9.94531 90.8876 10.3603 91.3025 10.7752C92.1324 11.6051 92.3399 12.85 92.1324 14.0948C91.9249 14.9247 91.7175 15.7546 91.0951 16.377C90.6801 16.9994 90.0577 17.4144 89.2278 17.6219L90.8876 22.1863H87.7754L85.7007 16.377H86.1157C86.7381 16.377 87.3605 16.377 87.9829 15.9621C88.1904 15.7546 88.3979 15.5471 88.6054 15.3396C88.8128 15.1322 88.8128 14.7172 89.0203 14.5097C89.0203 14.3023 89.0203 13.8873 89.0203 13.6799C89.0203 13.4724 88.8128 13.2649 88.6054 13.0574C88.1904 12.85 87.7755 12.6425 87.3605 12.6425H86.1157L84.4559 21.9788H81.3438L83.8334 9.94531Z" fill="#686868"/>
<path d="M95.4541 12.8612H93.1719L93.5868 10.1641H101.471L101.056 12.8612H98.7737L97.1139 22.1976H94.0018L95.4541 12.8612Z" fill="#686868"/>
<path d="M108.725 18.2643C108.517 19.7166 109.347 19.9241 109.762 19.9241C110.177 19.9241 110.385 19.7166 110.592 19.5091C110.8 19.3016 111.007 19.0942 111.007 18.6792C111.215 18.0568 110.592 17.8493 108.932 17.0194C108.102 16.6045 106.235 15.7746 106.65 13.4924C107.065 11.0027 109.555 9.75781 111.63 9.75781C113.289 9.75781 115.572 10.5877 114.949 13.4924H111.837C111.837 13.0774 111.837 12.2475 111.007 12.2475C110.8 12.2475 110.385 12.2475 110.177 12.455C109.97 12.6625 109.762 12.8699 109.762 13.0774C109.555 13.6998 109.97 13.6998 112.044 14.7372C114.119 15.7746 114.534 16.812 114.119 18.2643C113.704 20.1315 112.459 22.2063 109.14 22.2063C105.82 22.2063 104.99 20.339 105.613 18.0568L108.725 18.2643Z" fill="#686868"/>
<path d="M117.247 9.94531H124.093L123.678 12.6425H119.944L119.529 14.5097H123.263L122.848 17.2069H119.114L118.699 19.2817H122.433L122.019 21.9788H115.172L117.247 9.94531Z" fill="#686868"/>
<path d="M131.768 17.4144L133.013 9.94531H135.917L133.635 21.9788H130.938L127.618 14.7172L126.373 21.9788H123.469L125.751 9.94531H128.448L131.768 17.4144Z" fill="#686868"/>
<path d="M139.019 18.2643C138.811 19.7166 139.641 19.9241 140.056 19.9241C140.471 19.9241 140.679 19.7166 140.886 19.5091C141.094 19.3016 141.301 19.0942 141.301 18.6792C141.509 18.0568 140.886 17.8493 139.226 17.0194C138.396 16.6045 136.529 15.7746 136.944 13.4924C137.359 11.0027 139.849 9.75781 141.924 9.75781C143.583 9.75781 145.866 10.5877 145.243 13.4924H142.131C142.131 13.0774 142.131 12.2475 141.301 12.2475C141.094 12.2475 140.679 12.2475 140.471 12.455C140.264 12.6625 140.056 12.8699 140.056 13.0774C139.849 13.6998 140.264 13.6998 142.339 14.7372C144.413 15.7746 144.828 16.812 144.413 18.2643C143.998 20.1315 142.753 22.2063 139.434 22.2063C136.322 22.2063 135.284 20.339 135.907 18.0568L139.019 18.2643Z" fill="#686868"/>
<path d="M147.512 9.94531H154.359L153.944 12.6425H150.209L149.794 14.5097H153.529L153.114 17.2069H149.38L148.965 19.2817H152.699L152.284 21.9788H145.438L147.512 9.94531Z" fill="#686868"/>
<path d="M48.9705 27.3769V27.5843C48.9705 27.5843 48.9705 27.7918 49.178 27.7918L49.3855 27.9993H49.5929C49.8004 27.9993 50.0079 27.9993 50.0079 27.7918C50.2154 27.5843 50.2154 27.5843 50.2154 27.3769C50.2154 26.9619 49.8004 26.7544 49.3855 26.7544C49.178 26.7544 48.3481 26.3395 48.3481 25.7171C48.3481 25.5096 48.3481 25.5096 48.3481 25.3021C48.3481 25.0946 48.5556 25.0946 48.5556 24.8872C48.763 24.6797 48.763 24.6797 48.9705 24.6797C49.178 24.6797 49.178 24.6797 49.3855 24.6797C49.5929 24.6797 49.593 24.6797 49.8004 24.6797C50.0079 24.6797 50.0079 24.8872 50.2154 24.8872C50.4228 24.8872 50.4228 25.0946 50.4228 25.3021C50.4228 25.5096 50.4228 25.5096 50.4228 25.7171H49.8004C49.8004 25.5096 49.8004 25.5096 49.5929 25.3021C49.3855 25.3021 49.3855 25.0946 49.178 25.0946H48.9705C48.9705 25.0946 48.7631 25.0946 48.7631 25.3021C48.7631 25.3021 48.763 25.5096 48.5556 25.5096V25.7171C48.5556 26.132 48.763 26.132 49.3855 26.3395C49.8004 26.547 50.2154 26.7544 50.2154 27.3769C50.2154 27.5843 50.2154 27.7918 50.2154 27.7918C50.2154 27.9993 50.0079 27.9993 50.0079 28.2068C49.8004 28.4142 49.8004 28.4142 49.5929 28.4142C49.3855 28.4142 49.178 28.4142 49.178 28.4142C48.9705 28.4142 48.7631 28.4142 48.7631 28.4142C48.5556 28.4142 48.5556 28.2068 48.3481 28.2068C48.1406 27.9993 48.1406 27.9993 48.1406 27.7918C48.1406 27.5843 48.1406 27.3769 48.1406 27.3769H48.9705Z" fill="#686868"/>
<path d="M51.6615 27.1876C51.6615 27.3951 51.869 27.6025 51.869 27.81C52.0765 28.0175 52.2839 28.0175 52.4914 28.0175C52.6989 28.0175 52.9064 28.0175 52.9064 27.81C53.1138 27.81 53.1138 27.6025 53.3213 27.3951H53.9437C53.7363 27.6025 53.5288 28.0175 53.3213 28.0175C53.1138 28.225 52.6989 28.225 52.4914 28.225C52.2839 28.225 52.0765 28.225 51.869 28.0175C51.6615 27.81 51.454 27.81 51.2465 27.6025C51.0391 27.3951 51.0391 27.1876 51.0391 26.9801C51.0391 26.7726 51.0391 26.5652 51.0391 26.3577C51.0391 26.1502 51.2465 25.9427 51.454 25.7353C51.6615 25.5278 51.869 25.5278 52.0764 25.3203C52.2839 25.3203 52.4914 25.3203 52.9064 25.3203C53.1138 25.3203 53.3213 25.5278 53.5288 25.7353C53.7362 25.9427 53.7363 26.1502 53.9437 26.3577C53.9437 26.5652 53.9437 26.7726 53.9437 26.9801H51.6615V27.1876ZM53.5288 26.7726C53.5288 26.5652 53.3213 26.3577 53.1138 26.1502C52.9063 25.9427 52.6989 25.9427 52.4914 25.9427C52.2839 25.9427 52.0765 25.9427 51.869 26.1502C51.6615 26.3577 51.6615 26.5652 51.454 26.7726H53.5288Z" fill="#686868"/>
<path d="M57.4793 27.586C57.4793 28.001 57.0644 28.2084 56.8569 28.4159C56.6494 28.6234 56.2345 28.6234 55.8195 28.6234C55.4046 28.6234 55.1971 28.4159 54.7821 28.2084C54.5747 28.001 54.3672 27.586 54.3672 27.1711C54.3672 26.7561 54.5747 26.3412 54.7821 26.1337C54.9896 25.9262 55.4046 25.7188 55.8195 25.7188C56.2345 25.7188 56.6494 25.7187 56.8569 25.9262C57.0644 26.1337 57.4793 26.3412 57.4793 26.7561H56.8569C56.8569 26.5486 56.6494 26.5486 56.6494 26.3412C56.4419 26.3412 56.4419 26.1337 56.2344 26.1337C56.027 26.1337 55.8195 26.1337 55.8195 26.1337C55.612 26.1337 55.612 26.3412 55.4046 26.3412C55.1971 26.5486 55.1971 26.7561 55.1971 26.9636C55.1971 27.1711 55.1971 27.1711 55.1971 27.3785C55.1971 27.586 55.4046 27.586 55.4046 27.7935C55.4046 27.7935 55.612 28.001 55.8195 28.001C56.027 28.001 56.027 28.001 56.2344 28.001C56.4419 28.001 56.6494 28.001 56.8569 27.7935C57.0644 27.7935 57.0643 27.586 57.2718 27.3785L57.4793 27.586Z" fill="#686868"/>
<path d="M60.6034 28.4159H60.1885V28.001C60.1885 28.2084 59.981 28.4159 59.7735 28.4159C59.566 28.4159 59.3586 28.6234 59.1511 28.6234C58.3212 28.6234 57.9062 28.001 57.9062 27.3785V25.7188H58.5287V27.1711C58.5287 27.586 58.7361 28.001 59.3586 28.001C59.566 28.001 59.566 28.001 59.7735 28.001C59.7735 28.001 59.981 28.001 59.981 27.7935L60.1885 27.586C60.1885 27.586 60.1885 27.3785 60.1885 27.1711V25.7188H60.8109L60.6034 28.4159Z" fill="#686868"/>
<path d="M61.2231 25.7153H61.6381V26.1302C61.6381 25.9228 61.8455 25.9228 62.053 25.7153C62.2605 25.7153 62.4679 25.5078 62.4679 25.5078V26.1302C62.053 26.1302 61.6381 26.3377 61.6381 26.9601V28.4125H61.0156L61.2231 25.7153Z" fill="#686868"/>
<path d="M63.0938 24.6797H63.7162V25.3021H63.0938V24.6797ZM63.0938 25.7171H63.7162V28.6217H63.0938V25.7171Z" fill="#686868"/>
<path d="M64.5478 26.132H64.1328V25.7171H64.5478V24.6797H65.1702V25.7171H65.7926V26.132H65.1702V28.6217H64.5478V26.132Z" fill="#686868"/>
<path d="M66.8108 28.4159L65.7734 25.7188H66.3959L67.2258 27.7935L68.0556 25.7188H68.6781L67.0183 29.6608H66.3959L66.8108 28.4159Z" fill="#686868"/>
<path d="M70.7596 27.3769V27.5843C70.7596 27.5843 70.7596 27.7918 70.9671 27.7918L71.1745 27.9993H71.382C71.5895 27.9993 71.7969 27.9993 71.7969 27.7918C72.0044 27.5843 72.0044 27.5843 72.0044 27.3769C72.0044 26.9619 71.5895 26.7544 71.1745 26.7544C70.967 26.7544 70.1371 26.3395 70.1371 25.7171C70.1371 25.5096 70.1371 25.5096 70.1371 25.3021C70.1371 25.0946 70.3446 25.0946 70.3446 24.8872C70.5521 24.6797 70.5521 24.6797 70.7596 24.6797C70.967 24.6797 70.967 24.6797 71.1745 24.6797C71.382 24.6797 71.382 24.6797 71.5895 24.6797C71.797 24.6797 71.797 24.8872 72.0044 24.8872C72.2119 24.8872 72.2119 25.0946 72.2119 25.3021C72.2119 25.5096 72.2119 25.5096 72.2119 25.7171H71.5895C71.5895 25.5096 71.5895 25.5096 71.382 25.3021C71.382 25.3021 71.1745 25.0946 70.9671 25.0946H70.7596C70.7596 25.0946 70.5521 25.0946 70.5521 25.3021C70.5521 25.5096 70.5521 25.5096 70.3446 25.5096V25.7171C70.3446 26.132 70.5521 26.132 71.1745 26.3395C71.5895 26.547 72.0044 26.7544 72.0044 27.3769C72.0044 27.5843 72.0044 27.7918 72.0044 27.7918C72.0044 27.9993 71.7969 27.9993 71.7969 28.2068C71.5895 28.4142 71.5895 28.4142 71.382 28.4142C71.1745 28.4142 70.9671 28.4142 70.9671 28.4142C70.7596 28.4142 70.5521 28.4142 70.5521 28.4142C70.3446 28.4142 70.3446 28.2068 70.1371 28.2068C69.9297 27.9993 69.9297 27.9993 69.9297 27.7918C69.9297 27.5843 69.9297 27.3769 69.9297 27.3769H70.7596Z" fill="#686868"/>
<path d="M74.0764 28.4159L73.0391 25.7188H73.6615L74.4914 27.7935L75.3213 25.7188H75.9437L74.4914 29.6608H73.8689L74.0764 28.4159Z" fill="#686868"/>
<path d="M77.1954 26.3412C77.1954 26.1337 77.1954 26.1337 76.9879 26.1337C76.9879 26.1337 76.9879 26.1337 76.7805 26.1337C76.7805 26.1337 76.7805 26.1337 76.573 26.1337H76.3655C76.3655 26.1337 76.3655 26.1337 76.158 26.1337C76.158 26.1337 76.158 26.1337 76.158 26.3412C76.158 26.3412 76.158 26.3412 76.158 26.5487C76.158 26.7561 76.3655 26.9636 76.573 26.9636C76.9879 27.1711 77.4029 27.1711 77.4029 27.7935C77.4029 28.001 77.4029 28.001 77.4029 28.2084C77.4029 28.4159 77.1954 28.4159 77.1954 28.6234C77.1954 28.6234 76.9879 28.8309 76.7805 28.8309C76.573 28.8309 76.573 28.8309 76.3655 28.8309C76.158 28.8309 76.158 28.8309 75.9506 28.8309C75.7431 28.8309 75.7431 28.6234 75.5356 28.6234L75.3281 28.4159C75.3281 28.2084 75.3281 28.2084 75.3281 28.001H75.9506V28.2084C75.9506 28.2084 75.9506 28.4159 76.158 28.4159C76.158 28.4159 76.158 28.4159 76.3655 28.4159H76.573H76.7805H76.9879C76.9879 28.4159 76.9879 28.4159 77.1954 28.2084V28.001C77.1954 27.7935 76.9879 27.586 76.3655 27.3785C75.9505 27.1711 75.7431 27.1711 75.7431 26.5487C75.7431 26.3412 75.7431 26.1337 75.9506 25.9262C76.158 25.7187 76.3655 25.7188 76.573 25.7188C76.7805 25.7188 76.9879 25.7187 77.1954 25.9262C77.4029 26.1337 77.4029 26.3412 77.4029 26.5487L77.1954 26.3412Z" fill="#686868"/>
<path d="M78.6415 26.132H78.2266V25.7171H78.6415V24.6797H79.2639V25.7171H79.8864V26.132H79.2639V28.6217H78.6415V26.132Z" fill="#686868"/>
<path d="M80.3099 27.1876C80.3099 27.3951 80.5174 27.6025 80.5174 27.81C80.7249 28.0175 80.9323 28.0175 81.1398 28.0175C81.3473 28.0175 81.5548 28.0175 81.5548 27.81C81.7622 27.81 81.7623 27.6025 81.9697 27.3951H82.5921C82.3847 27.6025 82.1772 28.0175 81.9697 28.0175C81.7623 28.225 81.3473 28.225 81.1398 28.225C80.9323 28.225 80.7249 28.225 80.5174 28.0175C80.3099 27.81 80.1025 27.81 79.895 27.6025C79.6875 27.3951 79.6875 27.1876 79.6875 26.9801C79.6875 26.7726 79.6875 26.5652 79.6875 26.3577C79.6875 26.1502 79.895 25.9427 80.1024 25.7353C80.3099 25.5278 80.5174 25.5278 80.7249 25.3203C80.9323 25.3203 81.1398 25.3203 81.5548 25.3203C81.7622 25.3203 81.9697 25.5278 82.1772 25.7353C82.3847 25.9427 82.3847 26.1502 82.5921 26.3577C82.5921 26.5652 82.5921 26.7726 82.5921 26.9801H80.3099V27.1876ZM82.3847 26.7726C82.3847 26.5652 82.1772 26.3577 81.9697 26.1502C81.7623 25.9427 81.5548 25.9427 81.3473 25.9427C81.1398 25.9427 80.9323 25.9427 80.7249 26.1502C80.5174 26.3577 80.5174 26.5652 80.3099 26.7726H82.3847Z" fill="#686868"/>
<path d="M83.4141 25.7153H83.829V26.1302C83.829 25.9228 84.0365 25.9228 84.2439 25.7153C84.4514 25.7153 84.6589 25.5078 84.6589 25.5078C84.8664 25.5078 84.8664 25.5078 85.0739 25.5078C85.2813 25.5078 85.2813 25.7153 85.4888 25.7153C85.4888 25.7153 85.6963 25.9228 85.6963 26.1302C85.6963 25.9228 85.9038 25.9228 85.9038 25.9228C86.1112 25.7153 86.3187 25.7153 86.7336 25.7153C86.9411 25.7153 87.3561 25.9228 87.5636 25.9228C87.771 26.1302 87.771 26.3377 87.771 26.3377C87.771 26.5452 87.771 26.7527 87.771 26.9601V28.6199H87.1486V26.9601C87.1486 26.7527 87.1486 26.5452 86.9411 26.3377L86.7336 26.1302H86.5262C86.3187 26.1302 86.3187 26.1302 86.3187 26.1302L86.1112 26.3377C85.9038 26.5452 85.9038 26.7527 85.9038 26.9601V28.6199H85.2813V27.1676C85.2813 26.9601 85.2813 26.7527 85.0739 26.5452L84.8664 26.3377H84.6589C84.4514 26.3377 84.4514 26.3377 84.4514 26.3377L84.2439 26.5452C84.0365 26.7527 84.0365 26.9601 84.0365 27.1676V28.8274H83.4141V25.7153Z" fill="#686868"/>
<path d="M89.6407 26.3412C89.6407 26.1337 89.6407 26.1337 89.4332 26.1337C89.4332 26.1337 89.4333 26.1337 89.2258 26.1337C89.2258 26.1337 89.2258 26.1337 89.0183 26.1337H88.8108C88.8108 26.1337 88.8108 26.1337 88.6034 26.1337C88.6034 26.1337 88.6034 26.1337 88.6034 26.3412C88.6034 26.3412 88.6034 26.3412 88.6034 26.5487C88.6034 26.7561 88.8108 26.9636 89.0183 26.9636C89.4332 27.1711 89.8482 27.1711 89.8482 27.7935C89.8482 28.001 89.8482 28.001 89.8482 28.2084C89.8482 28.4159 89.6407 28.4159 89.6407 28.6234C89.6407 28.6234 89.4333 28.8309 89.2258 28.8309C89.0183 28.8309 89.0183 28.8309 88.8108 28.8309C88.6033 28.8309 88.6033 28.8309 88.3959 28.8309C88.1884 28.8309 88.1884 28.6234 87.9809 28.6234L87.7734 28.4159C87.7734 28.2084 87.7734 28.2084 87.7734 28.001H88.3959V28.2084C88.3959 28.2084 88.3959 28.4159 88.6034 28.4159C88.6034 28.4159 88.6033 28.4159 88.8108 28.4159H89.0183H89.2258H89.4332C89.4332 28.4159 89.4332 28.4159 89.4332 28.2084V28.001C89.4332 27.7935 89.2258 27.586 88.6034 27.3785C88.1884 27.1711 87.9809 27.1711 87.9809 26.5487C87.9809 26.3412 87.9809 26.1337 88.1884 25.9262C88.3959 25.7187 88.6033 25.7188 88.8108 25.7188C89.0183 25.7188 89.2258 25.7187 89.4332 25.9262C89.6407 26.1337 89.6407 26.3412 89.6407 26.5487V26.3412Z" fill="#686868"/>
<path d="M92.3438 24.6797H92.9661V27.9993H94.4185V28.6217H92.3438V24.6797Z" fill="#686868"/>
<path d="M95.4506 28.4193H94.8281V27.7969H95.4506V28.4193Z" fill="#686868"/>
<path d="M96.2856 24.6797H96.908V27.9993H98.1529V28.6217H96.0781L96.2856 24.6797Z" fill="#686868"/>
<path d="M99.3802 28.4193H98.7578V27.7969H99.3802V28.4193Z" fill="#686868"/>
<path d="M103.961 27.3734C103.754 27.7883 103.546 27.9958 103.339 28.2033C102.924 28.4108 102.716 28.6182 102.301 28.6182C102.094 28.6182 101.679 28.6182 101.471 28.4108C101.264 28.4108 101.056 28.2033 100.849 27.9958C100.642 27.7883 100.434 27.5809 100.434 27.3734C100.227 27.1659 100.227 26.751 100.227 26.5435C100.227 26.336 100.227 25.9211 100.434 25.7136C100.642 25.5061 100.642 25.2986 100.849 25.0912C101.056 24.8837 101.264 24.6762 101.471 24.6762C101.679 24.6762 102.094 24.4688 102.301 24.4688C102.716 24.4688 103.131 24.6762 103.339 24.8837C103.754 25.0912 103.961 25.5061 103.961 25.7136H103.339C103.131 25.5061 103.131 25.2986 102.924 25.0912C102.716 24.8837 102.509 24.8837 102.301 24.8837C101.886 24.8837 101.471 25.0912 101.264 25.2986C101.056 25.5061 100.849 25.9211 100.849 26.336C100.849 26.751 101.056 27.1659 101.264 27.3734C101.471 27.5809 101.886 27.7883 102.301 27.7883C102.509 27.7883 102.716 27.7883 102.924 27.5809C103.131 27.3734 103.339 27.3734 103.339 27.1659H103.961V27.3734Z" fill="#686868"/>
</svg>
