<svg width="154" height="55" viewBox="0 0 154 55" fill="none" xmlns="http://www.w3.org/2000/svg">
<mask id="mask0_1_748" style="mask-type:luminance" maskUnits="userSpaceOnUse" x="53" y="5" width="15" height="18">
<path d="M57.2457 5.55006C56.1777 5.97725 55.5369 6.61805 54.8961 7.25884C54.2553 8.11323 54.0417 8.96763 54.0417 10.0356C54.0417 11.3172 54.4689 12.3852 55.3233 13.026C56.1777 13.8804 57.2457 14.3076 58.7409 14.7348L60.6633 15.162C61.5177 15.3756 62.3721 15.5892 62.7993 16.0164C63.2265 16.23 63.4401 16.8708 63.6537 17.298C63.6537 17.9388 63.4401 18.3659 62.7993 18.7931C62.1585 19.2203 61.5177 19.4339 60.6633 19.4339C59.8089 19.4339 58.9545 19.2203 58.3137 18.7931C57.6729 18.3659 57.4593 17.7252 57.2457 16.8708H53.8281C53.8281 18.7931 54.469 20.0747 55.7506 20.9291C57.0321 21.7835 58.5273 22.4243 60.6633 22.4243C62.7993 22.4243 64.2944 21.9971 65.576 21.1427C66.644 20.2883 67.2848 19.0067 67.2848 17.5116C67.2848 16.6572 67.0712 15.8028 66.644 15.162C66.2168 14.5212 65.5761 13.8804 64.9353 13.4532C64.0809 13.026 63.2264 12.8124 62.3721 12.3852L60.8769 11.958C60.2361 11.7444 59.5953 11.5308 58.9545 11.3172C58.3137 11.1036 58.1001 10.4628 58.1001 10.0356C58.1001 9.39482 58.3137 8.96763 58.7409 8.75403C59.1681 8.32683 59.8089 8.11324 60.6633 8.11324C61.5177 8.11324 62.1585 8.32683 62.7993 8.75403C63.2265 9.18123 63.6537 9.60842 63.6537 10.2492H67.0712C67.0712 9.18123 66.8577 8.32683 66.2169 7.47244C65.7897 6.61805 64.9353 6.19085 64.0809 5.76365C63.2265 5.33646 61.9449 5.12286 60.8769 5.12286C59.3817 4.90926 58.3137 5.12286 57.2457 5.55006Z" fill="white"/>
</mask>
<g mask="url(#mask0_1_748)">
<path d="M67.2848 4.91406H53.8281V22.4291H67.2848V4.91406Z" fill="#686868"/>
</g>
<mask id="mask1_1_748" style="mask-type:luminance" maskUnits="userSpaceOnUse" x="68" y="8" width="13" height="15">
<path d="M72.8292 19.4455C72.402 19.2319 72.402 18.8047 72.402 18.3775C72.402 17.9503 72.6155 17.5232 73.0427 17.3096C73.4699 17.096 73.8971 16.8824 74.5379 16.8824C74.7515 16.8824 75.1787 16.8824 75.3923 16.6688C75.8195 16.6688 76.0331 16.4552 76.2467 16.4552C76.4603 16.4552 76.6739 16.2416 76.8875 16.2416V17.5231C76.8875 18.1639 76.6739 18.8047 76.2467 19.2319C75.8195 19.6591 75.1787 19.8727 74.3243 19.8727C73.6835 19.8727 73.0428 19.8727 72.8292 19.4455ZM71.1204 10.2608C70.0524 10.9016 69.6252 11.756 69.4116 13.0376L72.6156 13.2512C72.8292 12.824 73.0427 12.3968 73.2563 12.1832C73.6835 11.9696 74.1108 11.756 74.7516 11.756C75.3923 11.756 75.8195 11.9696 76.2467 12.1832C76.6739 12.3968 76.6739 12.824 76.6739 13.4648C76.6739 13.892 76.4604 14.1056 76.0332 14.3192C75.606 14.5328 74.7516 14.5328 73.6836 14.7464C72.8292 14.7464 71.9748 14.96 71.334 15.1736C70.6932 15.3872 70.0524 15.8144 69.6252 16.4552C69.198 17.096 68.9844 17.7367 68.9844 18.5911C68.9844 19.8727 69.4116 20.7271 70.266 21.3679C71.1204 22.0087 71.9747 22.2223 73.2563 22.2223C74.1107 22.2223 74.9651 22.0087 75.6059 21.5815C76.2467 21.1543 76.6739 20.7271 76.8875 20.0863V21.7951H80.3051V13.2512C80.3051 12.1832 80.0915 11.3288 79.4507 10.688C79.0235 10.0472 78.3827 9.62002 77.5283 9.19282C76.6739 8.97922 75.8196 8.76562 74.9652 8.76562C73.2564 9.19282 72.1883 9.62002 71.1204 10.2608Z" fill="white"/>
</mask>
<g mask="url(#mask1_1_748)">
<path d="M80.3051 9.20312H68.9844V22.2326H80.3051V9.20312Z" fill="#686868"/>
</g>
<mask id="mask2_1_748" style="mask-type:luminance" maskUnits="userSpaceOnUse" x="83" y="9" width="20" height="14">
<path d="M95.0475 9.82048C94.4067 10.2477 93.9794 10.8885 93.5522 11.5293H93.3386C93.125 10.8885 92.6979 10.2477 92.0571 9.82048C91.4163 9.39328 90.7755 9.17969 89.9211 9.17969C89.0667 9.17969 88.4259 9.39328 87.7851 9.82048C87.1443 10.2477 86.7171 10.8885 86.5035 11.5293H86.2899V9.39328H83.0859V22.2092H86.7171V14.5196C86.7171 13.8788 86.9307 13.2381 87.3579 12.8109C87.7851 12.3837 88.2123 12.1701 88.8531 12.1701C89.4939 12.1701 89.9211 12.3837 90.3483 12.8109C90.7755 13.2381 90.9891 13.6652 90.9891 14.306V22.2092H94.4066V14.5196C94.4066 13.8788 94.6203 13.2381 95.0475 13.0245C95.4746 12.5973 95.9018 12.3837 96.5426 12.3837C97.1834 12.3837 97.6106 12.5973 98.0378 12.8109C98.465 13.2381 98.6786 13.6652 98.6786 14.306V22.2092H102.096V13.6652C102.096 12.3837 101.669 11.3157 101.028 10.4613C100.387 9.60688 99.3194 9.39328 98.0378 9.39328C96.5426 9.17968 95.6882 9.39328 95.0475 9.82048Z" fill="white"/>
</mask>
<g mask="url(#mask2_1_748)">
<path d="M101.669 9.17969H83.0859V21.9956H101.669V9.17969Z" fill="#686868"/>
</g>
<mask id="mask3_1_748" style="mask-type:luminance" maskUnits="userSpaceOnUse" x="103" y="6" width="8" height="17">
<path d="M105.084 6.40891V9.39929H103.375V11.9625H105.084V18.584C105.084 19.8656 105.511 20.72 106.152 21.3608C107.006 22.0016 107.861 22.2152 109.142 22.2152C109.569 22.2152 109.997 22.2152 110.21 22.0016C110.424 22.0016 110.851 21.788 110.851 21.788L110.21 19.2248C110.21 19.2248 109.997 19.2248 109.783 19.2248C109.569 19.2248 109.356 19.2248 109.356 19.2248C108.929 19.2248 108.715 19.2248 108.501 19.0112C108.288 18.7976 108.074 18.584 108.074 17.9432V11.7489H110.424V9.18569H108.715V6.19531H105.084V6.40891Z" fill="white"/>
</mask>
<g mask="url(#mask3_1_748)">
<path d="M111.278 6.41406H103.375V22.4339H111.278V6.41406Z" fill="#686868"/>
</g>
<mask id="mask4_1_748" style="mask-type:luminance" maskUnits="userSpaceOnUse" x="112" y="9" width="13" height="14">
<path d="M117.056 12.5966C117.483 12.1694 118.124 11.7422 118.978 11.7422C119.833 11.7422 120.473 11.9558 120.901 12.383C121.328 12.8102 121.541 13.451 121.541 14.3054H116.202C116.202 13.6646 116.415 13.0238 117.056 12.5966ZM115.561 10.0334C114.706 10.6742 113.852 11.315 113.425 12.383C112.998 13.451 112.57 14.519 112.57 15.8005C112.57 17.0821 112.784 18.3637 113.425 19.2181C113.852 20.2861 114.706 20.9269 115.561 21.5677C116.415 22.2085 117.697 22.4221 118.978 22.4221C120.473 22.4221 121.755 21.9949 122.823 21.3541C123.891 20.7133 124.532 19.6453 124.745 18.5773L121.541 18.3637C121.328 18.7909 121.114 19.2181 120.687 19.4317C120.26 19.6453 119.833 19.8589 119.192 19.8589C118.337 19.8589 117.697 19.6453 117.056 19.0045C116.629 18.3637 116.202 17.7229 116.202 16.8685H124.959V15.8005C124.959 14.3054 124.745 13.2374 124.105 12.1694C123.464 11.1014 122.823 10.4606 121.969 10.0334C121.114 9.6062 120.046 9.3926 118.978 9.3926C117.697 9.179 116.629 9.3926 115.561 10.0334Z" fill="white"/>
</mask>
<g mask="url(#mask4_1_748)">
<path d="M124.956 9.17969H112.781V22.4228H124.956V9.17969Z" fill="#686868"/>
</g>
<mask id="mask5_1_748" style="mask-type:luminance" maskUnits="userSpaceOnUse" x="126" y="9" width="13" height="14">
<path d="M129.444 10.0341C128.589 10.6749 127.735 11.3157 127.308 12.3837C126.88 13.4517 126.453 14.5196 126.453 15.8012C126.453 17.0828 126.667 18.1508 127.308 19.2188C127.735 20.2868 128.589 20.9276 129.444 21.5684C130.298 22.2092 131.579 22.4228 132.861 22.4228C133.929 22.4228 134.997 22.2092 135.851 21.782C136.706 21.3548 137.347 20.714 137.774 20.0732C138.201 19.4324 138.415 18.578 138.628 17.51H135.211C134.997 18.1508 134.783 18.7916 134.356 19.0052C133.929 19.4324 133.502 19.646 132.861 19.646C132.007 19.646 131.366 19.2188 130.939 18.578C130.512 17.9372 130.298 16.8692 130.298 15.8012C130.298 14.5196 130.512 13.6652 130.939 13.0245C131.366 12.3837 132.007 11.9565 132.861 11.9565C133.502 11.9565 133.929 12.1701 134.356 12.5973C134.783 13.0245 134.997 13.4517 134.997 14.0924H138.415C138.415 13.0245 138.201 12.1701 137.56 11.5293C137.133 10.8885 136.492 10.2477 135.638 9.82048C134.783 9.39328 133.929 9.17969 132.648 9.17969C131.58 9.17969 130.512 9.60688 129.444 10.0341Z" fill="white"/>
</mask>
<g mask="url(#mask5_1_748)">
<path d="M138.633 9.17969H126.672V22.2092H138.633V9.17969Z" fill="#686868"/>
</g>
<mask id="mask6_1_748" style="mask-type:luminance" maskUnits="userSpaceOnUse" x="140" y="5" width="13" height="18">
<path d="M140.758 5.13281V22.0071H144.389V14.7447C144.389 13.8903 144.603 13.2495 145.03 12.8223C145.457 12.3952 146.098 12.1816 146.738 12.1816C147.379 12.1816 148.02 12.3952 148.447 12.8223C148.874 13.2495 149.088 13.8903 149.088 14.7447V22.2207H152.719V14.1039C152.719 12.6088 152.292 11.5408 151.438 10.6864C150.583 9.83197 149.515 9.40478 148.234 9.40478C147.166 9.40478 146.525 9.61838 145.884 10.0456C145.243 10.4728 144.816 11.1136 144.389 11.7544H144.175V5.34641H140.758V5.13281Z" fill="white"/>
</mask>
<g mask="url(#mask6_1_748)">
<path d="M152.506 5.13281H140.758V22.0071H152.506V5.13281Z" fill="#686868"/>
</g>
<mask id="mask7_1_748" style="mask-type:luminance" maskUnits="userSpaceOnUse" x="0" y="0" width="38" height="35">
<path d="M5.33995 28.8358C3.20397 26.6998 2.13598 23.923 2.13598 20.9326C2.13598 17.9422 3.20397 15.1655 5.33995 13.0295L14.311 4.05836C15.5926 2.77678 17.3014 2.13598 18.7966 2.13598C20.5054 2.13598 22.0006 2.77678 23.2822 4.05836L34.6029 15.3791L20.9326 29.0494C18.7966 31.1853 16.0199 32.2533 13.0295 32.2533C10.2527 32.0397 7.26234 30.9717 5.33995 28.8358ZM12.8159 2.56318L3.84474 11.5343C1.28156 14.0975 0 17.3015 0 20.9326C0 24.5638 1.28156 27.7678 3.84474 30.3309C6.40792 32.8941 9.82548 34.1757 13.243 34.1757C16.6606 34.1757 20.0782 32.8941 22.6414 30.3309L37.5933 15.1655L24.9909 2.56318C23.2822 0.854394 21.1462 0 19.0102 0C16.6606 0 14.5247 0.854394 12.8159 2.56318Z" fill="white"/>
</mask>
<g mask="url(#mask7_1_748)">
<path d="M37.5933 0H0V34.1757H37.5933V0Z" fill="#686868"/>
</g>
<mask id="mask8_1_748" style="mask-type:luminance" maskUnits="userSpaceOnUse" x="2" y="20" width="39" height="35">
<path d="M16.8709 50.8388L5.55025 39.5181L19.2205 25.8478C23.4925 21.5758 30.7548 21.5758 35.0268 25.8478C39.2987 30.1197 39.2987 37.3821 35.0268 41.654L26.0556 50.6252C24.774 51.9067 23.2789 52.5475 21.5701 52.5475C19.8613 52.7611 18.1525 51.9067 16.8709 50.8388ZM17.7253 24.5662L2.77344 39.5181L15.3757 52.1203C17.0845 53.8291 19.2205 54.6835 21.3565 54.6835C23.4925 54.6835 25.842 53.8291 27.3372 52.1203L36.3084 43.1492C41.4347 38.0229 41.4347 29.6925 36.3084 24.3526C33.7452 21.7894 30.3276 20.5078 26.9101 20.5078C23.7061 20.7214 20.5021 22.003 17.7253 24.5662Z" fill="white"/>
</mask>
<g mask="url(#mask8_1_748)">
<path d="M41.6483 20.7266H2.77344V54.9023H41.6483V20.7266Z" fill="#686868"/>
</g>
<path d="M54.6797 43.5834V43.1562H57.8837V43.5834H56.6021V47.4282H55.9612V43.5834H54.6797Z" fill="#686868"/>
<path d="M58.1016 47.4254V44.2214H58.5288V44.6486C58.5288 44.435 58.7424 44.435 58.956 44.2214C59.1696 44.2214 59.3832 44.0078 59.3832 44.0078H59.5968H59.8104L59.5968 44.435C59.5968 44.435 59.5968 44.435 59.3832 44.435C59.3832 44.435 59.3832 44.435 59.1696 44.435C58.956 44.435 58.7424 44.435 58.5288 44.6486C58.3152 44.8622 58.3152 45.0758 58.3152 45.2894V47.4254H58.1016Z" fill="#686868"/>
<path d="M61.2972 47.6258C61.0836 47.6258 60.87 47.6258 60.6564 47.4122C60.4428 47.4122 60.4428 47.1987 60.2292 46.9851C60.2292 46.7715 60.0156 46.5579 60.0156 46.3443C60.0156 46.1307 60.0156 45.9171 60.2292 45.9171C60.2292 45.7035 60.4428 45.7035 60.4428 45.7035C60.6564 45.7035 60.6564 45.4899 60.87 45.4899C61.0836 45.4899 61.0836 45.4899 61.2972 45.4899C61.5108 45.4899 61.7244 45.4899 61.7244 45.4899C61.938 45.4899 61.938 45.4899 61.938 45.4899C61.938 45.4899 61.938 45.4899 61.938 45.2763C61.938 45.0627 61.938 44.8491 61.7244 44.8491C61.5108 44.6355 61.5108 44.6355 61.2972 44.6355C61.0836 44.6355 60.87 44.6355 60.6564 44.8491C60.4428 45.0627 60.4428 45.0627 60.4428 45.2763L60.0156 45.0627C60.0156 44.8491 60.2292 44.6355 60.4428 44.6355C60.6564 44.4219 60.6564 44.4219 60.87 44.4219C61.0836 44.4219 61.2972 44.4219 61.2972 44.4219C61.5108 44.4219 61.5108 44.4219 61.7244 44.4219C61.938 44.4219 61.938 44.4219 62.1516 44.6355C62.3652 44.6355 62.3652 44.8491 62.5788 45.0627C62.5788 45.2763 62.7924 45.4899 62.7924 45.7035V47.8394H62.3652V47.4122C62.3652 47.4122 62.3652 47.6258 62.1516 47.6258C62.1516 47.6258 61.938 47.8394 61.7244 47.8394C61.7244 47.6258 61.5108 47.6258 61.2972 47.6258ZM61.2972 47.1986C61.5108 47.1986 61.7244 47.1987 61.7244 46.9851C61.938 46.9851 61.938 46.7715 61.938 46.7715C61.938 46.5579 62.1516 46.5579 62.1516 46.3443V45.9171C62.1516 45.9171 62.1516 45.9171 61.938 45.9171H61.7244H61.5108H61.2972C61.0836 45.9171 61.0836 45.9171 60.87 45.9171C60.6564 45.9171 60.6564 45.9171 60.6564 46.1307L60.4428 46.3443C60.4428 46.5579 60.4428 46.5579 60.6564 46.7715C61.0836 46.985 61.0836 47.1986 61.2972 47.1986Z" fill="#686868"/>
<path d="M64.0757 45.503V47.4254H63.6484V44.2214H64.0757V44.6486C64.0757 44.435 64.2892 44.435 64.5028 44.2214C64.7164 44.2214 64.9301 44.0078 65.1437 44.0078C65.5708 44.0078 65.7844 44.0078 65.998 44.2214C66.2116 44.435 66.2116 44.6486 66.2116 45.0758V47.2118H65.7844V45.0758C65.7844 44.8622 65.7844 44.6486 65.5708 44.435C65.3572 44.2214 65.3572 44.2214 64.93 44.2214C64.7164 44.2214 64.5029 44.2214 64.2893 44.435C64.0757 45.0758 64.0757 45.2894 64.0757 45.503Z" fill="#686868"/>
<path d="M69.1933 45.0706L68.7661 45.2842C68.7661 45.0706 68.5526 45.0707 68.5526 44.8571C68.339 44.8571 68.339 44.6435 68.1254 44.6435C67.9118 44.6435 67.6981 44.6435 67.6981 44.8571C67.4845 44.8571 67.4846 45.0706 67.4846 45.2842C67.4846 45.4978 67.4845 45.4978 67.6981 45.4978C67.6981 45.4978 67.9118 45.7114 68.1254 45.7114L68.5526 45.925C69.1934 46.1386 69.407 46.3522 69.407 46.7794C69.407 46.993 69.4069 47.2066 69.1933 47.2066C68.9797 47.4202 68.9797 47.4202 68.7661 47.6338C68.5525 47.6338 68.339 47.8474 68.1254 47.8474C67.6982 47.8474 67.4846 47.8474 67.271 47.6338C67.0574 47.4202 66.8438 47.2066 66.8438 46.993L67.271 46.7794C67.271 47.2066 67.6982 47.2066 68.1254 47.2066C68.339 47.2066 68.5525 47.2066 68.7661 46.993C68.9797 46.993 68.9797 46.7794 68.9797 46.5658C68.9797 46.3522 68.7662 46.1386 68.5526 46.1386L67.9117 45.925C67.6981 45.925 67.4846 45.7114 67.271 45.4978C67.0574 45.2842 67.0574 45.0707 67.0574 44.8571C67.0574 44.6435 67.0574 44.4299 67.271 44.4299C67.4846 44.2163 67.4845 44.2163 67.6981 44.0027C67.9117 44.0027 68.1254 43.7891 68.339 43.7891C68.7662 43.7891 68.9797 43.7891 69.1933 44.0027C68.9797 44.6435 69.1933 44.6435 69.1933 45.0706Z" fill="#686868"/>
<path d="M71.3468 44.6514H70.706V47.4282H70.2788V44.6514H69.8516V44.2242H70.2788V43.7971C70.2788 43.5835 70.2788 43.3699 70.4924 43.3699C70.4924 43.1563 70.706 43.1562 70.9196 43.1562C71.1332 43.1562 71.1332 43.1562 71.3468 43.1562C71.5604 43.1562 71.5604 43.1562 71.5604 43.1562H71.774L71.5604 43.5834C71.5604 43.5834 71.5604 43.5834 71.3468 43.5834H71.1332C70.9196 43.5834 70.9196 43.5835 70.706 43.7971C70.706 43.7971 70.706 44.0106 70.706 44.2242V44.6514H71.3468Z" fill="#686868"/>
<path d="M73.2686 47.6441C73.055 47.6441 72.6278 47.6441 72.4142 47.4305C72.2006 47.2169 71.987 47.0033 71.987 46.7897C71.7734 46.5761 71.7734 46.149 71.7734 45.9354C71.7734 45.5082 71.7734 45.2946 71.987 45.081C72.2006 44.8674 72.2006 44.6538 72.4142 44.4402C72.6278 44.2266 72.8414 44.2266 73.2686 44.2266C73.4822 44.2266 73.9094 44.2266 74.123 44.4402C74.3366 44.6538 74.5502 44.8674 74.5502 45.081C74.7638 45.2946 74.7638 45.7218 74.7638 45.9354C74.7638 46.3626 74.7638 46.5761 74.5502 46.7897C74.3366 47.0033 74.3366 47.2169 74.123 47.4305C73.6958 47.4305 73.4822 47.6441 73.2686 47.6441ZM73.2686 47.2169C73.4822 47.2169 73.6958 47.2169 73.9094 47.0033C74.123 46.7897 74.123 46.7897 74.3366 46.5761C74.3366 46.3625 74.5502 46.149 74.5502 45.9354C74.5502 45.7218 74.5502 45.5082 74.3366 45.2946C74.3366 45.081 74.123 44.8674 73.9094 44.8674C73.6958 44.6538 73.4822 44.6538 73.2686 44.6538C73.055 44.6538 72.8414 44.6538 72.6278 44.8674C72.4142 45.081 72.4142 45.081 72.2006 45.2946C72.2006 45.5082 71.987 45.7218 71.987 45.9354C71.987 46.149 71.987 46.3625 72.2006 46.5761C72.2006 46.7897 72.4142 47.0033 72.6278 47.0033C72.8414 47.0033 73.055 47.2169 73.2686 47.2169Z" fill="#686868"/>
<path d="M75.3906 47.4254V44.2214H75.8178V44.6486C75.8178 44.435 76.0314 44.435 76.245 44.2214C76.4586 44.2214 76.6722 44.0078 76.6722 44.0078H76.8858C76.8858 44.0078 76.8859 44.0078 77.0994 44.0078V44.435C77.0994 44.435 77.0994 44.435 76.8858 44.435H76.6722C76.4586 44.435 76.2451 44.435 76.0315 44.6486C75.8179 44.8622 75.8178 45.0758 75.8178 45.2894V47.4254H75.3906Z" fill="#686868"/>
<path d="M77.5234 47.4254V44.2214H77.9507V44.6486C77.9507 44.435 78.1642 44.435 78.3778 44.2214C78.5914 44.2214 78.8051 44.0078 79.0187 44.0078C79.2322 44.0078 79.4458 44.0078 79.6594 44.2214C79.873 44.2214 79.873 44.435 80.0866 44.6486C80.0866 44.435 80.3002 44.435 80.5138 44.2214C80.7274 44.2214 80.941 44.0078 81.1546 44.0078C81.3682 44.0078 81.7954 44.0078 81.7954 44.2214C82.009 44.435 82.009 44.6486 82.009 45.0758V47.2118H81.5818V45.0758C81.5818 44.8622 81.5818 44.6486 81.3682 44.6486C81.1546 44.435 81.1546 44.435 80.941 44.435C80.7274 44.435 80.5139 44.435 80.3003 44.6486C80.0867 44.8622 80.0866 44.8622 80.0866 45.0758V47.2118H79.6594V45.0758C79.6594 44.8622 79.6594 44.6486 79.4458 44.6486C79.2322 44.435 79.2322 44.435 79.0187 44.435C78.8051 44.435 78.805 44.435 78.5914 44.6486C78.3778 44.6486 78.3778 44.8622 78.3778 44.8622C78.3778 45.0758 78.1643 45.0758 78.1643 45.2894V47.4254H77.5234Z" fill="#686868"/>
<path d="M82.8803 43.7788H82.6667L82.4531 43.5652C82.4531 43.5652 82.4531 43.3516 82.6667 43.3516H82.8803H83.0939L83.3075 43.5652C83.3075 43.5652 83.3075 43.7788 83.0939 43.7788C82.8803 43.5652 82.8803 43.7788 82.8803 43.7788ZM82.4531 44.206H82.8803V47.4099H82.4531V44.206Z" fill="#686868"/>
<path d="M84.3647 45.503V47.4254H83.9375V44.2214H84.3647V44.6486C84.3647 44.435 84.5783 44.435 84.7919 44.2214C85.0055 44.2214 85.2191 44.0078 85.4327 44.0078C85.8599 44.0078 86.0735 44.0078 86.2871 44.2214C86.5007 44.435 86.5007 44.6486 86.5007 45.0758V47.2118H86.0735V45.0758C86.0735 44.8622 86.0735 44.6486 85.8599 44.435C85.6463 44.2214 85.6463 44.2214 85.2191 44.2214C85.0055 44.2214 84.7919 44.2214 84.5783 44.435C84.3647 45.0758 84.3647 45.2894 84.3647 45.503Z" fill="#686868"/>
<path d="M88.641 48.7018C88.2138 48.7018 88.0002 48.7018 87.7866 48.4882C87.573 48.2746 87.3594 48.2746 87.3594 48.061L87.7866 47.8474C87.7866 47.8474 87.7865 48.061 88.0001 48.061L88.2138 48.2746C88.4274 48.2746 88.4274 48.2746 88.641 48.2746C88.8546 48.2746 89.0681 48.2746 89.2817 48.061C89.4953 47.8474 89.4954 47.6338 89.4954 47.4202V46.7794C89.4954 46.7794 89.4953 46.993 89.2817 46.993L89.0681 47.2066C88.8545 47.2066 88.8546 47.2066 88.641 47.2066C88.4274 47.2066 88.2137 47.2066 88.0001 46.993C87.7865 46.7794 87.573 46.7794 87.573 46.3522C87.3594 46.1386 87.3594 45.925 87.3594 45.4978C87.3594 45.0706 87.3594 44.857 87.573 44.6435C87.7866 44.4299 87.7865 44.2163 88.0001 44.0027C88.2137 43.7891 88.4274 43.7891 88.641 43.7891C88.8546 43.7891 89.0681 43.7891 89.0681 44.0027C89.2817 44.0027 89.2817 44.2163 89.2817 44.2163L89.4954 44.4299V44.0027H89.9226V47.4202C89.9226 47.6338 89.9226 47.8474 89.709 48.061C89.4954 48.2746 89.4953 48.2746 89.2817 48.4882C89.0681 48.7018 88.8546 48.7018 88.641 48.7018ZM88.4274 46.993C88.641 46.993 89.0681 46.993 89.0681 46.7794C89.2817 46.5658 89.2817 46.3522 89.2817 45.925C89.2817 45.4978 89.2817 45.2842 89.0681 45.0706C88.8545 44.8571 88.641 44.6435 88.4274 44.6435C88.2138 44.6435 88.0001 44.6435 88.0001 44.8571C87.7865 45.0707 87.7866 45.0706 87.573 45.2842C87.573 45.4978 87.3594 45.7114 87.3594 45.925C87.3594 46.3522 87.3594 46.5658 87.573 46.7794C88.0002 46.993 88.2138 46.993 88.4274 46.993Z" fill="#686868"/>
<path d="M92.9038 43.1562H92.4766V47.4282H92.9038V43.1562Z" fill="#686868"/>
<path d="M95.0394 47.6418C94.8258 47.6418 94.6122 47.6418 94.3986 47.4282C94.185 47.2146 93.9714 47.001 93.9714 46.7874C93.7578 46.5738 93.7578 46.1466 93.7578 45.933C93.7578 45.5058 93.7578 45.2922 93.9714 45.0786C94.185 44.865 94.185 44.6514 94.3986 44.4378C94.6122 44.2242 94.8258 44.2242 95.0394 44.2242C95.253 44.2242 95.4666 44.2242 95.4666 44.4378C95.6802 44.4378 95.6802 44.6514 95.6802 44.6514L95.8938 44.865V43.1562H96.321V47.4282H95.8938V47.001C95.8938 47.001 95.8938 47.2146 95.6802 47.2146L95.4666 47.4282C95.4666 47.6418 95.253 47.6418 95.0394 47.6418ZM95.0394 47.2146C95.253 47.2146 95.6802 47.001 95.6802 46.7874C95.8938 46.5738 95.8938 46.1466 95.8938 45.933C95.8938 45.5058 95.8938 45.2922 95.6802 45.0786C95.4666 44.865 95.253 44.6514 95.0394 44.6514C94.8258 44.6514 94.6122 44.6514 94.6122 44.865C94.3986 45.0786 94.3986 45.0786 94.185 45.2922C94.185 45.5058 93.9714 45.7194 93.9714 45.933C93.9714 46.1466 93.9714 46.3602 94.185 46.5738C94.185 46.7874 94.3986 47.001 94.6122 47.001C94.6122 47.001 94.8258 47.2146 95.0394 47.2146Z" fill="#686868"/>
<path d="M98.6826 47.6441C98.4691 47.6441 98.0419 47.6441 97.8283 47.4305C97.6147 47.2169 97.4011 47.0033 97.4011 46.7897C97.1875 46.5761 97.1875 46.149 97.1875 45.9354C97.1875 45.5082 97.1875 45.2946 97.4011 45.081C97.6147 44.8674 97.6147 44.6538 97.8283 44.4402C98.0419 44.2266 98.2555 44.2266 98.6826 44.2266C98.8962 44.2266 99.1099 44.2266 99.1099 44.2266C99.3235 44.2266 99.5371 44.4402 99.5371 44.4402C99.7507 44.6538 99.7507 44.6538 99.9643 44.8674C99.9643 45.081 100.178 45.2946 100.178 45.7218V45.9354H97.8283C97.8283 46.3626 98.0419 46.5761 98.0419 46.7897C98.2555 47.0033 98.4691 47.0033 98.6826 47.0033C98.8962 47.0033 99.1099 47.0033 99.1099 46.7897C99.3235 46.7897 99.3235 46.5761 99.3235 46.3625L99.7506 46.5761C99.7506 46.7897 99.5371 47.0033 99.3235 47.2169C99.3235 47.4305 99.1098 47.6441 98.6826 47.6441ZM97.8283 45.7218H99.7506C99.7506 45.5082 99.7507 45.2946 99.5371 45.081C99.3235 44.8674 99.1099 44.8674 98.8963 44.8674C98.6827 44.8674 98.4691 44.8674 98.4691 45.081C98.2555 45.081 98.2555 45.2946 98.0419 45.5082C97.8283 45.2946 97.8283 45.5082 97.8283 45.7218Z" fill="#686868"/>
<path d="M101.664 47.6258C101.451 47.6258 101.237 47.6258 101.024 47.4122C100.81 47.4122 100.81 47.1987 100.596 46.9851C100.596 46.7715 100.383 46.5579 100.383 46.3443C100.383 46.1307 100.383 45.9171 100.596 45.9171C100.596 45.7035 100.81 45.7035 100.81 45.7035C101.024 45.7035 101.024 45.4899 101.237 45.4899C101.451 45.4899 101.451 45.4899 101.664 45.4899C101.878 45.4899 102.092 45.4899 102.092 45.4899C102.305 45.4899 102.305 45.4899 102.305 45.4899C102.305 45.4899 102.305 45.4899 102.305 45.2763C102.305 45.0627 102.305 44.8491 102.092 44.8491C101.878 44.6355 101.878 44.6355 101.664 44.6355C101.451 44.6355 101.237 44.6355 101.024 44.8491C100.81 45.0627 100.81 45.0627 100.81 45.2763L100.383 45.0627C100.383 44.8491 100.596 44.6355 100.81 44.6355C101.024 44.4219 101.024 44.4219 101.237 44.4219C101.451 44.4219 101.664 44.4219 101.664 44.4219C101.878 44.4219 101.878 44.4219 102.092 44.4219C102.305 44.4219 102.305 44.4219 102.519 44.6355C102.732 44.6355 102.732 44.8491 102.946 45.0627C102.946 45.2763 103.16 45.4899 103.16 45.7035V47.8394H102.732V47.4122C102.732 47.4122 102.732 47.6258 102.519 47.6258L102.305 47.8394C102.092 47.6258 101.878 47.6258 101.664 47.6258ZM101.878 47.1986C102.092 47.1986 102.305 47.1987 102.305 46.9851C102.519 46.9851 102.519 46.7715 102.519 46.7715C102.519 46.5579 102.519 46.5579 102.519 46.3443V45.9171C102.519 45.9171 102.519 45.9171 102.305 45.9171H102.092H101.878H101.664C101.451 45.9171 101.451 45.9171 101.237 45.9171C101.024 45.9171 101.024 45.9171 101.024 46.1307L100.81 46.3443C100.81 46.5579 100.81 46.5579 101.024 46.7715C101.451 46.985 101.664 47.1986 101.878 47.1986Z" fill="#686868"/>
<path d="M106.381 45.0706L105.954 45.2842C105.954 45.0706 105.74 45.0707 105.74 44.8571C105.526 44.8571 105.526 44.6435 105.313 44.6435C105.099 44.6435 104.886 44.6435 104.886 44.8571C104.672 44.8571 104.672 45.0706 104.672 45.2842C104.672 45.4978 104.672 45.4978 104.886 45.4978C104.886 45.4978 105.099 45.7114 105.313 45.7114L105.74 45.925C106.381 46.1386 106.594 46.3522 106.594 46.7794C106.594 46.993 106.594 47.2066 106.381 47.2066C106.167 47.4202 106.167 47.4202 105.954 47.6338C105.74 47.6338 105.526 47.8474 105.313 47.8474C104.886 47.8474 104.672 47.8474 104.458 47.6338C104.245 47.4202 104.031 47.2066 104.031 46.993L104.458 46.7794C104.458 47.2066 104.886 47.2066 105.313 47.2066C105.526 47.2066 105.74 47.2066 105.954 46.993C106.167 46.993 106.167 46.7794 106.167 46.5658C106.167 46.3522 105.954 46.1386 105.74 46.1386L105.099 45.925C104.886 45.925 104.672 45.7114 104.458 45.4978C104.245 45.2842 104.245 45.0707 104.245 44.8571C104.245 44.6435 104.245 44.4299 104.458 44.4299C104.672 44.2163 104.672 44.2163 104.886 44.0027C105.099 44.0027 105.313 43.7891 105.526 43.7891C105.954 43.7891 106.167 43.7891 106.381 44.0027C106.167 44.6435 106.167 44.6435 106.381 45.0706Z" fill="#686868"/>
<path d="M109.373 47.4305L108.305 44.2266H108.946L109.586 46.7897L110.227 44.2266H110.868L111.509 46.7897L112.363 44.2266H112.79L111.722 47.4305H111.295L110.654 45.081H110.441L109.8 47.4305H109.373Z" fill="#686868"/>
<path d="M113.63 43.7788H113.417L113.203 43.5652C113.203 43.5652 113.203 43.3516 113.417 43.3516H113.63H113.844L114.058 43.5652C114.058 43.5652 114.057 43.7788 113.844 43.7788C113.844 43.5652 113.63 43.7788 113.63 43.7788ZM113.417 44.206H113.844V47.4099H113.417V44.206Z" fill="#686868"/>
<path d="M115.977 44.2111V44.6383H115.336V46.5607C115.336 46.7743 115.336 46.7743 115.336 46.9879C115.336 46.9879 115.336 47.2015 115.55 47.2015H115.763C115.763 47.2015 115.763 47.2015 115.977 47.2015V47.6287C115.977 47.6287 115.977 47.6287 115.763 47.6287H115.55C115.336 47.6287 115.336 47.6287 115.123 47.6287C114.909 47.6287 114.909 47.4151 114.695 47.4151C114.695 47.2015 114.482 47.2015 114.482 46.9879V44.8519H114.055V44.4247H114.482V43.5703H114.909V44.4247L115.977 44.2111Z" fill="#686868"/>
<path d="M117.263 45.5058V47.4282H116.836V43.1562H117.263V44.6514C117.263 44.4378 117.477 44.4378 117.69 44.2242C117.904 44.2242 118.118 44.0106 118.331 44.0106C118.758 44.0106 118.972 44.0106 119.186 44.2242C119.399 44.4378 119.399 44.6514 119.399 45.0786V47.2146H118.972V45.0786C118.972 44.865 118.972 44.6514 118.758 44.4378C118.545 44.2242 118.331 44.2242 118.118 44.2242C117.904 44.2242 117.69 44.2242 117.477 44.4378C117.263 45.0786 117.263 45.2922 117.263 45.5058Z" fill="#686868"/>
<path d="M121.531 43.5834V43.1562H124.949V43.5834H123.454V47.4282H123.026V43.5834H121.531Z" fill="#686868"/>
<path d="M126.448 47.6441C126.235 47.6441 125.807 47.6441 125.594 47.4305C125.38 47.2169 125.167 47.0033 125.167 46.7897C124.953 46.5761 124.953 46.149 124.953 45.9354C124.953 45.5082 124.953 45.2946 125.167 45.081C125.38 44.8674 125.38 44.6538 125.594 44.4402C125.807 44.2266 126.021 44.2266 126.448 44.2266C126.662 44.2266 126.875 44.2266 126.875 44.2266C127.089 44.2266 127.303 44.4402 127.303 44.4402C127.516 44.6538 127.516 44.6538 127.73 44.8674C127.73 45.081 127.943 45.2946 127.943 45.7218V45.9354H125.594C125.594 46.3626 125.808 46.5761 125.808 46.7897C126.021 47.0033 126.235 47.0033 126.448 47.0033C126.662 47.0033 126.875 47.0033 126.875 46.7897C127.089 46.7897 127.089 46.5761 127.089 46.3625L127.516 46.5761C127.516 46.7897 127.303 47.0033 127.089 47.2169C126.876 47.4305 126.662 47.6441 126.448 47.6441ZM125.38 45.7218H127.303C127.303 45.5082 127.303 45.2946 127.089 45.081C126.876 44.8674 126.662 44.8674 126.448 44.8674C126.235 44.8674 126.021 44.8674 126.021 45.081C125.808 45.081 125.807 45.2946 125.594 45.5082C125.38 45.2946 125.38 45.5082 125.38 45.7218Z" fill="#686868"/>
<path d="M129.651 47.6441C129.438 47.6441 129.011 47.6441 128.797 47.4305C128.583 47.2169 128.37 47.0033 128.37 46.7897C128.156 46.5761 128.156 46.149 128.156 45.9354C128.156 45.5082 128.156 45.2946 128.37 45.081C128.583 44.8674 128.583 44.6538 128.797 44.4402C129.011 44.2266 129.224 44.2266 129.651 44.2266C129.865 44.2266 130.079 44.2266 130.292 44.4402C130.506 44.4402 130.719 44.6538 130.719 44.8674C130.933 45.081 130.933 45.2946 130.933 45.5082H130.506C130.506 45.2946 130.292 45.2946 130.292 45.081C130.079 44.8674 130.079 44.8674 129.865 44.8674C129.651 44.8674 129.438 45.081 129.224 45.2946C129.011 45.5082 129.011 45.7218 129.011 46.1489C129.011 46.5761 129.011 46.7897 129.224 47.0033C129.438 47.2169 129.651 47.4305 129.865 47.4305C130.079 47.4305 130.292 47.4305 130.292 47.2169C130.506 47.2169 130.506 47.0033 130.506 46.7897H130.933C130.933 47.0033 130.933 47.2169 130.719 47.2169C130.506 47.4305 130.506 47.4305 130.292 47.6441C130.079 47.4305 129.865 47.6441 129.651 47.6441Z" fill="#686868"/>
<path d="M131.997 45.5058V47.4282H131.57V43.1562H131.997V44.6514C131.997 44.4378 132.211 44.4378 132.425 44.2242C132.638 44.2242 132.852 44.0106 133.065 44.0106C133.493 44.0106 133.706 44.0106 133.92 44.2242C134.133 44.4378 134.133 44.6514 134.133 45.0786V47.2146H133.706V45.0786C133.706 44.865 133.706 44.6514 133.493 44.4378C133.279 44.2242 133.065 44.2242 132.852 44.2242C132.638 44.2242 132.425 44.2242 132.211 44.4378C132.211 45.0786 131.997 45.2922 131.997 45.5058Z" fill="#686868"/>
<path d="M135.427 45.503V47.4254H135V44.2214H135.427V44.6486C135.427 44.435 135.641 44.435 135.854 44.2214C136.068 44.2214 136.282 44.0078 136.495 44.0078C136.922 44.0078 137.136 44.0078 137.35 44.2214C137.563 44.435 137.563 44.6486 137.563 45.0758V47.2118H137.136V45.0758C137.136 44.8622 137.136 44.6486 136.922 44.435C136.709 44.2214 136.709 44.2214 136.282 44.2214C136.068 44.2214 135.854 44.2214 135.641 44.435C135.641 45.0758 135.427 45.2894 135.427 45.503Z" fill="#686868"/>
<path d="M139.698 47.6441C139.485 47.6441 139.057 47.6441 138.844 47.4305C138.63 47.2169 138.417 47.0033 138.417 46.7897C138.203 46.5761 138.203 46.149 138.203 45.9354C138.203 45.5082 138.203 45.2946 138.417 45.081C138.63 44.8674 138.63 44.6538 138.844 44.4402C139.057 44.2266 139.271 44.2266 139.698 44.2266C140.125 44.2266 140.339 44.2266 140.553 44.4402C140.766 44.6538 140.98 44.8674 140.98 45.081C141.193 45.2946 141.193 45.7218 141.193 45.9354C141.193 46.3626 141.193 46.5761 140.98 46.7897C140.766 47.0033 140.766 47.2169 140.553 47.4305C140.339 47.4305 140.125 47.6441 139.698 47.6441ZM139.698 47.2169C139.912 47.2169 140.125 47.2169 140.339 47.0033C140.553 46.7897 140.553 46.7897 140.766 46.5761C140.766 46.3625 140.98 46.149 140.98 45.9354C140.98 45.7218 140.98 45.5082 140.766 45.2946C140.766 45.081 140.553 44.8674 140.339 44.8674C140.125 44.6538 139.912 44.6538 139.698 44.6538C139.485 44.6538 139.271 44.6538 139.058 44.8674C138.844 45.081 138.844 45.081 138.63 45.2946C138.63 45.5082 138.417 45.7218 138.417 45.9354C138.417 46.149 138.417 46.3625 138.63 46.5761C138.63 46.7897 138.844 47.0033 139.058 47.0033C139.271 47.0033 139.485 47.2169 139.698 47.2169Z" fill="#686868"/>
<path d="M142.255 43.1562H141.828V47.4282H142.255V43.1562Z" fill="#686868"/>
<path d="M144.386 47.6441C144.172 47.6441 143.745 47.6441 143.531 47.4305C143.318 47.2169 143.104 47.0033 143.104 46.7897C142.891 46.5761 142.891 46.149 142.891 45.9354C142.891 45.5082 142.891 45.2946 143.104 45.081C143.318 44.8674 143.318 44.6538 143.531 44.4402C143.745 44.2266 143.959 44.2266 144.386 44.2266C144.813 44.2266 145.027 44.2266 145.24 44.4402C145.454 44.6538 145.667 44.8674 145.667 45.081C145.881 45.2946 145.881 45.7218 145.881 45.9354C145.881 46.3626 145.881 46.5761 145.667 46.7897C145.454 47.0033 145.454 47.2169 145.24 47.4305C145.027 47.4305 144.813 47.6441 144.386 47.6441ZM144.386 47.2169C144.599 47.2169 144.813 47.2169 145.027 47.0033C145.24 46.7897 145.24 46.7897 145.24 46.5761C145.24 46.3625 145.454 46.149 145.454 45.9354C145.454 45.7218 145.454 45.5082 145.24 45.2946C145.24 45.081 145.027 44.8674 145.027 44.8674C144.813 44.6538 144.599 44.6538 144.386 44.6538C144.172 44.6538 143.959 44.6538 143.745 44.8674C143.531 45.081 143.531 45.081 143.318 45.2946C143.318 45.5082 143.104 45.7218 143.104 45.9354C143.104 46.149 143.104 46.3625 143.318 46.5761C143.318 46.7897 143.531 47.0033 143.745 47.0033C144.172 47.0033 144.172 47.2169 144.386 47.2169Z" fill="#686868"/>
<path d="M148.024 48.7018C147.597 48.7018 147.383 48.7018 147.169 48.4882C146.956 48.2746 146.742 48.2746 146.742 48.061L147.169 47.8474C147.169 47.8474 147.169 48.061 147.383 48.061L147.597 48.2746C147.81 48.2746 147.81 48.2746 148.024 48.2746C148.237 48.2746 148.451 48.2746 148.665 48.061C148.878 47.8474 148.878 47.6338 148.878 47.4202V46.7794C148.878 46.7794 148.878 46.993 148.665 46.993L148.451 47.2066C148.237 47.2066 148.237 47.2066 148.024 47.2066C147.81 47.2066 147.597 47.2066 147.383 46.993C147.169 46.7794 146.956 46.7794 146.956 46.3522C146.742 46.1386 146.742 45.925 146.742 45.4978C146.742 45.0706 146.742 44.857 146.956 44.6435C147.169 44.4299 147.169 44.2163 147.383 44.0027C147.597 43.7891 147.81 43.7891 148.024 43.7891C148.237 43.7891 148.451 43.7891 148.451 44.0027C148.665 44.0027 148.665 44.2163 148.665 44.2163L148.878 44.4299V44.0027H149.305V47.4202C149.305 47.6338 149.305 47.8474 149.092 48.061C148.878 48.2746 148.878 48.2746 148.665 48.4882C148.451 48.7018 148.237 48.7018 148.024 48.7018ZM147.81 46.993C148.024 46.993 148.451 46.993 148.451 46.7794C148.665 46.5658 148.665 46.3522 148.665 45.925C148.665 45.4978 148.665 45.2842 148.451 45.0706C148.237 44.8571 148.024 44.6435 147.81 44.6435C147.597 44.6435 147.383 44.6435 147.383 44.8571C147.169 45.0707 147.169 45.0706 146.956 45.2842C146.956 45.4978 146.742 45.7114 146.742 45.925C146.742 46.3522 146.742 46.5658 146.956 46.7794C147.383 46.993 147.597 46.993 147.81 46.993Z" fill="#686868"/>
<path d="M150.375 48.6938H150.161H149.948L150.161 48.2666C150.375 48.2666 150.589 48.2666 150.589 48.2666C150.802 48.2666 150.802 48.053 150.802 47.8394L151.016 47.6258L149.734 44.4219H150.375L151.229 46.9851L152.084 44.4219H152.725L151.229 48.2666C151.229 48.4802 151.016 48.6938 150.375 48.6938Z" fill="#686868"/>
<path d="M61.7281 30.1258C61.7281 29.6987 61.5145 29.2715 61.0873 29.0579C60.6601 28.8443 60.2329 28.6307 59.8057 28.6307C59.1649 28.6307 58.7377 28.8443 58.5241 29.0579C58.3105 29.2715 58.0969 29.6987 58.0969 29.9123C58.0969 30.1259 58.0969 30.3394 58.3105 30.553C58.5241 30.7666 58.7378 30.9802 58.9514 30.9802C59.165 30.9802 59.3785 31.1938 59.8057 31.1938L60.6601 31.4074C61.0873 31.621 61.7281 31.621 62.1553 31.8346C62.5825 32.0482 63.0097 32.2618 63.2233 32.689C63.4369 33.1162 63.6505 33.5434 63.6505 34.1842C63.6505 35.0386 63.2233 35.6794 62.5825 36.3202C61.9417 36.961 61.0873 37.1746 59.8057 37.1746C58.7378 37.1746 57.6697 36.961 57.0289 36.3202C56.3881 35.6794 55.9609 35.0386 55.9609 33.9706H57.6698C57.6698 34.3978 57.8833 34.825 58.3105 35.0386C58.7377 35.2522 59.1649 35.4658 59.8057 35.4658C60.4465 35.4658 60.8737 35.2522 61.3009 35.0386C61.7281 34.825 61.9417 34.3978 61.9417 33.9706C61.9417 33.5434 61.7281 33.3298 61.5145 33.1162C61.0873 32.9026 60.6601 32.689 60.2329 32.689L59.1649 32.4754C58.3105 32.2618 57.6697 32.0482 57.2425 31.621C56.8153 31.1938 56.6018 30.553 56.6018 29.9123C56.6018 29.2715 56.8153 28.8443 57.0289 28.4171C57.2425 27.9899 57.8833 27.5627 58.3105 27.3491C58.9513 27.1355 59.3785 26.9219 60.2329 26.9219C60.8737 26.9219 61.5145 27.1355 62.1553 27.3491C62.5825 27.5627 63.0097 27.9899 63.4369 28.4171C63.6505 28.8443 63.8641 29.2715 63.8641 29.9123L61.7281 30.1258Z" fill="#686868"/>
<path d="M72.8265 37.3873C72.1857 37.3873 71.5449 37.1737 70.9041 36.9601C70.2633 36.7465 70.0497 36.1057 69.6225 35.6785C69.4089 35.0378 69.1953 34.397 69.1953 33.7562C69.1953 32.9018 69.4089 32.261 69.6225 31.8338C69.8361 31.193 70.2633 30.7658 70.9041 30.5522C71.3313 30.125 71.9721 30.125 72.8265 30.125C73.6809 30.125 74.1081 30.3386 74.7489 30.5522C75.3897 30.9794 75.6033 31.4066 76.0305 31.8338C76.2441 32.4746 76.4576 33.1154 76.4576 33.7562C76.4576 34.6106 76.2441 35.2514 76.0305 35.6785C75.8169 36.3193 75.3897 36.7465 74.7489 36.9601C74.1081 37.1737 73.6809 37.3873 72.8265 37.3873ZM72.8265 36.1057C73.2537 36.1057 73.4673 35.8921 73.8945 35.6785C74.1081 35.465 74.3217 35.2514 74.5353 34.8242C74.7489 34.397 74.7489 33.9698 74.7489 33.5426C74.7489 33.1154 74.7489 32.6882 74.5353 32.261C74.3217 31.8338 74.1081 31.6202 73.8945 31.4066C73.6809 31.193 73.2537 30.9794 72.8265 30.9794C72.3993 30.9794 72.1857 31.193 71.7585 31.4066C71.5449 31.6202 71.3313 31.8338 71.1177 32.261C70.9041 32.6882 70.9041 33.1154 70.9041 33.5426C70.9041 33.9698 70.9041 34.397 71.1177 34.8242C71.3313 35.2514 71.5449 35.465 71.7585 35.6785C72.1857 35.8921 72.3993 36.1057 72.8265 36.1057Z" fill="#686868"/>
<path d="M84.1619 27.3359H82.4531V37.1615H84.1619V27.3359Z" fill="#686868"/>
<path d="M95.4804 34.1782V29.9062H97.1892V37.3822H95.4804V36.1006C95.2668 36.5278 95.0532 36.955 94.626 37.1686C94.1988 37.3822 93.7716 37.5958 93.1308 37.5958C92.49 37.5958 91.8492 37.3822 91.422 36.955C90.9948 36.5278 90.7812 35.887 90.7812 34.819V30.1198H92.49V34.3918C92.49 34.819 92.7036 35.2462 92.9172 35.4598C93.1308 35.6734 93.558 35.887 93.9852 35.887C94.1988 35.887 94.4124 35.887 94.8396 35.6734C95.0532 35.4598 95.2668 35.4598 95.4804 35.0326C95.2668 34.819 95.4804 34.6054 95.4804 34.1782Z" fill="#686868"/>
<path d="M107.228 29.9197V31.2013H105.733V35.0461C105.733 35.4733 105.733 35.6869 105.946 35.6869C106.16 35.9005 106.373 35.9005 106.587 35.9005H106.801H107.014L107.228 37.1821C107.228 37.1821 107.014 37.1821 106.801 37.1821C106.587 37.1821 106.373 37.1821 106.16 37.1821C105.519 37.1821 104.878 36.9685 104.451 36.7549C104.024 36.3277 103.81 35.9005 103.81 35.2597V31.2013H102.742V29.9197H103.81V28.2109H105.519V29.9197H107.228Z" fill="#686868"/>
<path d="M114.271 28.8416C114.058 28.8416 113.844 28.8416 113.63 28.628C113.417 28.4144 113.417 28.2008 113.417 27.9872C113.417 27.7736 113.417 27.56 113.63 27.3464C113.844 27.1328 114.058 27.1328 114.271 27.1328C114.485 27.1328 114.698 27.1328 114.912 27.3464C115.125 27.56 115.125 27.7736 115.125 27.9872C115.125 28.2008 115.125 28.4144 114.912 28.628C114.698 28.628 114.485 28.8416 114.271 28.8416ZM113.203 29.9096H114.912V37.3855H113.203V29.9096Z" fill="#686868"/>
<path d="M124.741 37.3873C124.1 37.3873 123.459 37.1737 122.818 36.9601C122.177 36.7465 121.964 36.1057 121.537 35.6785C121.323 35.0378 121.109 34.397 121.109 33.7562C121.109 32.9018 121.323 32.261 121.537 31.8338C121.75 31.193 122.177 30.7658 122.818 30.5522C123.245 30.125 123.886 30.125 124.741 30.125C125.381 30.125 126.022 30.3386 126.663 30.5522C127.304 30.9794 127.517 31.4066 127.945 31.8338C128.158 32.4746 128.372 33.1154 128.372 33.7562C128.372 34.6106 128.158 35.2514 127.945 35.6785C127.731 36.3193 127.304 36.7465 126.663 36.9601C126.022 37.1737 125.381 37.3873 124.741 37.3873ZM124.741 36.1057C125.168 36.1057 125.381 35.8921 125.809 35.6785C126.022 35.465 126.236 35.2514 126.449 34.8242C126.663 34.397 126.663 33.9698 126.663 33.5426C126.663 33.1154 126.663 32.6882 126.449 32.261C126.236 31.8338 126.022 31.6202 125.809 31.4066C125.595 31.193 125.168 30.9794 124.741 30.9794C124.313 30.9794 124.1 31.193 123.673 31.4066C123.459 31.6202 123.245 31.8338 123.032 32.261C122.818 32.6882 122.818 33.1154 122.818 33.5426C122.818 33.9698 122.818 34.397 123.032 34.8242C123.245 35.2514 123.459 35.465 123.673 35.6785C123.886 35.8921 124.313 36.1057 124.741 36.1057Z" fill="#686868"/>
<path d="M136.052 32.8863V37.1583H134.344V29.6823H136.052V30.9639C136.266 30.5367 136.48 30.3231 136.907 29.8959C137.334 29.6823 137.761 29.4688 138.402 29.4688C139.256 29.4688 139.684 29.6823 140.324 30.1095C140.752 30.5367 140.965 31.1775 140.965 32.2455V36.9447H139.256V32.4591C139.256 32.0319 139.043 31.6047 138.829 31.3911C138.616 31.1775 138.188 30.9639 137.761 30.9639C137.334 30.9639 136.907 31.1775 136.693 31.3911C136.266 32.0319 136.052 32.4591 136.052 32.8863Z" fill="#686868"/>
<path d="M153.145 31.8235L151.65 32.0371C151.65 31.8235 151.436 31.6099 151.222 31.3963C151.009 31.1827 150.582 31.1827 150.368 31.1827C149.941 31.1827 149.727 31.1827 149.514 31.3963C149.3 31.6099 149.086 31.8235 149.086 32.0371C149.086 32.2507 149.086 32.4643 149.3 32.4643C149.514 32.6779 149.727 32.6779 150.154 32.8915L151.436 33.1051C152.718 33.3187 153.572 34.1731 153.572 35.0275C153.572 35.4547 153.358 35.8819 153.145 36.309C152.931 36.7362 152.504 36.9498 152.077 37.1634C151.65 37.377 151.009 37.377 150.368 37.377C149.514 37.377 148.659 37.1634 148.232 36.7362C147.591 36.309 147.378 35.8819 147.164 35.2411L148.873 35.0275C149.086 35.6682 149.514 36.0954 150.368 36.0954C150.795 36.0954 151.222 36.0954 151.436 35.8819C151.65 35.6683 151.863 35.4547 151.863 35.2411C151.863 34.8139 151.436 34.6003 150.795 34.3867L149.514 34.1731C148.873 33.9595 148.232 33.7459 148.018 33.3187C147.591 32.8915 147.591 32.4643 147.591 32.0371C147.591 31.6099 147.805 31.1827 148.018 30.7555C148.232 30.3283 148.659 30.1147 149.086 29.9011C149.514 29.6875 150.154 29.6875 150.582 29.6875C151.436 29.6875 152.077 29.9011 152.718 30.3283C152.718 30.7555 152.931 31.1827 153.145 31.8235Z" fill="#686868"/>
</svg>
