<svg width="73" height="59" viewBox="0 0 73 59" fill="none" xmlns="http://www.w3.org/2000/svg">
<path d="M21.5259 8.65715V16.1444H14.7405V33.6927C14.7405 35.0965 14.9746 36.0325 15.6765 36.5004C16.3784 36.9684 17.0803 37.2023 18.0163 37.2023C18.4842 37.2023 18.9521 37.2023 19.4201 36.9684C19.888 36.9684 20.356 36.7344 20.5899 36.7344L22.2278 44.2217C21.7599 44.4556 21.0579 44.4556 20.122 44.6896C19.1861 44.9236 18.0163 44.9236 16.8464 45.1576C13.1027 45.3915 10.295 44.4556 8.18919 42.8178C6.0834 41.1799 4.91346 38.3722 4.91346 34.8626V16.1444H0V8.65715H4.91346V0H14.9744V8.65715H21.5259Z" fill="#686868"/>
<path d="M49.3579 24.3336V45.1576H39.2969V0H49.1239V15.4425H49.5919C50.5278 13.3367 51.6976 11.6988 53.5694 10.529C55.4412 9.35908 57.5471 8.65715 60.3548 8.65715C64.0984 8.65715 67.1402 9.82703 69.48 12.1668C71.8197 14.5066 72.9896 18.0162 72.9896 22.2278V45.1576H62.9285V23.8657C62.9285 21.5259 62.4607 19.888 61.2908 18.7182C60.1209 17.5483 58.483 16.8463 56.6112 16.8463C54.5054 16.8463 52.8675 17.5483 51.6976 18.7182C50.0598 20.122 49.3579 21.9938 49.3579 24.3336Z" fill="#686868"/>
<path d="M44.4616 18.7165L35.3364 19.1844C35.1024 18.0145 34.4005 17.0786 33.4646 16.1427C32.5287 15.2068 31.1249 14.9728 29.2531 14.9728C27.6152 14.9728 26.4453 15.2068 25.2754 15.9087C24.1056 16.6107 23.6376 17.3126 23.6376 18.4825C23.6376 19.4184 23.8716 20.1203 24.5735 20.5883C25.2755 21.2902 26.4454 21.7582 28.0832 21.9921L34.6345 23.396C41.6538 24.7999 45.1635 28.0755 45.1635 33.223C45.1635 35.5628 44.4615 37.6686 43.0576 39.5404C41.6538 41.4122 39.782 42.8161 37.4423 43.752C35.1025 44.6879 32.2947 45.1559 29.019 45.1559C24.3395 45.1559 20.362 44.22 17.5542 42.1142C14.7465 40.0084 13.1086 37.4346 12.6406 33.925L22.4677 33.457C22.7017 34.8609 23.4037 36.0308 24.5735 36.7327C25.7434 37.4346 27.1472 37.9026 29.019 37.9026C30.8908 37.9026 32.2948 37.6686 33.2307 36.9667C34.4006 36.2647 34.8684 35.3288 34.8684 34.3929C34.8684 32.5211 33.2306 31.3512 30.1889 30.8833L23.8716 29.7134C16.8523 28.3095 13.3427 24.7999 13.3427 19.4184C13.3427 15.9087 14.7465 13.101 17.5542 11.2292C20.362 9.12341 24.1056 8.1875 28.7851 8.1875C33.2307 8.1875 36.9742 9.12341 39.548 10.9952C42.3557 12.6331 43.9936 15.4408 44.4616 18.7165Z" fill="#686868"/>
<path d="M15.6703 16.1484H19.4139L20.5838 20.36H18.712L19.8819 33.9307L17.5421 37.2064L15.2024 33.9307L16.3722 20.36H14.7344L15.6703 16.1484Z" fill="#686868"/>
<path d="M5.15625 51.0144V50.3125H9.60173V51.0144H7.72994V56.3959H7.02804V51.0144H5.15625Z" fill="#686868"/>
<path d="M11.2397 56.6409C11.0058 56.6409 10.7718 56.6409 10.5378 56.4069C10.3039 56.4069 10.0699 56.1729 10.0699 55.9389C9.83588 55.705 9.83594 55.471 9.83594 55.237C9.83594 55.003 9.83588 54.7691 10.0699 54.5351C10.0699 54.3011 10.3039 54.3011 10.5378 54.0671C10.7718 54.0671 11.0058 53.8332 11.0058 53.8332C11.2398 53.8332 11.4737 53.8332 11.7077 53.8332C11.9417 53.8332 12.1757 53.8332 12.4096 53.8332C12.6436 53.8332 12.6436 53.8332 12.8776 53.8332V53.5992C12.8776 53.3652 12.8775 53.1312 12.6435 52.8973C12.4096 52.6633 12.1756 52.6633 11.9416 52.6633C11.7077 52.6633 11.2397 52.6633 11.2397 52.8973C11.0058 53.1312 11.0057 53.1312 10.7718 53.3652L10.0699 53.1312C10.0699 52.8972 10.3039 52.6633 10.5378 52.4293C10.7718 52.1953 11.0058 52.1953 11.2397 52.1953C11.4737 52.1953 11.7077 52.1953 11.9416 52.1953C12.1756 52.1953 12.1757 52.1953 12.4096 52.1953C12.6436 52.1953 12.8776 52.1953 12.8776 52.4293C13.1116 52.4293 13.1116 52.6633 13.3456 52.8973C13.3456 53.1312 13.5795 53.3652 13.5795 53.8332V56.8749H12.8776V56.1729L12.6435 56.4069C12.6435 56.4069 12.4097 56.6409 12.1757 56.6409C11.7078 56.4069 11.4737 56.6409 11.2397 56.6409ZM11.2397 55.9389C11.4737 55.9389 11.7077 55.9389 11.9416 55.705C12.1756 55.705 12.1757 55.471 12.4096 55.237C12.4096 55.003 12.6435 55.003 12.6435 54.7691V54.0671C12.6435 54.0671 12.6436 54.0671 12.4096 54.0671H12.1757C11.9417 54.0671 11.9417 54.0671 11.7077 54.0671C11.4737 54.0671 11.4737 54.0671 11.4737 54.0671C11.2397 54.0671 11.2398 54.0671 11.0058 54.0671C10.7718 54.0671 10.7718 54.3011 10.5378 54.3011C10.5378 54.3011 10.3038 54.5351 10.3038 54.7691C10.3038 55.003 10.3039 55.237 10.5378 55.237C10.7718 55.939 11.0058 55.9389 11.2397 55.9389Z" fill="#686868"/>
<path d="M14.9753 50.3125H14.2734V56.3959H14.9753V50.3125Z" fill="#686868"/>
<path d="M18.0121 56.6409C17.5441 56.6409 17.3102 56.6409 16.8422 56.4069C16.6082 56.1729 16.3741 55.9389 16.1402 55.705C15.9062 55.471 15.9063 55.003 15.9063 54.5351C15.9063 54.0671 15.9062 53.5992 16.1402 53.3652C16.3741 52.8972 16.6082 52.6633 16.8422 52.4293C17.0762 52.1953 17.5441 52.1953 18.0121 52.1953C18.2461 52.1953 18.48 52.1953 18.714 52.1953C18.948 52.1953 19.1819 52.4293 19.4159 52.6633C19.6499 52.8972 19.6499 53.1312 19.8839 53.3652C19.8839 53.5992 20.1178 54.0671 20.1178 54.5351V54.3011H16.8422C16.8422 54.7691 17.0761 55.237 17.3101 55.471C17.544 55.705 18.012 55.9389 18.246 55.9389C18.48 55.9389 18.7139 55.9389 18.9479 55.705C19.1819 55.705 19.1819 55.471 19.4159 55.237L20.1178 55.471C20.1178 55.705 19.8839 56.1729 19.4159 56.4069C18.948 56.4069 18.4801 56.6409 18.0121 56.6409ZM16.6082 53.8332H19.182C19.182 53.3652 19.1819 53.1312 18.9479 52.8973C18.7139 52.6633 18.4801 52.4293 18.0121 52.4293C17.7781 52.4293 17.544 52.4293 17.3101 52.6633C17.0761 52.8972 17.0762 52.8972 16.8422 53.1312C16.6082 53.3652 16.6082 53.5992 16.6082 53.8332Z" fill="#686868"/>
<path d="M21.5224 53.5832V56.3909H20.8203V51.9453H21.5224V52.6472C21.5224 52.4133 21.7562 52.1793 21.9902 52.1793C22.2242 51.9453 22.4582 51.9453 22.9262 51.9453C23.3941 51.9453 23.8621 52.1793 24.096 52.4133C24.33 52.6472 24.564 53.1152 24.564 53.5832V56.3909H23.8621V53.5832C23.8621 53.1152 23.862 52.8812 23.6281 52.6472C23.3941 52.4133 23.1601 52.4133 22.9262 52.4133C22.6922 52.4133 22.2242 52.4133 21.9902 52.6472C21.5222 53.1152 21.5224 53.3492 21.5224 53.5832Z" fill="#686868"/>
<path d="M27.3866 51.9511V52.6531H26.4507V55.2268C26.4507 55.4608 26.4507 55.4608 26.4507 55.6948L26.6846 55.9287H26.9187H27.1526L27.3866 56.6307C27.3866 56.6307 27.3866 56.6307 27.1526 56.6307H26.9187C26.6847 56.6307 26.4507 56.6307 26.4507 56.3967C26.2167 56.3967 26.2167 56.1627 25.9827 55.9287C25.7487 55.6948 25.7488 55.4608 25.7488 55.2268V52.4191H25.0469V51.9511H25.7488V50.7812H26.4507V51.9511H27.3866Z" fill="#686868"/>
<path d="M31.8136 51.9343C31.8136 51.7003 31.5796 51.4664 31.3456 51.2324C31.1116 50.9984 30.8777 50.9984 30.4098 50.9984C29.9418 50.9984 29.7078 50.9984 29.4738 51.2324C29.2398 51.4664 29.0058 51.7003 29.0058 51.9343C29.0058 52.1683 29.0059 52.4023 29.2399 52.4023C29.4739 52.6362 29.4739 52.6362 29.7079 52.6362C29.9418 52.6362 29.9417 52.8702 30.1757 52.8702L30.8778 53.1042C31.1117 53.1042 31.1116 53.1042 31.3456 53.3382C31.5796 53.3382 31.8136 53.5722 31.8136 53.5722C32.0476 53.8061 32.0476 53.8061 32.2816 54.0401C32.2816 54.2741 32.5155 54.5081 32.5155 54.742C32.5155 54.976 32.5155 55.444 32.2816 55.6779C32.0476 55.9119 31.8136 56.1459 31.5797 56.3799C31.3457 56.6139 30.8777 56.6139 30.4098 56.6139C29.7078 56.6139 29.2399 56.3799 28.7719 56.1459C28.3039 55.9119 28.07 55.444 28.07 54.976H28.7719C28.7719 55.21 28.7718 55.444 29.0058 55.444C29.2398 55.6779 29.2398 55.6779 29.4738 55.6779C29.7078 55.6779 29.9417 55.6779 30.1757 55.6779C30.4097 55.6779 30.6438 55.6779 30.8778 55.444C31.1117 55.444 31.3456 55.21 31.3456 54.976C31.5796 54.742 31.5797 54.5081 31.5797 54.5081C31.5797 54.2741 31.5796 54.0401 31.3456 54.0401C31.3456 53.8061 31.1117 53.8061 30.8778 53.8061C30.6438 53.8061 30.4097 53.5722 30.1757 53.5722L29.4738 53.3382C29.0059 53.1042 28.5379 53.1042 28.3039 52.8702C28.0699 52.6362 27.8359 52.4023 27.8359 51.9343C27.8359 51.7003 27.836 51.2324 28.07 50.9984C28.304 50.7644 28.5379 50.5305 28.7719 50.2965C29.0059 50.0625 29.4739 50.0625 29.7079 50.0625C30.1758 50.0625 30.4097 50.0625 30.6437 50.2965C30.8777 50.5305 31.1116 50.5305 31.3456 50.7644C31.5796 50.9984 31.5797 51.2324 31.5797 51.4664H31.8136V51.9343Z" fill="#686868"/>
<path d="M33.4609 58.0287V51.9453H34.1628V52.6472L34.3969 52.4133C34.3969 52.1793 34.6308 52.1793 34.8647 52.1793C35.0987 52.1793 35.3328 51.9453 35.5668 51.9453C36.0347 51.9453 36.2686 51.9453 36.5026 52.1793C36.7366 52.4133 36.9705 52.6472 37.2045 52.8812C37.4385 53.1152 37.4386 53.5832 37.4386 54.0511C37.4386 54.5191 37.4385 54.987 37.2045 55.221C36.9705 55.455 36.7366 55.9229 36.5026 55.9229C36.2686 56.1569 35.8008 56.1569 35.5668 56.1569C35.3328 56.1569 35.0987 56.1569 34.8647 55.9229C34.6308 55.9229 34.6309 55.6889 34.3969 55.6889C34.3969 55.455 34.1628 55.455 34.1628 55.455V57.7947H33.4609V58.0287ZM34.1628 54.0511C34.1628 54.5191 34.1629 54.987 34.3969 55.221C34.6309 55.455 34.8648 55.6889 35.3327 55.6889C35.5667 55.6889 35.8006 55.6889 36.0346 55.455C36.2686 55.221 36.2686 54.987 36.5026 54.753C36.5026 54.5191 36.7367 54.2851 36.7367 53.8171C36.7367 53.5831 36.7366 53.1152 36.5026 52.8812C36.5026 52.6472 36.2686 52.4133 36.0346 52.1793C35.8006 51.9453 35.5667 51.9453 35.3327 51.9453C34.8648 51.9453 34.6309 52.1793 34.3969 52.4133C34.1629 53.3492 34.1628 53.5832 34.1628 54.0511Z" fill="#686868"/>
<path d="M39.077 53.8225V56.6303H38.375V50.5469H39.077V52.6527C39.077 52.4187 39.3109 52.1847 39.5449 52.1847C39.7789 51.9507 40.0129 51.9507 40.4809 51.9507C40.9488 51.9507 41.4168 52.1847 41.6507 52.4187C41.8847 52.6527 42.1187 53.1206 42.1187 53.8225V56.6303H41.4168V53.8225C41.4168 53.3546 41.4167 53.1206 41.1828 52.8866C40.9488 52.6527 40.7148 52.6527 40.4809 52.6527C40.2469 52.6527 39.7789 52.6527 39.5449 52.8866C39.0769 53.1206 39.077 53.3546 39.077 53.8225Z" fill="#686868"/>
<path d="M44.9183 56.6409C44.4504 56.6409 44.2164 56.6409 43.7485 56.4069C43.5145 56.1729 43.2804 55.9389 43.0464 55.705C42.8124 55.471 42.8125 55.003 42.8125 54.5351C42.8125 54.0671 42.8124 53.5992 43.0464 53.3652C43.2804 52.8972 43.5145 52.6633 43.7485 52.4293C43.9824 52.1953 44.4504 52.1953 44.9183 52.1953C45.1523 52.1953 45.3863 52.1953 45.6203 52.1953C45.8542 52.1953 46.0882 52.4293 46.3222 52.6633C46.5561 52.8972 46.5562 53.1312 46.7901 53.3652C46.7901 53.5992 47.0241 54.0671 47.0241 54.5351V54.3011H43.7485C43.7485 54.7691 43.9823 55.237 44.2163 55.471C44.4503 55.705 44.9183 55.9389 45.1523 55.9389C45.3862 55.9389 45.6202 55.9389 45.8542 55.705C46.0881 55.705 46.0882 55.471 46.3222 55.237L47.0241 55.471C47.0241 55.705 46.7901 56.1729 46.3222 56.4069C45.8542 56.4069 45.3863 56.6409 44.9183 56.6409ZM43.5144 53.8332H46.0882C46.0882 53.3652 46.0881 53.1312 45.8542 52.8973C45.6202 52.6633 45.3863 52.4293 44.9183 52.4293C44.6844 52.4293 44.4503 52.4293 44.2163 52.6633C43.9823 52.8972 43.9824 52.8972 43.7485 53.1312C43.7485 53.3652 43.5144 53.5992 43.5144 53.8332Z" fill="#686868"/>
<path d="M47.7266 56.3909V51.9453H48.4286V52.6472C48.4286 52.4133 48.6625 52.1793 48.8964 52.1793C49.1304 51.9453 49.3645 51.9453 49.5985 51.9453C49.8325 51.9453 49.8324 51.9453 49.8324 51.9453H50.0663L49.8324 52.6472C49.8324 52.6472 49.8325 52.6472 49.5985 52.6472H49.3644C49.1305 52.6472 48.6625 52.6472 48.6625 52.8812C48.4286 53.1152 48.4286 53.3492 48.4286 53.5832V56.3909H47.7266Z" fill="#686868"/>
<path d="M52.4182 56.6409C51.9503 56.6409 51.7163 56.6409 51.2483 56.4069C51.0143 56.1729 50.7804 55.9389 50.5464 55.705C50.3124 55.471 50.3125 55.003 50.3125 54.5351C50.3125 54.0671 50.3124 53.5992 50.5464 53.3652C50.7804 52.8972 51.0143 52.6633 51.2483 52.4293C51.4823 52.1953 51.9503 52.1953 52.4182 52.1953C52.6522 52.1953 52.8863 52.1953 53.1203 52.1953C53.3542 52.1953 53.5882 52.4293 53.8222 52.6633C54.0561 52.8972 54.0562 53.1312 54.2901 53.3652C54.2901 53.5992 54.5241 54.0671 54.5241 54.5351V54.3011H51.2483C51.2483 54.7691 51.4823 55.237 51.7163 55.471C51.9503 55.705 52.4183 55.9389 52.6523 55.9389C52.8862 55.9389 53.1202 55.9389 53.3542 55.705C53.5881 55.705 53.5882 55.471 53.8222 55.237L54.5241 55.471C54.5241 55.705 54.2901 56.1729 53.8222 56.4069C53.3542 56.4069 52.8862 56.6409 52.4182 56.6409ZM51.0144 53.8332H53.5881C53.5881 53.3652 53.5881 53.1312 53.3542 52.8973C53.1202 52.6633 52.8862 52.4293 52.4182 52.4293C52.1842 52.4293 51.9503 52.4293 51.7163 52.6633C51.4823 52.8972 51.4823 52.8972 51.2483 53.1312C51.2483 53.3652 51.0144 53.5992 51.0144 53.8332Z" fill="#686868"/>
<path d="M57.5625 56.3959V50.3125H58.2644V53.1202H61.5401V50.3125H62.242V56.3959H61.5401V53.8222H58.2644V56.3959H57.5625Z" fill="#686868"/>
<path d="M63.4062 56.3959V50.3125H65.5121C65.9801 50.3125 66.448 50.3125 66.682 50.5465C66.916 50.7805 67.1499 51.0144 67.3839 51.2484C67.6179 51.4824 67.6178 51.9503 67.6178 52.1843C67.6178 52.6523 67.6179 52.8862 67.3839 53.1202C67.1499 53.3542 66.9159 53.5882 66.4479 53.8222L67.8519 56.3959H66.9159L65.746 54.0561H65.5121H64.1082V56.3959H63.4062ZM64.3422 53.3542H65.746C66.214 53.3542 66.682 53.3542 66.682 53.1202C66.916 52.8862 66.9159 52.6523 66.9159 52.1843C66.9159 51.7164 66.916 51.4824 66.682 51.2484C66.448 51.0144 66.214 51.0144 65.746 51.0144H64.3422V53.3542Z" fill="#686868"/>
</svg>
