<svg width="105" height="40" viewBox="0 0 105 40" fill="none" xmlns="http://www.w3.org/2000/svg">
<path d="M3.53787 3.53789V14.613L0 11.0751V0H11.0752L14.613 3.53789H3.53787Z" fill="#686868"/>
<path d="M18.1578 13.3926C17.6963 11.3929 15.8505 10.3162 14.0047 10.3162C12.1588 10.3162 10.4668 11.2391 10.1591 13.2388C10.313 15.8538 12.4664 16.3152 14.6199 16.7767C18.1578 17.5458 21.5419 18.3149 21.6957 23.5448C21.6957 25.083 21.2342 26.4674 20.3113 27.698C19.3884 28.9286 18.1578 29.8515 16.6196 30.313H16.4658C15.6967 30.4668 14.9275 30.6206 14.3122 30.6206C10.0052 30.6206 6.31355 27.8518 5.39062 23.5448L8.9285 22.9295C9.23614 25.3907 11.8511 27.0827 14.3122 27.0827C14.7737 27.0827 15.2352 27.0827 15.6967 26.9289C16.4658 26.6212 17.0811 26.1598 17.5425 25.6983C18.004 25.083 18.1578 24.4677 18.1578 23.6986C18.004 21.2375 15.8505 20.776 13.697 20.3146C10.1591 19.5455 6.46739 18.7764 6.46739 13.2388V13.085C6.92886 9.39325 9.8515 7.39358 13.2356 7.08594H14.1585C17.5425 7.23976 20.4651 9.54708 21.2342 12.9311L18.1578 13.3926Z" fill="#686868"/>
<path d="M77.8402 10.7677C77.8402 11.6907 77.0711 12.6136 75.9943 12.6136C75.0714 12.6136 74.1484 11.8445 74.1484 10.7677C74.1484 9.8448 74.9176 8.92188 75.9943 8.92188C77.0711 8.92188 77.8402 9.8448 77.8402 10.7677Z" fill="#686868"/>
<path d="M77.827 14.3047H74.2891V30.4559H77.827V14.3047Z" fill="#686868"/>
<path d="M104.907 31.0712V22.7649V14.3047H101.369V23.9954C101.369 24.6107 100.908 25.5336 100.292 26.1489C99.677 26.7642 98.7541 27.0719 97.8312 27.0719C96.1391 27.0719 94.1394 25.6875 94.1394 23.9954C94.1394 15.8429 94.1394 14.4585 94.1394 14.4585H90.6016C90.6016 17.6888 90.6016 20.919 90.6016 23.9954C90.6016 27.6871 94.2932 30.6097 97.6773 30.6097C99.0617 30.6097 100.292 30.1483 101.369 29.533V30.7636C101.369 32.6094 100.446 34.3015 98.7541 35.0706C98.1388 35.3782 97.5235 35.532 96.7544 35.532C96.4468 35.532 96.1391 35.532 95.9853 35.3782L95.37 38.7623C95.8315 38.9161 96.293 38.9161 96.7544 38.9161C97.985 38.9161 99.2155 38.6085 100.292 38.147C103.061 36.7626 104.753 34.1476 104.907 31.0712Z" fill="#686868"/>
<path d="M68.9051 6.78125H65.3672V13.5494H68.9051V6.78125Z" fill="#686868"/>
<path d="M63.3906 14.3101V17.848H65.3903V25.539V25.8467C65.8517 28.4616 68.1591 30.4613 70.9279 30.4613V26.9234C70.005 26.9234 69.082 26.3081 68.7744 25.2314V17.6941H71.8508V14.1562L63.3906 14.3101Z" fill="#686868"/>
<path d="M29.5379 6.78125H26V13.5494H29.5379V6.78125Z" fill="#686868"/>
<path d="M23.9922 14.3101V17.848H25.9918V25.539V25.8467C26.4533 28.4616 28.7606 30.4613 31.5294 30.4613V26.9234C30.6064 26.9234 29.6836 26.3081 29.3759 25.2314V17.6941H32.4524V14.1562L23.9922 14.3101Z" fill="#686868"/>
<path d="M85.8293 12.4594C85.8293 12.3056 85.8294 11.2289 86.7523 10.6136C87.2138 10.3059 87.6752 10.3059 87.8291 10.3059C88.4443 10.3059 88.9058 10.4598 89.3673 10.9212L91.8284 8.46009C90.7516 7.38334 89.3672 6.92188 87.9828 6.92188C85.2141 6.92188 82.9068 8.92155 82.4453 11.5365V11.8442V13.69H85.9832L85.8293 12.4594Z" fill="#686868"/>
<path d="M82.2917 14.3047H79.9844V17.8426H82.2917V30.6097H85.8296V17.8426H88.4445V14.3047H85.8296H82.2917Z" fill="#686868"/>
<path d="M43.3695 14.3047C41.5236 14.3047 39.8316 14.92 39.0625 16.612V22.4572C39.6778 20.7652 41.216 17.8426 43.2157 17.8426C43.2157 17.8426 43.2157 17.8426 43.3695 17.8426V14.3047Z" fill="#686868"/>
<path d="M38.3168 14.3047H34.625L34.7789 30.6097H38.3168V14.3047Z" fill="#686868"/>
<path d="M48.9062 24.3079C49.6754 24.9231 50.5984 25.2308 51.6751 25.2308C52.7519 25.2308 53.6748 24.9231 54.4439 24.3079L51.6751 21.5391L48.9062 24.3079Z" fill="#686868"/>
<path d="M61.2254 25.5361V14.4609H57.6875V15.9992C58.3028 16.6144 58.9181 17.2297 59.3796 17.9988C60.1487 19.3832 60.6101 20.9214 60.6101 22.6135C60.6101 24.767 59.9949 26.6128 58.6105 27.9972L58.4566 28.151C58.4566 28.151 59.0719 29.2278 60.3025 29.8431C60.6101 29.9969 60.7639 30.1507 61.0716 30.1507C61.6869 30.4584 62.456 30.6122 63.0712 30.6122V27.0743C62.3021 27.0743 61.533 26.459 61.2254 25.5361Z" fill="#686868"/>
<path d="M8.30783 37.8542C8.30783 38.1618 8.15403 38.4695 7.84638 38.7771C7.53874 38.9309 7.23104 39.0848 6.9234 39.0848C6.46193 39.0848 6.15427 38.9309 5.84663 38.6233C5.53899 38.3157 5.53906 37.8542 5.53906 37.3927V37.2389C5.53906 36.9313 5.53902 36.6236 5.69285 36.316C5.84667 36.0083 6.00047 35.8545 6.15429 35.7007C6.30811 35.5469 6.61576 35.5469 6.9234 35.5469C7.38486 35.5469 7.69256 35.7007 7.84638 35.8545C8.15403 36.0083 8.15401 36.316 8.30783 36.7774H7.53872C7.53872 36.6236 7.38484 36.4698 7.38484 36.316C7.23102 36.1622 7.07722 36.1622 6.9234 36.1622C6.61576 36.1622 6.46195 36.316 6.46195 36.4698C6.30813 36.6236 6.30817 36.9313 6.30817 37.2389V37.5466C6.30817 37.8542 6.30813 38.1618 6.46195 38.3157C6.61577 38.4695 6.76958 38.6233 6.9234 38.6233C7.07722 38.6233 7.23102 38.6233 7.38484 38.4695C7.53866 38.3157 7.53872 38.1618 7.53872 38.008L8.30783 37.8542Z" fill="#686868"/>
<path d="M14.1516 37.3927C14.1516 37.7004 14.1516 38.008 13.9978 38.3157C13.844 38.6233 13.6901 38.7771 13.5363 38.9309C13.3824 39.0848 13.0748 39.0848 12.7671 39.0848C12.4595 39.0848 12.3057 39.0848 11.998 38.9309C11.8442 38.7771 11.5366 38.6233 11.5366 38.3157C11.3828 38.008 11.3828 37.7004 11.3828 37.3927V37.2389C11.3828 36.9313 11.3828 36.6236 11.5366 36.316C11.6904 36.0083 11.8442 35.8545 11.998 35.7007C12.1519 35.5469 12.4595 35.5469 12.7671 35.5469C13.0748 35.5469 13.2286 35.5469 13.5363 35.7007C13.6901 35.8545 13.9978 36.0083 13.9978 36.316C13.9978 36.6236 14.1516 36.9313 14.1516 37.3927ZM13.3825 37.2389C13.3825 36.9313 13.3825 36.6236 13.2287 36.4698C13.0749 36.316 12.921 36.1622 12.6134 36.1622C12.3057 36.1622 12.1519 36.316 11.998 36.4698C11.8442 36.6236 11.8443 36.9313 11.8443 37.2389V37.3927C11.8443 37.7004 11.8442 38.008 11.998 38.1618C12.1519 38.3157 12.3057 38.4695 12.6134 38.4695C12.921 38.4695 13.0749 38.3157 13.2287 38.1618C13.3825 38.008 13.3825 37.7004 13.3825 37.3927V37.2389Z" fill="#686868"/>
<path d="M19.8469 38.9309H19.0778L17.8472 36.7774V38.9309H17.0781V35.5469H17.8472L19.0778 37.8542V35.5469H19.8469V38.9309Z" fill="#686868"/>
<path d="M24.7707 38.008C24.7707 37.8542 24.7707 37.7004 24.6168 37.7004C24.463 37.7004 24.3092 37.5466 24.1554 37.5466C23.8478 37.3927 23.6939 37.3927 23.5401 37.2389C23.2324 37.0851 22.9248 36.7774 22.9248 36.4698C22.9248 36.316 22.9248 36.1622 23.0786 36.0083C23.2325 35.8545 23.3863 35.7007 23.5401 35.7007C23.6939 35.5469 24.0016 35.5469 24.1554 35.5469C24.3092 35.5469 24.6169 35.5469 24.7707 35.7007C24.9245 35.8545 25.0783 35.8545 25.2322 36.0083C25.386 36.1622 25.386 36.316 25.386 36.6236H24.6168C24.6168 36.4698 24.6169 36.316 24.4631 36.316C24.3092 36.1622 24.1554 36.1622 24.0016 36.1622C23.8478 36.1622 23.6939 36.1622 23.5401 36.316C23.3863 36.316 23.3863 36.4698 23.3863 36.6236C23.3863 36.7774 23.3863 36.7774 23.5401 36.9313C23.6939 36.9313 23.8478 37.0851 24.0016 37.0851C24.4631 37.2389 24.6169 37.3927 24.9245 37.5466C25.0783 37.7004 25.2322 38.008 25.2322 38.1618C25.2322 38.4695 25.0783 38.6233 24.9245 38.7771C24.7707 38.9309 24.4631 39.0848 24.0016 39.0848C23.694 39.0848 23.5402 39.0848 23.2325 38.9309C23.0787 38.7771 22.9248 38.7771 22.771 38.4695C22.6171 38.3157 22.6172 38.1618 22.6172 37.8542H23.3863C23.3863 38.1618 23.5402 38.4695 24.0016 38.4695C24.1554 38.4695 24.3092 38.4695 24.4631 38.3157C24.6169 38.3157 24.6169 38.1618 24.7707 38.008Z" fill="#686868"/>
<path d="M30.9221 35.5469V37.8542C30.9221 38.1618 30.7683 38.4695 30.6145 38.7771C30.3068 38.9309 29.9991 39.0848 29.6915 39.0848C29.3838 39.0848 28.9224 38.9309 28.7686 38.7771C28.461 38.6233 28.4609 38.3157 28.4609 37.8542V35.5469H29.23V37.8542C29.23 38.008 29.2301 38.1618 29.3839 38.3157C29.5377 38.4695 29.6915 38.4695 29.8454 38.4695C30.3068 38.4695 30.4606 38.3157 30.4606 37.8542V35.5469H30.9221Z" fill="#686868"/>
<path d="M34.6152 38.4695H36.1534V38.9309H34V35.5469H34.6152V38.4695Z" fill="#686868"/>
<path d="M41.0735 36.1622H40.1506V38.9309H39.3815V36.1622H38.3047V35.5469H41.0735V36.1622Z" fill="#686868"/>
<path d="M44.7691 35.5469H44V38.9309H44.7691V35.5469Z" fill="#686868"/>
<path d="M50.6203 38.9309H50.005L48.6207 36.7774V38.9309H47.8516V35.5469H48.6207L50.005 37.8542V35.5469H50.6203V38.9309Z" fill="#686868"/>
<path d="M56.4587 38.4568C56.3049 38.6106 56.1511 38.7645 55.9973 38.7645C55.6896 38.9183 55.5358 38.9183 55.2282 38.9183C54.9205 38.9183 54.6129 38.9183 54.4591 38.7645C54.3053 38.6106 53.9976 38.4568 53.9976 38.1492C53.8438 37.8415 53.8438 37.6877 53.8438 37.2262V36.9186C53.8438 36.611 53.8438 36.3033 53.9976 35.9957C54.1514 35.688 54.3053 35.5342 54.4591 35.3804C54.6129 35.2266 54.9205 35.2266 55.2282 35.2266C55.6896 35.2266 55.9972 35.3804 56.1511 35.5342C56.3049 35.688 56.4587 35.9957 56.6125 36.3033H55.6896C55.6896 36.1495 55.5358 35.9957 55.5358 35.8419C55.382 35.688 55.2281 35.688 55.0743 35.688C54.7667 35.688 54.6129 35.8418 54.4591 35.9957C54.3053 36.1495 54.3052 36.4571 54.3052 36.7648V36.9186C54.3052 37.2262 54.3053 37.5339 54.4591 37.6877C54.6129 37.8415 54.7667 37.9953 55.0743 37.9953C55.3819 37.9953 55.5358 37.9953 55.6896 37.8415V37.2262H55.0743V36.7648H56.4587V38.4568Z" fill="#686868"/>
<path d="M65.8336 38.4568C65.6798 38.6106 65.526 38.7645 65.3722 38.7645C65.0646 38.9183 64.9107 38.9183 64.6031 38.9183C64.2954 38.9183 63.9878 38.9183 63.834 38.7645C63.6802 38.6106 63.3725 38.4568 63.3725 38.1492C63.2187 37.8415 63.2188 37.6877 63.2188 37.2262V36.9186C63.2188 36.611 63.2187 36.3033 63.3725 35.9957C63.5264 35.688 63.6802 35.5342 63.834 35.3804C63.9878 35.2266 64.2954 35.2266 64.6031 35.2266C65.0646 35.2266 65.3722 35.3804 65.5261 35.5342C65.6799 35.688 65.8337 35.9957 65.9875 36.3033H65.3722C65.3722 36.1495 65.2184 35.9957 65.2184 35.8419C65.0646 35.688 64.9108 35.688 64.757 35.688C64.4493 35.688 64.2955 35.8418 64.1416 35.9957C63.9878 36.1495 63.9879 36.4571 63.9879 36.7648V36.9186C63.9879 37.2262 63.9878 37.5339 64.1416 37.6877C64.2955 37.8415 64.4493 37.9953 64.757 37.9953C65.0646 37.9953 65.2184 37.9953 65.3722 37.8415V37.2262H64.757V36.7648H66.1413L65.8336 38.4568Z" fill="#686868"/>
<path d="M70.1579 37.7004H69.5425V38.9309H68.7734V35.5469H70.004C70.4655 35.5469 70.7732 35.7007 70.927 35.8545C71.0808 36.0083 71.2345 36.316 71.2345 36.6236C71.2345 36.9313 71.2346 37.0851 71.0808 37.2389C70.9269 37.3927 70.7731 37.5466 70.6193 37.5466L71.3884 38.9309H70.6193L70.1579 37.7004ZM69.5425 37.2389H70.1579C70.3117 37.2389 70.4655 37.2389 70.6193 37.0851C70.7731 36.9313 70.7731 36.9313 70.7731 36.7774C70.7731 36.6236 70.7731 36.4698 70.6193 36.4698C70.4655 36.316 70.3117 36.316 70.1579 36.316H69.5425V37.2389Z" fill="#686868"/>
<path d="M77.2219 37.3927C77.2219 37.7004 77.2219 38.008 77.0681 38.3157C76.9143 38.6233 76.7604 38.7771 76.6066 38.9309C76.4527 39.0848 76.1451 39.0848 75.8375 39.0848C75.5298 39.0848 75.376 39.0848 75.0684 38.9309C74.9145 38.7771 74.6069 38.6233 74.6069 38.3157C74.4531 38.008 74.4531 37.7004 74.4531 37.3927V37.2389C74.4531 36.9313 74.4531 36.6236 74.6069 36.316C74.7607 36.0083 74.9145 35.8545 75.0684 35.7007C75.2222 35.5469 75.5298 35.5469 75.8375 35.5469C76.1451 35.5469 76.2989 35.5469 76.6066 35.7007C76.7604 35.8545 77.0681 36.0083 77.0681 36.316C77.0681 36.6236 77.2219 36.9313 77.2219 37.3927ZM76.4528 37.2389C76.4528 36.9313 76.4528 36.6236 76.299 36.4698C76.1452 36.316 75.9913 36.1622 75.6837 36.1622C75.376 36.1622 75.2222 36.316 75.0684 36.4698C74.9145 36.6236 74.9146 36.9313 74.9146 37.2389V37.3927C74.9146 37.7004 74.9145 38.008 75.0684 38.1618C75.2222 38.3157 75.376 38.4695 75.6837 38.4695C75.9913 38.4695 76.1452 38.3157 76.299 38.1618C76.4528 38.008 76.4528 37.7004 76.4528 37.3927V37.2389Z" fill="#686868"/>
<path d="M82.7658 35.5469V37.8542C82.7658 38.1618 82.612 38.4695 82.4582 38.7771C82.1506 38.9309 81.8429 39.0848 81.5352 39.0848C81.2276 39.0848 80.7662 38.9309 80.6123 38.7771C80.3047 38.6233 80.3047 38.3157 80.3047 37.8542V35.5469H81.0738V37.8542C81.0738 38.008 81.0738 38.1618 81.2276 38.3157C81.3814 38.4695 81.5353 38.4695 81.6891 38.4695C82.1506 38.4695 82.3043 38.3157 82.3043 37.8542V35.5469H82.7658Z" fill="#686868"/>
<path d="M86.4566 37.7004V38.9309H85.6875V35.5469H87.0719C87.3796 35.5469 87.5333 35.5469 87.6872 35.7007C87.841 35.8545 87.9948 35.8545 88.1486 36.1622C88.3024 36.316 88.3025 36.4698 88.3025 36.7774C88.3025 37.0851 88.1486 37.3927 87.9948 37.5466C87.841 37.7004 87.3796 37.8542 87.0719 37.8542L86.4566 37.7004ZM86.4566 37.2389H87.0719C87.2258 37.2389 87.3796 37.2389 87.5334 37.0851C87.6872 36.9313 87.6872 36.9313 87.6872 36.7774C87.6872 36.6236 87.6872 36.4698 87.5334 36.316C87.3796 36.1622 87.2258 36.1622 87.0719 36.1622H86.4566V37.2389Z" fill="#686868"/>
<path d="M51.8369 27.0768C50.7601 27.0768 49.6833 26.6153 48.9142 26L46.4531 28.4611C47.8375 29.6917 49.8372 30.6146 51.8369 30.6146C53.9904 30.6146 55.99 29.6917 57.3744 28.4611L54.9133 26C53.9904 26.6153 52.9136 27.0768 51.8369 27.0768Z" fill="#686868"/>
<path d="M59.8207 23.3855C59.8207 23.2317 59.8207 23.0779 59.8207 22.9241C59.8207 22.7702 59.8207 22.6164 59.8207 22.4626C59.8207 21.8473 59.8207 21.232 59.6669 20.6167C59.6669 20.6167 59.6669 20.6167 59.6669 20.4629C59.6669 20.3091 59.6669 20.1553 59.5131 20.0015V19.8476C59.5131 19.6938 59.3593 19.54 59.3593 19.54C59.3593 19.54 59.3592 19.3862 59.2054 19.3862C59.2054 19.2324 59.2055 19.2324 59.0516 19.0785C58.8978 18.6171 58.5901 18.1556 58.4363 17.848C57.0519 15.6945 54.437 14.1562 51.6682 14.1562C47.2074 14.1562 43.5156 17.848 43.5156 22.3088C43.5156 22.9241 43.5157 23.5394 43.6695 24.1546C43.6695 24.1546 43.6695 24.1546 43.6695 24.3085C43.6695 24.4623 43.6695 24.6161 43.8233 24.7699V24.9237C43.8233 25.0776 43.9772 25.2314 43.9772 25.2314C43.9772 25.2314 43.9771 25.3852 44.1309 25.3852C44.1309 25.539 44.1309 25.539 44.2847 25.6929C44.4386 26.1543 44.7462 26.6158 44.9001 26.9234C45.0539 27.2311 45.3616 27.5387 45.5154 27.6925L47.9765 25.2314C47.6688 24.7699 47.3612 24.3085 47.2074 23.6932C47.2074 23.5394 47.0536 23.2317 47.0536 23.0779C47.0536 22.9241 47.0536 22.6164 47.0536 22.3088V22.155C47.2074 19.6938 49.2071 17.6941 51.6682 17.6941C54.1294 17.6941 56.2829 19.6938 56.2829 22.3088C56.2829 22.7702 56.2828 23.0779 56.129 23.5394C55.9752 24.1546 55.6675 24.6161 55.3599 25.0776L57.9749 27.5387C58.8978 26.462 59.5131 25.0776 59.8207 23.3855C59.8207 23.5394 59.8207 23.5394 59.8207 23.3855Z" fill="#686868"/>
</svg>
