<svg width="94" height="32" viewBox="0 0 94 32" fill="none" xmlns="http://www.w3.org/2000/svg">
<path d="M17.9368 18.2578V21.7888C17.9368 22.0713 17.6543 22.495 17.3719 22.495H15.112C14.8295 22.495 14.5471 22.2125 14.5471 21.7888V18.2578H12.7109V22.495C12.7109 23.06 13.1347 23.4837 13.6996 23.4837H18.643C19.208 23.4837 19.6317 23.06 19.6317 22.495V18.2578H17.9368Z" fill="#686868"/>
<path d="M22.4539 22.0713V18.2578H20.4766V22.0713V23.4837H25.9849V22.0713H22.4539Z" fill="#686868"/>
<path d="M32.7765 19.3877V18.2578H28.8217H26.7031V19.3877V20.3764V21.7888V23.4837H28.8217V21.7888H32.7765V20.3764H28.8217V19.3877H32.7765Z" fill="#686868"/>
<path d="M1.83973 19.24C1.83973 19.24 0.28609 12.743 11.0203 10.6244C11.0203 10.6244 10.4554 7.37588 15.3988 7.65836C17.3761 5.82224 21.3309 2.43248 28.1104 1.72628H52.2625C52.2625 1.72628 55.3697 1.86751 58.6183 2.99743C61.8668 4.12735 67.5164 6.81092 67.5164 6.81092C67.5164 6.81092 70.4824 8.5058 71.8948 8.78828C73.3072 9.07076 74.4371 8.64704 75.2846 9.07076C76.132 9.49448 76.8382 10.3419 76.9795 11.3306L77.5444 13.308C77.5444 13.308 78.1094 10.2007 76.132 8.5058C76.132 8.5058 75.1434 7.65836 73.3072 8.08208C73.3072 8.08208 72.4598 8.64704 70.0587 7.09339C67.6576 5.68099 62.1493 2.14999 56.2172 0.878826C50.9913 -0.251095 39.5508 0.0313873 39.5508 0.0313873L29.2403 0.172625C29.2403 0.172625 23.167 0.31387 18.2236 3.42115C13.7039 6.3872 13.8451 6.52843 13.8451 6.52843C13.8451 6.52843 9.74918 6.3872 9.60794 9.77696C7.91306 10.3419 4.24082 11.0481 2.26346 13.1667C0.286094 15.2853 -0.702604 19.2401 0.568557 22.3473L1.83973 19.24Z" fill="#686868"/>
<path d="M56.2131 22.3389H60.3091L56.4956 10.8984H53.6708H53.3883H50.5635L46.75 22.3389H50.846L51.5522 20.2203H55.6481L56.2131 22.3389ZM52.1171 17.8192L53.3883 14.0057L54.6594 17.8192H52.1171Z" fill="#686868"/>
<path d="M69.0645 14.1542H72.4542V13.1655C72.4542 12.0356 71.4655 11.0469 70.3356 11.0469H63.8386C62.4262 11.0469 61.4375 12.1768 61.4375 13.448V14.7191C61.4375 16.414 62.4262 17.8264 65.1098 17.8264H67.9346C68.6408 17.8264 69.2057 18.3914 69.2057 19.0976C69.2057 19.6625 68.782 20.0862 68.217 20.0862H66.0984C65.251 20.0862 64.686 19.38 64.686 18.6738H61.4375V20.2275C61.4375 21.4986 62.4262 22.4873 63.6974 22.4873H70.4769C72.0305 22.4873 73.1604 21.2162 73.1604 19.8038V18.2501C73.1604 15.7078 70.9006 15.4253 69.347 15.4253H66.0984C65.5334 15.4253 65.1098 15.0016 65.1098 14.4366C65.1098 13.7304 65.6747 13.1655 66.2397 13.1655H68.217C68.6407 13.1655 69.0645 13.5892 69.0645 14.1542Z" fill="#686868"/>
<path d="M89.4082 14.1542H92.798V13.1655C92.798 12.0356 91.8093 11.0469 90.6794 11.0469H84.1824C82.7699 11.0469 81.7812 12.1768 81.7812 13.448V14.7191C81.7812 16.414 82.7699 17.8264 85.4535 17.8264H88.2783C88.9845 17.8264 89.5495 18.3914 89.5495 19.0976C89.5495 19.6625 89.1258 20.0862 88.5608 20.0862H86.4422C85.5948 20.0862 85.0298 19.38 85.0298 18.6738H81.7812V20.2275C81.7812 21.4986 82.7699 22.4873 84.0411 22.4873H90.8206C92.3743 22.4873 93.5042 21.2162 93.5042 19.8038V18.2501C93.5042 15.7078 91.2443 15.4253 89.6907 15.4253H86.4422C85.8772 15.4253 85.4535 15.0016 85.4535 14.4366C85.4535 13.7304 86.0184 13.1655 86.5834 13.1655H88.5608C88.9845 13.1655 89.4082 13.5892 89.4082 14.1542Z" fill="#686868"/>
<path d="M79.2269 11.1953H75.5547V22.0708H79.2269V11.1953Z" fill="#686868"/>
<path d="M18.2193 7.52443L16.1007 7.1007L16.5244 6.11203L15.677 6.67699L15.3945 3.71094L15.112 6.67699L14.4058 6.11203L14.8295 7.1007L12.7109 7.52443H14.8295L14.2646 8.79559L15.112 7.94814L15.3945 11.0554L15.677 7.94814L16.5244 8.79559L15.9595 7.52443H18.2193Z" fill="#686868"/>
<path d="M45.7627 23.4767C45.7627 23.4767 45.339 18.2508 41.1018 18.2508C37.712 18.2508 36.8646 20.7931 36.5821 21.923C36.2996 23.053 36.0171 27.5727 40.2543 28.2789C40.2543 28.2789 42.6554 28.5613 43.7853 26.7252C44.9153 24.8891 44.774 24.4654 44.774 24.4654C44.774 24.4654 44.6328 23.1942 45.904 23.4767C45.904 23.4767 47.3163 23.7592 46.4689 25.454C45.6215 27.1489 44.4915 29.6913 40.5368 29.8325C38.4182 29.8325 37.0058 28.9851 36.0171 27.9964C34.8872 26.8665 34.3223 25.4541 34.181 23.9004C34.0398 22.3468 34.3223 20.2282 35.7347 18.392C37.1471 16.6972 38.9832 16.2734 40.5368 16.2734C42.0905 16.2734 43.6441 16.8384 44.774 17.9683C45.4802 18.6745 45.904 19.522 46.0452 20.6519L45.7627 23.4767Z" fill="#686868"/>
<path d="M91.1017 28.5629C90.9604 28.7041 90.678 28.8454 90.5367 28.8454C90.5367 28.8454 90.3955 28.8454 90.3955 28.7041C90.3955 28.2804 91.2429 27.7154 91.2429 27.433C91.2429 27.2917 91.2429 27.1505 91.1017 27.0092C91.1017 26.868 90.9604 26.868 90.9604 26.868C90.8192 26.868 89.548 27.7154 88.9831 28.4216L88.8418 28.5629C88.8418 28.5629 88.7006 28.5629 88.7006 28.4216C88.7006 28.2804 89.548 27.5742 89.548 27.2917C89.548 27.2917 89.5481 27.1505 89.1243 27.1505C88.9831 27.1505 88.9831 27.1505 88.8418 27.2917C88.4181 27.5742 87.9944 28.2804 87.9944 28.8454C87.9944 29.1278 88.1356 29.5516 88.4181 29.5516C88.5594 29.5516 88.8418 29.2691 88.9831 29.1278C89.2656 28.7041 89.6893 28.4216 89.9718 28.1392C89.6893 28.4216 89.4068 28.8454 89.4068 29.2691C89.4068 29.5516 89.548 29.6928 89.8305 29.6928C90.2543 29.6928 90.9605 28.8454 91.3842 28.5629V28.2804L91.1017 28.5629ZM87.9944 27.1505C88.2769 27.1505 88.5594 26.868 88.5594 26.5855C88.5594 26.4443 88.4181 26.4443 88.2769 26.4443C87.9944 26.4443 87.7119 26.7267 87.7119 27.0092C87.7119 27.0092 87.8531 27.1505 87.9944 27.1505ZM88.2769 28.4216C87.9944 28.5629 87.7119 28.9866 87.2882 28.9866C87.0057 28.9866 86.8645 28.8454 86.8645 28.5629C87.147 28.4216 87.8532 27.7154 87.8532 27.433C87.8532 27.2917 87.7119 27.2917 87.5707 27.2917C87.147 27.2917 86.2995 28.1392 86.2995 28.9866C86.2995 29.2691 86.4408 29.834 86.8645 29.834C87.4294 29.834 87.9944 29.2691 88.2769 28.8454V28.4216ZM84.7459 29.5516C84.3222 29.834 83.3335 30.6815 83.3335 31.1052C83.3335 31.2464 83.3335 31.2464 83.4747 31.2464C83.7572 31.2464 84.3222 30.8227 85.0284 29.6928L86.4408 28.5629V28.2804L85.4521 28.9866L86.017 27.9979C86.017 27.8567 86.1583 27.7154 86.1583 27.7154C86.1583 27.5742 86.017 27.433 85.8758 27.433C85.7345 27.433 85.7346 27.5742 85.5933 27.5742L84.8871 28.4216C84.6046 28.7041 84.1809 28.8454 84.0397 28.8454C84.0397 28.8454 83.8984 28.8454 83.8984 28.7041C83.8984 28.1392 84.3222 27.9979 84.7459 27.8567L85.4521 27.433C85.5933 27.433 85.7346 27.2917 85.7346 27.1505C85.7346 27.0092 85.4521 27.0092 85.3108 27.0092C84.7459 27.0092 83.3335 27.7154 83.3335 28.7041C83.3335 28.9866 83.4747 29.5516 83.8984 29.5516C84.3222 29.5516 85.0283 28.9866 85.1696 28.7041L84.7459 29.5516ZM81.7798 28.2804C81.9211 27.8567 82.3448 27.5742 82.6273 27.433C82.6273 27.433 82.7685 27.433 82.7685 27.5742C82.7685 27.5742 82.3448 28.1392 81.7798 28.2804ZM83.4747 28.2804C83.051 28.5629 82.6273 29.1278 82.0623 29.1278C81.7798 29.1278 81.6386 28.9866 81.6386 28.8454V28.7041C82.9097 28.2804 83.1922 27.7154 83.1922 27.433C83.1922 27.1505 82.9098 27.1505 82.7685 27.1505C81.9211 27.1505 80.9324 27.9979 80.9324 28.9866C80.9324 29.4103 81.2149 29.834 81.6386 29.834C82.3448 29.834 83.051 29.1278 83.4747 28.7041V28.2804ZM78.2488 27.7154C78.5313 27.7154 79.9437 27.8567 79.9437 28.1392C79.9437 28.4216 78.955 28.8454 78.3901 28.8454C78.1076 28.8454 77.6839 28.7041 77.6839 28.4216C77.6839 28.2804 77.8251 28.1392 77.9664 27.9979L78.2488 27.7154ZM78.5313 27.433C79.3788 27.1505 81.4974 26.868 81.4974 25.7381C81.4974 25.3144 81.2149 24.8906 80.085 24.8906C79.3788 24.8906 78.1076 25.1731 77.5426 25.4556C77.2601 25.5968 77.1189 25.7381 76.9777 26.0206C76.6952 26.303 76.6952 26.5855 76.6952 26.5855C76.6952 26.7268 76.6952 26.7268 76.8364 26.7268C76.9777 26.7268 76.9777 26.7268 76.9777 26.7268C77.4014 26.5855 77.5426 26.5855 77.9664 26.4443C78.1076 26.4443 78.2488 26.4443 78.2488 26.303C78.2488 26.303 78.2488 26.1618 78.1076 26.1618C79.0963 25.7381 79.8025 25.7381 79.9437 25.7381C80.7912 25.7381 80.9324 25.8793 80.9324 26.0206C80.9324 26.1618 80.6499 26.7267 79.0963 26.868C79.6612 26.1618 79.6612 26.1618 79.8025 26.0206C79.0963 26.0206 78.6725 26.5855 78.2488 27.0092C78.1076 27.0092 77.1189 27.1505 77.1189 27.433C77.1189 27.7154 77.5426 27.7154 77.6839 27.7154C76.8364 28.7041 76.9777 28.8454 76.9777 28.9866C76.9777 29.5516 77.6839 29.834 78.1076 29.6928C79.9437 29.5516 80.7912 28.7041 80.7912 28.2804C80.7912 27.5742 79.0963 27.433 78.5313 27.433ZM72.7405 27.7154C72.7405 27.7154 72.458 28.1392 72.458 28.5629C72.458 28.7041 72.458 28.7041 72.5992 28.8454C72.458 28.9866 72.3167 29.1278 72.0343 29.1278C71.893 29.1278 71.7518 29.1278 71.7518 28.8454C71.7518 28.5629 71.893 28.4216 72.0343 28.2804C72.1755 28.1392 72.5992 27.8567 72.7405 27.7154ZM74.0116 28.2804C73.8704 28.4216 73.5879 28.7041 73.3054 28.7041C73.4467 28.4216 73.5879 28.1392 73.5879 27.8567C73.5879 27.7154 73.5879 27.5742 73.3054 27.433C73.4467 27.433 73.4467 27.2917 73.4467 27.2917C73.4467 27.1505 73.1642 27.0092 73.023 27.0092C72.5992 27.0092 72.1755 27.1505 71.7518 27.5742C71.328 27.8567 71.1868 28.1392 71.1868 28.7041C71.1868 29.2691 71.4693 29.6928 71.893 29.6928C72.3167 29.6928 72.5992 29.4103 72.8817 29.1278C73.3054 29.1278 73.7291 28.9866 74.0116 28.5629V28.2804ZM68.2208 26.7268C68.5032 26.7268 68.7858 26.868 68.7858 26.7268C68.7858 26.5855 68.362 26.5855 68.2208 26.5855C69.3507 26.303 70.4806 26.0206 71.6106 26.0206L70.9044 26.868C70.4806 27.433 69.2095 28.9866 69.2095 29.6928C69.2095 29.834 69.3507 29.9753 69.6332 29.9753C69.9156 29.9753 70.0569 29.5516 70.1982 29.4103C70.3394 29.2691 70.4806 29.1278 70.4806 28.9866C70.4806 28.8454 70.3394 28.8454 70.3394 28.8454L71.893 26.4443C72.0343 26.303 72.1755 26.0206 72.1755 25.8793C72.0343 25.4556 72.0343 25.1731 71.6106 25.1731C71.3281 25.0319 70.9043 25.0319 70.6219 25.0319C69.7744 25.0319 68.927 25.1731 68.0796 25.4556C67.6558 25.5968 67.6558 25.7381 67.5146 26.1618C67.5146 26.303 67.5146 26.4443 67.5146 26.5855C67.5146 26.7268 67.6558 26.7268 67.7971 26.7268H68.2208ZM64.9723 28.4216C64.6898 28.7041 64.1248 29.1278 63.8424 29.1278C63.7011 29.1278 63.5599 28.9866 63.5599 28.8454C63.5599 28.7041 63.5599 28.5629 63.5599 28.4216C64.9723 27.0092 65.2548 26.4443 65.2548 25.7381C65.2548 25.5968 65.2547 25.4556 65.1135 25.4556C64.831 25.4556 64.2661 26.0205 63.7011 26.868C63.2774 27.433 62.9949 28.1392 62.9949 28.8454C62.9949 29.2691 63.1361 29.6928 63.5599 29.6928C64.1248 29.6928 64.831 28.9866 65.1135 28.5629L64.9723 28.4216ZM63.5599 27.7154C63.8423 27.0092 64.2661 26.4443 64.5486 26.303C64.5486 26.5855 64.1248 27.2917 63.5599 27.7154ZM61.1588 28.2804C61.3 27.8567 61.7237 27.5742 62.0062 27.433C62.0062 27.433 62.1475 27.433 62.1475 27.5742C62.1475 27.5742 61.7237 28.1392 61.1588 28.2804ZM62.8537 28.2804C62.4299 28.5629 62.0062 29.1278 61.4413 29.1278C61.1588 29.1278 61.0175 28.9866 61.0175 28.8454V28.7041C62.2887 28.2804 62.5712 27.7154 62.5712 27.433C62.5712 27.1505 62.2887 27.1505 62.1475 27.1505C61.3 27.1505 60.3113 27.9979 60.3113 28.9866C60.3113 29.4103 60.5938 29.834 61.0175 29.834C61.7238 29.834 62.4299 29.1278 62.8537 28.7041V28.2804ZM59.4639 27.5742C59.3227 27.8567 59.0402 27.9979 59.1814 28.4216C59.0402 28.5629 58.4752 28.9866 58.334 28.9866C58.1927 28.9866 58.1927 28.8454 58.1927 28.7041C58.1927 28.5629 58.334 28.4216 58.334 28.2804C58.6165 28.1392 59.1814 27.433 59.1814 27.1505C59.1814 27.0092 58.8989 27.0092 58.7577 27.0092C58.4752 27.0092 57.769 27.7154 57.769 28.5629C57.769 29.1278 58.0515 29.5516 58.4752 29.5516C58.7577 29.5516 59.4639 28.9866 59.6051 28.7041C59.7464 28.8454 59.8876 28.8454 59.8876 28.8454C60.3113 28.8454 60.4526 28.7041 60.7351 28.4216V28.1392C60.5938 28.2804 60.3113 28.4216 60.1701 28.4216C60.0289 28.4216 60.0288 28.4216 59.8876 28.2804C60.0288 27.9979 60.4526 27.433 60.4526 27.1505C60.4526 27.0092 60.3113 26.868 60.3113 26.868C59.8876 27.0092 59.6051 27.433 59.4639 27.5742ZM56.0741 28.7041C55.9329 28.8454 55.7916 29.2691 55.7916 29.4103C55.7916 29.5516 55.9329 29.834 56.0741 29.834C56.3566 29.834 57.3453 29.1278 57.6278 28.7041V28.4216C57.3453 28.5629 56.9216 28.9866 56.6391 28.9866C56.4979 28.9866 56.3566 28.9866 56.3566 28.8454C56.3566 28.5629 56.9216 27.9979 56.9216 27.8567C56.9216 27.7154 56.7803 27.5742 56.7803 27.5742L57.0628 27.433C57.0628 27.2917 56.9216 27.1505 56.6391 27.1505C55.7917 27.1505 54.0968 27.9979 54.0968 28.8454C54.0968 29.1278 54.5205 29.6928 54.6617 29.6928C54.803 29.6928 55.2267 29.4103 55.3679 29.2691L56.0741 28.7041ZM56.4978 27.7154C55.2267 29.1278 54.9442 29.1278 54.803 29.1278C54.6617 29.1278 54.6617 28.9866 54.6617 28.9866C54.6617 28.5629 54.803 28.2804 56.4978 27.7154ZM53.2493 27.9979C52.9668 28.2804 52.6844 28.7041 52.6844 29.1278C52.6844 29.4103 52.8256 29.6928 53.1081 29.6928C53.5318 29.6928 54.238 28.9866 54.5205 28.7041V28.4216C54.238 28.5629 53.8143 28.9866 53.5318 28.9866C53.3906 28.9866 53.3906 28.8454 53.3906 28.8454C53.3906 28.5629 53.673 28.2804 53.9555 28.1392C54.0968 27.9979 54.238 27.8567 54.238 27.7154C54.238 27.5742 54.238 27.433 54.0968 27.2917C53.9555 27.1505 53.673 27.2917 52.9668 27.433V27.2917C52.9668 27.2917 52.9668 27.1505 52.8256 27.1505C52.6844 27.1505 51.9782 27.7154 51.9782 28.1392C51.9782 28.2804 51.9782 28.2804 52.1194 28.2804C51.9782 28.4216 51.8369 28.5629 51.6957 28.8454V29.1278C51.9782 28.8453 52.2606 28.7041 52.5431 28.2804L53.2493 27.9979ZM48.7296 26.7268C49.0121 26.7268 49.2946 26.868 49.2946 26.7268C49.2946 26.5855 48.8709 26.5855 48.7296 26.5855C49.8596 26.303 50.9895 26.0206 52.1194 26.0206L51.4132 26.868C50.9895 27.433 49.7183 28.9866 49.7183 29.6928C49.7183 29.834 49.8596 29.9753 50.142 29.9753C50.4245 29.9753 50.5658 29.5516 50.707 29.4103C50.8482 29.2691 50.9895 29.1278 50.9895 28.9866C50.9895 28.8454 50.8482 28.8454 50.8482 28.8454L52.4019 26.4443C52.5431 26.303 52.6844 26.0206 52.6844 25.8793C52.5431 25.4556 52.5431 25.1731 52.1194 25.1731C51.8369 25.0319 51.4132 25.0319 51.1307 25.0319C50.2833 25.0319 49.4358 25.1731 48.5884 25.4556C48.1647 25.5968 48.1647 25.7381 48.0234 26.1618C48.0234 26.303 48.0234 26.4443 48.0234 26.5855C48.0234 26.7268 48.1647 26.7268 48.3059 26.7268H48.7296Z" fill="#686868"/>
<path d="M12.1532 22.7661H9.32837V24.0372H10.0346V24.4609C9.61085 26.862 6.36232 27.0033 6.36232 27.0033C3.11379 26.862 2.40759 23.896 2.40759 22.7661C2.40759 21.7774 2.26634 18.3876 6.22107 17.9639C10.1758 17.5402 11.1645 21.6361 11.1645 21.6361V19.3763C8.33967 15.4216 4.94991 16.5515 3.53751 17.1164C1.98387 17.8226 -0.840941 20.365 0.571461 24.4609C1.98386 28.5569 6.22107 28.2744 6.22107 28.2744C10.1758 27.8507 11.447 25.1671 11.8707 23.896L12.1532 22.7661Z" fill="#686868"/>
</svg>
