<svg width="159" height="27" viewBox="0 0 159 27" fill="none" xmlns="http://www.w3.org/2000/svg">
<path d="M0 11.3255C0 6.53484 3.48414 2.17969 8.92809 2.17969C10.4524 2.17969 11.9767 2.39745 13.0655 3.05072V5.66381C11.9767 4.79278 10.6702 4.35727 8.92809 4.35727C5.00845 4.35727 2.39535 7.40587 2.39535 11.1078C2.39535 14.8096 5.00845 17.8583 8.92809 17.8583C10.6702 17.8583 11.9767 17.4227 13.0655 16.5517V19.1648C11.9767 19.8181 10.4524 20.0358 8.92809 20.0358C3.48414 20.4713 0 16.3339 0 11.3255Z" fill="#686868"/>
<path d="M14.5938 13.939C14.5938 10.4549 17.2069 7.40625 20.9088 7.40625C24.6107 7.40625 27.2238 10.4549 27.2238 13.939C27.2238 17.4231 24.6107 20.4717 20.9088 20.4717C17.2069 20.254 14.5938 17.4231 14.5938 13.939ZM25.0462 13.939C25.0462 11.7614 23.5218 9.80158 21.1265 9.80158C18.7312 9.80158 17.2069 11.7614 17.2069 13.939C17.2069 16.1166 18.7312 18.0764 21.1265 18.0764C23.3041 18.0764 25.0462 16.1166 25.0462 13.939Z" fill="#686868"/>
<path d="M40.9358 7.624V20.0362H38.5404V18.2941C37.8871 19.3829 36.5806 20.254 34.8386 20.254C32.4432 20.254 30.2656 18.5119 30.2656 14.5923V7.40625H32.661V14.1567C32.661 16.5521 33.9675 17.8586 35.7096 17.8586C37.4516 17.8586 38.7582 16.5521 38.7582 14.1567V7.40625H40.9358V7.624Z" fill="#686868"/>
<path d="M50.5191 7.40625V10.2371C48.777 10.0193 46.8172 10.8904 46.8172 13.5035V20.254H44.4219V7.84176H46.8172V10.0193C47.6883 8.49503 48.777 7.40625 50.5191 7.40625Z" fill="#686868"/>
<path d="M51.6172 18.2951L53.1415 16.5531C54.0126 17.2063 54.8836 18.0774 56.1901 18.0774C57.2789 18.0774 57.9322 17.4241 57.9322 16.7708C57.9322 14.3755 52.0527 15.2465 52.0527 11.1091C52.0527 9.1493 53.577 7.625 55.9723 7.625C57.7144 7.625 59.2388 8.49604 59.892 9.36707L58.5855 11.1091C57.9322 10.6736 57.0611 9.80258 55.9723 9.80258C55.1013 9.80258 54.4481 10.2381 54.4481 11.1091C54.4481 13.2867 60.3275 12.6334 60.3275 16.7708C60.3275 18.7306 58.5854 20.4727 55.9723 20.4727C54.448 20.255 52.706 19.6017 51.6172 18.2951Z" fill="#686868"/>
<path d="M74.2668 14.7973H64.6854C65.1209 16.7571 66.6453 18.0636 68.8228 18.0636C70.5649 18.0636 71.6537 17.6281 72.9602 16.7571V19.1524C71.8714 20.0235 70.3472 20.459 68.8228 20.459C64.9032 20.459 62.5078 17.4104 62.5078 13.9262C62.5078 10.4421 64.9032 7.61125 68.6051 7.61125C72.307 7.3935 74.4846 10.8776 74.2668 14.7973ZM64.6854 12.8374H71.6537C71.2182 11.0954 70.1294 9.78883 68.1695 9.78883C66.4275 9.78883 65.1209 11.0954 64.6854 12.8374Z" fill="#686868"/>
<path d="M100.172 12.638C100.172 7.84736 103.656 3.49219 109.1 3.49219C110.624 3.49219 112.149 3.70995 113.237 4.36322V6.97631C112.149 6.10528 110.842 5.66977 109.1 5.66977C105.18 5.66977 102.567 8.71837 102.567 12.4203C102.567 16.1221 105.18 19.1708 109.1 19.1708C110.842 19.1708 112.149 18.7352 113.237 17.8642V20.4773C112.149 21.1306 110.624 21.3483 109.1 21.3483C103.656 21.5661 100.172 17.4287 100.172 12.638Z" fill="#686868"/>
<path d="M127.177 8.71094V21.1231H124.781V19.1633C123.91 20.4699 122.386 21.3409 120.426 21.3409C116.942 21.3409 114.547 18.51 114.547 15.0259C114.547 11.324 116.942 8.71094 120.426 8.71094C122.168 8.71094 123.693 9.58197 124.781 10.8885V8.71094H127.177ZM124.781 15.0259C124.781 12.8483 123.257 10.8885 120.862 10.8885C118.684 10.8885 116.942 12.6306 116.942 15.0259C116.942 17.4213 118.467 19.1633 120.862 19.1633C123.257 19.1633 124.781 17.2035 124.781 15.0259Z" fill="#686868"/>
<path d="M136.98 8.49219V11.323C135.238 11.1053 133.278 11.9763 133.278 14.5894V21.3399H130.883V8.70994H133.278V10.8875C133.931 9.58097 135.238 8.49219 136.98 8.49219Z" fill="#686868"/>
<path d="M145.027 8.49219V11.323C143.285 11.1053 141.325 11.9763 141.325 14.5894V21.3399H138.93V8.70994H141.325V10.8875C142.196 9.58097 143.503 8.49219 145.027 8.49219Z" fill="#686868"/>
<path d="M158.31 8.71094L151.124 26.3493H148.728L150.906 21.1231L145.68 8.71094H148.293L151.995 18.51L155.914 8.71094H158.31Z" fill="#686868"/>
<path d="M94.7302 3.70188C94.7302 3.70188 94.7302 1.08879 94.7302 0.871035H93.4236V3.70188V21.7758C93.4236 23.7356 91.8993 25.2599 89.9395 25.2599C88.4152 25.2599 87.1086 24.1711 86.6731 22.8646V5.00844C86.6731 4.35517 86.4554 3.70189 86.2377 3.04861C86.0199 2.39534 85.5844 1.95981 85.1489 1.5243C84.7133 1.08878 84.2778 0.653267 83.6245 0.435509C82.9713 0.217751 82.318 0 81.6647 0C81.0114 0 80.3582 0.217751 79.7049 0.435509C79.0516 0.653267 78.6161 1.08878 78.1806 1.5243C77.7451 1.95981 77.3096 2.39534 77.0918 3.04861C76.874 3.70189 76.6562 4.35517 76.6562 5.00844V23.0823C76.6562 23.0823 76.6562 25.6954 76.6562 25.9132H77.9628V23.0823V5.00844C77.9628 3.04862 79.4871 1.5243 81.447 1.5243C82.9713 1.5243 84.2778 2.6131 84.7133 3.91965V21.7758C84.7133 22.4291 84.9311 23.0823 85.1489 23.7356C85.3666 24.3889 85.8021 24.8244 86.2377 25.2599C86.6732 25.6954 87.1086 26.1309 87.7619 26.3487C88.4152 26.5665 89.0685 26.7842 89.7217 26.7842C90.375 26.7842 91.0283 26.5665 91.6816 26.3487C92.3349 26.1309 92.7703 25.6954 93.2059 25.2599C93.6414 24.8244 94.0769 24.3889 94.2947 23.7356C94.5124 23.0823 94.7302 22.4291 94.7302 21.7758V3.70188Z" fill="#686868"/>
<path d="M84.7106 5.2293V25.0453C84.4928 23.7387 83.404 22.8677 82.0974 22.8677C80.7909 22.8677 79.7021 23.7387 79.4844 25.0453V5.2293C79.4844 3.70499 80.7909 2.39844 82.3152 2.39844C83.404 2.39844 84.7106 3.70499 84.7106 5.2293Z" fill="#686868"/>
<path d="M87.3281 21.9957V2.17969C87.5459 3.48624 88.6346 4.35727 89.9412 4.35727C91.2477 4.35727 92.3365 3.48624 92.5543 2.17969V21.9957C92.5543 23.52 91.2477 24.8265 89.7234 24.8265C88.6346 24.6088 87.3281 23.52 87.3281 21.9957Z" fill="#686868"/>
</svg>
