<svg width="136" height="41" viewBox="0 0 136 41" fill="none" xmlns="http://www.w3.org/2000/svg">
<path d="M44.1562 28.195L49.8728 0.59737C49.8728 0.400245 50.07 0.203125 50.4643 0.203125H54.9982C55.3924 0.203125 55.5895 0.597367 55.5895 0.794493L49.8728 28.3921C49.8728 28.5892 49.6757 28.7863 49.2815 28.7863H44.7476C44.3534 28.7863 44.1562 28.5892 44.1562 28.195Z" fill="#686868"/>
<path d="M74.9084 20.0986H61.7009C61.5038 20.0986 61.1096 20.2957 61.1096 20.69C61.1096 22.0699 61.5039 23.2526 62.2924 24.0411C63.0809 24.8296 64.0665 25.2239 65.2493 25.2239C67.0234 25.2239 68.4033 24.4354 69.3889 22.6612C69.586 22.4641 69.7831 22.4641 69.9802 22.4641L73.9228 23.0555C74.317 23.0555 74.5142 23.4497 74.317 23.844C73.3314 25.6181 72.1487 26.8009 70.7688 27.7865C69.1918 28.7721 67.2206 29.3635 65.2493 29.3635C62.4895 29.3635 60.124 28.575 58.547 26.8009C56.7729 25.0267 55.9844 22.6612 55.9844 19.7043C55.9844 16.9446 56.7729 14.382 58.3499 12.2136C60.5183 9.2567 63.4751 7.67969 67.6147 7.67969C70.1773 7.67969 72.1487 8.4682 73.7257 10.0452C75.3027 11.6222 75.894 13.7906 75.894 16.5503C75.894 17.7331 75.6969 18.9158 75.4997 19.7043C75.3026 19.9015 75.1055 20.0986 74.9084 20.0986ZM70.1774 16.7475C70.3746 16.7475 70.7688 16.5503 70.7688 16.1561C70.7688 14.5791 70.3745 13.3963 69.7832 12.6078C68.9947 11.8193 68.2061 11.4251 67.0234 11.4251C65.8406 11.4251 64.855 11.8193 63.8694 12.8049C63.0809 13.5935 62.4895 14.5791 62.0952 16.1561C62.0952 16.5503 62.2923 16.7475 62.6866 16.7475H70.1774Z" fill="#686868"/>
<path d="M97.1974 20.0986H83.9901C83.793 20.0986 83.3987 20.2957 83.3987 20.69C83.3987 22.0699 83.793 23.2526 84.5815 24.0411C85.37 24.8296 86.3556 25.2239 87.5384 25.2239C89.3125 25.2239 90.6923 24.4354 91.678 22.6612C91.8751 22.4641 92.0722 22.4641 92.2693 22.4641L96.2118 23.0555C96.6061 23.0555 96.8032 23.4497 96.6061 23.844C95.6205 25.6181 94.4377 26.8009 93.0579 27.7865C91.4809 28.7721 89.5096 29.3635 87.5384 29.3635C84.7786 29.3635 82.4131 28.575 80.836 26.8009C79.0619 25.0267 78.2734 22.6612 78.2734 19.7043C78.2734 16.9446 79.062 14.382 80.639 12.2136C82.8074 9.2567 85.7643 7.67969 89.9039 7.67969C92.4665 7.67969 94.4377 8.4682 96.0147 10.0452C97.5917 11.6222 98.1831 13.7906 98.1831 16.5503C98.1831 17.7331 97.986 18.9158 97.7889 19.7043C97.5918 19.9015 97.3946 20.0986 97.1974 20.0986ZM92.2693 16.7475C92.4664 16.7475 92.8608 16.5503 92.8608 16.1561C92.8608 14.5791 92.4665 13.3963 91.8752 12.6078C91.2838 11.8193 90.2981 11.4251 89.1153 11.4251C87.9326 11.4251 86.947 11.8193 85.9614 12.8049C85.1729 13.5935 84.5815 14.5791 84.1872 16.1561C84.1872 16.5503 84.3843 16.7475 84.7786 16.7475H92.2693Z" fill="#686868"/>
<path d="M101.125 11.6233L101.716 8.46926C101.716 8.27214 101.914 8.07502 102.308 8.07502H104.279C104.476 8.07502 104.673 7.87788 104.87 7.68076L105.462 4.921C105.462 4.72387 105.659 4.72388 105.659 4.52675L110.784 1.37275C111.178 1.17562 111.573 1.56986 111.573 1.96411L110.39 7.28651C110.39 7.68077 110.587 7.87788 110.981 7.87788H113.15C113.544 7.87788 113.741 8.27214 113.741 8.46926L113.15 11.6233C113.15 11.8204 112.953 12.0175 112.558 12.0175H109.996C109.799 12.0175 109.601 12.2147 109.404 12.4118L107.63 20.691C107.236 22.2681 107.236 23.2537 107.236 23.4508C107.236 23.8451 107.433 24.2393 107.63 24.4364C107.827 24.6336 108.419 24.8307 109.207 24.8307C109.404 24.8307 109.799 24.8307 110.39 24.8307C110.784 24.8307 110.981 25.0278 110.981 25.4221L110.39 28.5761C110.39 28.7732 110.193 28.9703 109.996 28.9703C109.207 29.1675 108.222 29.1675 107.433 29.1675C105.462 29.1675 104.082 28.7732 103.096 27.9847C102.111 27.1962 101.716 26.2106 101.716 24.8307C101.716 24.2393 101.914 22.6623 102.505 20.4939L104.082 12.806C104.082 12.4118 103.885 12.2147 103.491 12.2147H101.914C101.322 12.2147 101.125 11.8204 101.125 11.6233Z" fill="#686868"/>
<path d="M113.75 20.0926C113.75 16.1501 114.736 13.1932 116.904 10.8277C119.072 8.46218 121.832 7.47656 125.38 7.47656C128.337 7.47656 130.9 8.26507 132.477 10.0392C134.251 11.8133 135.04 13.9817 135.04 16.9386C135.04 20.2897 134.054 23.2466 131.886 25.6121C129.717 27.9776 126.957 29.3575 123.212 29.3575C121.241 29.3575 119.467 28.9633 118.087 28.1747C116.51 27.3862 115.524 26.2035 114.736 24.8236C114.144 23.4437 113.75 21.8667 113.75 20.0926ZM129.717 16.1501C129.717 14.7702 129.323 13.7846 128.534 12.9961C127.746 12.2076 126.76 11.8133 125.578 11.8133C124.395 11.8133 123.212 12.2076 122.424 12.9961C121.438 13.7846 120.846 14.7702 120.255 16.3472C119.664 17.7271 119.467 19.107 119.467 20.2897C119.467 21.8667 119.861 23.0495 120.649 23.838C121.438 24.6265 122.424 25.2179 123.606 25.2179C125.183 25.2179 126.366 24.6265 127.549 23.2466C128.929 21.0782 129.717 18.9099 129.717 16.1501Z" fill="#686868"/>
<path d="M0 37.4545L16.1643 33.9062L15.3758 36.0746L0 37.4545Z" fill="#686868"/>
<path d="M7.88281 25.0416L19.7103 23.0703L19.119 24.8444L7.88281 25.0416Z" fill="#686868"/>
<path d="M9.85156 30.3582L17.7366 28.7812L17.3423 30.3582H9.85156Z" fill="#686868"/>
<path d="M23.2647 0.985628L17.9424 19.3183C17.9424 19.7126 18.1395 20.1068 18.7308 19.9097L22.4763 18.9241C22.8705 18.7269 23.2647 19.3183 23.0676 19.7126C21.6877 23.2608 17.1539 34.2999 16.5625 38.8338C16.5625 38.8338 24.0533 22.6694 38.2463 19.5154C38.6406 19.5154 39.0347 19.1212 39.0347 18.7269L40.0204 13.9959C40.2175 13.4046 39.6261 12.8132 39.0347 12.8132L29.7699 13.7988C29.3757 13.7988 28.9813 13.4046 29.1785 13.0103L30.3613 7.49078L45.54 6.70227L46.7227 1.18277C46.9198 0.591389 46.3284 0 45.7371 0L23.2647 0.985628Z" fill="#686868"/>
<path d="M21.6815 38.8271C21.4843 38.63 21.4844 38.4329 21.4844 38.2358C21.4844 38.2358 21.4844 38.2358 21.4844 38.0386V37.8415H22.0757V38.0386V38.2358H22.2728C22.2728 38.2358 22.47 38.2358 22.47 38.0386C22.47 38.0386 22.6671 37.8415 22.6671 37.6444V37.4472C22.6671 37.4472 22.4699 37.2501 22.2728 37.053C22.0757 36.8559 22.0758 36.8559 21.8787 36.6588C21.8787 36.6588 21.6815 36.4616 21.6815 36.2645C21.6815 36.0674 21.6815 36.0674 21.6815 35.8703C21.6815 35.6731 21.6815 35.476 21.8787 35.2789C22.0758 35.0817 22.0757 34.8846 22.2728 34.8846C22.4699 34.6875 22.6672 34.6875 22.8643 34.6875C23.0614 34.6875 23.4556 34.6875 23.6527 34.8846C23.8498 35.0817 23.8499 35.2789 23.8499 35.476C23.8499 35.476 23.8499 35.476 23.8499 35.6731V35.8703H23.2584V35.6731V35.476H23.0614C23.0614 35.476 22.8643 35.476 22.8643 35.6731C22.8643 35.6731 22.6671 35.8702 22.6671 36.0674V36.2645C22.6671 36.2645 22.8642 36.4616 23.0614 36.6588C23.2585 36.8559 23.4556 36.8559 23.4556 37.053C23.4556 37.053 23.6527 37.2501 23.6527 37.4472C23.6527 37.6444 23.6527 37.6444 23.6527 37.8415C23.6527 37.8415 23.6527 37.8415 23.6527 38.0386C23.6527 38.4329 23.4556 38.63 23.2584 38.8271C23.0613 39.0243 22.6671 39.2214 22.47 39.2214C22.0758 39.0243 21.8786 39.0243 21.6815 38.8271Z" fill="#686868"/>
<path d="M25.0408 38.8319C24.8437 38.6348 24.8438 38.4376 24.8438 38.2405V38.0434L25.0408 36.8606C25.0408 36.6635 25.238 36.2692 25.4351 36.0721C25.6322 35.875 25.8293 35.875 26.2235 35.875C26.6178 35.875 26.815 35.875 27.0121 36.0721C27.2092 36.2692 27.2092 36.4664 27.2092 36.6635C27.2092 36.6635 27.2092 36.6635 27.2092 36.8606L27.0121 38.0434C27.0121 38.4376 26.8149 38.6348 26.6178 38.8319C26.4207 39.029 26.2236 39.029 25.8294 39.029C25.4351 39.029 25.238 39.029 25.0408 38.8319ZM26.0265 38.2405C26.0265 38.2405 26.0264 38.0434 26.2235 38.0434L26.4207 37.0578V36.8606H26.2235H26.0265C26.0265 36.8606 26.0265 37.0578 25.8294 37.0578L25.6322 38.0434V38.2405H25.8294H26.0265Z" fill="#686868"/>
<path d="M28 39.0206L28.3943 35.0781H28.9856L28.5914 39.0206H28Z" fill="#686868"/>
<path d="M31.5283 36.0625C31.7255 36.0625 31.7255 36.0625 31.5283 36.0625H32.3169L31.9226 38.8223H31.3313C31.1341 39.0194 30.937 39.0194 30.7399 39.0194C30.5428 39.0194 30.3456 39.0194 30.3456 38.8223C30.1485 38.6251 30.1484 38.6251 30.1484 38.2309C30.1484 38.2309 30.1484 38.2309 30.1484 38.0338L30.3456 36.0625H30.937L30.7399 38.0338V38.2309C30.7399 38.2309 30.7399 38.2309 30.937 38.2309H31.1341C31.1341 38.2309 31.1341 38.0338 31.3313 38.0338L31.5283 36.0625Z" fill="#686868"/>
<path d="M34.8955 36.6593H34.5013L34.3042 38.0392V38.2363C34.3042 38.2363 34.3041 38.2363 34.5013 38.2363V38.8277H34.3042C34.107 38.8277 33.9099 38.8277 33.7128 38.6306C33.5157 38.6306 33.5156 38.4334 33.5156 38.2363C33.5156 38.2363 33.5156 38.2363 33.5156 38.0392L33.7128 36.4622H33.5156V36.0679H33.7128V35.4766H34.3042V36.0679H34.6985L34.8955 36.6593Z" fill="#686868"/>
<path d="M35.8906 39.0303L36.2849 36.2705H36.8763L36.482 39.0303H35.8906ZM36.2849 35.6791L36.0877 35.482C36.0877 35.2849 36.0878 35.2849 36.2849 35.0877C36.2849 35.0877 36.482 34.8906 36.6792 34.8906C36.8763 34.8906 36.8763 34.8906 36.8763 35.0877L37.0733 35.2849C37.0733 35.482 37.0734 35.482 36.8763 35.6791C36.8763 35.8763 36.6791 35.8763 36.482 35.8763C36.482 35.6791 36.2849 35.6791 36.2849 35.6791Z" fill="#686868"/>
<path d="M38.2363 38.8319C38.0391 38.6348 38.0391 38.4376 38.0391 38.2405V38.0434L38.2363 36.8606C38.2363 36.6635 38.4334 36.2692 38.6305 36.0721C38.8277 35.875 39.0247 35.875 39.419 35.875C39.8132 35.875 40.0104 35.875 40.2075 36.0721C40.4046 36.2692 40.4046 36.4664 40.4046 36.6635C40.4046 36.6635 40.4046 36.6635 40.4046 36.8606L40.2075 38.0434C40.2075 38.4376 40.0104 38.6348 39.8132 38.8319C39.6161 39.029 39.4189 39.029 39.0247 39.029C38.6304 39.029 38.2363 39.029 38.2363 38.8319ZM39.2219 38.2405C39.2219 38.2405 39.2218 38.0434 39.419 38.0434L39.6162 37.0578V36.8606H39.419H39.2219C39.2219 36.8606 39.2218 37.0578 39.0247 37.0578L38.8276 38.0434V38.2405H39.0247C39.0247 38.4376 39.0248 38.2405 39.2219 38.2405Z" fill="#686868"/>
<path d="M43.3756 36.265C43.5727 36.4622 43.5728 36.6593 43.5728 36.8564V37.0535L43.3756 39.0248H42.7843L42.9813 37.2507C42.9813 37.0535 42.9814 37.0535 42.7843 37.0535H42.5872C42.5872 37.0535 42.5871 37.2507 42.39 37.2507L42.1929 39.0248H41.6016L41.9957 36.265H42.5872V36.4622C42.7843 36.265 42.9814 36.265 43.1785 36.265C42.9814 36.0679 43.1785 36.0679 43.3756 36.265Z" fill="#686868"/>
<path d="M44.7518 38.8319C44.5546 38.6348 44.5547 38.4376 44.5547 38.2405C44.5547 38.2405 44.5547 38.2405 44.5547 38.0434H45.146V38.2405H45.3431H45.5403V38.0434V37.8463C45.5403 37.8463 45.3431 37.8463 45.3431 37.6491H45.146C44.9489 37.6491 44.7518 37.452 44.7518 37.452C44.5546 37.2549 44.5547 37.2549 44.5547 36.8606C44.5547 36.8606 44.5547 36.8606 44.5547 36.6635C44.5547 36.4664 44.7517 36.0721 44.9488 36.0721C45.146 35.875 45.3431 35.875 45.7374 35.875C45.9345 35.875 46.3287 35.875 46.3287 36.0721C46.5259 36.2692 46.5259 36.4664 46.5259 36.6635C46.5259 36.6635 46.5259 36.6635 46.5259 36.8606H45.9345V36.6635C45.9345 36.6635 45.9345 36.6635 45.7374 36.6635H45.5403V36.8606C45.5403 36.8606 45.5403 37.0578 45.7374 37.0578C45.7374 37.0578 45.9345 37.0577 46.1317 37.2549C46.3288 37.2549 46.5259 37.452 46.723 37.452C46.9201 37.6491 46.9201 37.6491 46.9201 37.8463C46.9201 38.2405 46.7231 38.4376 46.5259 38.6348C46.3288 38.8319 46.1316 38.8319 45.7374 38.8319C45.146 39.029 44.9489 39.029 44.7518 38.8319Z" fill="#686868"/>
<path d="M51.2471 36.0661H52.0356L51.6414 38.8259H51.05V38.6288C50.8529 38.8259 50.6558 38.8259 50.4587 38.8259C50.2615 38.8259 50.0644 38.8259 50.0644 38.6288C49.8673 38.4316 49.8672 38.2345 49.8672 38.0374V37.8403L50.0644 36.6575C50.0644 36.2633 50.2615 36.0661 50.2615 35.869C50.4586 35.6719 50.6557 35.6719 50.8528 35.6719C51.0499 35.6719 51.2471 35.6719 51.2471 35.869V36.0661ZM50.8528 38.2345C50.8528 38.2345 50.8529 38.0374 51.05 38.0374L51.2471 37.0517C51.2471 36.8546 51.2471 36.8546 51.2471 36.8546H51.05H50.8528C50.8528 36.8546 50.8529 37.0517 50.6557 37.0517L50.4587 38.0374C50.4587 38.2345 50.4587 38.2345 50.4587 38.2345C50.4587 38.2345 50.4586 38.4316 50.8528 38.2345Z" fill="#686868"/>
<path d="M54.4112 36.6593H54.0169L53.8197 38.0392V38.2363C53.8197 38.2363 53.8198 38.2363 54.0169 38.2363V38.8277H53.8197C53.6226 38.8277 53.4255 38.8277 53.2283 38.6306C53.0312 38.6306 53.0313 38.4334 53.0313 38.2363C53.0313 38.2363 53.0313 38.2363 53.0313 38.0392L53.2283 36.4622H53.0313V36.0679H53.2283V35.4766H53.8197V36.0679H54.214L54.4112 36.6593Z" fill="#686868"/>
<path d="M57.5721 38.8271C57.375 38.63 57.375 38.4329 57.375 38.2358C57.375 38.2358 57.375 38.2358 57.375 38.0386V37.8415H57.9664V38.0386V38.2358H58.1634C58.1634 38.2358 58.3606 38.2358 58.3606 38.0386C58.3606 38.0386 58.5577 37.8415 58.5577 37.6444V37.4472C58.5577 37.4472 58.3606 37.2501 58.1634 37.053C57.9663 36.8559 57.9663 36.8559 57.7692 36.6588C57.7692 36.6588 57.5721 36.4616 57.5721 36.2645C57.5721 36.0674 57.375 36.0674 57.375 35.8703C57.375 35.6731 57.375 35.476 57.5721 35.2789C57.7692 35.0817 57.7692 34.8846 57.9664 34.8846C58.1635 34.6875 58.3606 34.6875 58.5577 34.6875C58.7548 34.6875 59.1491 34.6875 59.3463 34.8846C59.5434 35.0817 59.5433 35.2789 59.5433 35.476C59.5433 35.476 59.5433 35.476 59.5433 35.6731V35.8703H58.952V35.6731V35.476H58.7548C58.7548 35.476 58.5577 35.476 58.5577 35.6731C58.5577 35.6731 58.3606 35.8702 58.3606 36.0674V36.2645C58.3606 36.2645 58.5577 36.4616 58.7548 36.6588C58.9519 36.8559 59.1491 36.8559 59.1491 37.053C59.1491 37.053 59.3463 37.2501 59.3463 37.4472C59.3463 37.6444 59.3463 37.6444 59.3463 37.8415C59.3463 37.8415 59.3463 37.8415 59.3463 38.0386C59.3463 38.4329 59.1491 38.63 58.952 38.8271C58.7549 39.0243 58.3606 39.2214 58.1634 39.2214C57.9663 39.0243 57.7692 39.0243 57.5721 38.8271Z" fill="#686868"/>
<path d="M62.6822 36.2596C62.8793 36.4567 62.8794 36.6539 62.8794 36.851V37.0481L62.6822 38.2309C62.6822 38.6251 62.4851 38.8223 62.4851 39.0194C62.288 39.2165 62.0909 39.2165 61.8938 39.2165H61.6966C61.6966 39.2165 61.4995 39.2165 61.4995 39.0194L61.3024 40.2021H60.7109L61.1052 36.2596H61.6966C61.8937 36.0625 62.0909 36.0625 62.288 36.0625C62.4852 36.0625 62.6822 36.0625 62.6822 36.2596ZM62.0908 36.851C62.0908 36.6539 62.0908 36.6539 62.0908 36.851C61.8937 36.851 61.6966 36.851 61.6966 36.851C61.6966 36.851 61.6966 37.0481 61.4995 37.0481V38.0338V38.2309H61.6966H61.8938C61.8938 38.2309 61.8937 38.0338 62.0908 38.0338L62.288 37.0481C62.0909 36.851 62.0908 36.851 62.0908 36.851Z" fill="#686868"/>
<path d="M66.0355 37.8403H64.8528V38.0374V38.2345H65.0499H65.2471C65.2471 38.2345 65.247 38.0374 65.4442 38.0374H66.0355C66.0355 38.2345 65.8384 38.6288 65.6412 38.6288C65.4441 38.8259 65.2471 38.8259 64.8528 38.8259C64.4586 38.8259 64.2614 38.8259 64.0643 38.6288C63.8671 38.4316 63.8672 38.2345 63.8672 38.0374C63.8672 38.0374 63.8672 38.0374 63.8672 37.8403L64.0643 36.6575C64.0643 36.4604 64.2614 36.0661 64.4585 35.869C64.6557 35.6719 64.8528 35.6719 65.2471 35.6719C65.4442 35.6719 65.8384 35.6719 66.0355 35.869C66.2326 36.0661 66.2327 36.2632 66.2327 36.4604C66.2327 36.4604 66.2327 36.4604 66.2327 36.6575L66.0355 37.8403ZM65.0499 36.8546C65.0499 36.8546 65.0499 37.0517 64.8528 37.0517V37.2489H65.2471V37.0517V36.8546H65.0499C65.0499 36.6575 65.0499 36.6575 65.0499 36.8546Z" fill="#686868"/>
<path d="M69.3949 37.8403H68.2122V38.0374V38.2345H68.4093H68.6063C68.6063 38.2345 68.6064 38.0374 68.8035 38.0374H69.3949C69.3949 38.2345 69.1977 38.6288 69.0006 38.6288C68.8035 38.8259 68.6064 38.8259 68.2122 38.8259C67.8179 38.8259 67.6208 38.8259 67.4236 38.6288C67.2265 38.4316 67.2266 38.2345 67.2266 38.0374C67.2266 38.0374 67.2266 38.0374 67.2266 37.8403L67.4236 36.6575C67.4236 36.4604 67.6208 36.0661 67.8179 35.869C68.015 35.6719 68.2121 35.6719 68.6063 35.6719C69.0006 35.6719 69.1978 35.6719 69.3949 35.869C69.592 36.0661 69.592 36.2632 69.592 36.4604C69.592 36.4604 69.592 36.4604 69.592 36.6575L69.3949 37.8403ZM68.2122 36.8546C68.2122 36.8546 68.2121 37.0517 68.015 37.0517V37.2489H68.4093V37.0517V36.8546H68.2122C68.4093 36.6575 68.4093 36.6575 68.2122 36.8546Z" fill="#686868"/>
<path d="M72.1396 35.0781H72.928L72.5338 39.0206H71.9424C71.7453 39.2178 71.5482 39.2178 71.3511 39.2178C71.1539 39.2178 70.9568 39.2178 70.7597 39.0206C70.5626 38.8235 70.5625 38.6264 70.5625 38.4293V38.2321L70.7597 37.0494C70.7597 36.6551 70.9568 36.458 70.9568 36.2609C71.1539 36.0637 71.351 36.0638 71.5481 36.0638H71.7453C71.7453 36.0638 71.9424 36.0637 71.9424 36.2609L72.1396 35.0781ZM71.7453 38.2321L71.9424 36.8523V36.6551C71.9424 36.6551 71.9425 36.6551 71.7453 36.6551H71.5481C71.5481 36.6551 71.5482 36.8523 71.3511 36.8523V38.035V38.2321C71.3511 38.2321 71.3511 38.4293 71.7453 38.2321C71.5482 38.4293 71.5482 38.4293 71.7453 38.2321Z" fill="#686868"/>
<path d="M73.7188 39.6143L73.9158 38.2344H74.5072L74.113 39.6143H73.7188Z" fill="#686868"/>
<path d="M78.0644 38.8271C77.8673 38.63 77.8672 38.4329 77.8672 38.2358C77.8672 38.2358 77.8672 38.2358 77.8672 38.0386V37.8415H78.4585V38.0386V38.2358H78.6557C78.6557 38.2358 78.8528 38.2358 78.8528 38.0386C78.8528 38.0386 79.05 37.8415 79.05 37.6444V37.4472C79.05 37.4472 78.8529 37.2501 78.6557 37.053C78.4586 36.8559 78.4586 36.8559 78.2615 36.6588C78.2615 36.6588 78.0644 36.4616 78.0644 36.2645C78.0644 36.0674 78.0644 36.0674 78.0644 35.8703C78.0644 35.6731 78.0643 35.476 78.2615 35.2789C78.4586 35.0817 78.4586 34.8846 78.6557 34.8846C78.8529 34.6875 79.05 34.6875 79.2471 34.6875C79.4442 34.6875 79.8385 34.6875 80.0356 34.8846C80.2328 35.0817 80.2327 35.2789 80.2327 35.476C80.2327 35.476 80.2327 35.476 80.2327 35.6731V35.8703H79.6414V35.6731V35.476H79.4442C79.4442 35.476 79.2471 35.476 79.2471 35.6731C79.2471 35.6731 79.05 35.8702 79.05 36.0674V36.2645C79.05 36.2645 79.247 36.4616 79.4442 36.6588C79.6413 36.8559 79.8384 36.8559 79.8384 37.053C79.8384 37.053 80.0356 37.2501 80.0356 37.4472C80.0356 37.6444 80.0356 37.6444 80.0356 37.8415C80.0356 37.8415 80.0356 37.8415 80.0356 38.0386C80.0356 38.4329 79.8385 38.63 79.6414 38.8271C79.4442 39.0243 79.0499 39.2214 78.8528 39.2214C78.4586 39.0243 78.2615 39.0243 78.0644 38.8271Z" fill="#686868"/>
<path d="M83.1918 37.8403H82.0091V38.0374V38.2345H82.2061H82.4032C82.4032 38.2345 82.4033 38.0374 82.6004 38.0374H83.1918C83.1918 38.2345 82.9946 38.6288 82.7975 38.6288C82.6004 38.8259 82.4033 38.8259 82.0091 38.8259C81.6148 38.8259 81.4176 38.8259 81.2205 38.6288C81.0234 38.4316 81.0234 38.2345 81.0234 38.0374C81.0234 38.0374 81.0234 38.0374 81.0234 37.8403L81.2205 36.6575C81.2205 36.4604 81.4177 36.0661 81.6148 35.869C81.8119 35.6719 82.009 35.6719 82.4032 35.6719C82.7975 35.6719 82.9946 35.6719 83.1918 35.869C83.3889 36.0661 83.3888 36.2632 83.3888 36.4604C83.3888 36.4604 83.3888 36.4604 83.3888 36.6575L83.1918 37.8403ZM82.2061 36.8546C82.2061 36.8546 82.2062 37.0517 82.0091 37.0517V37.2489H82.4032V37.0517V36.8546H82.2061C82.2061 36.6575 82.2061 36.6575 82.2061 36.8546Z" fill="#686868"/>
<path d="M86.1414 36.0625L85.9443 36.851C85.9443 36.851 85.9442 36.851 85.7471 36.851H85.55C85.55 36.851 85.3528 36.851 85.3528 37.0481C85.3528 37.0481 85.1557 37.2452 85.1557 37.4424L84.9587 39.0194H84.3672L84.7615 36.2596H85.3528V36.4567C85.5499 36.2596 85.55 36.0625 85.9443 36.0625H86.1414Z" fill="#686868"/>
<path d="M87.5349 39.0194L87.1406 36.0625H87.9292V37.6395L88.3233 36.0625H89.1119L88.1263 38.8223L87.5349 39.0194Z" fill="#686868"/>
<path d="M90.2734 39.0303L90.6677 36.2705H91.2591L90.8649 39.0303H90.2734ZM90.6677 35.6791L90.4706 35.482C90.4706 35.2849 90.4706 35.2849 90.6677 35.0877C90.6677 35.0877 90.8649 34.8906 91.062 34.8906C91.2591 34.8906 91.2591 34.8906 91.2591 35.0877L91.4563 35.2849C91.4563 35.482 91.4562 35.482 91.2591 35.6791C91.2591 35.8763 91.062 35.8763 90.8649 35.8763C90.8649 35.6791 90.8648 35.6791 90.6677 35.6791Z" fill="#686868"/>
<path d="M92.6424 38.8319C92.4453 38.6348 92.4453 38.4376 92.4453 38.2405V38.0434L92.6424 36.8606C92.6424 36.6635 92.8395 36.2692 93.0367 36.0721C93.2338 35.875 93.431 35.875 93.8252 35.875C94.2195 35.875 94.4165 35.875 94.6136 36.0721C94.8108 36.2692 94.8108 36.4664 94.8108 36.6635C94.8108 36.6635 94.8108 36.6635 94.8108 36.8606V37.0578H94.2194V36.8606H94.0223H93.8252C93.8252 36.8606 93.8251 37.0578 93.628 37.0578L93.4309 38.0434V38.2405H93.628H93.8252C93.8252 38.2405 93.8252 38.0434 94.0223 38.0434H94.6136V38.2405C94.6136 38.4376 94.4165 38.8319 94.2194 38.8319C94.0222 39.029 93.8252 39.029 93.4309 39.029C93.0367 39.029 92.8395 39.029 92.6424 38.8319Z" fill="#686868"/>
<path d="M97.77 37.8403H96.5872V38.0374V38.2345H96.7844H96.9815C96.9815 38.2345 96.9814 38.0374 97.1785 38.0374H97.77C97.77 38.2345 97.5729 38.6288 97.3757 38.6288C97.1786 38.8259 96.9814 38.8259 96.5872 38.8259C96.1929 38.8259 95.9959 38.8259 95.7988 38.6288C95.6016 38.4316 95.6016 38.2345 95.6016 38.0374C95.6016 38.0374 95.6016 38.0374 95.6016 37.8403L95.7988 36.6575C95.7988 36.4604 95.9958 36.0661 96.1929 35.869C96.39 35.6719 96.5872 35.6719 96.9815 35.6719C97.1786 35.6719 97.5729 35.6719 97.77 35.869C97.9671 36.0661 97.9671 36.2632 97.9671 36.4604C97.9671 36.4604 97.9671 36.4604 97.9671 36.6575L97.77 37.8403ZM96.5872 36.8546C96.5872 36.8546 96.5872 37.0517 96.3901 37.0517V37.2489H96.7844V37.0517V36.8546H96.5872C96.7843 36.6575 96.7843 36.6575 96.5872 36.8546Z" fill="#686868"/>
<path d="M101.332 39.0194L100.938 36.0625H101.529V37.6395L101.923 36.0625H102.514V37.6395L102.909 36.0625H103.5L102.514 38.8223H101.923V37.4424L101.529 38.8223L101.332 39.0194Z" fill="#686868"/>
<path d="M105.062 39.0303L105.457 36.2705H106.048L105.654 39.0303H105.062ZM105.457 35.6791L105.26 35.482C105.26 35.2849 105.26 35.2849 105.457 35.0877C105.457 35.0877 105.654 34.8906 105.851 34.8906C106.048 34.8906 106.048 34.8906 106.048 35.0877L106.245 35.2849C106.245 35.482 106.245 35.482 106.048 35.6791C106.048 35.8763 105.851 35.8763 105.654 35.8763C105.654 35.6791 105.654 35.6791 105.457 35.6791Z" fill="#686868"/>
<path d="M108.614 36.6593H108.22L108.023 38.0392V38.2363C108.023 38.2363 108.023 38.2363 108.22 38.2363V38.8277H108.023C107.826 38.8277 107.629 38.8277 107.431 38.6306C107.234 38.6306 107.234 38.4334 107.234 38.2363C107.234 38.2363 107.234 38.2363 107.234 38.0392L107.431 36.4622H107.234V36.0679H107.431V35.4766H108.023V36.0679H108.417L108.614 36.6593Z" fill="#686868"/>
<path d="M111.766 36.2609C111.963 36.458 111.963 36.6551 111.963 36.8523V37.0494L111.766 39.0206H111.175L111.372 37.2465C111.372 37.0494 111.372 37.0494 111.175 37.0494H110.978C110.978 37.0494 110.978 37.2465 110.781 37.2465L110.584 39.0206H109.992L110.386 35.0781H110.978L110.781 36.2609C110.978 36.0637 111.175 36.0638 111.372 36.0638C111.372 36.0638 111.569 36.0637 111.766 36.2609Z" fill="#686868"/>
<path d="M116.497 36.0661H117.286L116.891 38.8259H116.3V38.6288C116.103 38.8259 115.906 38.8259 115.709 38.8259C115.511 38.8259 115.314 38.8259 115.314 38.6288C115.117 38.4316 115.117 38.2345 115.117 38.0374V37.8403L115.314 36.6575C115.314 36.2633 115.511 36.0661 115.511 35.869C115.709 35.6719 115.906 35.6719 116.103 35.6719C116.3 35.6719 116.497 35.6719 116.497 35.869V36.0661ZM116.103 38.2345C116.103 38.2345 116.103 38.0374 116.3 38.0374L116.497 37.0517C116.497 36.8546 116.497 36.8546 116.497 36.8546H116.3H116.103C116.103 36.8546 116.103 37.0517 115.906 37.0517L115.709 38.0374C115.709 38.2345 115.709 38.2345 115.709 38.2345C115.709 38.2345 115.906 38.4316 116.103 38.2345Z" fill="#686868"/>
<path d="M120.447 38.8271C120.25 38.63 120.25 38.4329 120.25 38.2358C120.25 38.2358 120.25 38.2358 120.25 38.0386V37.8415H120.841V38.0386V38.2358H121.039C121.039 38.2358 121.236 38.2358 121.236 38.0386C121.236 38.0386 121.433 37.8415 121.433 37.6444V37.4472C121.433 37.4472 121.236 37.2501 121.039 37.053C120.841 36.8559 120.841 36.8559 120.644 36.6588C120.644 36.6588 120.447 36.4616 120.447 36.2645C120.447 36.0674 120.25 36.0674 120.25 35.8703C120.25 35.6731 120.25 35.476 120.447 35.2789C120.644 35.0817 120.644 34.8846 120.841 34.8846C121.038 34.6875 121.236 34.6875 121.433 34.6875C121.63 34.6875 122.024 34.6875 122.221 34.8846C122.418 35.0817 122.418 35.2789 122.418 35.476C122.418 35.476 122.418 35.476 122.418 35.6731V35.8703H121.827V35.6731V35.476H121.63C121.63 35.476 121.433 35.476 121.433 35.6731C121.433 35.6731 121.236 35.8702 121.236 36.0674V36.2645C121.236 36.2645 121.433 36.4616 121.63 36.6588C121.827 36.8559 122.024 36.8559 122.024 37.053C122.024 37.053 122.221 37.2501 122.221 37.4472C122.221 37.6444 122.221 37.6444 122.221 37.8415C122.221 37.8415 122.221 37.8415 122.221 38.0386C122.221 38.4329 122.024 38.63 121.827 38.8271C121.63 39.0243 121.236 39.2214 121.039 39.2214C120.841 39.0243 120.644 39.0243 120.447 38.8271Z" fill="#686868"/>
<path d="M126.746 36.2596C126.943 36.4567 126.943 36.6539 126.943 36.851V37.0481L126.746 39.0194H126.155L126.352 37.2453V37.0481C126.352 37.0481 126.352 37.0481 126.155 37.0481H125.958C125.958 37.0481 125.957 37.2453 125.76 37.2453L125.563 39.0194H124.972L125.169 37.2453V37.0481C125.169 37.0481 125.169 37.0481 124.972 37.0481H124.775C124.775 37.0481 124.775 37.2453 124.578 37.2453L124.381 39.0194H123.789L124.183 36.2596H124.775L124.972 36.0625H125.169C125.366 36.0625 125.563 36.2596 125.76 36.4567C125.76 36.2596 125.957 36.2596 126.155 36.2596C126.352 36.2596 126.352 36.2596 126.549 36.2596C126.549 36.0625 126.746 36.0625 126.746 36.2596Z" fill="#686868"/>
<path d="M127.938 39.0303L128.332 36.2705H128.923L128.529 39.0303H127.938C128.135 39.0303 128.135 39.0303 127.938 39.0303ZM128.529 35.6791L128.332 35.482C128.332 35.2849 128.332 35.2849 128.529 35.0877C128.529 35.0877 128.726 34.8906 128.923 34.8906C129.12 34.8906 129.12 34.8906 129.12 35.0877L129.317 35.2849C129.317 35.482 129.317 35.482 129.12 35.6791C129.12 35.8763 128.923 35.8763 128.726 35.8763C128.726 35.6791 128.529 35.6791 128.529 35.6791Z" fill="#686868"/>
<path d="M130.102 39.0206L130.496 35.0781H131.087L130.693 39.0206H130.102Z" fill="#686868"/>
<path d="M134.247 37.8403H133.064V38.0374V38.2345H133.261H133.458C133.458 38.2345 133.458 38.0374 133.655 38.0374H134.247C134.247 38.2345 134.049 38.6288 133.852 38.6288C133.655 38.8259 133.458 38.8259 133.064 38.8259C132.67 38.8259 132.472 38.8259 132.275 38.6288C132.078 38.4316 132.078 38.2345 132.078 38.0374C132.078 38.0374 132.078 38.0374 132.078 37.8403L132.275 36.6575C132.275 36.4604 132.472 36.0661 132.669 35.869C132.867 35.6719 133.064 35.6719 133.458 35.6719C133.655 35.6719 134.049 35.6719 134.247 35.869C134.444 36.0661 134.444 36.2632 134.444 36.4604C134.444 36.4604 134.444 36.4604 134.444 36.6575L134.247 37.8403ZM133.064 36.8546C133.064 36.8546 133.064 37.0517 132.867 37.0517V37.2489H133.261V37.0517V36.8546H133.064C133.261 36.6575 133.261 36.6575 133.064 36.8546Z" fill="#686868"/>
</svg>
