<svg width="345" height="355" viewBox="0 0 345 355" fill="none" xmlns="http://www.w3.org/2000/svg">
<path d="M74.9609 96.375H137.769C138.465 96.375 138.813 96.375 139.075 96.5638C139.337 96.7525 139.447 97.0825 139.667 97.7425L160.628 160.625" stroke="#222222" stroke-width="5" stroke-linecap="round"/>
<path d="M74.9609 96.375H137.769C138.465 96.375 138.813 96.375 139.075 96.5638C139.337 96.7525 139.447 97.0825 139.667 97.7425L160.628 160.625" stroke="url(#paint0_linear_1_438)" stroke-width="5" stroke-linecap="round"/>
<path d="M374.794 374.789H141.986C140.72 374.789 140.086 374.789 139.787 374.374C139.488 373.958 139.688 373.358 140.088 372.157L159.716 313.274C160.156 311.954 160.376 311.294 160.9 310.917C161.423 310.539 162.119 310.539 163.511 310.539H310.544" stroke="#222222" stroke-width="5" stroke-linecap="round" stroke-linejoin="round"/>
<path d="M374.794 374.789H141.986C140.72 374.789 140.086 374.789 139.787 374.374C139.488 373.958 139.688 373.358 140.088 372.157L159.716 313.274C160.156 311.954 160.376 311.294 160.9 310.917C161.423 310.539 162.119 310.539 163.511 310.539H310.544" stroke="url(#paint1_linear_1_438)" stroke-width="5" stroke-linecap="round" stroke-linejoin="round"/>
<path d="M351.051 310.542H184.677C183.397 310.542 182.758 310.542 182.257 310.211C181.756 309.881 181.504 309.293 181 308.117L119.581 164.807C118.772 162.918 118.367 161.974 118.812 161.299C119.256 160.625 120.284 160.625 122.339 160.625H433.87C436.169 160.625 437.318 160.625 437.752 161.372C438.185 162.119 437.615 163.117 436.474 165.113L354.524 308.526C353.962 309.51 353.681 310.001 353.216 310.271C352.75 310.542 352.184 310.542 351.051 310.542Z" stroke="#222222" stroke-width="5" stroke-linecap="round"/>
<path d="M351.051 310.542H184.677C183.397 310.542 182.758 310.542 182.257 310.211C181.756 309.881 181.504 309.293 181 308.117L119.581 164.807C118.772 162.918 118.367 161.974 118.812 161.299C119.256 160.625 120.284 160.625 122.339 160.625H433.87C436.169 160.625 437.318 160.625 437.752 161.372C438.185 162.119 437.615 163.117 436.474 165.113L354.524 308.526C353.962 309.51 353.681 310.001 353.216 310.271C352.75 310.542 352.184 310.542 351.051 310.542Z" stroke="url(#paint2_linear_1_438)" stroke-width="5" stroke-linecap="round"/>
<defs>
<linearGradient id="paint0_linear_1_438" x1="66.6056" y1="128.5" x2="161.427" y2="128.455" gradientUnits="userSpaceOnUse">
<stop stop-color="#8E2DE2"/>
<stop offset="1" stop-color="#4A00E0"/>
</linearGradient>
<linearGradient id="paint1_linear_1_438" x1="116.234" y1="342.664" x2="376.993" y2="342.323" gradientUnits="userSpaceOnUse">
<stop stop-color="#8E2DE2"/>
<stop offset="1" stop-color="#4A00E0"/>
</linearGradient>
<linearGradient id="paint2_linear_1_438" x1="86.4564" y1="235.583" x2="442.038" y2="235.311" gradientUnits="userSpaceOnUse">
<stop stop-color="#8E2DE2"/>
<stop offset="1" stop-color="#4A00E0"/>
</linearGradient>
</defs>
</svg>
