<svg width="42" height="42" viewBox="0 0 42 42" fill="none" xmlns="http://www.w3.org/2000/svg">
<path d="M26.9517 4.27589C26.9084 2.32475 25.3108 0.75 23.3494 0.75C21.5133 0.75 19.9963 2.13024 19.7741 3.90701C15.5538 4.51839 12.6262 5.57437 9.72185 8.76223C9.48201 9.02535 9.50089 9.43293 9.76402 9.67276C10.0284 9.91291 10.4357 9.89434 10.6749 9.63027C14.25 5.68368 17.5776 5.00085 22.4146 5.00085C31.9149 5.00085 39.6445 12.7299 39.6445 22.2302C39.6445 31.7306 31.9149 39.4596 22.4146 39.4596C15.8364 39.4596 11.75 37.6004 7.98696 31.9104C7.82896 31.5922 7.44245 31.4622 7.12266 31.6211C6.80414 31.7801 6.67446 32.1672 6.83373 32.4857C10.25 38.6004 15.3448 40.7487 22.4146 40.7487C32.6263 40.7487 40.9337 32.4412 40.9337 22.2302C40.9337 13.5841 34.9768 6.30465 26.9517 4.27589ZM21.1189 3.76306C21.3828 2.7738 22.2779 2.03917 23.3494 2.03917C24.5042 2.03917 25.4561 2.89057 25.6303 3.99691C24.585 3.81307 23.5117 3.71168 22.4146 3.71168C21.9807 3.71168 21.5491 3.73265 21.1189 3.76306Z" fill="white" stroke="white" stroke-width="1.5"/>
<path d="M22.413 35.7186C21.0828 35.7186 19.7697 35.526 18.5107 35.1458C18.1683 35.0447 17.8101 35.2361 17.7075 35.5767C17.6043 35.9175 17.7975 36.2773 18.1381 36.3802C19.5185 36.7966 20.9563 37.0078 22.413 37.0078C30.5618 37.0078 37.191 30.3788 37.191 22.2305C37.191 21.8746 36.9027 21.5859 36.5464 21.5859C36.1901 21.5859 35.9018 21.8746 35.9018 22.2305C35.9018 29.6678 29.8504 35.7186 22.413 35.7186Z" fill="white" stroke="white" stroke-width="1.5"/>
<path d="M3.88679 13.836H13.6833C14.0396 13.836 14.3279 13.5474 14.3279 13.1915C14.3279 12.8355 14.0396 12.5469 13.6833 12.5469H3.88679C3.5305 12.5469 3.24219 12.8355 3.24219 13.1915C3.24219 13.5474 3.5305 13.836 3.88679 13.836Z" fill="white" stroke="white" stroke-width="1.5"/>
<path d="M1.3946 21.0079H11.1905C11.5468 21.0079 11.8351 20.7193 11.8351 20.3633C11.8351 20.0074 11.5468 19.7188 11.1905 19.7188H1.3946C1.03831 19.7188 0.75 20.0074 0.75 20.3633C0.75 20.7193 1.03831 21.0079 1.3946 21.0079Z" fill="white" stroke="white" stroke-width="1.5"/>
<path d="M11.8351 28.1524C11.8351 27.7964 11.5468 27.5078 11.1905 27.5078H1.3946C1.03831 27.5078 0.75 27.7964 0.75 28.1524C0.75 28.5084 1.03831 28.797 1.3946 28.797H11.1905C11.5468 28.797 11.8351 28.5084 11.8351 28.1524Z" fill="white" stroke="white" stroke-width="1.5"/>
<path d="M16.2435 18.1374C15.9917 18.3892 15.9917 18.7971 16.2435 19.0489L21.7516 24.5565C21.8775 24.6824 22.0424 24.7453 22.2074 24.7453C22.3723 24.7453 22.5372 24.6824 22.6631 24.5565L32.2755 14.9441C32.5273 14.6923 32.5273 14.2844 32.2755 14.0326C32.0237 13.7808 31.6158 13.7808 31.364 14.0326L22.2074 23.1893L17.155 18.1374C16.9032 17.8856 16.4953 17.8856 16.2435 18.1374Z" fill="white" stroke="white" stroke-width="1.5"/>
</svg>
