<svg width="41" height="41" viewBox="0 0 41 41" fill="none" xmlns="http://www.w3.org/2000/svg">
<path d="M35.4611 0.350098H5.23889C2.54272 0.350098 0.350006 2.54281 0.350006 5.23899V35.4612C0.350006 38.1574 2.54272 40.3501 5.23889 40.3501H35.4611C38.1573 40.3501 40.35 38.1574 40.35 35.4612V5.23899C40.35 2.54281 38.1573 0.350098 35.4611 0.350098ZM24.35 3.01676V12.1279L20.8621 10.6748C20.6989 10.6071 20.5236 10.5723 20.35 10.5723C20.1764 10.5723 20.001 10.6071 19.8379 10.6748L16.35 12.1279V3.01676H24.35ZM37.6833 35.4612C37.6833 36.6869 36.6868 37.6834 35.4611 37.6834H5.23889C4.01321 37.6834 3.01667 36.6869 3.01667 35.4612V5.23899C3.01667 4.0133 4.01321 3.01676 5.23889 3.01676H13.6833V14.1279C13.6833 14.5741 13.9056 14.989 14.2771 15.2373C14.6486 15.4855 15.1173 15.5289 15.5288 15.3588L20.3501 13.3501L25.1715 15.3588C25.3364 15.4282 25.51 15.4612 25.6836 15.4612C25.9423 15.4612 26.201 15.3848 26.4232 15.2373C26.7947 14.9907 27.0169 14.5741 27.0169 14.1279V3.01676H35.4614C36.6871 3.01676 37.6836 4.0133 37.6836 5.23899L37.6833 35.4612ZM27.0167 31.9057C27.0167 32.6417 26.4194 33.239 25.6833 33.239H15.0167C14.2806 33.239 13.6833 32.6417 13.6833 31.9057C13.6833 31.1696 14.2806 30.5723 15.0167 30.5723H25.6833C26.4194 30.5723 27.0167 31.1696 27.0167 31.9057Z" fill="white" stroke="white" stroke-width="0.7"/>
</svg>
