<svg width="38" height="42" viewBox="0 0 38 42" fill="none" xmlns="http://www.w3.org/2000/svg">
<path d="M36.5758 34.0584L30.5838 28.3466C30.6353 28.2901 30.6894 28.2361 30.7409 28.1772C30.8027 28.1085 30.8645 28.0398 30.9263 27.9686C30.9855 27.8999 31.0448 27.8311 31.1014 27.7624C31.104 27.76 31.104 27.7575 31.104 27.7575C31.104 27.755 31.1065 27.755 31.1091 27.7526C31.1658 27.6814 31.225 27.6127 31.2791 27.539C31.3357 27.4654 31.3924 27.3942 31.4465 27.3181C31.5005 27.2445 31.5546 27.1709 31.6061 27.0972C31.6061 27.0948 31.6087 27.0948 31.6087 27.0923C31.6087 27.0899 31.6113 27.0899 31.6113 27.0899C31.6628 27.0162 31.7143 26.9401 31.7658 26.8665C31.8173 26.7904 31.8662 26.7168 31.9151 26.6382C31.9151 26.6358 31.9177 26.6333 31.9177 26.6333C31.9177 26.6308 31.9203 26.6308 31.9203 26.6308C31.9692 26.5548 32.0181 26.4762 32.0645 26.4001C32.1134 26.3216 32.1597 26.2406 32.2061 26.1596C32.2524 26.0786 32.2962 25.9976 32.34 25.9166C32.3838 25.8356 32.4275 25.7521 32.4687 25.6686C32.5099 25.5852 32.5511 25.5017 32.5898 25.4183C32.6284 25.3348 32.667 25.2514 32.7031 25.1679C32.7082 25.1581 32.7108 25.1458 32.7134 25.136C32.7365 25.0844 32.7571 25.0304 32.7777 24.9789C32.7906 24.9568 32.8035 24.9323 32.8138 24.9077C32.8498 24.8218 32.8833 24.7359 32.9168 24.6475C32.9503 24.5616 32.9812 24.4733 33.0146 24.3849C33.0455 24.2965 33.0764 24.2106 33.1048 24.1198C33.1331 24.0314 33.1614 23.9431 33.1872 23.8522C33.2129 23.7639 33.2387 23.673 33.2644 23.5847V23.5822V23.5798C33.2876 23.489 33.3108 23.3981 33.3339 23.3073C33.3571 23.2165 33.3777 23.1257 33.3957 23.0349V23.0324V23.03C33.4163 22.9391 33.4344 22.8459 33.4498 22.755V22.7526C33.4678 22.6593 33.4833 22.5685 33.4987 22.4752V22.4728C33.5142 22.3795 33.5271 22.2838 33.5399 22.1929C33.5528 22.0972 33.5631 22.0015 33.5734 21.9082C33.5837 21.8125 33.5914 21.7167 33.5992 21.621C33.6069 21.5253 33.612 21.4296 33.6172 21.3314C33.6223 21.2356 33.6249 21.1375 33.6275 21.0417C33.6301 20.9435 33.6326 20.8478 33.6326 20.7496C33.6326 14.6917 28.6268 9.72852 22.3517 9.41936V1.34156C22.3517 1.0151 22.0736 0.75 21.7311 0.75C10.1614 0.75 0.75 9.72135 0.75 20.75C0.75 31.7787 10.1614 40.75 21.7311 40.75C27.3343 40.75 32.6053 38.6685 36.5685 34.8909C36.8105 34.6602 36.8105 34.2846 36.5685 34.0539L36.5758 34.0584ZM32.4018 20.7519C32.4018 26.0023 28.2045 30.3347 22.8407 30.8625C22.8355 30.8625 22.833 30.8625 22.8278 30.865C22.6733 30.8797 22.5188 30.8895 22.3617 30.8993C22.336 30.9018 22.3102 30.9042 22.2819 30.9042C22.1017 30.914 21.9214 30.9165 21.7386 30.9165C15.8598 30.9165 11.0753 26.3583 11.0753 20.7519C11.0753 15.148 15.8571 10.5872 21.7386 10.5872C27.6174 10.5872 32.4018 15.1455 32.4018 20.7519ZM21.7385 39.5687C10.8537 39.5687 1.99867 31.127 1.99867 20.7519C1.99867 10.5728 10.5195 2.25624 21.1182 1.94205V9.421C20.9199 9.43082 20.7242 9.44555 20.5285 9.46518C20.4847 9.47009 20.4435 9.475 20.4023 9.47991C20.2478 9.49709 20.0959 9.51428 19.944 9.53637C19.877 9.54619 19.8101 9.55846 19.7431 9.57073C19.617 9.59037 19.4908 9.61001 19.3672 9.63455C19.2925 9.64928 19.2204 9.66646 19.1457 9.68119C19.0299 9.70573 18.914 9.73028 18.8007 9.75728C18.7234 9.77691 18.6488 9.79655 18.5741 9.81619C18.4634 9.84564 18.3526 9.87264 18.2445 9.90455C18.1672 9.92664 18.0926 9.95364 18.0153 9.97573C17.9097 10.0101 17.8042 10.042 17.6986 10.0788C17.6213 10.1058 17.5466 10.1353 17.4694 10.1623C17.3664 10.1991 17.266 10.2359 17.1655 10.2776C17.0883 10.3071 17.0136 10.3415 16.9389 10.3734C16.8411 10.4151 16.7407 10.4568 16.6454 10.501C16.5707 10.5354 16.496 10.5722 16.4239 10.6066C16.3287 10.6532 16.2334 10.6974 16.1407 10.7465C16.066 10.7833 15.9939 10.8226 15.9218 10.8618C15.8291 10.9109 15.7364 10.96 15.6463 11.0116C15.5742 11.0533 15.5047 11.095 15.4326 11.1367C15.3424 11.1908 15.2549 11.2448 15.1673 11.2988C15.0978 11.3429 15.0283 11.3896 14.9613 11.4338C14.8764 11.4902 14.7914 11.5491 14.7064 11.608C14.6395 11.6547 14.5725 11.7038 14.5056 11.7528C14.4232 11.8142 14.3408 11.8731 14.2609 11.9369C14.1966 11.9885 14.1322 12.04 14.0678 12.0916C13.988 12.1554 13.9107 12.2192 13.8335 12.2855C13.7691 12.3395 13.7073 12.3935 13.6455 12.4475C13.5708 12.5138 13.4961 12.5825 13.4215 12.6512C13.3597 12.7077 13.3005 12.7641 13.2412 12.823C13.1691 12.8942 13.097 12.963 13.0275 13.0366C12.9708 13.0955 12.9116 13.1569 12.855 13.2158C12.7854 13.2894 12.7185 13.3631 12.6541 13.4367C12.6 13.4981 12.5434 13.5619 12.4919 13.6233C12.4275 13.6993 12.3631 13.7754 12.3013 13.854C12.2498 13.9178 12.1983 13.9841 12.1468 14.0504C12.085 14.1289 12.0284 14.2099 11.9692 14.2885C11.9202 14.3547 11.8713 14.4235 11.825 14.4922C11.7683 14.5732 11.7142 14.6566 11.6576 14.7401C11.6112 14.8088 11.5675 14.8776 11.5211 14.9487C11.467 15.0322 11.4181 15.1181 11.3666 15.204C11.3254 15.2752 11.2816 15.3464 11.2404 15.42C11.1915 15.5059 11.1452 15.5943 11.0988 15.6827C11.0602 15.7563 11.0216 15.8299 10.9829 15.9036C10.9392 15.9919 10.8954 16.0828 10.8542 16.1736C10.8181 16.2497 10.7847 16.3233 10.7512 16.3994C10.71 16.4902 10.6739 16.5835 10.6353 16.6768C10.6044 16.7529 10.5709 16.8314 10.5426 16.9075C10.5066 17.0008 10.4731 17.0965 10.4422 17.1923C10.4139 17.2708 10.3881 17.3469 10.3624 17.4254C10.3315 17.5236 10.3031 17.6218 10.2748 17.72C10.2516 17.7985 10.2285 17.8771 10.2079 17.9556C10.1821 18.0563 10.1589 18.1594 10.1332 18.26C10.1152 18.3386 10.0946 18.4171 10.0765 18.4956C10.0534 18.6012 10.0353 18.7067 10.0173 18.8123C10.0044 18.8908 9.98641 18.9669 9.97611 19.0455C9.95808 19.1559 9.94521 19.2688 9.93233 19.3818C9.92203 19.4554 9.91173 19.529 9.90401 19.6027C9.89113 19.7279 9.88341 19.853 9.87311 19.9782C9.86796 20.042 9.86281 20.1059 9.85766 20.1697C9.84736 20.3587 9.84221 20.5502 9.84221 20.7441C9.84221 27.0008 15.1828 32.0894 21.7441 32.0894C21.9424 32.0894 22.1381 32.0845 22.3338 32.0747C22.3827 32.0722 22.4342 32.0673 22.4831 32.0649C22.6325 32.0551 22.7793 32.0452 22.926 32.033C22.9724 32.0281 23.0187 32.0231 23.0625 32.0182C23.217 32.0011 23.3689 31.9839 23.5209 31.9618C23.5544 31.9569 23.5852 31.952 23.6187 31.9471C23.7887 31.9225 23.9561 31.8931 24.1234 31.8611C24.1363 31.8587 24.1492 31.8562 24.1621 31.8538C26.2195 31.4512 28.1276 30.5381 29.7112 29.1734L35.2578 34.4606C31.5833 37.7547 26.8095 39.5613 21.7442 39.5613L21.7385 39.5687ZM21.7385 14.0974C22.081 14.0974 22.3591 14.3625 22.3591 14.6889V15.4744C23.9556 15.7272 25.171 16.9324 25.171 18.3831C25.171 18.7096 24.8929 18.9747 24.5504 18.9747C24.2079 18.9747 23.9298 18.7096 23.9298 18.3831C23.9298 17.4037 22.9462 16.6085 21.7385 16.6085C20.5308 16.6085 19.5472 17.4062 19.5472 18.3831C19.5472 19.6423 20.3428 19.8633 21.8672 20.1725C23.2603 20.4548 25.1684 20.8426 25.1684 23.1181C25.1684 24.5663 23.953 25.774 22.3565 26.0268V26.8122C22.3565 27.1387 22.0784 27.4038 21.7359 27.4038C21.3934 27.4038 21.1153 27.1387 21.1153 26.8122V26.0268C19.5188 25.7739 18.3034 24.5687 18.3034 23.1181C18.3034 22.7916 18.5816 22.5265 18.924 22.5265C19.2665 22.5265 19.5446 22.7916 19.5446 23.1181C19.5446 24.0975 20.5283 24.8927 21.7359 24.8927C22.9436 24.8927 23.9272 24.095 23.9272 23.1181C23.9272 21.8589 23.1316 21.6379 21.6072 21.3286C20.2141 21.0464 18.306 20.6585 18.306 18.3831C18.306 16.9349 19.5215 15.7272 21.1179 15.4744V14.6889C21.1179 14.3625 21.396 14.0974 21.7385 14.0974Z" fill="white" stroke="white" stroke-width="1.5"/>
</svg>
