<svg width="38" height="43" viewBox="0 0 38 43" fill="none" xmlns="http://www.w3.org/2000/svg">
<path d="M17.703 8.52878C16.4466 8.48503 15.212 8.86549 14.1981 9.6088C13.1842 10.3521 12.4499 11.415 12.1137 12.6264C11.7774 13.8378 11.8587 15.1271 12.3443 16.2867C12.83 17.4463 13.6919 18.4086 14.7911 19.0187V21.2791C14.7912 21.4071 14.7504 21.5317 14.6747 21.6349C14.599 21.738 14.4923 21.8143 14.3702 21.8526L9.43243 23.4026C9.12619 23.4986 8.85115 23.6746 8.63574 23.9124C8.42033 24.1503 8.27238 24.4414 8.20719 24.7556L7.14 29.9171C7.08915 30.1619 7.08983 30.4146 7.14198 30.6591C7.19414 30.9037 7.29664 31.1347 7.44295 31.3375C7.58926 31.5402 7.77618 31.7103 7.99181 31.8369C8.20745 31.9635 8.44707 32.0437 8.69543 32.0726C14.5504 32.7533 20.4646 32.7533 26.3195 32.0726C26.5681 32.0439 26.8079 31.9638 27.0237 31.8373C27.2395 31.7108 27.4267 31.5408 27.5732 31.338C27.7196 31.1352 27.8223 30.9042 27.8745 30.6596C27.9268 30.4149 27.9275 30.162 27.8767 29.9171L26.8081 24.7556C26.7429 24.4414 26.595 24.1503 26.3796 23.9124C26.1642 23.6746 25.8891 23.4986 25.5829 23.4026L20.6452 21.8526C20.523 21.8143 20.4163 21.738 20.3406 21.6349C20.2649 21.5317 20.2241 21.4071 20.2243 21.2791V19.0187C21.2942 18.4248 22.1401 17.4968 22.6325 16.3765C23.1249 15.2562 23.2366 14.0053 22.9507 12.8155C22.6647 11.6256 21.9967 10.5623 21.049 9.7881C20.1013 9.01392 18.926 8.57157 17.703 8.52878ZM17.7373 9.43788C18.802 9.48612 19.8184 9.89564 20.6193 10.5988C21.4201 11.302 21.9575 12.257 22.1429 13.3065C22.3283 14.356 22.1508 15.4373 21.6394 16.3724C21.1281 17.3074 20.3135 18.0405 19.3299 18.4506V21.2791C19.3296 21.6008 19.4321 21.9142 19.6225 22.1735C19.8129 22.4329 20.0811 22.6246 20.3881 22.7208L25.3259 24.269C25.4775 24.3168 25.6136 24.4043 25.7201 24.5223C25.8266 24.6403 25.8996 24.7845 25.9316 24.9402L27.0005 30.1017C27.0256 30.223 27.0252 30.3482 26.9993 30.4693C26.9735 30.5903 26.9227 30.7046 26.8502 30.805C26.7777 30.9054 26.6851 30.9896 26.5783 31.0523C26.4715 31.1149 26.3528 31.1546 26.2299 31.1689C20.4445 31.8415 14.6007 31.8415 8.81534 31.1689C8.69236 31.1546 8.5737 31.1149 8.46691 31.0523C8.36011 30.9896 8.26753 30.9054 8.19504 30.805C8.12255 30.7046 8.07175 30.5903 8.04586 30.4693C8.01997 30.3482 8.01957 30.223 8.04467 30.1017L9.11358 24.9402C9.14558 24.7846 9.21856 24.6403 9.325 24.5223C9.43143 24.4043 9.56745 24.3169 9.71898 24.269L14.6567 22.7208C14.9637 22.6246 15.232 22.4329 15.4223 22.1735C15.6127 21.9142 15.7152 21.6008 15.715 21.2791V18.4506C14.6971 18.0264 13.8613 17.2569 13.3544 16.2775C12.8476 15.2981 12.7021 14.1715 12.9435 13.0954C13.185 12.0194 13.7979 11.063 14.6746 10.3941C15.5514 9.72514 16.6358 9.38656 17.7373 9.43788Z" fill="white" stroke="white" stroke-width="1.4"/>
<path d="M15.4352 2.35832V1.08789L19.6459 3.00475L15.4352 4.92161V3.65119C11.8107 3.82772 8.39305 5.39185 5.8903 8.01946C3.38755 10.6471 1.99156 14.1368 1.99157 17.7656H0.700012C0.700009 13.7942 2.23195 9.976 4.97681 7.10596C7.72167 4.23593 11.4679 2.5353 15.4352 2.35832Z" fill="white" stroke="white" stroke-width="1.4"/>
<path d="M23.2307 39.8161L23.3132 41.0841L18.9891 39.4392L23.0689 37.2581L23.1513 38.526C26.7573 38.119 30.0684 36.3404 32.3988 33.5587C34.7292 30.7771 35.9001 27.2055 35.669 23.5841L36.9578 23.502C37.2107 27.4652 35.925 31.3734 33.3684 34.4124C30.8119 37.4514 27.1788 39.3869 23.2307 39.8161Z" fill="white" stroke="white" stroke-width="1.4"/>
</svg>
