<svg width="41" height="41" viewBox="0 0 41 41" fill="none" xmlns="http://www.w3.org/2000/svg">
<path d="M29.4102 13.9079H25.6742V10.1799C25.6731 9.16077 25.2678 8.18365 24.5471 7.46299C23.8265 6.74233 22.8494 6.337 21.8302 6.33594H19.1422C18.123 6.337 17.1459 6.74233 16.4252 7.46299C15.7046 8.18365 15.2992 9.16077 15.2982 10.1799V13.9079H11.5822C11.3594 13.9079 11.1457 13.9964 10.9882 14.154C10.8307 14.3115 10.7422 14.5252 10.7422 14.7479V25.9479C10.7432 27.1676 11.2282 28.337 12.0907 29.1995C12.9531 30.0619 14.1225 30.5469 15.3422 30.5479H25.6502C26.8699 30.5469 28.0393 30.0619 28.9017 29.1995C29.7641 28.337 30.2491 27.1676 30.2502 25.9479V14.7479C30.2502 14.5252 30.1617 14.3115 30.0042 14.154C29.8466 13.9964 29.633 13.9079 29.4102 13.9079ZM16.9742 10.1799C16.9752 9.60527 17.204 9.05445 17.6103 8.6481C18.0167 8.24175 18.5675 8.013 19.1422 8.01194H21.8302C22.4049 8.013 22.9557 8.24175 23.362 8.6481C23.7684 9.05445 23.9971 9.60527 23.9982 10.1799V13.9079H16.9742V10.1799ZM28.5742 25.9599C28.5758 26.3451 28.5013 26.7268 28.3551 27.0832C28.209 27.4396 27.9939 27.7636 27.7223 28.0367C27.4506 28.3098 27.1278 28.5266 26.7722 28.6748C26.4167 28.8229 26.0354 28.8994 25.6502 28.8999H15.3462C14.571 28.8989 13.8279 28.5905 13.2798 28.0423C12.7316 27.4942 12.4232 26.7511 12.4222 25.9759V15.5879H15.2982V19.3919C15.3129 19.6042 15.4075 19.803 15.5631 19.9481C15.7186 20.0933 15.9234 20.174 16.1362 20.174C16.3489 20.174 16.5538 20.0933 16.7093 19.9481C16.8649 19.803 16.9595 19.6042 16.9742 19.3919V15.5879H23.9982V19.3919C24.0129 19.6042 24.1075 19.803 24.2631 19.9481C24.4186 20.0933 24.6234 20.174 24.8362 20.174C25.0489 20.174 25.2538 20.0933 25.4093 19.9481C25.5648 19.803 25.6595 19.6042 25.6742 19.3919V15.5879H28.5702L28.5742 25.9599Z" fill="white" stroke="white"/>
<path d="M20.5 0.5C16.5444 0.5 12.6776 1.67298 9.3886 3.87061C6.09962 6.06823 3.53617 9.19181 2.02242 12.8463C0.508666 16.5009 0.112599 20.5222 0.884303 24.4018C1.65601 28.2814 3.56082 31.8451 6.35787 34.6421C9.15492 37.4392 12.7186 39.344 16.5982 40.1157C20.4778 40.8874 24.4991 40.4913 28.1537 38.9776C31.8082 37.4638 34.9318 34.9004 37.1294 31.6114C39.327 28.3224 40.5 24.4556 40.5 20.5C40.4936 15.1976 38.3845 10.1142 34.6351 6.36488C30.8858 2.61553 25.8024 0.506351 20.5 0.5ZM20.5 38.824C16.8759 38.824 13.3331 37.7493 10.3197 35.7358C7.30637 33.7224 4.95774 30.8606 3.57084 27.5123C2.18394 24.164 1.82106 20.4797 2.5281 16.9252C3.23513 13.3707 4.98033 10.1056 7.54298 7.54297C10.1056 4.98032 13.3707 3.23513 16.9252 2.52809C20.4797 1.82105 24.164 2.18393 27.5123 3.57083C30.8606 4.95773 33.7224 7.30636 35.7359 10.3197C37.7493 13.3331 38.824 16.8759 38.824 20.5C38.8187 25.3582 36.8864 30.0159 33.4512 33.4512C30.0159 36.8864 25.3582 38.8187 20.5 38.824Z" fill="white" stroke="white"/>
</svg>
