<svg width="41" height="41" viewBox="0 0 41 41" fill="none" xmlns="http://www.w3.org/2000/svg">
<path d="M5.50048 40.5H35.4995C38.2557 40.5 40.5 38.2576 40.5 35.4995V21.4993C40.5 18.7432 38.2576 16.4988 35.4995 16.4988V3.4999C35.4995 1.84621 34.1533 0.5 32.4996 0.5H8.50038C6.84669 0.5 5.50048 1.84621 5.50048 3.4999V10.499C2.74431 10.499 0.5 12.7415 0.5 15.4995V35.4995C0.5 38.2557 2.74244 40.5 5.50048 40.5ZM7.50106 3.4999C7.50106 2.94869 7.94916 2.50058 8.50038 2.50058H32.4996C33.0508 2.50058 33.4989 2.94868 33.4989 3.4999V16.4988H22.5697C22.2341 16.4988 21.9228 16.332 21.7372 16.0545L18.9248 11.8359C18.366 10.9996 17.4342 10.499 16.4293 10.499H7.49914V3.49987L7.50106 3.4999ZM2.50058 15.4995C2.50058 13.8458 3.84679 12.4996 5.50048 12.4996H16.4297C16.7653 12.4996 17.0766 12.6665 17.2622 12.944L20.0746 17.1626C20.6334 17.9988 21.5652 18.4995 22.5702 18.4995H35.5C37.1537 18.4995 38.4999 19.8457 38.4999 21.4994V35.4996C38.4999 37.1532 37.1537 38.4995 35.5 38.4995H5.50096C3.84727 38.4995 2.50106 37.1532 2.50106 35.4996L2.50058 15.4995Z" fill="white" stroke="white"/>
<path d="M8.4999 35.4913H16.5003C18.154 35.4913 19.5002 34.1451 19.5002 32.4914V31.4921C19.5002 29.8384 18.154 28.4922 16.5003 28.4922H8.4999C6.84621 28.4922 5.5 29.8384 5.5 31.4921V32.4914C5.5 34.1451 6.84621 35.4913 8.4999 35.4913ZM7.50058 31.4921C7.50058 30.9409 7.94868 30.4928 8.4999 30.4928H16.5003C17.0515 30.4928 17.4996 30.9409 17.4996 31.4921V32.4914C17.4996 33.0426 17.0515 33.4907 16.5003 33.4907H8.4999C7.94869 33.4907 7.50058 33.0426 7.50058 32.4914V31.4921Z" fill="white" stroke="white"/>
</svg>
