<svg width="43" height="41" viewBox="0 0 43 41" fill="none" xmlns="http://www.w3.org/2000/svg">
<path d="M1.48506 2.58765C0.942289 2.58765 0.5 2.12079 0.5 1.54382C0.5 0.968673 0.940574 0.5 1.48506 0.5H9.11416C9.61842 0.5 10.0355 0.902968 10.0925 1.4213L11.1378 7.83493H41.5187V7.83849C41.5824 7.83849 41.6494 7.84559 41.7147 7.85979C42.2458 7.97518 42.5875 8.52369 42.4803 9.08643L39.1348 26.3464C39.0762 26.8647 38.6607 27.2659 38.1565 27.2659H10.5598L11.6353 31.5193H38.1564C38.6992 31.5193 39.1415 31.9861 39.1415 32.5631V39.4562C39.1415 40.0313 38.7009 40.5 38.1564 40.5H31.6514C31.1069 40.5 30.6663 40.0331 30.6663 39.4562V33.6052H22.1662V39.4562C22.1662 40.0313 21.7256 40.5 21.1811 40.5H14.6761C14.1333 40.5 13.691 40.0331 13.691 39.4562V33.6052H10.8799V33.6034C10.4444 33.6034 10.0473 33.2963 9.93009 32.8312L8.34196 26.5489C8.31013 26.4459 8.29337 26.3359 8.29337 26.2223C8.29337 25.6453 8.73395 25.1784 9.27844 25.1784H11.9689L9.35044 9.11458C9.34207 9.07731 9.33704 9.04003 9.33201 9.00097L8.28665 2.58552H1.48527L1.48506 2.58765ZM37.1714 33.6074H32.6349V38.4145H37.1714V33.6074ZM20.1978 33.6074H15.6612V38.4145H20.1978V33.6074ZM11.4764 9.92472L13.9641 25.1824H37.3558L40.3126 9.92472H11.4764Z" fill="white" stroke="white"/>
</svg>
