<svg width="346" height="316" viewBox="0 0 346 316" fill="none" xmlns="http://www.w3.org/2000/svg">
<path d="M79.8516 379.208V99.7917C79.8516 77.7463 97.7229 59.875 119.768 59.875H387.21C393.824 59.875 399.185 65.2364 399.185 71.85V333.59" stroke="#21272A" stroke-width="5.5" stroke-linecap="round"/>
<path d="M79.8516 379.208V99.7917C79.8516 77.7463 97.7229 59.875 119.768 59.875H387.21C393.824 59.875 399.185 65.2364 399.185 71.85V333.59" stroke="url(#paint0_linear_432_13)" stroke-width="5.5" stroke-linecap="round"/>
<path d="M279.417 199.583H199.583M279.417 199.583H287.4C294.014 199.583 299.375 204.944 299.375 211.558V267.442C299.375 274.056 294.014 279.417 287.4 279.417H191.6C184.986 279.417 179.625 274.056 179.625 267.442V211.558C179.625 204.944 184.986 199.583 191.6 199.583H199.583H279.417ZM279.417 199.583V159.667C279.417 146.361 271.433 119.75 239.5 119.75C207.567 119.75 199.583 146.361 199.583 159.667V199.583H279.417Z" stroke="#21272A" stroke-width="5.5" stroke-linecap="round" stroke-linejoin="round"/>
<path d="M279.417 199.583H199.583M279.417 199.583H287.4C294.014 199.583 299.375 204.944 299.375 211.558V267.442C299.375 274.056 294.014 279.417 287.4 279.417H191.6C184.986 279.417 179.625 274.056 179.625 267.442V211.558C179.625 204.944 184.986 199.583 191.6 199.583H199.583H279.417ZM279.417 199.583V159.667C279.417 146.361 271.433 119.75 239.5 119.75C207.567 119.75 199.583 146.361 199.583 159.667V199.583H279.417Z" stroke="url(#paint1_linear_432_13)" stroke-width="5.5" stroke-linecap="round" stroke-linejoin="round"/>
<defs>
<linearGradient id="paint0_linear_432_13" x1="48.7058" y1="219.542" x2="402.166" y2="219.415" gradientUnits="userSpaceOnUse">
<stop stop-color="#8752FA"/>
<stop offset="1" stop-color="#4500F9"/>
</linearGradient>
<linearGradient id="paint1_linear_432_13" x1="167.945" y1="199.583" x2="300.493" y2="199.548" gradientUnits="userSpaceOnUse">
<stop stop-color="#8752FA"/>
<stop offset="1" stop-color="#4500F9"/>
</linearGradient>
</defs>
</svg>
