<svg width="94" height="103" viewBox="0 0 94 103" fill="none" xmlns="http://www.w3.org/2000/svg">
<path d="M45.5201 44.6967C43.2197 43.4862 40.7618 42.6019 38.2174 42.0694C37.2884 41.861 36.3336 41.7946 35.3825 41.6611C31.9886 41.2222 28.5526 41.2179 25.1576 41.6485C23.6384 41.8375 22.1368 42.148 20.6673 42.5771C19.6978 42.8547 18.8192 43.1911 17.8812 43.4659C16.9594 43.7423 16.0553 44.075 15.1743 44.4622C14.7062 44.6646 14.564 44.5627 14.8379 43.9866C15.3557 43.1695 16.0635 42.4896 16.9008 42.0051C17.813 41.4655 18.7788 41.0223 19.7827 40.6826C20.7702 40.3209 21.7776 40.0051 22.7957 39.7392C23.8167 39.4702 24.8513 39.2556 25.8951 39.0961C26.9514 38.9723 28.0137 38.9057 29.0773 38.8967C31.6521 38.7915 34.2312 38.8629 36.7962 39.1105C39.6358 39.4535 42.416 40.179 45.0612 41.2671C46.6914 41.9237 48.2611 42.7213 49.7527 43.6508C51.9954 45.0735 54.0832 46.7267 55.9822 48.5834C56.7265 49.2966 57.4379 50.0348 58.1219 50.785C58.8283 51.5409 59.4634 52.3603 60.0193 53.2329C60.2582 53.609 60.5155 53.9771 60.7308 54.3743C61.0557 54.8912 61.2534 55.4778 61.3076 56.0859C61.3319 56.4502 61.214 56.8098 60.9787 57.0889C60.8948 57.2253 60.7961 57.352 60.6845 57.4667C60.3178 57.7778 59.6835 57.3439 58.8889 56.4891C57.8708 55.1426 56.6851 53.9121 55.6107 52.6118C55.0637 51.9767 54.4891 51.3536 53.8938 50.783C53.2984 50.2125 52.6281 49.6198 51.9685 49.077C49.9969 47.4182 47.8335 46.0018 45.5246 44.8582L45.5201 44.6967Z" fill="#4602F9"/>
<path d="M44.8501 37.9624C49.5753 40.2989 53.7376 43.6322 57.0502 47.7326L58.7815 49.9473C59.3354 50.6992 59.8423 51.4933 60.3359 52.2821C63.5635 57.9633 65.2595 64.3856 65.2577 70.9196C65.2431 73.7402 64.9443 76.5522 64.366 79.313C63.9965 81.0923 63.4529 82.8308 62.7429 84.5036C61.9343 86.1608 60.818 87.6492 59.4535 88.8895C58.5749 89.629 58.5357 89.2864 58.8361 88.3939C59.0162 87.7605 59.164 87.1184 59.2789 86.4701L59.4731 85.2312C59.5294 84.782 59.608 84.334 59.6958 83.882C60.1685 82.3079 60.5184 80.6996 60.7424 79.0714C60.8461 78.253 60.9235 77.4242 61.0009 76.5954C61.0783 75.7666 61.182 74.9482 61.2279 74.1222C61.368 72.4843 61.3846 70.8383 61.2774 69.198L61.0108 66.7421L60.597 64.2736C59.6096 60.2928 57.7805 56.57 55.2329 53.3558C52.5645 49.7654 49.168 46.779 45.2657 44.5921C42.8496 43.2606 40.2526 42.288 37.5564 41.7048C33.4225 40.7755 29.1345 40.7698 24.9981 41.6881C23.4159 42.0598 21.8782 42.6006 20.4116 43.301C19.6773 43.6186 18.9879 44.0147 18.3065 44.4293C17.625 44.8438 16.9513 45.2005 16.2631 45.5744C15.575 45.9482 15.1639 46.333 14.5822 46.7262C14.2977 46.8492 14.0804 47.0521 13.8444 47.1868C13.6085 47.3215 13.3763 47.3893 13.1744 47.4766C12.819 47.6391 12.4436 47.7538 12.0581 47.8177C11.4093 47.9384 10.7388 47.8462 10.1467 47.5547C9.84433 47.4349 9.51315 47.3493 9.24747 47.2137C8.7906 46.9221 8.59109 46.3568 8.76372 45.8431C8.82515 45.419 8.93845 45.0041 9.10109 44.6077C9.33348 44.1249 9.60791 43.6635 9.9212 43.2289C11.0219 41.8293 12.3299 40.6061 13.8 39.6014C15.2362 38.5401 16.8122 37.6826 18.4833 37.0532C21.8693 35.7642 25.4349 35.0088 29.0528 34.814C31.7762 34.6227 34.5128 34.7792 37.1966 35.2798L39.1874 35.7264C39.851 35.8752 40.4585 36.1463 41.1471 36.3279C42.4423 36.7397 43.7104 37.232 44.9441 37.8019L44.8501 37.9624Z" fill="#4602F9"/>
<path d="M70.8476 78.493C70.6526 78.6971 70.4859 78.3116 70.2524 77.5954C70.1559 77.2534 70.1271 76.8957 70.1676 76.5426C70.2822 76.3387 70.419 76.148 70.5754 75.9741C70.7039 75.9185 72.0785 75.4439 72.5362 75.2678C72.9642 75.1213 73.4131 75.0449 73.8656 75.0415C74.7395 74.9712 75.617 74.9556 76.4929 74.9949C76.6885 75.0098 76.879 75.0646 77.0528 75.1559C77.6446 75.4581 78.3088 75.5896 78.9711 75.5357C79.0953 75.5501 79.2177 75.4971 79.2923 75.3967C80.0211 75.2308 80.7787 75.2391 81.5036 75.421C82.0194 75.6935 82.5542 75.9283 83.1039 76.1236C83.1277 76.1786 83.2416 76.064 83.3237 76.2791C83.4944 76.6738 83.6544 76.6155 83.8226 76.6517C84.0612 76.7025 84.2928 76.7815 84.5127 76.8871C84.6545 77.0129 84.779 77.1569 84.8831 77.3153C84.9771 77.5511 85.0016 77.8089 84.9538 78.0582C84.8637 78.2279 84.9709 78.4757 85.0032 78.7015L85.0262 78.9312C84.5471 79.4302 83.9967 79.8555 83.3929 80.1931C83.3929 80.1931 81.1655 80.4591 80.9294 80.5176C80.6932 80.5762 80.6823 80.4502 80.556 80.3849C80.4298 80.3197 78.7945 80.5692 78.7327 80.5524C78.3911 80.4931 78.0304 80.6164 77.7154 80.2406C77.6797 80.158 77.5839 80.1885 77.5169 80.1847C76.9207 80.1449 76.3314 80.034 75.7616 79.8543C75.4646 79.7975 75.1692 79.7945 74.8723 79.7377C74.8723 79.7377 74.7775 79.6698 74.7209 79.6398C74.6656 79.5938 74.6022 79.5585 74.5341 79.5353C73.8586 79.3753 73.1701 79.2756 72.4769 79.2374C72.3154 79.2419 71.6049 78.8082 71.4238 78.843C71.2427 78.8777 70.9825 78.4019 70.8476 78.493Z" fill="#4602F9"/>
<path d="M68.9049 51.1337C68.7769 51.3416 68.4742 51.1456 68.1026 50.7397C67.9553 50.5342 67.8538 50.2995 67.8049 50.0514C67.8442 49.8754 67.8928 49.7017 67.9503 49.5309C67.9868 49.4389 68.8649 48.5471 69.1356 48.1903C69.3907 47.8772 69.6912 47.6041 70.0271 47.3799L71.9355 45.9227C72.0798 45.8169 72.2461 45.745 72.422 45.7123C73.0222 45.6107 73.589 45.3656 74.0741 44.9979C74.1659 44.9582 74.2577 44.9185 74.2807 44.7451C74.7365 44.2288 75.3267 43.8491 75.9855 43.6484C76.5803 43.6635 77.1065 43.5449 77.6934 43.5417C77.7669 43.51 77.8403 43.4782 77.972 43.6064C78.3131 43.9165 78.4362 43.798 78.5949 43.762C78.8578 43.7348 79.1234 43.7526 79.3803 43.8146C79.5639 43.889 79.7375 43.9859 79.8973 44.1031C80.0678 44.2803 80.1803 44.5053 80.2198 44.7481C80.2007 44.9306 80.3785 45.1152 80.4579 45.2988L80.5452 45.5007C80.4097 46.1646 80.1903 46.8086 79.8923 47.4173C79.9281 47.4999 78.3032 48.5294 78.1462 48.6953C77.9892 48.8613 77.9152 48.7407 77.7813 48.7333C77.6473 48.7259 76.4908 49.6291 76.4358 49.6529C76.1314 49.7301 75.9064 49.9908 75.4226 49.8295C75.3549 49.8194 75.2873 49.8487 75.2482 49.905C74.7336 50.1209 74.1881 50.2538 73.6318 50.2989C73.3615 50.3652 73.0963 50.4507 72.8383 50.5549C72.8383 50.5549 72.7227 50.5395 72.6688 50.541C72.5973 50.529 72.5242 50.5311 72.4535 50.547C71.8051 50.7151 71.1691 50.9282 70.5503 51.1848C70.4126 51.2443 69.6024 51.2351 69.4583 51.3301C69.3142 51.4252 68.9597 51.0337 68.9049 51.1337Z" fill="#4602F9"/>
<path d="M49.7021 31.7226C49.7557 32.0481 49.2658 31.9985 48.473 31.6768C48.1161 31.5046 47.7873 31.2795 47.4978 31.009C47.3739 30.8101 47.2656 30.602 47.1741 30.3863C47.1383 30.3037 47.3194 29.0596 47.3259 28.6211C47.3377 28.2046 47.4304 27.7944 47.599 27.4134C47.9038 26.6824 48.1442 25.9029 48.4149 25.1431C48.4824 24.9708 48.5857 24.8147 48.718 24.6852C49.171 24.2351 49.4685 23.6522 49.5674 23.0214C49.5867 22.9149 49.6495 22.8333 49.5374 22.6748C49.4252 22.5163 49.836 20.846 50.0705 20.6575C50.5182 20.2569 50.87 19.8106 51.2704 19.376C51.3438 19.3442 51.3014 19.2209 51.5274 19.2648C52.0066 19.2646 51.9863 19.0664 52.0791 18.9282C52.2033 18.7114 52.3691 18.5212 52.567 18.3686C52.7654 18.277 52.9798 18.225 53.1981 18.2155C53.517 18.2449 53.8261 18.3414 54.105 18.4988C54.2698 18.6781 54.6047 18.6967 54.878 18.7746C54.9776 18.7959 55.0749 18.8268 55.1685 18.8669C55.5413 19.4592 55.7996 20.1162 55.9299 20.8038L55.6905 21.8879C55.5754 22.4279 55.4459 22.9851 55.4265 23.0915C55.4072 23.198 55.2762 23.2982 55.1636 23.3905C55.051 23.4827 54.7935 25.054 54.7267 25.1264C54.5452 25.412 54.5424 25.7836 54.0034 25.9731C53.9116 26.0128 53.9039 26.0706 53.8779 26.1363C53.6348 26.677 53.3173 27.181 52.9347 27.6337C52.7844 27.8942 52.6498 28.1634 52.5316 28.4399C52.5316 28.4399 52.4215 28.4876 52.3664 28.5114C52.3034 28.5508 52.2476 28.6007 52.2014 28.659C51.8381 29.2912 51.5131 29.9447 51.2283 30.616C51.1566 30.7777 50.4255 31.2791 50.3474 31.4763C50.2692 31.6735 49.6689 31.5954 49.7021 31.7226Z" fill="#4602F9"/>
<path d="M22.0557 30.998C22.2363 31.2141 21.8785 31.4451 21.2291 31.6061C20.9295 31.655 20.6239 31.6546 20.3244 31.6051C20.1376 31.5006 19.9508 31.3962 19.8126 31.3034C19.6744 31.2106 19.1488 30.2722 18.8563 29.9738C18.6257 29.6909 18.438 29.3756 18.2991 29.0381C18.0054 28.3589 17.608 27.6918 17.3339 26.9823C17.272 26.8202 17.26 26.6433 17.2994 26.4743C17.3866 25.8762 17.2758 25.266 16.9838 24.7368C16.9442 24.645 16.9045 24.5532 16.7467 24.4907C16.3059 23.9429 16.0431 23.2735 15.9933 22.5721L16.4455 20.7206C16.4636 20.6365 16.378 20.5645 16.572 20.4588C17.031 20.2604 16.9121 20.0612 16.9273 19.8694C16.9341 19.6 17.0024 19.3357 17.1269 19.0967C17.2787 18.9263 17.4649 18.79 17.6732 18.697C17.9959 18.6141 18.3328 18.6022 18.6605 18.6623C18.9436 18.7051 19.2319 18.6984 19.5126 18.6425L19.8264 18.6375C20.3789 18.913 20.894 19.2577 21.3595 19.6633C21.3595 19.6633 21.5302 20.0579 21.7167 20.4893C21.9033 20.9207 22.0938 21.3613 22.1137 21.4072C22.1335 21.4531 22.0881 21.6252 22.0412 21.7436C21.9943 21.8619 22.6366 23.1203 22.6604 23.1754C22.6614 23.48 22.9025 23.7353 22.5533 24.1369C22.4905 24.2185 22.5235 24.2696 22.5381 24.3287C22.6583 24.8593 22.696 25.4053 22.6498 25.9473C22.6555 26.2281 22.6819 26.508 22.7287 26.7848C22.7287 26.7848 22.6778 26.894 22.6609 26.9557C22.5889 27.0247 22.54 27.1143 22.5213 27.2122C22.5292 27.8927 22.5722 28.5723 22.65 29.2484C22.7096 29.3861 22.3682 30.2092 22.4228 30.4362C22.4774 30.6631 21.9478 30.9249 22.0557 30.998Z" fill="#4602F9"/>
</svg>
