<svg width="1887" height="283" viewBox="0 0 1887 283" fill="none" xmlns="http://www.w3.org/2000/svg">
<path opacity="0.1" fill-rule="evenodd" clip-rule="evenodd" d="M77.1323 69.7153H0V0H77.1323V69.7153ZM0 104.098H77.1323V392.932H0V104.098ZM442.793 2.18454V71.4249H324.99V392.932H242.307V71.7099H124.12V2.18454H442.793ZM622.705 97.1645V174.478C617.92 174.478 613.71 173.623 609.977 173.433H600.408C569.88 173.433 549.305 182.931 538.778 203.067C531.87 219.322 528.825 236.936 529.878 254.546V392.932H453.32V104.098H525.763V154.152C534.107 139.564 544.698 126.361 557.152 115.021C572.894 102.649 592.595 96.311 612.657 97.1645H616.389C617.25 97.1645 619.451 97.1645 622.705 97.1645ZM867.021 249.132C867.021 220.069 861.184 197.748 849.222 182.077C842.861 174.746 834.981 168.863 826.121 164.83C817.26 160.798 807.627 158.71 797.88 158.71C788.132 158.71 778.499 160.798 769.639 164.83C760.778 168.863 752.898 174.746 746.538 182.077C734.608 197.78 728.611 220.132 728.547 249.132C728.483 278.133 734.48 300.295 746.538 315.618C752.825 323.064 760.681 329.052 769.551 333.161C778.421 337.269 788.091 339.398 797.88 339.398C807.668 339.398 817.338 337.269 826.208 333.161C835.079 329.052 842.934 323.064 849.222 315.618C861.184 299.947 867.021 277.626 867.021 249.132ZM798.119 402.905C748.037 402.905 710.811 387.835 686.44 357.695C661.558 326.993 648.468 288.52 649.5 249.132C648.653 209.831 661.725 171.48 686.44 140.76C710.843 110.082 748.069 94.885 798.119 94.885C848.169 94.885 885.3 110.082 909.99 140.76C934.633 171.512 947.667 209.849 946.833 249.132C947.86 288.503 934.807 326.963 909.99 357.695C885.3 387.803 848.169 402.905 798.119 402.905ZM1280.63 244.858C1280.63 289.689 1270 326.921 1248.57 356.27C1231.66 377.881 1207.52 392.783 1180.52 398.286C1153.51 403.79 1125.41 399.533 1101.29 386.284C1090.03 378.168 1080.31 368.134 1072.58 356.65V392.932H998.223V2.94439H1073.92V141.805C1082.35 129.562 1093.15 119.102 1105.69 111.032C1121.5 101.734 1139.67 97.1504 1158.04 97.8294C1175.23 97.0657 1192.35 100.391 1207.98 107.529C1223.61 114.666 1237.3 125.409 1247.9 138.861C1269.43 166.215 1280.24 201.643 1280.24 244.858H1280.63ZM1200.91 252.837C1201.44 235.518 1198.72 218.254 1192.87 201.927C1189.01 190.371 1181.43 180.395 1171.3 173.531C1161.17 166.666 1149.04 163.295 1136.79 163.935C1124.46 163.228 1112.24 166.526 1101.96 173.329C1091.69 180.132 1083.93 190.071 1079.85 201.642C1074.07 218.143 1071.41 235.565 1072.01 253.027C1071.16 274.638 1076.93 295.997 1088.56 314.289C1094.07 322.377 1101.61 328.894 1110.44 333.193C1119.27 337.492 1129.08 339.423 1138.9 338.794C1147.92 339.08 1156.86 337.064 1164.87 332.94C1172.88 328.816 1179.69 322.721 1184.64 315.239C1196.27 296.711 1201.94 275.114 1200.91 253.312V252.837ZM1390.49 219.594H1508.67C1508.7 202.753 1502.23 186.542 1490.59 174.288C1485.16 169.152 1478.77 165.131 1471.77 162.458C1464.78 159.785 1457.31 158.511 1449.82 158.712C1442.19 158.255 1434.56 159.494 1427.47 162.336C1420.39 165.179 1414.03 169.554 1408.86 175.143C1398.43 187.83 1392 203.294 1390.39 219.594H1390.49ZM1563.22 153.108C1574.89 171.088 1582.47 191.379 1585.42 212.565C1587.68 231.473 1588.45 250.527 1587.72 269.553H1388.67C1389.72 298.617 1399 318.848 1416.23 330.435C1427.5 338.005 1440.91 341.829 1454.51 341.358C1468.51 341.953 1482.21 337.194 1492.79 328.061C1498.67 322.4 1503.44 315.701 1506.86 308.305H1584.47C1581.11 327.988 1571.72 346.165 1557.58 360.354C1532.6 388.848 1497.76 402.525 1452.98 402.525C1417.08 402.907 1382.27 390.277 1355.08 367.003C1326.37 343.353 1312.59 304.886 1312.59 251.507C1312.59 201.548 1325.35 163.207 1350.87 136.486C1363.67 123.244 1379.14 112.836 1396.28 105.945C1413.41 99.0543 1431.82 95.8354 1450.3 96.4996C1472.84 96.1099 1495.17 100.752 1515.66 110.082C1535.44 119.433 1552.06 134.28 1563.51 152.823L1563.22 153.108ZM1698.35 301.182C1698.74 311.512 1702.35 321.468 1708.68 329.676C1718.25 339.174 1735.48 344.777 1760.93 344.777C1773.22 345.338 1785.47 343.062 1796.72 338.129C1800.66 336.491 1804.02 333.73 1806.37 330.196C1808.72 326.661 1809.96 322.513 1809.93 318.278C1809.99 314.454 1809.03 310.682 1807.15 307.346C1805.27 304.009 1802.53 301.227 1799.21 299.282C1792.04 294.818 1765.62 287.314 1719.88 276.582C1686.9 268.413 1663.64 258.251 1650.12 246.093C1643.18 239.389 1637.8 231.272 1634.33 222.303C1630.86 213.334 1629.39 203.726 1630.02 194.139C1629.97 181.094 1632.77 168.195 1638.22 156.325C1643.68 144.455 1651.65 133.896 1661.6 125.374C1682.65 106.378 1712.29 96.8796 1750.5 96.8796C1781.54 95.2534 1812.4 102.4 1839.5 117.49C1862.28 131.927 1875.48 156.907 1878.83 192.049H1802.75C1802.27 183.753 1799.45 175.757 1794.62 168.969C1786.2 158.901 1771.94 153.773 1751.84 153.773C1739.57 152.711 1727.26 155.36 1716.53 161.371C1713.41 163.304 1710.82 165.97 1708.98 169.134C1707.14 172.298 1706.12 175.863 1706 179.512C1705.73 183.417 1706.64 187.315 1708.62 190.702C1710.59 194.088 1713.55 196.807 1717.1 198.508C1724.57 202.687 1751.08 209.621 1796.44 219.404C1821.56 223.952 1845.03 234.993 1864.48 251.412C1871.82 258.444 1877.61 266.913 1881.48 276.281C1885.35 285.649 1887.22 295.713 1886.97 305.836C1887.33 319.173 1884.62 332.416 1879.03 344.55C1873.44 356.684 1865.12 367.386 1854.72 375.836C1833.22 393.945 1800.04 403 1755.19 403C1709.54 403 1675.95 393.502 1654.04 374.506C1643.48 365.481 1635.07 354.236 1629.42 341.587C1623.78 328.938 1621.04 315.201 1621.41 301.371L1698.35 301.182Z" fill="white"/>
</svg>
