<svg width="87" height="87" viewBox="0 0 87 87" fill="none" xmlns="http://www.w3.org/2000/svg">
<path d="M52.7031 59.4521L41.2344 65.1016V59.6406L52.7031 54.0635V59.4521Z" fill="#E7F9FC"/>
<path d="M52.7031 59.4521L41.2344 65.1016V59.6406L52.7031 54.0635V59.4521Z" stroke="#E7F9FC"/>
<path d="M52.7031 59.4521L41.2344 65.1016V59.6406L52.7031 54.0635V59.4521Z" stroke="url(#paint0_linear_59_12)"/>
<path d="M33.5771 50.5068V54.8545L28.5 52.4463V47.8291L33.5771 50.5068Z" fill="#E7F9FC"/>
<path d="M33.5771 50.5068V54.8545L28.5 52.4463V47.8291L33.5771 50.5068Z" fill="url(#paint1_linear_59_12)"/>
<path d="M33.5771 50.5068V54.8545L28.5 52.4463V47.8291L33.5771 50.5068Z" stroke="#E7F9FC"/>
<path d="M33.5771 50.5068V54.8545L28.5 52.4463V47.8291L33.5771 50.5068Z" stroke="url(#paint2_linear_59_12)"/>
<path d="M33.5771 50.5068V54.8545L28.5 52.4463V47.8291L33.5771 50.5068Z" stroke="url(#paint3_linear_59_12)"/>
<path d="M33.5771 68.7578L28.5 71.1797V58.9131L33.5771 56.4326V68.7578Z" fill="#E7F9FC"/>
<path d="M33.5771 68.7578L28.5 71.1797V58.9131L33.5771 56.4326V68.7578Z" fill="url(#paint4_linear_59_12)"/>
<path d="M33.5771 68.7578L28.5 71.1797V58.9131L33.5771 56.4326V68.7578Z" stroke="#E7F9FC"/>
<path d="M33.5771 68.7578L28.5 71.1797V58.9131L33.5771 56.4326V68.7578Z" stroke="url(#paint5_linear_59_12)"/>
<path d="M33.5771 68.7578L28.5 71.1797V58.9131L33.5771 56.4326V68.7578Z" stroke="url(#paint6_linear_59_12)"/>
<g opacity="0.74">
<path d="M52.7031 59.4521L41.2344 65.1016V59.6406L52.7031 54.0635V59.4521Z" fill="#E7F9FC"/>
<path d="M52.7031 59.4521L41.2344 65.1016V59.6406L52.7031 54.0635V59.4521Z" fill="url(#paint7_linear_59_12)"/>
<path d="M52.7031 59.4521L41.2344 65.1016V59.6406L52.7031 54.0635V59.4521Z" stroke="#E7F9FC"/>
<path d="M52.7031 59.4521L41.2344 65.1016V59.6406L52.7031 54.0635V59.4521Z" stroke="url(#paint8_linear_59_12)"/>
<path d="M52.7031 59.4521L41.2344 65.1016V59.6406L52.7031 54.0635V59.4521Z" stroke="url(#paint9_linear_59_12)"/>
</g>
<path d="M52.7607 65.7598L52.71 71.1875L41.2344 65.5928V60.1289L52.7607 65.7598Z" fill="#E7F9FC"/>
<path d="M52.7607 65.7598L52.71 71.1875L41.2344 65.5928V60.1289L52.7607 65.7598Z" fill="url(#paint10_linear_59_12)"/>
<path d="M52.7607 65.7598L52.71 71.1875L41.2344 65.5928V60.1289L52.7607 65.7598Z" stroke="#E7F9FC"/>
<path d="M52.7607 65.7598L52.71 71.1875L41.2344 65.5928V60.1289L52.7607 65.7598Z" stroke="url(#paint11_linear_59_12)"/>
<path d="M52.7607 65.7598L52.71 71.1875L41.2344 65.5928V60.1289L52.7607 65.7598Z" stroke="url(#paint12_linear_59_12)"/>
<path d="M52.7246 53.5811V58.9443L35.7588 50.1875L40.6738 47.8125L52.7246 53.5811Z" fill="#E7F9FC"/>
<path d="M52.7246 53.5811V58.9443L35.7588 50.1875L40.6738 47.8125L52.7246 53.5811Z" fill="url(#paint13_linear_59_12)"/>
<path d="M52.7246 53.5811V58.9443L35.7588 50.1875L40.6738 47.8125L52.7246 53.5811Z" stroke="#E7F9FC"/>
<path d="M52.7246 53.5811V58.9443L35.7588 50.1875L40.6738 47.8125L52.7246 53.5811Z" stroke="url(#paint14_linear_59_12)"/>
<path d="M52.7246 53.5811V58.9443L35.7588 50.1875L40.6738 47.8125L52.7246 53.5811Z" stroke="url(#paint15_linear_59_12)"/>
<path d="M41.2461 32.4219C55.7333 32.4219 67.5 44.2738 67.5 58.9219C67.5 73.5699 55.7333 85.4219 41.2461 85.4219C26.7589 85.4219 14.9922 73.5699 14.9922 58.9219C14.9922 44.2738 26.7589 32.4219 41.2461 32.4219Z" stroke="#E7F9FC" stroke-width="3"/>
<path d="M41.2461 32.4219C55.7333 32.4219 67.5 44.2738 67.5 58.9219C67.5 73.5699 55.7333 85.4219 41.2461 85.4219C26.7589 85.4219 14.9922 73.5699 14.9922 58.9219C14.9922 44.2738 26.7589 32.4219 41.2461 32.4219Z" stroke="url(#paint16_linear_59_12)" stroke-width="3"/>
<path d="M41.2461 32.4219C55.7333 32.4219 67.5 44.2738 67.5 58.9219C67.5 73.5699 55.7333 85.4219 41.2461 85.4219C26.7589 85.4219 14.9922 73.5699 14.9922 58.9219C14.9922 44.2738 26.7589 32.4219 41.2461 32.4219Z" stroke="url(#paint17_linear_59_12)" stroke-width="3"/>
<path d="M41.2461 32.4219C55.7333 32.4219 67.5 44.2738 67.5 58.9219C67.5 73.5699 55.7333 85.4219 41.2461 85.4219C26.7589 85.4219 14.9922 73.5699 14.9922 58.9219C14.9922 44.2738 26.7589 32.4219 41.2461 32.4219Z" stroke="url(#paint18_linear_59_12)" stroke-width="3"/>
<path d="M43.4961 0.5C44.7648 0.5 45.8924 1.14934 46.4307 2.12988H46.4316L48.7168 6.28223L48.8369 6.50195L49.085 6.53711L54.2891 7.26953L54.2969 7.27051C55.561 7.42859 56.5495 8.19546 56.9336 9.23535V9.23633C57.2971 10.2701 57.0043 11.378 56.1152 12.1631L52.4336 15.3877L52.2217 15.5732L52.2715 15.8516L53.1055 20.5088V20.5117C53.3008 21.5643 52.8277 22.6424 51.8184 23.3086C51.2332 23.692 50.5677 23.8779 49.8799 23.8779C49.3545 23.8779 48.8277 23.7634 48.3311 23.5332H48.3301L43.7822 21.3857L43.5723 21.2861L43.3604 21.3828L38.6816 23.5332L38.6787 23.5342C37.5435 24.0654 36.2049 23.9758 35.1943 23.3096L35.1914 23.3076L35.0059 23.1777C34.1142 22.5091 33.7214 21.5024 33.9053 20.5117L33.9043 20.5107L34.7754 15.9551L34.8281 15.6768L34.6172 15.4883L30.8809 12.1504L30.8789 12.1475C30.0737 11.4369 29.7487 10.4695 29.9658 9.53516L30.0742 9.24414C30.4572 8.21279 31.4499 7.42856 32.7139 7.27051H32.7168L37.8125 6.60254L38.0605 6.57031L38.1836 6.35254L40.5586 2.13477H40.5596L40.5635 2.12695C41.1002 1.13554 42.2241 0.500099 43.4961 0.5ZM43.0254 2.99414L40.6318 7.21191H40.6309L40.626 7.22168C40.1952 8.02089 39.3751 8.59919 38.374 8.78711L38.1719 8.81934L33.0762 9.48633L32.7695 9.52734L32.6689 9.82031L32.5957 10.0322L32.4873 10.3496L32.7393 10.5703L36.4209 13.7949C37.189 14.4711 37.5267 15.4195 37.3477 16.3174L37.3467 16.3213L36.4766 20.8809L36.4141 21.21L36.6943 21.3936L36.8936 21.5234L37.1279 21.6768L37.3809 21.5566L41.9326 19.4072L41.9355 19.4062C42.8264 18.9797 43.8906 18.9518 44.8213 19.3271L45.0059 19.4072L49.5576 21.5566L49.8105 21.6768L50.0439 21.5234L50.2441 21.3936L50.5244 21.21L50.4619 20.8809L49.5908 16.3213C49.4261 15.3973 49.7554 14.4658 50.5176 13.7949L54.1992 10.5703L54.4512 10.3496L54.3428 10.0322L54.2695 9.82031L54.1689 9.52734L53.8623 9.48633L48.7666 8.81934H48.7676C47.6943 8.67554 46.7709 8.05894 46.3105 7.21875V7.21777L44.0254 3.06445L44.0234 3.0625C43.9498 2.93042 43.8373 2.86506 43.8164 2.85254C43.7741 2.82721 43.7335 2.80937 43.708 2.79883C43.6805 2.78742 43.6558 2.77828 43.6387 2.77246C43.6299 2.76949 43.622 2.76746 43.6162 2.76562C43.6134 2.76473 43.6104 2.7643 43.6084 2.76367C43.6074 2.76336 43.6063 2.76294 43.6055 2.7627L43.6045 2.76172H43.6035L43.2217 2.64746L43.0254 2.99414Z" fill="#E7F9FC"/>
<path d="M43.4961 0.5C44.7648 0.5 45.8924 1.14934 46.4307 2.12988H46.4316L48.7168 6.28223L48.8369 6.50195L49.085 6.53711L54.2891 7.26953L54.2969 7.27051C55.561 7.42859 56.5495 8.19546 56.9336 9.23535V9.23633C57.2971 10.2701 57.0043 11.378 56.1152 12.1631L52.4336 15.3877L52.2217 15.5732L52.2715 15.8516L53.1055 20.5088V20.5117C53.3008 21.5643 52.8277 22.6424 51.8184 23.3086C51.2332 23.692 50.5677 23.8779 49.8799 23.8779C49.3545 23.8779 48.8277 23.7634 48.3311 23.5332H48.3301L43.7822 21.3857L43.5723 21.2861L43.3604 21.3828L38.6816 23.5332L38.6787 23.5342C37.5435 24.0654 36.2049 23.9758 35.1943 23.3096L35.1914 23.3076L35.0059 23.1777C34.1142 22.5091 33.7214 21.5024 33.9053 20.5117L33.9043 20.5107L34.7754 15.9551L34.8281 15.6768L34.6172 15.4883L30.8809 12.1504L30.8789 12.1475C30.0737 11.4369 29.7487 10.4695 29.9658 9.53516L30.0742 9.24414C30.4572 8.21279 31.4499 7.42856 32.7139 7.27051H32.7168L37.8125 6.60254L38.0605 6.57031L38.1836 6.35254L40.5586 2.13477H40.5596L40.5635 2.12695C41.1002 1.13554 42.2241 0.500099 43.4961 0.5ZM43.0254 2.99414L40.6318 7.21191H40.6309L40.626 7.22168C40.1952 8.02089 39.3751 8.59919 38.374 8.78711L38.1719 8.81934L33.0762 9.48633L32.7695 9.52734L32.6689 9.82031L32.5957 10.0322L32.4873 10.3496L32.7393 10.5703L36.4209 13.7949C37.189 14.4711 37.5267 15.4195 37.3477 16.3174L37.3467 16.3213L36.4766 20.8809L36.4141 21.21L36.6943 21.3936L36.8936 21.5234L37.1279 21.6768L37.3809 21.5566L41.9326 19.4072L41.9355 19.4062C42.8264 18.9797 43.8906 18.9518 44.8213 19.3271L45.0059 19.4072L49.5576 21.5566L49.8105 21.6768L50.0439 21.5234L50.2441 21.3936L50.5244 21.21L50.4619 20.8809L49.5908 16.3213C49.4261 15.3973 49.7554 14.4658 50.5176 13.7949L54.1992 10.5703L54.4512 10.3496L54.3428 10.0322L54.2695 9.82031L54.1689 9.52734L53.8623 9.48633L48.7666 8.81934H48.7676C47.6943 8.67554 46.7709 8.05894 46.3105 7.21875V7.21777L44.0254 3.06445L44.0234 3.0625C43.9498 2.93042 43.8373 2.86506 43.8164 2.85254C43.7741 2.82721 43.7335 2.80937 43.708 2.79883C43.6805 2.78742 43.6558 2.77828 43.6387 2.77246C43.6299 2.76949 43.622 2.76746 43.6162 2.76562C43.6134 2.76473 43.6104 2.7643 43.6084 2.76367C43.6074 2.76336 43.6063 2.76294 43.6055 2.7627L43.6045 2.76172H43.6035L43.2217 2.64746L43.0254 2.99414Z" fill="url(#paint19_linear_59_12)"/>
<path d="M43.4961 0.5C44.7648 0.5 45.8924 1.14934 46.4307 2.12988H46.4316L48.7168 6.28223L48.8369 6.50195L49.085 6.53711L54.2891 7.26953L54.2969 7.27051C55.561 7.42859 56.5495 8.19546 56.9336 9.23535V9.23633C57.2971 10.2701 57.0043 11.378 56.1152 12.1631L52.4336 15.3877L52.2217 15.5732L52.2715 15.8516L53.1055 20.5088V20.5117C53.3008 21.5643 52.8277 22.6424 51.8184 23.3086C51.2332 23.692 50.5677 23.8779 49.8799 23.8779C49.3545 23.8779 48.8277 23.7634 48.3311 23.5332H48.3301L43.7822 21.3857L43.5723 21.2861L43.3604 21.3828L38.6816 23.5332L38.6787 23.5342C37.5435 24.0654 36.2049 23.9758 35.1943 23.3096L35.1914 23.3076L35.0059 23.1777C34.1142 22.5091 33.7214 21.5024 33.9053 20.5117L33.9043 20.5107L34.7754 15.9551L34.8281 15.6768L34.6172 15.4883L30.8809 12.1504L30.8789 12.1475C30.0737 11.4369 29.7487 10.4695 29.9658 9.53516L30.0742 9.24414C30.4572 8.21279 31.4499 7.42856 32.7139 7.27051H32.7168L37.8125 6.60254L38.0605 6.57031L38.1836 6.35254L40.5586 2.13477H40.5596L40.5635 2.12695C41.1002 1.13554 42.2241 0.500099 43.4961 0.5ZM43.0254 2.99414L40.6318 7.21191H40.6309L40.626 7.22168C40.1952 8.02089 39.3751 8.59919 38.374 8.78711L38.1719 8.81934L33.0762 9.48633L32.7695 9.52734L32.6689 9.82031L32.5957 10.0322L32.4873 10.3496L32.7393 10.5703L36.4209 13.7949C37.189 14.4711 37.5267 15.4195 37.3477 16.3174L37.3467 16.3213L36.4766 20.8809L36.4141 21.21L36.6943 21.3936L36.8936 21.5234L37.1279 21.6768L37.3809 21.5566L41.9326 19.4072L41.9355 19.4062C42.8264 18.9797 43.8906 18.9518 44.8213 19.3271L45.0059 19.4072L49.5576 21.5566L49.8105 21.6768L50.0439 21.5234L50.2441 21.3936L50.5244 21.21L50.4619 20.8809L49.5908 16.3213C49.4261 15.3973 49.7554 14.4658 50.5176 13.7949L54.1992 10.5703L54.4512 10.3496L54.3428 10.0322L54.2695 9.82031L54.1689 9.52734L53.8623 9.48633L48.7666 8.81934H48.7676C47.6943 8.67554 46.7709 8.05894 46.3105 7.21875V7.21777L44.0254 3.06445L44.0234 3.0625C43.9498 2.93042 43.8373 2.86506 43.8164 2.85254C43.7741 2.82721 43.7335 2.80937 43.708 2.79883C43.6805 2.78742 43.6558 2.77828 43.6387 2.77246C43.6299 2.76949 43.622 2.76746 43.6162 2.76562C43.6134 2.76473 43.6104 2.7643 43.6084 2.76367C43.6074 2.76336 43.6063 2.76294 43.6055 2.7627L43.6045 2.76172H43.6035L43.2217 2.64746L43.0254 2.99414Z" fill="url(#paint20_linear_59_12)"/>
<path d="M43.4961 0.5C44.7648 0.5 45.8924 1.14934 46.4307 2.12988H46.4316L48.7168 6.28223L48.8369 6.50195L49.085 6.53711L54.2891 7.26953L54.2969 7.27051C55.561 7.42859 56.5495 8.19546 56.9336 9.23535V9.23633C57.2971 10.2701 57.0043 11.378 56.1152 12.1631L52.4336 15.3877L52.2217 15.5732L52.2715 15.8516L53.1055 20.5088V20.5117C53.3008 21.5643 52.8277 22.6424 51.8184 23.3086C51.2332 23.692 50.5677 23.8779 49.8799 23.8779C49.3545 23.8779 48.8277 23.7634 48.3311 23.5332H48.3301L43.7822 21.3857L43.5723 21.2861L43.3604 21.3828L38.6816 23.5332L38.6787 23.5342C37.5435 24.0654 36.2049 23.9758 35.1943 23.3096L35.1914 23.3076L35.0059 23.1777C34.1142 22.5091 33.7214 21.5024 33.9053 20.5117L33.9043 20.5107L34.7754 15.9551L34.8281 15.6768L34.6172 15.4883L30.8809 12.1504L30.8789 12.1475C30.0737 11.4369 29.7487 10.4695 29.9658 9.53516L30.0742 9.24414C30.4572 8.21279 31.4499 7.42856 32.7139 7.27051H32.7168L37.8125 6.60254L38.0605 6.57031L38.1836 6.35254L40.5586 2.13477H40.5596L40.5635 2.12695C41.1002 1.13554 42.2241 0.500099 43.4961 0.5ZM43.0254 2.99414L40.6318 7.21191H40.6309L40.626 7.22168C40.1952 8.02089 39.3751 8.59919 38.374 8.78711L38.1719 8.81934L33.0762 9.48633L32.7695 9.52734L32.6689 9.82031L32.5957 10.0322L32.4873 10.3496L32.7393 10.5703L36.4209 13.7949C37.189 14.4711 37.5267 15.4195 37.3477 16.3174L37.3467 16.3213L36.4766 20.8809L36.4141 21.21L36.6943 21.3936L36.8936 21.5234L37.1279 21.6768L37.3809 21.5566L41.9326 19.4072L41.9355 19.4062C42.8264 18.9797 43.8906 18.9518 44.8213 19.3271L45.0059 19.4072L49.5576 21.5566L49.8105 21.6768L50.0439 21.5234L50.2441 21.3936L50.5244 21.21L50.4619 20.8809L49.5908 16.3213C49.4261 15.3973 49.7554 14.4658 50.5176 13.7949L54.1992 10.5703L54.4512 10.3496L54.3428 10.0322L54.2695 9.82031L54.1689 9.52734L53.8623 9.48633L48.7666 8.81934H48.7676C47.6943 8.67554 46.7709 8.05894 46.3105 7.21875V7.21777L44.0254 3.06445L44.0234 3.0625C43.9498 2.93042 43.8373 2.86506 43.8164 2.85254C43.7741 2.82721 43.7335 2.80937 43.708 2.79883C43.6805 2.78742 43.6558 2.77828 43.6387 2.77246C43.6299 2.76949 43.622 2.76746 43.6162 2.76562C43.6134 2.76473 43.6104 2.7643 43.6084 2.76367C43.6074 2.76336 43.6063 2.76294 43.6055 2.7627L43.6045 2.76172H43.6035L43.2217 2.64746L43.0254 2.99414Z" stroke="#E7F9FC"/>
<path d="M43.4961 0.5C44.7648 0.5 45.8924 1.14934 46.4307 2.12988H46.4316L48.7168 6.28223L48.8369 6.50195L49.085 6.53711L54.2891 7.26953L54.2969 7.27051C55.561 7.42859 56.5495 8.19546 56.9336 9.23535V9.23633C57.2971 10.2701 57.0043 11.378 56.1152 12.1631L52.4336 15.3877L52.2217 15.5732L52.2715 15.8516L53.1055 20.5088V20.5117C53.3008 21.5643 52.8277 22.6424 51.8184 23.3086C51.2332 23.692 50.5677 23.8779 49.8799 23.8779C49.3545 23.8779 48.8277 23.7634 48.3311 23.5332H48.3301L43.7822 21.3857L43.5723 21.2861L43.3604 21.3828L38.6816 23.5332L38.6787 23.5342C37.5435 24.0654 36.2049 23.9758 35.1943 23.3096L35.1914 23.3076L35.0059 23.1777C34.1142 22.5091 33.7214 21.5024 33.9053 20.5117L33.9043 20.5107L34.7754 15.9551L34.8281 15.6768L34.6172 15.4883L30.8809 12.1504L30.8789 12.1475C30.0737 11.4369 29.7487 10.4695 29.9658 9.53516L30.0742 9.24414C30.4572 8.21279 31.4499 7.42856 32.7139 7.27051H32.7168L37.8125 6.60254L38.0605 6.57031L38.1836 6.35254L40.5586 2.13477H40.5596L40.5635 2.12695C41.1002 1.13554 42.2241 0.500099 43.4961 0.5ZM43.0254 2.99414L40.6318 7.21191H40.6309L40.626 7.22168C40.1952 8.02089 39.3751 8.59919 38.374 8.78711L38.1719 8.81934L33.0762 9.48633L32.7695 9.52734L32.6689 9.82031L32.5957 10.0322L32.4873 10.3496L32.7393 10.5703L36.4209 13.7949C37.189 14.4711 37.5267 15.4195 37.3477 16.3174L37.3467 16.3213L36.4766 20.8809L36.4141 21.21L36.6943 21.3936L36.8936 21.5234L37.1279 21.6768L37.3809 21.5566L41.9326 19.4072L41.9355 19.4062C42.8264 18.9797 43.8906 18.9518 44.8213 19.3271L45.0059 19.4072L49.5576 21.5566L49.8105 21.6768L50.0439 21.5234L50.2441 21.3936L50.5244 21.21L50.4619 20.8809L49.5908 16.3213C49.4261 15.3973 49.7554 14.4658 50.5176 13.7949L54.1992 10.5703L54.4512 10.3496L54.3428 10.0322L54.2695 9.82031L54.1689 9.52734L53.8623 9.48633L48.7666 8.81934H48.7676C47.6943 8.67554 46.7709 8.05894 46.3105 7.21875V7.21777L44.0254 3.06445L44.0234 3.0625C43.9498 2.93042 43.8373 2.86506 43.8164 2.85254C43.7741 2.82721 43.7335 2.80937 43.708 2.79883C43.6805 2.78742 43.6558 2.77828 43.6387 2.77246C43.6299 2.76949 43.622 2.76746 43.6162 2.76562C43.6134 2.76473 43.6104 2.7643 43.6084 2.76367C43.6074 2.76336 43.6063 2.76294 43.6055 2.7627L43.6045 2.76172H43.6035L43.2217 2.64746L43.0254 2.99414Z" stroke="url(#paint21_linear_59_12)"/>
<path d="M43.4961 0.5C44.7648 0.5 45.8924 1.14934 46.4307 2.12988H46.4316L48.7168 6.28223L48.8369 6.50195L49.085 6.53711L54.2891 7.26953L54.2969 7.27051C55.561 7.42859 56.5495 8.19546 56.9336 9.23535V9.23633C57.2971 10.2701 57.0043 11.378 56.1152 12.1631L52.4336 15.3877L52.2217 15.5732L52.2715 15.8516L53.1055 20.5088V20.5117C53.3008 21.5643 52.8277 22.6424 51.8184 23.3086C51.2332 23.692 50.5677 23.8779 49.8799 23.8779C49.3545 23.8779 48.8277 23.7634 48.3311 23.5332H48.3301L43.7822 21.3857L43.5723 21.2861L43.3604 21.3828L38.6816 23.5332L38.6787 23.5342C37.5435 24.0654 36.2049 23.9758 35.1943 23.3096L35.1914 23.3076L35.0059 23.1777C34.1142 22.5091 33.7214 21.5024 33.9053 20.5117L33.9043 20.5107L34.7754 15.9551L34.8281 15.6768L34.6172 15.4883L30.8809 12.1504L30.8789 12.1475C30.0737 11.4369 29.7487 10.4695 29.9658 9.53516L30.0742 9.24414C30.4572 8.21279 31.4499 7.42856 32.7139 7.27051H32.7168L37.8125 6.60254L38.0605 6.57031L38.1836 6.35254L40.5586 2.13477H40.5596L40.5635 2.12695C41.1002 1.13554 42.2241 0.500099 43.4961 0.5ZM43.0254 2.99414L40.6318 7.21191H40.6309L40.626 7.22168C40.1952 8.02089 39.3751 8.59919 38.374 8.78711L38.1719 8.81934L33.0762 9.48633L32.7695 9.52734L32.6689 9.82031L32.5957 10.0322L32.4873 10.3496L32.7393 10.5703L36.4209 13.7949C37.189 14.4711 37.5267 15.4195 37.3477 16.3174L37.3467 16.3213L36.4766 20.8809L36.4141 21.21L36.6943 21.3936L36.8936 21.5234L37.1279 21.6768L37.3809 21.5566L41.9326 19.4072L41.9355 19.4062C42.8264 18.9797 43.8906 18.9518 44.8213 19.3271L45.0059 19.4072L49.5576 21.5566L49.8105 21.6768L50.0439 21.5234L50.2441 21.3936L50.5244 21.21L50.4619 20.8809L49.5908 16.3213C49.4261 15.3973 49.7554 14.4658 50.5176 13.7949L54.1992 10.5703L54.4512 10.3496L54.3428 10.0322L54.2695 9.82031L54.1689 9.52734L53.8623 9.48633L48.7666 8.81934H48.7676C47.6943 8.67554 46.7709 8.05894 46.3105 7.21875V7.21777L44.0254 3.06445L44.0234 3.0625C43.9498 2.93042 43.8373 2.86506 43.8164 2.85254C43.7741 2.82721 43.7335 2.80937 43.708 2.79883C43.6805 2.78742 43.6558 2.77828 43.6387 2.77246C43.6299 2.76949 43.622 2.76746 43.6162 2.76562C43.6134 2.76473 43.6104 2.7643 43.6084 2.76367C43.6074 2.76336 43.6063 2.76294 43.6055 2.7627L43.6045 2.76172H43.6035L43.2217 2.64746L43.0254 2.99414Z" stroke="url(#paint22_linear_59_12)"/>
<path d="M43.4961 0.5C44.7648 0.5 45.8924 1.14934 46.4307 2.12988H46.4316L48.7168 6.28223L48.8369 6.50195L49.085 6.53711L54.2891 7.26953L54.2969 7.27051C55.561 7.42859 56.5495 8.19546 56.9336 9.23535V9.23633C57.2971 10.2701 57.0043 11.378 56.1152 12.1631L52.4336 15.3877L52.2217 15.5732L52.2715 15.8516L53.1055 20.5088V20.5117C53.3008 21.5643 52.8277 22.6424 51.8184 23.3086C51.2332 23.692 50.5677 23.8779 49.8799 23.8779C49.3545 23.8779 48.8277 23.7634 48.3311 23.5332H48.3301L43.7822 21.3857L43.5723 21.2861L43.3604 21.3828L38.6816 23.5332L38.6787 23.5342C37.5435 24.0654 36.2049 23.9758 35.1943 23.3096L35.1914 23.3076L35.0059 23.1777C34.1142 22.5091 33.7214 21.5024 33.9053 20.5117L33.9043 20.5107L34.7754 15.9551L34.8281 15.6768L34.6172 15.4883L30.8809 12.1504L30.8789 12.1475C30.0737 11.4369 29.7487 10.4695 29.9658 9.53516L30.0742 9.24414C30.4572 8.21279 31.4499 7.42856 32.7139 7.27051H32.7168L37.8125 6.60254L38.0605 6.57031L38.1836 6.35254L40.5586 2.13477H40.5596L40.5635 2.12695C41.1002 1.13554 42.2241 0.500099 43.4961 0.5ZM43.0254 2.99414L40.6318 7.21191H40.6309L40.626 7.22168C40.1952 8.02089 39.3751 8.59919 38.374 8.78711L38.1719 8.81934L33.0762 9.48633L32.7695 9.52734L32.6689 9.82031L32.5957 10.0322L32.4873 10.3496L32.7393 10.5703L36.4209 13.7949C37.189 14.4711 37.5267 15.4195 37.3477 16.3174L37.3467 16.3213L36.4766 20.8809L36.4141 21.21L36.6943 21.3936L36.8936 21.5234L37.1279 21.6768L37.3809 21.5566L41.9326 19.4072L41.9355 19.4062C42.8264 18.9797 43.8906 18.9518 44.8213 19.3271L45.0059 19.4072L49.5576 21.5566L49.8105 21.6768L50.0439 21.5234L50.2441 21.3936L50.5244 21.21L50.4619 20.8809L49.5908 16.3213C49.4261 15.3973 49.7554 14.4658 50.5176 13.7949L54.1992 10.5703L54.4512 10.3496L54.3428 10.0322L54.2695 9.82031L54.1689 9.52734L53.8623 9.48633L48.7666 8.81934H48.7676C47.6943 8.67554 46.7709 8.05894 46.3105 7.21875V7.21777L44.0254 3.06445L44.0234 3.0625C43.9498 2.93042 43.8373 2.86506 43.8164 2.85254C43.7741 2.82721 43.7335 2.80937 43.708 2.79883C43.6805 2.78742 43.6558 2.77828 43.6387 2.77246C43.6299 2.76949 43.622 2.76746 43.6162 2.76562C43.6134 2.76473 43.6104 2.7643 43.6084 2.76367C43.6074 2.76336 43.6063 2.76294 43.6055 2.7627L43.6045 2.76172H43.6035L43.2217 2.64746L43.0254 2.99414Z" stroke="url(#paint23_linear_59_12)"/>
<path d="M12.0049 14.2188C13.1942 14.2189 14.2591 14.7897 14.8311 15.6689L14.9395 15.8486L16.5898 18.8457L16.71 19.0625L16.9551 19.0986L20.7461 19.6523L20.7549 19.6533C22.0031 19.8114 22.9943 20.5813 23.377 21.626C23.7542 22.6561 23.463 23.7607 22.5742 24.5459L19.9092 26.875L19.6963 27.0596L19.7451 27.3379L20.3438 30.7412L20.3447 30.7461C20.5398 31.7979 20.0666 32.8748 19.0586 33.541C18.0915 34.1689 16.8693 34.2853 15.7861 33.8604L15.5713 33.7676L12.2725 32.2061L12.0625 32.1064L11.8516 32.2021L8.42383 33.7656L8.4209 33.7676C7.92432 33.9977 7.39741 34.1113 6.87207 34.1113C6.18884 34.1113 5.50471 33.9119 4.93457 33.543H4.93555C3.92506 32.8765 3.45377 31.8011 3.66309 30.7529L3.66406 30.749L4.2207 27.8652H5.14258L4.17871 26.9941L1.47754 24.5518L1.47266 24.5479L1.3125 24.3965C0.548279 23.6223 0.31195 22.5751 0.651367 21.6221C1.01668 20.5969 2.00608 19.8125 3.27148 19.6543L3.27539 19.6533L6.95605 19.165L7.20215 19.1318L7.3252 18.916L9.06641 15.8545L9.07129 15.8457C9.60802 14.8541 10.7327 14.2188 12.0049 14.2188ZM11.5723 16.7412L9.79492 19.8027L9.78906 19.8135C9.33001 20.6517 8.42623 21.253 7.33301 21.3975L3.65137 21.8867L3.49902 21.9062L3.38477 22.0088L3.36621 22.0254L3.26855 22.1123L3.22559 22.2363L3.15332 22.4482L3.04395 22.7656L3.29688 22.9863L5.96289 25.3154C6.7307 25.9915 7.06855 26.9392 6.88965 27.8369V27.8408L6.25488 31.1299L6.19043 31.46L6.47168 31.6436L6.67188 31.7734L6.90625 31.9268L7.15918 31.8066L10.46 30.2432L10.4609 30.2422C10.9361 30.0147 11.4429 29.9004 11.9863 29.9004C12.532 29.9004 13.0563 30.0157 13.5293 30.2422L13.5312 30.2432L16.832 31.8066L17.085 31.9268L17.3193 31.7734L17.5186 31.6436L17.7998 31.46L17.7363 31.1299L17.1016 27.8408C16.9371 26.9168 17.2658 25.9843 18.0283 25.3135L20.6934 22.9863L20.9463 22.7656L20.8379 22.4482L20.7656 22.2363L20.665 21.9434L20.3584 21.9023L16.6768 21.4141C15.6037 21.2702 14.681 20.6536 14.2207 19.8135L14.2197 19.8125L12.5693 16.8164L12.5684 16.8135L12.5078 16.7275C12.4439 16.6527 12.3761 16.6139 12.3604 16.6045C12.3182 16.5793 12.2784 16.5613 12.2529 16.5508C12.2251 16.5393 12.1998 16.5302 12.1826 16.5244C12.1737 16.5214 12.166 16.5185 12.1602 16.5166C12.1573 16.5157 12.1544 16.5153 12.1523 16.5146L12.1504 16.5137H12.1484V16.5127H12.1475L11.7705 16.4004L11.5723 16.7412Z" fill="#E7F9FC"/>
<path d="M12.0049 14.2188C13.1942 14.2189 14.2591 14.7897 14.8311 15.6689L14.9395 15.8486L16.5898 18.8457L16.71 19.0625L16.9551 19.0986L20.7461 19.6523L20.7549 19.6533C22.0031 19.8114 22.9943 20.5813 23.377 21.626C23.7542 22.6561 23.463 23.7607 22.5742 24.5459L19.9092 26.875L19.6963 27.0596L19.7451 27.3379L20.3438 30.7412L20.3447 30.7461C20.5398 31.7979 20.0666 32.8748 19.0586 33.541C18.0915 34.1689 16.8693 34.2853 15.7861 33.8604L15.5713 33.7676L12.2725 32.2061L12.0625 32.1064L11.8516 32.2021L8.42383 33.7656L8.4209 33.7676C7.92432 33.9977 7.39741 34.1113 6.87207 34.1113C6.18884 34.1113 5.50471 33.9119 4.93457 33.543H4.93555C3.92506 32.8765 3.45377 31.8011 3.66309 30.7529L3.66406 30.749L4.2207 27.8652H5.14258L4.17871 26.9941L1.47754 24.5518L1.47266 24.5479L1.3125 24.3965C0.548279 23.6223 0.31195 22.5751 0.651367 21.6221C1.01668 20.5969 2.00608 19.8125 3.27148 19.6543L3.27539 19.6533L6.95605 19.165L7.20215 19.1318L7.3252 18.916L9.06641 15.8545L9.07129 15.8457C9.60802 14.8541 10.7327 14.2188 12.0049 14.2188ZM11.5723 16.7412L9.79492 19.8027L9.78906 19.8135C9.33001 20.6517 8.42623 21.253 7.33301 21.3975L3.65137 21.8867L3.49902 21.9062L3.38477 22.0088L3.36621 22.0254L3.26855 22.1123L3.22559 22.2363L3.15332 22.4482L3.04395 22.7656L3.29688 22.9863L5.96289 25.3154C6.7307 25.9915 7.06855 26.9392 6.88965 27.8369V27.8408L6.25488 31.1299L6.19043 31.46L6.47168 31.6436L6.67188 31.7734L6.90625 31.9268L7.15918 31.8066L10.46 30.2432L10.4609 30.2422C10.9361 30.0147 11.4429 29.9004 11.9863 29.9004C12.532 29.9004 13.0563 30.0157 13.5293 30.2422L13.5312 30.2432L16.832 31.8066L17.085 31.9268L17.3193 31.7734L17.5186 31.6436L17.7998 31.46L17.7363 31.1299L17.1016 27.8408C16.9371 26.9168 17.2658 25.9843 18.0283 25.3135L20.6934 22.9863L20.9463 22.7656L20.8379 22.4482L20.7656 22.2363L20.665 21.9434L20.3584 21.9023L16.6768 21.4141C15.6037 21.2702 14.681 20.6536 14.2207 19.8135L14.2197 19.8125L12.5693 16.8164L12.5684 16.8135L12.5078 16.7275C12.4439 16.6527 12.3761 16.6139 12.3604 16.6045C12.3182 16.5793 12.2784 16.5613 12.2529 16.5508C12.2251 16.5393 12.1998 16.5302 12.1826 16.5244C12.1737 16.5214 12.166 16.5185 12.1602 16.5166C12.1573 16.5157 12.1544 16.5153 12.1523 16.5146L12.1504 16.5137H12.1484V16.5127H12.1475L11.7705 16.4004L11.5723 16.7412Z" fill="url(#paint24_linear_59_12)"/>
<path d="M12.0049 14.2188C13.1942 14.2189 14.2591 14.7897 14.8311 15.6689L14.9395 15.8486L16.5898 18.8457L16.71 19.0625L16.9551 19.0986L20.7461 19.6523L20.7549 19.6533C22.0031 19.8114 22.9943 20.5813 23.377 21.626C23.7542 22.6561 23.463 23.7607 22.5742 24.5459L19.9092 26.875L19.6963 27.0596L19.7451 27.3379L20.3438 30.7412L20.3447 30.7461C20.5398 31.7979 20.0666 32.8748 19.0586 33.541C18.0915 34.1689 16.8693 34.2853 15.7861 33.8604L15.5713 33.7676L12.2725 32.2061L12.0625 32.1064L11.8516 32.2021L8.42383 33.7656L8.4209 33.7676C7.92432 33.9977 7.39741 34.1113 6.87207 34.1113C6.18884 34.1113 5.50471 33.9119 4.93457 33.543H4.93555C3.92506 32.8765 3.45377 31.8011 3.66309 30.7529L3.66406 30.749L4.2207 27.8652H5.14258L4.17871 26.9941L1.47754 24.5518L1.47266 24.5479L1.3125 24.3965C0.548279 23.6223 0.31195 22.5751 0.651367 21.6221C1.01668 20.5969 2.00608 19.8125 3.27148 19.6543L3.27539 19.6533L6.95605 19.165L7.20215 19.1318L7.3252 18.916L9.06641 15.8545L9.07129 15.8457C9.60802 14.8541 10.7327 14.2188 12.0049 14.2188ZM11.5723 16.7412L9.79492 19.8027L9.78906 19.8135C9.33001 20.6517 8.42623 21.253 7.33301 21.3975L3.65137 21.8867L3.49902 21.9062L3.38477 22.0088L3.36621 22.0254L3.26855 22.1123L3.22559 22.2363L3.15332 22.4482L3.04395 22.7656L3.29688 22.9863L5.96289 25.3154C6.7307 25.9915 7.06855 26.9392 6.88965 27.8369V27.8408L6.25488 31.1299L6.19043 31.46L6.47168 31.6436L6.67188 31.7734L6.90625 31.9268L7.15918 31.8066L10.46 30.2432L10.4609 30.2422C10.9361 30.0147 11.4429 29.9004 11.9863 29.9004C12.532 29.9004 13.0563 30.0157 13.5293 30.2422L13.5312 30.2432L16.832 31.8066L17.085 31.9268L17.3193 31.7734L17.5186 31.6436L17.7998 31.46L17.7363 31.1299L17.1016 27.8408C16.9371 26.9168 17.2658 25.9843 18.0283 25.3135L20.6934 22.9863L20.9463 22.7656L20.8379 22.4482L20.7656 22.2363L20.665 21.9434L20.3584 21.9023L16.6768 21.4141C15.6037 21.2702 14.681 20.6536 14.2207 19.8135L14.2197 19.8125L12.5693 16.8164L12.5684 16.8135L12.5078 16.7275C12.4439 16.6527 12.3761 16.6139 12.3604 16.6045C12.3182 16.5793 12.2784 16.5613 12.2529 16.5508C12.2251 16.5393 12.1998 16.5302 12.1826 16.5244C12.1737 16.5214 12.166 16.5185 12.1602 16.5166C12.1573 16.5157 12.1544 16.5153 12.1523 16.5146L12.1504 16.5137H12.1484V16.5127H12.1475L11.7705 16.4004L11.5723 16.7412Z" fill="url(#paint25_linear_59_12)"/>
<path d="M12.0049 14.2188C13.1942 14.2189 14.2591 14.7897 14.8311 15.6689L14.9395 15.8486L16.5898 18.8457L16.71 19.0625L16.9551 19.0986L20.7461 19.6523L20.7549 19.6533C22.0031 19.8114 22.9943 20.5813 23.377 21.626C23.7542 22.6561 23.463 23.7607 22.5742 24.5459L19.9092 26.875L19.6963 27.0596L19.7451 27.3379L20.3438 30.7412L20.3447 30.7461C20.5398 31.7979 20.0666 32.8748 19.0586 33.541C18.0915 34.1689 16.8693 34.2853 15.7861 33.8604L15.5713 33.7676L12.2725 32.2061L12.0625 32.1064L11.8516 32.2021L8.42383 33.7656L8.4209 33.7676C7.92432 33.9977 7.39741 34.1113 6.87207 34.1113C6.18884 34.1113 5.50471 33.9119 4.93457 33.543H4.93555C3.92506 32.8765 3.45377 31.8011 3.66309 30.7529L3.66406 30.749L4.2207 27.8652H5.14258L4.17871 26.9941L1.47754 24.5518L1.47266 24.5479L1.3125 24.3965C0.548279 23.6223 0.31195 22.5751 0.651367 21.6221C1.01668 20.5969 2.00608 19.8125 3.27148 19.6543L3.27539 19.6533L6.95605 19.165L7.20215 19.1318L7.3252 18.916L9.06641 15.8545L9.07129 15.8457C9.60802 14.8541 10.7327 14.2188 12.0049 14.2188ZM11.5723 16.7412L9.79492 19.8027L9.78906 19.8135C9.33001 20.6517 8.42623 21.253 7.33301 21.3975L3.65137 21.8867L3.49902 21.9062L3.38477 22.0088L3.36621 22.0254L3.26855 22.1123L3.22559 22.2363L3.15332 22.4482L3.04395 22.7656L3.29688 22.9863L5.96289 25.3154C6.7307 25.9915 7.06855 26.9392 6.88965 27.8369V27.8408L6.25488 31.1299L6.19043 31.46L6.47168 31.6436L6.67188 31.7734L6.90625 31.9268L7.15918 31.8066L10.46 30.2432L10.4609 30.2422C10.9361 30.0147 11.4429 29.9004 11.9863 29.9004C12.532 29.9004 13.0563 30.0157 13.5293 30.2422L13.5312 30.2432L16.832 31.8066L17.085 31.9268L17.3193 31.7734L17.5186 31.6436L17.7998 31.46L17.7363 31.1299L17.1016 27.8408C16.9371 26.9168 17.2658 25.9843 18.0283 25.3135L20.6934 22.9863L20.9463 22.7656L20.8379 22.4482L20.7656 22.2363L20.665 21.9434L20.3584 21.9023L16.6768 21.4141C15.6037 21.2702 14.681 20.6536 14.2207 19.8135L14.2197 19.8125L12.5693 16.8164L12.5684 16.8135L12.5078 16.7275C12.4439 16.6527 12.3761 16.6139 12.3604 16.6045C12.3182 16.5793 12.2784 16.5613 12.2529 16.5508C12.2251 16.5393 12.1998 16.5302 12.1826 16.5244C12.1737 16.5214 12.166 16.5185 12.1602 16.5166C12.1573 16.5157 12.1544 16.5153 12.1523 16.5146L12.1504 16.5137H12.1484V16.5127H12.1475L11.7705 16.4004L11.5723 16.7412Z" stroke="#E7F9FC"/>
<path d="M12.0049 14.2188C13.1942 14.2189 14.2591 14.7897 14.8311 15.6689L14.9395 15.8486L16.5898 18.8457L16.71 19.0625L16.9551 19.0986L20.7461 19.6523L20.7549 19.6533C22.0031 19.8114 22.9943 20.5813 23.377 21.626C23.7542 22.6561 23.463 23.7607 22.5742 24.5459L19.9092 26.875L19.6963 27.0596L19.7451 27.3379L20.3438 30.7412L20.3447 30.7461C20.5398 31.7979 20.0666 32.8748 19.0586 33.541C18.0915 34.1689 16.8693 34.2853 15.7861 33.8604L15.5713 33.7676L12.2725 32.2061L12.0625 32.1064L11.8516 32.2021L8.42383 33.7656L8.4209 33.7676C7.92432 33.9977 7.39741 34.1113 6.87207 34.1113C6.18884 34.1113 5.50471 33.9119 4.93457 33.543H4.93555C3.92506 32.8765 3.45377 31.8011 3.66309 30.7529L3.66406 30.749L4.2207 27.8652H5.14258L4.17871 26.9941L1.47754 24.5518L1.47266 24.5479L1.3125 24.3965C0.548279 23.6223 0.31195 22.5751 0.651367 21.6221C1.01668 20.5969 2.00608 19.8125 3.27148 19.6543L3.27539 19.6533L6.95605 19.165L7.20215 19.1318L7.3252 18.916L9.06641 15.8545L9.07129 15.8457C9.60802 14.8541 10.7327 14.2188 12.0049 14.2188ZM11.5723 16.7412L9.79492 19.8027L9.78906 19.8135C9.33001 20.6517 8.42623 21.253 7.33301 21.3975L3.65137 21.8867L3.49902 21.9062L3.38477 22.0088L3.36621 22.0254L3.26855 22.1123L3.22559 22.2363L3.15332 22.4482L3.04395 22.7656L3.29688 22.9863L5.96289 25.3154C6.7307 25.9915 7.06855 26.9392 6.88965 27.8369V27.8408L6.25488 31.1299L6.19043 31.46L6.47168 31.6436L6.67188 31.7734L6.90625 31.9268L7.15918 31.8066L10.46 30.2432L10.4609 30.2422C10.9361 30.0147 11.4429 29.9004 11.9863 29.9004C12.532 29.9004 13.0563 30.0157 13.5293 30.2422L13.5312 30.2432L16.832 31.8066L17.085 31.9268L17.3193 31.7734L17.5186 31.6436L17.7998 31.46L17.7363 31.1299L17.1016 27.8408C16.9371 26.9168 17.2658 25.9843 18.0283 25.3135L20.6934 22.9863L20.9463 22.7656L20.8379 22.4482L20.7656 22.2363L20.665 21.9434L20.3584 21.9023L16.6768 21.4141C15.6037 21.2702 14.681 20.6536 14.2207 19.8135L14.2197 19.8125L12.5693 16.8164L12.5684 16.8135L12.5078 16.7275C12.4439 16.6527 12.3761 16.6139 12.3604 16.6045C12.3182 16.5793 12.2784 16.5613 12.2529 16.5508C12.2251 16.5393 12.1998 16.5302 12.1826 16.5244C12.1737 16.5214 12.166 16.5185 12.1602 16.5166C12.1573 16.5157 12.1544 16.5153 12.1523 16.5146L12.1504 16.5137H12.1484V16.5127H12.1475L11.7705 16.4004L11.5723 16.7412Z" stroke="url(#paint26_linear_59_12)"/>
<path d="M12.0049 14.2188C13.1942 14.2189 14.2591 14.7897 14.8311 15.6689L14.9395 15.8486L16.5898 18.8457L16.71 19.0625L16.9551 19.0986L20.7461 19.6523L20.7549 19.6533C22.0031 19.8114 22.9943 20.5813 23.377 21.626C23.7542 22.6561 23.463 23.7607 22.5742 24.5459L19.9092 26.875L19.6963 27.0596L19.7451 27.3379L20.3438 30.7412L20.3447 30.7461C20.5398 31.7979 20.0666 32.8748 19.0586 33.541C18.0915 34.1689 16.8693 34.2853 15.7861 33.8604L15.5713 33.7676L12.2725 32.2061L12.0625 32.1064L11.8516 32.2021L8.42383 33.7656L8.4209 33.7676C7.92432 33.9977 7.39741 34.1113 6.87207 34.1113C6.18884 34.1113 5.50471 33.9119 4.93457 33.543H4.93555C3.92506 32.8765 3.45377 31.8011 3.66309 30.7529L3.66406 30.749L4.2207 27.8652H5.14258L4.17871 26.9941L1.47754 24.5518L1.47266 24.5479L1.3125 24.3965C0.548279 23.6223 0.31195 22.5751 0.651367 21.6221C1.01668 20.5969 2.00608 19.8125 3.27148 19.6543L3.27539 19.6533L6.95605 19.165L7.20215 19.1318L7.3252 18.916L9.06641 15.8545L9.07129 15.8457C9.60802 14.8541 10.7327 14.2188 12.0049 14.2188ZM11.5723 16.7412L9.79492 19.8027L9.78906 19.8135C9.33001 20.6517 8.42623 21.253 7.33301 21.3975L3.65137 21.8867L3.49902 21.9062L3.38477 22.0088L3.36621 22.0254L3.26855 22.1123L3.22559 22.2363L3.15332 22.4482L3.04395 22.7656L3.29688 22.9863L5.96289 25.3154C6.7307 25.9915 7.06855 26.9392 6.88965 27.8369V27.8408L6.25488 31.1299L6.19043 31.46L6.47168 31.6436L6.67188 31.7734L6.90625 31.9268L7.15918 31.8066L10.46 30.2432L10.4609 30.2422C10.9361 30.0147 11.4429 29.9004 11.9863 29.9004C12.532 29.9004 13.0563 30.0157 13.5293 30.2422L13.5312 30.2432L16.832 31.8066L17.085 31.9268L17.3193 31.7734L17.5186 31.6436L17.7998 31.46L17.7363 31.1299L17.1016 27.8408C16.9371 26.9168 17.2658 25.9843 18.0283 25.3135L20.6934 22.9863L20.9463 22.7656L20.8379 22.4482L20.7656 22.2363L20.665 21.9434L20.3584 21.9023L16.6768 21.4141C15.6037 21.2702 14.681 20.6536 14.2207 19.8135L14.2197 19.8125L12.5693 16.8164L12.5684 16.8135L12.5078 16.7275C12.4439 16.6527 12.3761 16.6139 12.3604 16.6045C12.3182 16.5793 12.2784 16.5613 12.2529 16.5508C12.2251 16.5393 12.1998 16.5302 12.1826 16.5244C12.1737 16.5214 12.166 16.5185 12.1602 16.5166C12.1573 16.5157 12.1544 16.5153 12.1523 16.5146L12.1504 16.5137H12.1484V16.5127H12.1475L11.7705 16.4004L11.5723 16.7412Z" stroke="url(#paint27_linear_59_12)"/>
<path d="M12.0049 14.2188C13.1942 14.2189 14.2591 14.7897 14.8311 15.6689L14.9395 15.8486L16.5898 18.8457L16.71 19.0625L16.9551 19.0986L20.7461 19.6523L20.7549 19.6533C22.0031 19.8114 22.9943 20.5813 23.377 21.626C23.7542 22.6561 23.463 23.7607 22.5742 24.5459L19.9092 26.875L19.6963 27.0596L19.7451 27.3379L20.3438 30.7412L20.3447 30.7461C20.5398 31.7979 20.0666 32.8748 19.0586 33.541C18.0915 34.1689 16.8693 34.2853 15.7861 33.8604L15.5713 33.7676L12.2725 32.2061L12.0625 32.1064L11.8516 32.2021L8.42383 33.7656L8.4209 33.7676C7.92432 33.9977 7.39741 34.1113 6.87207 34.1113C6.18884 34.1113 5.50471 33.9119 4.93457 33.543H4.93555C3.92506 32.8765 3.45377 31.8011 3.66309 30.7529L3.66406 30.749L4.2207 27.8652H5.14258L4.17871 26.9941L1.47754 24.5518L1.47266 24.5479L1.3125 24.3965C0.548279 23.6223 0.31195 22.5751 0.651367 21.6221C1.01668 20.5969 2.00608 19.8125 3.27148 19.6543L3.27539 19.6533L6.95605 19.165L7.20215 19.1318L7.3252 18.916L9.06641 15.8545L9.07129 15.8457C9.60802 14.8541 10.7327 14.2188 12.0049 14.2188ZM11.5723 16.7412L9.79492 19.8027L9.78906 19.8135C9.33001 20.6517 8.42623 21.253 7.33301 21.3975L3.65137 21.8867L3.49902 21.9062L3.38477 22.0088L3.36621 22.0254L3.26855 22.1123L3.22559 22.2363L3.15332 22.4482L3.04395 22.7656L3.29688 22.9863L5.96289 25.3154C6.7307 25.9915 7.06855 26.9392 6.88965 27.8369V27.8408L6.25488 31.1299L6.19043 31.46L6.47168 31.6436L6.67188 31.7734L6.90625 31.9268L7.15918 31.8066L10.46 30.2432L10.4609 30.2422C10.9361 30.0147 11.4429 29.9004 11.9863 29.9004C12.532 29.9004 13.0563 30.0157 13.5293 30.2422L13.5312 30.2432L16.832 31.8066L17.085 31.9268L17.3193 31.7734L17.5186 31.6436L17.7998 31.46L17.7363 31.1299L17.1016 27.8408C16.9371 26.9168 17.2658 25.9843 18.0283 25.3135L20.6934 22.9863L20.9463 22.7656L20.8379 22.4482L20.7656 22.2363L20.665 21.9434L20.3584 21.9023L16.6768 21.4141C15.6037 21.2702 14.681 20.6536 14.2207 19.8135L14.2197 19.8125L12.5693 16.8164L12.5684 16.8135L12.5078 16.7275C12.4439 16.6527 12.3761 16.6139 12.3604 16.6045C12.3182 16.5793 12.2784 16.5613 12.2529 16.5508C12.2251 16.5393 12.1998 16.5302 12.1826 16.5244C12.1737 16.5214 12.166 16.5185 12.1602 16.5166C12.1573 16.5157 12.1544 16.5153 12.1523 16.5146L12.1504 16.5137H12.1484V16.5127H12.1475L11.7705 16.4004L11.5723 16.7412Z" stroke="url(#paint28_linear_59_12)"/>
<path d="M74.9609 14.2188C76.1505 14.2188 77.2162 14.7895 77.7881 15.6689L77.8955 15.8486L79.5459 18.8457L79.666 19.0625L79.9121 19.0986L83.7021 19.6523L83.7119 19.6543C84.9837 19.8133 85.9849 20.5858 86.3486 21.6201C86.712 22.6537 86.419 23.7609 85.5303 24.5459L82.8652 26.875L82.6523 27.0596L82.7012 27.3379L83.2998 30.7412L83.3018 30.7529C83.5111 31.8006 83.0409 32.8755 82.0312 33.542C81.4461 33.9254 80.7806 34.1113 80.0928 34.1113C79.5684 34.1113 79.0427 33.9978 78.5469 33.7686H78.5479L75.2471 32.2061L75.0371 32.1064L74.8252 32.2021L71.3984 33.7656L71.3916 33.7695C70.2771 34.2986 68.9394 34.2101 67.9277 33.543L67.9248 33.541L67.7393 33.4121C66.8477 32.7435 66.455 31.7367 66.6387 30.7461L66.6377 30.7451L67.2725 27.46L67.3877 26.8652H66.9561L64.3975 24.5518L64.3955 24.5508L64.2373 24.3984C63.4811 23.6225 63.2355 22.5881 63.5879 21.626L63.5898 21.6221C63.9551 20.597 64.9437 19.8126 66.209 19.6543L66.2129 19.6533L69.8945 19.165L70.1387 19.1328L70.2617 18.918L72.0215 15.8564L72.0273 15.8457C72.5641 14.8541 73.6887 14.2188 74.9609 14.2188ZM74.3955 16.8164L72.7451 19.8125V19.8135C72.286 20.6517 71.3823 21.2531 70.2891 21.3975L66.6445 21.8818H66.6387L66.2803 21.8809L66.1641 22.2197L66.0908 22.4316L65.9824 22.749L66.2354 22.9707L68.8994 25.2969V25.2979C69.6682 25.9741 70.0073 26.923 69.8281 27.8213L69.8271 27.8242L69.1924 31.1299L69.1289 31.46L69.4102 31.6436L69.6094 31.7734L69.8438 31.9268L70.0967 31.8066L73.3975 30.2432L73.3994 30.2422C73.8746 30.0147 74.3813 29.9004 74.9248 29.9004C75.4705 29.9004 75.9948 30.0157 76.4678 30.2422L76.4697 30.2432L79.7705 31.8066L80.0234 31.9268L80.2578 31.7734L80.457 31.6436L80.7383 31.46L80.6748 31.1299L80.04 27.8408C79.8757 26.9173 80.2042 25.9861 80.9658 25.3154L83.6318 22.9863L83.8848 22.7656L83.7754 22.4482L83.7031 22.2363L83.6025 21.9434L83.2959 21.9023L79.6143 21.4141H79.6152C78.5419 21.2702 77.6185 20.6538 77.1582 19.8135V19.8125L75.5078 16.8164L75.3652 16.5576H74.5381L74.3955 16.8164Z" fill="#E7F9FC"/>
<path d="M74.9609 14.2188C76.1505 14.2188 77.2162 14.7895 77.7881 15.6689L77.8955 15.8486L79.5459 18.8457L79.666 19.0625L79.9121 19.0986L83.7021 19.6523L83.7119 19.6543C84.9837 19.8133 85.9849 20.5858 86.3486 21.6201C86.712 22.6537 86.419 23.7609 85.5303 24.5459L82.8652 26.875L82.6523 27.0596L82.7012 27.3379L83.2998 30.7412L83.3018 30.7529C83.5111 31.8006 83.0409 32.8755 82.0312 33.542C81.4461 33.9254 80.7806 34.1113 80.0928 34.1113C79.5684 34.1113 79.0427 33.9978 78.5469 33.7686H78.5479L75.2471 32.2061L75.0371 32.1064L74.8252 32.2021L71.3984 33.7656L71.3916 33.7695C70.2771 34.2986 68.9394 34.2101 67.9277 33.543L67.9248 33.541L67.7393 33.4121C66.8477 32.7435 66.455 31.7367 66.6387 30.7461L66.6377 30.7451L67.2725 27.46L67.3877 26.8652H66.9561L64.3975 24.5518L64.3955 24.5508L64.2373 24.3984C63.4811 23.6225 63.2355 22.5881 63.5879 21.626L63.5898 21.6221C63.9551 20.597 64.9437 19.8126 66.209 19.6543L66.2129 19.6533L69.8945 19.165L70.1387 19.1328L70.2617 18.918L72.0215 15.8564L72.0273 15.8457C72.5641 14.8541 73.6887 14.2188 74.9609 14.2188ZM74.3955 16.8164L72.7451 19.8125V19.8135C72.286 20.6517 71.3823 21.2531 70.2891 21.3975L66.6445 21.8818H66.6387L66.2803 21.8809L66.1641 22.2197L66.0908 22.4316L65.9824 22.749L66.2354 22.9707L68.8994 25.2969V25.2979C69.6682 25.9741 70.0073 26.923 69.8281 27.8213L69.8271 27.8242L69.1924 31.1299L69.1289 31.46L69.4102 31.6436L69.6094 31.7734L69.8438 31.9268L70.0967 31.8066L73.3975 30.2432L73.3994 30.2422C73.8746 30.0147 74.3813 29.9004 74.9248 29.9004C75.4705 29.9004 75.9948 30.0157 76.4678 30.2422L76.4697 30.2432L79.7705 31.8066L80.0234 31.9268L80.2578 31.7734L80.457 31.6436L80.7383 31.46L80.6748 31.1299L80.04 27.8408C79.8757 26.9173 80.2042 25.9861 80.9658 25.3154L83.6318 22.9863L83.8848 22.7656L83.7754 22.4482L83.7031 22.2363L83.6025 21.9434L83.2959 21.9023L79.6143 21.4141H79.6152C78.5419 21.2702 77.6185 20.6538 77.1582 19.8135V19.8125L75.5078 16.8164L75.3652 16.5576H74.5381L74.3955 16.8164Z" fill="url(#paint29_linear_59_12)"/>
<path d="M74.9609 14.2188C76.1505 14.2188 77.2162 14.7895 77.7881 15.6689L77.8955 15.8486L79.5459 18.8457L79.666 19.0625L79.9121 19.0986L83.7021 19.6523L83.7119 19.6543C84.9837 19.8133 85.9849 20.5858 86.3486 21.6201C86.712 22.6537 86.419 23.7609 85.5303 24.5459L82.8652 26.875L82.6523 27.0596L82.7012 27.3379L83.2998 30.7412L83.3018 30.7529C83.5111 31.8006 83.0409 32.8755 82.0312 33.542C81.4461 33.9254 80.7806 34.1113 80.0928 34.1113C79.5684 34.1113 79.0427 33.9978 78.5469 33.7686H78.5479L75.2471 32.2061L75.0371 32.1064L74.8252 32.2021L71.3984 33.7656L71.3916 33.7695C70.2771 34.2986 68.9394 34.2101 67.9277 33.543L67.9248 33.541L67.7393 33.4121C66.8477 32.7435 66.455 31.7367 66.6387 30.7461L66.6377 30.7451L67.2725 27.46L67.3877 26.8652H66.9561L64.3975 24.5518L64.3955 24.5508L64.2373 24.3984C63.4811 23.6225 63.2355 22.5881 63.5879 21.626L63.5898 21.6221C63.9551 20.597 64.9437 19.8126 66.209 19.6543L66.2129 19.6533L69.8945 19.165L70.1387 19.1328L70.2617 18.918L72.0215 15.8564L72.0273 15.8457C72.5641 14.8541 73.6887 14.2188 74.9609 14.2188ZM74.3955 16.8164L72.7451 19.8125V19.8135C72.286 20.6517 71.3823 21.2531 70.2891 21.3975L66.6445 21.8818H66.6387L66.2803 21.8809L66.1641 22.2197L66.0908 22.4316L65.9824 22.749L66.2354 22.9707L68.8994 25.2969V25.2979C69.6682 25.9741 70.0073 26.923 69.8281 27.8213L69.8271 27.8242L69.1924 31.1299L69.1289 31.46L69.4102 31.6436L69.6094 31.7734L69.8438 31.9268L70.0967 31.8066L73.3975 30.2432L73.3994 30.2422C73.8746 30.0147 74.3813 29.9004 74.9248 29.9004C75.4705 29.9004 75.9948 30.0157 76.4678 30.2422L76.4697 30.2432L79.7705 31.8066L80.0234 31.9268L80.2578 31.7734L80.457 31.6436L80.7383 31.46L80.6748 31.1299L80.04 27.8408C79.8757 26.9173 80.2042 25.9861 80.9658 25.3154L83.6318 22.9863L83.8848 22.7656L83.7754 22.4482L83.7031 22.2363L83.6025 21.9434L83.2959 21.9023L79.6143 21.4141H79.6152C78.5419 21.2702 77.6185 20.6538 77.1582 19.8135V19.8125L75.5078 16.8164L75.3652 16.5576H74.5381L74.3955 16.8164Z" fill="url(#paint30_linear_59_12)"/>
<path d="M74.9609 14.2188C76.1505 14.2188 77.2162 14.7895 77.7881 15.6689L77.8955 15.8486L79.5459 18.8457L79.666 19.0625L79.9121 19.0986L83.7021 19.6523L83.7119 19.6543C84.9837 19.8133 85.9849 20.5858 86.3486 21.6201C86.712 22.6537 86.419 23.7609 85.5303 24.5459L82.8652 26.875L82.6523 27.0596L82.7012 27.3379L83.2998 30.7412L83.3018 30.7529C83.5111 31.8006 83.0409 32.8755 82.0312 33.542C81.4461 33.9254 80.7806 34.1113 80.0928 34.1113C79.5684 34.1113 79.0427 33.9978 78.5469 33.7686H78.5479L75.2471 32.2061L75.0371 32.1064L74.8252 32.2021L71.3984 33.7656L71.3916 33.7695C70.2771 34.2986 68.9394 34.2101 67.9277 33.543L67.9248 33.541L67.7393 33.4121C66.8477 32.7435 66.455 31.7367 66.6387 30.7461L66.6377 30.7451L67.2725 27.46L67.3877 26.8652H66.9561L64.3975 24.5518L64.3955 24.5508L64.2373 24.3984C63.4811 23.6225 63.2355 22.5881 63.5879 21.626L63.5898 21.6221C63.9551 20.597 64.9437 19.8126 66.209 19.6543L66.2129 19.6533L69.8945 19.165L70.1387 19.1328L70.2617 18.918L72.0215 15.8564L72.0273 15.8457C72.5641 14.8541 73.6887 14.2188 74.9609 14.2188ZM74.3955 16.8164L72.7451 19.8125V19.8135C72.286 20.6517 71.3823 21.2531 70.2891 21.3975L66.6445 21.8818H66.6387L66.2803 21.8809L66.1641 22.2197L66.0908 22.4316L65.9824 22.749L66.2354 22.9707L68.8994 25.2969V25.2979C69.6682 25.9741 70.0073 26.923 69.8281 27.8213L69.8271 27.8242L69.1924 31.1299L69.1289 31.46L69.4102 31.6436L69.6094 31.7734L69.8438 31.9268L70.0967 31.8066L73.3975 30.2432L73.3994 30.2422C73.8746 30.0147 74.3813 29.9004 74.9248 29.9004C75.4705 29.9004 75.9948 30.0157 76.4678 30.2422L76.4697 30.2432L79.7705 31.8066L80.0234 31.9268L80.2578 31.7734L80.457 31.6436L80.7383 31.46L80.6748 31.1299L80.04 27.8408C79.8757 26.9173 80.2042 25.9861 80.9658 25.3154L83.6318 22.9863L83.8848 22.7656L83.7754 22.4482L83.7031 22.2363L83.6025 21.9434L83.2959 21.9023L79.6143 21.4141H79.6152C78.5419 21.2702 77.6185 20.6538 77.1582 19.8135V19.8125L75.5078 16.8164L75.3652 16.5576H74.5381L74.3955 16.8164Z" stroke="#E7F9FC"/>
<path d="M74.9609 14.2188C76.1505 14.2188 77.2162 14.7895 77.7881 15.6689L77.8955 15.8486L79.5459 18.8457L79.666 19.0625L79.9121 19.0986L83.7021 19.6523L83.7119 19.6543C84.9837 19.8133 85.9849 20.5858 86.3486 21.6201C86.712 22.6537 86.419 23.7609 85.5303 24.5459L82.8652 26.875L82.6523 27.0596L82.7012 27.3379L83.2998 30.7412L83.3018 30.7529C83.5111 31.8006 83.0409 32.8755 82.0312 33.542C81.4461 33.9254 80.7806 34.1113 80.0928 34.1113C79.5684 34.1113 79.0427 33.9978 78.5469 33.7686H78.5479L75.2471 32.2061L75.0371 32.1064L74.8252 32.2021L71.3984 33.7656L71.3916 33.7695C70.2771 34.2986 68.9394 34.2101 67.9277 33.543L67.9248 33.541L67.7393 33.4121C66.8477 32.7435 66.455 31.7367 66.6387 30.7461L66.6377 30.7451L67.2725 27.46L67.3877 26.8652H66.9561L64.3975 24.5518L64.3955 24.5508L64.2373 24.3984C63.4811 23.6225 63.2355 22.5881 63.5879 21.626L63.5898 21.6221C63.9551 20.597 64.9437 19.8126 66.209 19.6543L66.2129 19.6533L69.8945 19.165L70.1387 19.1328L70.2617 18.918L72.0215 15.8564L72.0273 15.8457C72.5641 14.8541 73.6887 14.2188 74.9609 14.2188ZM74.3955 16.8164L72.7451 19.8125V19.8135C72.286 20.6517 71.3823 21.2531 70.2891 21.3975L66.6445 21.8818H66.6387L66.2803 21.8809L66.1641 22.2197L66.0908 22.4316L65.9824 22.749L66.2354 22.9707L68.8994 25.2969V25.2979C69.6682 25.9741 70.0073 26.923 69.8281 27.8213L69.8271 27.8242L69.1924 31.1299L69.1289 31.46L69.4102 31.6436L69.6094 31.7734L69.8438 31.9268L70.0967 31.8066L73.3975 30.2432L73.3994 30.2422C73.8746 30.0147 74.3813 29.9004 74.9248 29.9004C75.4705 29.9004 75.9948 30.0157 76.4678 30.2422L76.4697 30.2432L79.7705 31.8066L80.0234 31.9268L80.2578 31.7734L80.457 31.6436L80.7383 31.46L80.6748 31.1299L80.04 27.8408C79.8757 26.9173 80.2042 25.9861 80.9658 25.3154L83.6318 22.9863L83.8848 22.7656L83.7754 22.4482L83.7031 22.2363L83.6025 21.9434L83.2959 21.9023L79.6143 21.4141H79.6152C78.5419 21.2702 77.6185 20.6538 77.1582 19.8135V19.8125L75.5078 16.8164L75.3652 16.5576H74.5381L74.3955 16.8164Z" stroke="url(#paint31_linear_59_12)"/>
<path d="M74.9609 14.2188C76.1505 14.2188 77.2162 14.7895 77.7881 15.6689L77.8955 15.8486L79.5459 18.8457L79.666 19.0625L79.9121 19.0986L83.7021 19.6523L83.7119 19.6543C84.9837 19.8133 85.9849 20.5858 86.3486 21.6201C86.712 22.6537 86.419 23.7609 85.5303 24.5459L82.8652 26.875L82.6523 27.0596L82.7012 27.3379L83.2998 30.7412L83.3018 30.7529C83.5111 31.8006 83.0409 32.8755 82.0312 33.542C81.4461 33.9254 80.7806 34.1113 80.0928 34.1113C79.5684 34.1113 79.0427 33.9978 78.5469 33.7686H78.5479L75.2471 32.2061L75.0371 32.1064L74.8252 32.2021L71.3984 33.7656L71.3916 33.7695C70.2771 34.2986 68.9394 34.2101 67.9277 33.543L67.9248 33.541L67.7393 33.4121C66.8477 32.7435 66.455 31.7367 66.6387 30.7461L66.6377 30.7451L67.2725 27.46L67.3877 26.8652H66.9561L64.3975 24.5518L64.3955 24.5508L64.2373 24.3984C63.4811 23.6225 63.2355 22.5881 63.5879 21.626L63.5898 21.6221C63.9551 20.597 64.9437 19.8126 66.209 19.6543L66.2129 19.6533L69.8945 19.165L70.1387 19.1328L70.2617 18.918L72.0215 15.8564L72.0273 15.8457C72.5641 14.8541 73.6887 14.2188 74.9609 14.2188ZM74.3955 16.8164L72.7451 19.8125V19.8135C72.286 20.6517 71.3823 21.2531 70.2891 21.3975L66.6445 21.8818H66.6387L66.2803 21.8809L66.1641 22.2197L66.0908 22.4316L65.9824 22.749L66.2354 22.9707L68.8994 25.2969V25.2979C69.6682 25.9741 70.0073 26.923 69.8281 27.8213L69.8271 27.8242L69.1924 31.1299L69.1289 31.46L69.4102 31.6436L69.6094 31.7734L69.8438 31.9268L70.0967 31.8066L73.3975 30.2432L73.3994 30.2422C73.8746 30.0147 74.3813 29.9004 74.9248 29.9004C75.4705 29.9004 75.9948 30.0157 76.4678 30.2422L76.4697 30.2432L79.7705 31.8066L80.0234 31.9268L80.2578 31.7734L80.457 31.6436L80.7383 31.46L80.6748 31.1299L80.04 27.8408C79.8757 26.9173 80.2042 25.9861 80.9658 25.3154L83.6318 22.9863L83.8848 22.7656L83.7754 22.4482L83.7031 22.2363L83.6025 21.9434L83.2959 21.9023L79.6143 21.4141H79.6152C78.5419 21.2702 77.6185 20.6538 77.1582 19.8135V19.8125L75.5078 16.8164L75.3652 16.5576H74.5381L74.3955 16.8164Z" stroke="url(#paint32_linear_59_12)"/>
<path d="M74.9609 14.2188C76.1505 14.2188 77.2162 14.7895 77.7881 15.6689L77.8955 15.8486L79.5459 18.8457L79.666 19.0625L79.9121 19.0986L83.7021 19.6523L83.7119 19.6543C84.9837 19.8133 85.9849 20.5858 86.3486 21.6201C86.712 22.6537 86.419 23.7609 85.5303 24.5459L82.8652 26.875L82.6523 27.0596L82.7012 27.3379L83.2998 30.7412L83.3018 30.7529C83.5111 31.8006 83.0409 32.8755 82.0312 33.542C81.4461 33.9254 80.7806 34.1113 80.0928 34.1113C79.5684 34.1113 79.0427 33.9978 78.5469 33.7686H78.5479L75.2471 32.2061L75.0371 32.1064L74.8252 32.2021L71.3984 33.7656L71.3916 33.7695C70.2771 34.2986 68.9394 34.2101 67.9277 33.543L67.9248 33.541L67.7393 33.4121C66.8477 32.7435 66.455 31.7367 66.6387 30.7461L66.6377 30.7451L67.2725 27.46L67.3877 26.8652H66.9561L64.3975 24.5518L64.3955 24.5508L64.2373 24.3984C63.4811 23.6225 63.2355 22.5881 63.5879 21.626L63.5898 21.6221C63.9551 20.597 64.9437 19.8126 66.209 19.6543L66.2129 19.6533L69.8945 19.165L70.1387 19.1328L70.2617 18.918L72.0215 15.8564L72.0273 15.8457C72.5641 14.8541 73.6887 14.2188 74.9609 14.2188ZM74.3955 16.8164L72.7451 19.8125V19.8135C72.286 20.6517 71.3823 21.2531 70.2891 21.3975L66.6445 21.8818H66.6387L66.2803 21.8809L66.1641 22.2197L66.0908 22.4316L65.9824 22.749L66.2354 22.9707L68.8994 25.2969V25.2979C69.6682 25.9741 70.0073 26.923 69.8281 27.8213L69.8271 27.8242L69.1924 31.1299L69.1289 31.46L69.4102 31.6436L69.6094 31.7734L69.8438 31.9268L70.0967 31.8066L73.3975 30.2432L73.3994 30.2422C73.8746 30.0147 74.3813 29.9004 74.9248 29.9004C75.4705 29.9004 75.9948 30.0157 76.4678 30.2422L76.4697 30.2432L79.7705 31.8066L80.0234 31.9268L80.2578 31.7734L80.457 31.6436L80.7383 31.46L80.6748 31.1299L80.04 27.8408C79.8757 26.9173 80.2042 25.9861 80.9658 25.3154L83.6318 22.9863L83.8848 22.7656L83.7754 22.4482L83.7031 22.2363L83.6025 21.9434L83.2959 21.9023L79.6143 21.4141H79.6152C78.5419 21.2702 77.6185 20.6538 77.1582 19.8135V19.8125L75.5078 16.8164L75.3652 16.5576H74.5381L74.3955 16.8164Z" stroke="url(#paint33_linear_59_12)"/>
<defs>
<linearGradient id="paint0_linear_59_12" x1="40.6492" y1="53.2656" x2="54.871" y2="55.3942" gradientUnits="userSpaceOnUse">
<stop stop-color="#B5F4FF"/>
<stop offset="1" stop-color="#DB9CFF"/>
</linearGradient>
<linearGradient id="paint1_linear_59_12" x1="38.1173" y1="51.7187" x2="29.8381" y2="55.753" gradientUnits="userSpaceOnUse">
<stop stop-color="#363CFF"/>
<stop offset="1" stop-color="#DB9CFF"/>
</linearGradient>
<linearGradient id="paint2_linear_59_12" x1="27.9585" y1="47" x2="34.9653" y2="47.7473" gradientUnits="userSpaceOnUse">
<stop stop-color="#B5F4FF"/>
<stop offset="1" stop-color="#DB9CFF"/>
</linearGradient>
<linearGradient id="paint3_linear_59_12" x1="38.1173" y1="51.7187" x2="29.8381" y2="55.753" gradientUnits="userSpaceOnUse">
<stop stop-color="#363CFF"/>
<stop offset="1" stop-color="#DB9CFF"/>
</linearGradient>
<linearGradient id="paint4_linear_59_12" x1="38.1173" y1="64.5513" x2="28.5108" y2="67.028" gradientUnits="userSpaceOnUse">
<stop stop-color="#363CFF"/>
<stop offset="1" stop-color="#DB9CFF"/>
</linearGradient>
<linearGradient id="paint5_linear_59_12" x1="27.9585" y1="55.6328" x2="35.0225" y2="56.0314" gradientUnits="userSpaceOnUse">
<stop stop-color="#B5F4FF"/>
<stop offset="1" stop-color="#DB9CFF"/>
</linearGradient>
<linearGradient id="paint6_linear_59_12" x1="38.1173" y1="64.5513" x2="28.5108" y2="67.028" gradientUnits="userSpaceOnUse">
<stop stop-color="#363CFF"/>
<stop offset="1" stop-color="#DB9CFF"/>
</linearGradient>
<linearGradient id="paint7_linear_59_12" x1="61.4935" y1="60.1647" x2="47.1705" y2="69.9594" gradientUnits="userSpaceOnUse">
<stop stop-color="#363CFF"/>
<stop offset="1" stop-color="#DB9CFF"/>
</linearGradient>
<linearGradient id="paint8_linear_59_12" x1="40.6492" y1="53.2656" x2="54.871" y2="55.3942" gradientUnits="userSpaceOnUse">
<stop stop-color="#B5F4FF"/>
<stop offset="1" stop-color="#DB9CFF"/>
</linearGradient>
<linearGradient id="paint9_linear_59_12" x1="61.4935" y1="60.1647" x2="47.1705" y2="69.9594" gradientUnits="userSpaceOnUse">
<stop stop-color="#363CFF"/>
<stop offset="1" stop-color="#DB9CFF"/>
</linearGradient>
<linearGradient id="paint10_linear_59_12" x1="61.5941" y1="66.2362" x2="47.234" y2="76.091" gradientUnits="userSpaceOnUse">
<stop stop-color="#363CFF"/>
<stop offset="1" stop-color="#DB9CFF"/>
</linearGradient>
<linearGradient id="paint11_linear_59_12" x1="40.6488" y1="59.3281" x2="54.9373" y2="61.4742" gradientUnits="userSpaceOnUse">
<stop stop-color="#B5F4FF"/>
<stop offset="1" stop-color="#DB9CFF"/>
</linearGradient>
<linearGradient id="paint12_linear_59_12" x1="61.5941" y1="66.2362" x2="47.234" y2="76.091" gradientUnits="userSpaceOnUse">
<stop stop-color="#363CFF"/>
<stop offset="1" stop-color="#DB9CFF"/>
</linearGradient>
<linearGradient id="paint13_linear_59_12" x1="65.5817" y1="54.0843" x2="50.3801" y2="69.7432" gradientUnits="userSpaceOnUse">
<stop stop-color="#363CFF"/>
<stop offset="1" stop-color="#DB9CFF"/>
</linearGradient>
<linearGradient id="paint14_linear_59_12" x1="34.5137" y1="47.2578" x2="55.1375" y2="51.9075" gradientUnits="userSpaceOnUse">
<stop stop-color="#B5F4FF"/>
<stop offset="1" stop-color="#DB9CFF"/>
</linearGradient>
<linearGradient id="paint15_linear_59_12" x1="65.5817" y1="54.0843" x2="50.3801" y2="69.7432" gradientUnits="userSpaceOnUse">
<stop stop-color="#363CFF"/>
<stop offset="1" stop-color="#DB9CFF"/>
</linearGradient>
<linearGradient id="paint16_linear_59_12" x1="13.1132" y1="30.9219" x2="76.4132" y2="40.4422" gradientUnits="userSpaceOnUse">
<stop stop-color="#B5F4FF"/>
<stop offset="1" stop-color="#DB9CFF"/>
</linearGradient>
<linearGradient id="paint17_linear_59_12" x1="105.909" y1="61.4868" x2="42.3426" y2="105.168" gradientUnits="userSpaceOnUse">
<stop stop-color="#363CFF"/>
<stop offset="1" stop-color="#DB9CFF"/>
</linearGradient>
<linearGradient id="paint18_linear_59_12" x1="70.2722" y1="60.5557" x2="30.6015" y2="87.9464" gradientUnits="userSpaceOnUse">
<stop stop-color="#363CFF"/>
<stop offset="1" stop-color="#A300FF"/>
</linearGradient>
<linearGradient id="paint19_linear_59_12" x1="76.3298" y1="13.3059" x2="47.3971" y2="36.4983" gradientUnits="userSpaceOnUse">
<stop stop-color="#363CFF"/>
<stop offset="1" stop-color="#DB9CFF"/>
</linearGradient>
<linearGradient id="paint20_linear_59_12" x1="58.2325" y1="12.9006" x2="40.1884" y2="27.4337" gradientUnits="userSpaceOnUse">
<stop stop-color="#363CFF"/>
<stop offset="1" stop-color="#A300FF"/>
</linearGradient>
<linearGradient id="paint21_linear_59_12" x1="29.206" y1="1.84703e-06" x2="61.0966" y2="5.59498" gradientUnits="userSpaceOnUse">
<stop stop-color="#B5F4FF"/>
<stop offset="1" stop-color="#DB9CFF"/>
</linearGradient>
<linearGradient id="paint22_linear_59_12" x1="76.3298" y1="13.3059" x2="47.3971" y2="36.4983" gradientUnits="userSpaceOnUse">
<stop stop-color="#363CFF"/>
<stop offset="1" stop-color="#DB9CFF"/>
</linearGradient>
<linearGradient id="paint23_linear_59_12" x1="58.2325" y1="12.9006" x2="40.1884" y2="27.4337" gradientUnits="userSpaceOnUse">
<stop stop-color="#363CFF"/>
<stop offset="1" stop-color="#A300FF"/>
</linearGradient>
<linearGradient id="paint24_linear_59_12" x1="40.0229" y1="25.1225" x2="15.2533" y2="44.8793" gradientUnits="userSpaceOnUse">
<stop stop-color="#363CFF"/>
<stop offset="1" stop-color="#DB9CFF"/>
</linearGradient>
<linearGradient id="paint25_linear_59_12" x1="24.5896" y1="24.7751" x2="9.14144" y2="37.1557" gradientUnits="userSpaceOnUse">
<stop stop-color="#363CFF"/>
<stop offset="1" stop-color="#A300FF"/>
</linearGradient>
<linearGradient id="paint26_linear_59_12" x1="-0.164129" y1="13.7188" x2="27.0401" y2="18.4679" gradientUnits="userSpaceOnUse">
<stop stop-color="#B5F4FF"/>
<stop offset="1" stop-color="#DB9CFF"/>
</linearGradient>
<linearGradient id="paint27_linear_59_12" x1="40.0229" y1="25.1225" x2="15.2533" y2="44.8793" gradientUnits="userSpaceOnUse">
<stop stop-color="#363CFF"/>
<stop offset="1" stop-color="#DB9CFF"/>
</linearGradient>
<linearGradient id="paint28_linear_59_12" x1="24.5896" y1="24.7751" x2="9.14144" y2="37.1557" gradientUnits="userSpaceOnUse">
<stop stop-color="#363CFF"/>
<stop offset="1" stop-color="#A300FF"/>
</linearGradient>
<linearGradient id="paint29_linear_59_12" x1="103.008" y1="25.1225" x2="78.2305" y2="44.9125" gradientUnits="userSpaceOnUse">
<stop stop-color="#363CFF"/>
<stop offset="1" stop-color="#DB9CFF"/>
</linearGradient>
<linearGradient id="paint30_linear_59_12" x1="87.5531" y1="24.7751" x2="72.1004" y2="37.1764" gradientUnits="userSpaceOnUse">
<stop stop-color="#363CFF"/>
<stop offset="1" stop-color="#A300FF"/>
</linearGradient>
<linearGradient id="paint31_linear_59_12" x1="62.7653" y1="13.7188" x2="90.0048" y2="18.4806" gradientUnits="userSpaceOnUse">
<stop stop-color="#B5F4FF"/>
<stop offset="1" stop-color="#DB9CFF"/>
</linearGradient>
<linearGradient id="paint32_linear_59_12" x1="103.008" y1="25.1225" x2="78.2305" y2="44.9125" gradientUnits="userSpaceOnUse">
<stop stop-color="#363CFF"/>
<stop offset="1" stop-color="#DB9CFF"/>
</linearGradient>
<linearGradient id="paint33_linear_59_12" x1="87.5531" y1="24.7751" x2="72.1004" y2="37.1764" gradientUnits="userSpaceOnUse">
<stop stop-color="#363CFF"/>
<stop offset="1" stop-color="#A300FF"/>
</linearGradient>
</defs>
</svg>
