<svg width="79" height="87" viewBox="0 0 79 87" fill="none" xmlns="http://www.w3.org/2000/svg">
<path d="M39.268 9.83017C40.1231 9.79082 40.7842 9.12311 40.7479 8.33529L40.7489 1.85426C40.7126 1.06644 39.9931 0.462249 39.1379 0.501592C38.2828 0.540935 37.6218 1.20864 37.658 1.99646L37.6571 8.4775C37.6933 9.26531 38.4128 9.86951 39.268 9.83017Z" fill="url(#paint0_linear_1_186)"/>
<path d="M39.268 9.83017C40.1231 9.79082 40.7842 9.12311 40.7479 8.33529L40.7489 1.85426C40.7126 1.06644 39.9931 0.462249 39.1379 0.501592C38.2828 0.540935 37.6218 1.20864 37.658 1.99646L37.6571 8.4775C37.6933 9.26531 38.4128 9.86951 39.268 9.83017Z" fill="url(#paint1_linear_1_186)"/>
<path d="M39.268 9.83017C40.1231 9.79082 40.7842 9.12311 40.7479 8.33529L40.7489 1.85426C40.7126 1.06644 39.9931 0.462249 39.1379 0.501592C38.2828 0.540935 37.6218 1.20864 37.658 1.99646L37.6571 8.4775C37.6933 9.26531 38.4128 9.86951 39.268 9.83017Z" stroke="url(#paint2_linear_1_186)"/>
<path d="M7.76438 20.5733C7.40757 20.5508 7.05027 20.3868 6.79517 20.0972L0.866741 12.9633C0.34774 12.3742 0.404079 11.482 0.992468 10.9723C1.58145 10.4532 2.47345 10.5095 2.98305 11.098L8.91148 18.232C9.43049 18.821 9.37415 19.7132 8.78576 20.2229C8.49626 20.4781 8.12119 20.5959 7.76438 20.5733Z" fill="url(#paint3_linear_1_186)"/>
<path d="M7.76438 20.5733C7.40757 20.5508 7.05027 20.3868 6.79517 20.0972L0.866741 12.9633C0.34774 12.3742 0.404079 11.482 0.992468 10.9723C1.58145 10.4532 2.47345 10.5095 2.98305 11.098L8.91148 18.232C9.43049 18.821 9.37415 19.7132 8.78576 20.2229C8.49626 20.4781 8.12119 20.5959 7.76438 20.5733Z" fill="url(#paint4_linear_1_186)"/>
<path d="M7.76438 20.5733C7.40757 20.5508 7.05027 20.3868 6.79517 20.0972L0.866741 12.9633C0.34774 12.3742 0.404079 11.482 0.992468 10.9723C1.58145 10.4532 2.47345 10.5095 2.98305 11.098L8.91148 18.232C9.43049 18.821 9.37415 19.7132 8.78576 20.2229C8.49626 20.4781 8.12119 20.5959 7.76438 20.5733Z" stroke="url(#paint5_linear_1_186)"/>
<path d="M70.9799 21.2843C71.3367 21.2617 71.694 21.0977 71.9491 20.8082L77.8775 13.6742C78.3965 13.0851 78.3402 12.193 77.7518 11.6832C77.1628 11.1641 76.2708 11.2204 75.7612 11.8089L69.8328 18.9429C69.3138 19.532 69.3701 20.4241 69.9585 20.9339C70.248 21.189 70.6231 21.3068 70.9799 21.2843Z" fill="url(#paint6_linear_1_186)"/>
<path d="M70.9799 21.2843C71.3367 21.2617 71.694 21.0977 71.9491 20.8082L77.8775 13.6742C78.3965 13.0851 78.3402 12.193 77.7518 11.6832C77.1628 11.1641 76.2708 11.2204 75.7612 11.8089L69.8328 18.9429C69.3138 19.532 69.3701 20.4241 69.9585 20.9339C70.248 21.189 70.6231 21.3068 70.9799 21.2843Z" fill="url(#paint7_linear_1_186)"/>
<path d="M70.9799 21.2843C71.3367 21.2617 71.694 21.0977 71.9491 20.8082L77.8775 13.6742C78.3965 13.0851 78.3402 12.193 77.7518 11.6832C77.1628 11.1641 76.2708 11.2204 75.7612 11.8089L69.8328 18.9429C69.3138 19.532 69.3701 20.4241 69.9585 20.9339C70.248 21.189 70.6231 21.3068 70.9799 21.2843Z" stroke="url(#paint8_linear_1_186)"/>
<path d="M9.1556 59.3014C10.1949 60.4581 11.0777 61.7496 11.7735 63.1411C12.2953 64.6848 12.6084 66.2895 12.7084 67.9116C12.6823 70.8903 13.6781 73.7821 15.5262 76.113C17.8571 77.9611 20.7489 78.9569 23.7233 78.9308C25.3496 79.0308 26.9542 79.3439 28.4981 79.8657C29.8896 80.5658 31.1767 81.4443 32.3378 82.4836C34.473 84.6622 37.2908 86.0364 40.3218 86.3842C43.3528 86.0364 46.1706 84.6622 48.3058 82.4836C49.4669 81.4443 50.754 80.5658 52.1456 79.8657C53.6893 79.3439 55.2939 79.0308 56.916 78.9308C59.8948 78.9569 62.7865 77.961 65.1174 76.113C66.9656 73.7821 67.9614 70.8903 67.9352 67.9159C68.0352 66.2896 68.3483 64.685 68.8702 63.1411C69.5659 61.7539 70.4487 60.4625 71.488 59.31C73.6666 57.1705 75.0408 54.3484 75.3887 51.3174C75.0408 48.2864 73.6666 45.4686 71.488 43.3334C70.4487 42.1723 69.5703 40.8852 68.8702 39.4936C68.3483 37.9499 68.0352 36.3453 67.9352 34.7232C67.9613 31.7487 66.9655 28.8527 65.1174 26.5218C62.7865 24.6736 59.8948 23.6821 56.9203 23.704C55.294 23.6039 53.6894 23.2909 52.1456 22.769C50.7584 22.0733 49.4669 21.1948 48.3145 20.1555C46.175 17.9769 43.3528 16.5984 40.3218 16.2505C37.2908 16.5984 34.473 17.9725 32.3335 20.1511C31.1767 21.1904 29.8853 22.0689 28.4981 22.769C26.9543 23.2909 25.3497 23.6039 23.7233 23.704C20.7489 23.6779 17.8571 24.6737 15.5262 26.5218C13.678 28.8527 12.6823 31.7444 12.7084 34.7188C12.6084 36.3452 12.2953 37.9498 11.7735 39.4936C11.0777 40.8808 10.1949 42.1723 9.1556 43.329C6.977 45.4642 5.60283 48.2864 5.25494 51.3174C5.60283 54.3484 6.977 57.1662 9.1556 59.3014ZM11.7517 45.4293C13.004 44.029 14.0477 42.4635 14.8609 40.7719C15.5089 38.9412 15.9002 37.0322 16.0264 35.0927C15.9872 32.8792 16.6395 30.7093 17.8876 28.883C19.7139 27.6349 21.8839 26.9827 24.0973 27.0217C26.0368 26.8956 27.9457 26.5043 29.7766 25.852C31.4638 25.0431 33.0337 23.9951 34.4339 22.747C36.0081 21.0946 38.0736 19.9857 40.3219 19.59C42.5744 19.9857 44.6357 21.0947 46.2099 22.747C47.6101 23.9951 49.18 25.0387 50.8672 25.852C52.6979 26.5042 54.607 26.9 56.5465 27.0217C58.7599 26.9826 60.9298 27.6349 62.7562 28.883C64.0042 30.7093 64.6565 32.8792 64.6174 35.0927C64.7435 37.0322 65.1349 38.9411 65.7872 40.7719C66.6004 42.4635 67.6441 44.0334 68.8921 45.4293C70.5489 47.0035 71.6535 49.069 72.0491 51.3173C71.6534 53.5698 70.5445 55.631 68.8921 57.2053C67.6441 58.6055 66.6004 60.1754 65.7872 61.8626C65.1349 63.6933 64.7392 65.6024 64.6174 67.5419C64.6565 69.7553 64.0043 71.9252 62.7562 73.7516C60.9298 74.9996 58.7599 75.6519 56.5465 75.6128C54.607 75.7389 52.698 76.1303 50.8672 76.7826C49.1756 77.5958 47.6058 78.6394 46.2099 79.8875C44.6357 81.5443 42.5702 82.6489 40.3219 83.0445C38.0737 82.6488 36.0081 81.5399 34.4339 79.8875C33.0337 78.6394 31.4681 77.5914 29.7766 76.7826C27.9459 76.1303 26.0324 75.7346 24.0973 75.6128C21.8839 75.6519 19.7139 74.9996 17.8876 73.7516C16.6395 71.9252 15.9873 69.7553 16.0264 67.5419C15.9003 65.6024 15.5089 63.6934 14.8609 61.8626C14.0477 60.171 12.9997 58.6011 11.7517 57.2053C10.0992 55.631 8.99029 53.5655 8.59464 51.3173C8.99036 49.0648 10.0993 47.0035 11.7517 45.4293Z" fill="url(#paint9_linear_1_186)"/>
<path d="M9.1556 59.3014C10.1949 60.4581 11.0777 61.7496 11.7735 63.1411C12.2953 64.6848 12.6084 66.2895 12.7084 67.9116C12.6823 70.8903 13.6781 73.7821 15.5262 76.113C17.8571 77.9611 20.7489 78.9569 23.7233 78.9308C25.3496 79.0308 26.9542 79.3439 28.4981 79.8657C29.8896 80.5658 31.1767 81.4443 32.3378 82.4836C34.473 84.6622 37.2908 86.0364 40.3218 86.3842C43.3528 86.0364 46.1706 84.6622 48.3058 82.4836C49.4669 81.4443 50.754 80.5658 52.1456 79.8657C53.6893 79.3439 55.2939 79.0308 56.916 78.9308C59.8948 78.9569 62.7865 77.961 65.1174 76.113C66.9656 73.7821 67.9614 70.8903 67.9352 67.9159C68.0352 66.2896 68.3483 64.685 68.8702 63.1411C69.5659 61.7539 70.4487 60.4625 71.488 59.31C73.6666 57.1705 75.0408 54.3484 75.3887 51.3174C75.0408 48.2864 73.6666 45.4686 71.488 43.3334C70.4487 42.1723 69.5703 40.8852 68.8702 39.4936C68.3483 37.9499 68.0352 36.3453 67.9352 34.7232C67.9613 31.7487 66.9655 28.8527 65.1174 26.5218C62.7865 24.6736 59.8948 23.6821 56.9203 23.704C55.294 23.6039 53.6894 23.2909 52.1456 22.769C50.7584 22.0733 49.4669 21.1948 48.3145 20.1555C46.175 17.9769 43.3528 16.5984 40.3218 16.2505C37.2908 16.5984 34.473 17.9725 32.3335 20.1511C31.1767 21.1904 29.8853 22.0689 28.4981 22.769C26.9543 23.2909 25.3497 23.6039 23.7233 23.704C20.7489 23.6779 17.8571 24.6737 15.5262 26.5218C13.678 28.8527 12.6823 31.7444 12.7084 34.7188C12.6084 36.3452 12.2953 37.9498 11.7735 39.4936C11.0777 40.8808 10.1949 42.1723 9.1556 43.329C6.977 45.4642 5.60283 48.2864 5.25494 51.3174C5.60283 54.3484 6.977 57.1662 9.1556 59.3014ZM11.7517 45.4293C13.004 44.029 14.0477 42.4635 14.8609 40.7719C15.5089 38.9412 15.9002 37.0322 16.0264 35.0927C15.9872 32.8792 16.6395 30.7093 17.8876 28.883C19.7139 27.6349 21.8839 26.9827 24.0973 27.0217C26.0368 26.8956 27.9457 26.5043 29.7766 25.852C31.4638 25.0431 33.0337 23.9951 34.4339 22.747C36.0081 21.0946 38.0736 19.9857 40.3219 19.59C42.5744 19.9857 44.6357 21.0947 46.2099 22.747C47.6101 23.9951 49.18 25.0387 50.8672 25.852C52.6979 26.5042 54.607 26.9 56.5465 27.0217C58.7599 26.9826 60.9298 27.6349 62.7562 28.883C64.0042 30.7093 64.6565 32.8792 64.6174 35.0927C64.7435 37.0322 65.1349 38.9411 65.7872 40.7719C66.6004 42.4635 67.6441 44.0334 68.8921 45.4293C70.5489 47.0035 71.6535 49.069 72.0491 51.3173C71.6534 53.5698 70.5445 55.631 68.8921 57.2053C67.6441 58.6055 66.6004 60.1754 65.7872 61.8626C65.1349 63.6933 64.7392 65.6024 64.6174 67.5419C64.6565 69.7553 64.0043 71.9252 62.7562 73.7516C60.9298 74.9996 58.7599 75.6519 56.5465 75.6128C54.607 75.7389 52.698 76.1303 50.8672 76.7826C49.1756 77.5958 47.6058 78.6394 46.2099 79.8875C44.6357 81.5443 42.5702 82.6489 40.3219 83.0445C38.0737 82.6488 36.0081 81.5399 34.4339 79.8875C33.0337 78.6394 31.4681 77.5914 29.7766 76.7826C27.9459 76.1303 26.0324 75.7346 24.0973 75.6128C21.8839 75.6519 19.7139 74.9996 17.8876 73.7516C16.6395 71.9252 15.9873 69.7553 16.0264 67.5419C15.9003 65.6024 15.5089 63.6934 14.8609 61.8626C14.0477 60.171 12.9997 58.6011 11.7517 57.2053C10.0992 55.631 8.99029 53.5655 8.59464 51.3173C8.99036 49.0648 10.0993 47.0035 11.7517 45.4293Z" fill="url(#paint10_linear_1_186)"/>
<path d="M11.7517 45.4249V45.4293M11.7517 45.4293C13.004 44.029 14.0477 42.4635 14.8609 40.7719C15.5089 38.9412 15.9002 37.0322 16.0264 35.0927C15.9872 32.8792 16.6395 30.7093 17.8876 28.883C19.7139 27.6349 21.8839 26.9827 24.0973 27.0217C26.0368 26.8956 27.9457 26.5043 29.7766 25.852C31.4638 25.0431 33.0337 23.9951 34.4339 22.747C36.0081 21.0946 38.0736 19.9857 40.3219 19.59C42.5744 19.9857 44.6357 21.0947 46.2099 22.747C47.6101 23.9951 49.18 25.0387 50.8672 25.852C52.6979 26.5042 54.607 26.9 56.5465 27.0217C58.7599 26.9826 60.9298 27.6349 62.7562 28.883C64.0042 30.7093 64.6565 32.8792 64.6174 35.0927C64.7435 37.0322 65.1349 38.9411 65.7872 40.7719C66.6004 42.4635 67.6441 44.0334 68.8921 45.4293C70.5489 47.0035 71.6535 49.069 72.0491 51.3173C71.6534 53.5698 70.5445 55.631 68.8921 57.2053C67.6441 58.6055 66.6004 60.1754 65.7872 61.8626C65.1349 63.6933 64.7392 65.6024 64.6174 67.5419C64.6565 69.7553 64.0043 71.9252 62.7562 73.7516C60.9298 74.9996 58.7599 75.6519 56.5465 75.6128C54.607 75.7389 52.698 76.1303 50.8672 76.7826C49.1756 77.5958 47.6058 78.6394 46.2099 79.8875C44.6357 81.5443 42.5702 82.6489 40.3219 83.0445C38.0737 82.6488 36.0081 81.5399 34.4339 79.8875C33.0337 78.6394 31.4681 77.5914 29.7766 76.7826C27.9459 76.1303 26.0324 75.7346 24.0973 75.6128C21.8839 75.6519 19.7139 74.9996 17.8876 73.7516C16.6395 71.9252 15.9873 69.7553 16.0264 67.5419C15.9003 65.6024 15.5089 63.6934 14.8609 61.8626C14.0477 60.171 12.9997 58.6011 11.7517 57.2053C10.0992 55.631 8.99029 53.5655 8.59464 51.3173C8.99036 49.0647 10.0993 47.0035 11.7517 45.4293ZM9.1556 59.3014C10.1949 60.4581 11.0777 61.7496 11.7735 63.1411C12.2953 64.6848 12.6084 66.2895 12.7084 67.9116C12.6823 70.8903 13.6781 73.7821 15.5262 76.113C17.8571 77.9611 20.7489 78.9569 23.7233 78.9308C25.3496 79.0308 26.9542 79.3439 28.4981 79.8657C29.8896 80.5658 31.1767 81.4443 32.3378 82.4836C34.473 84.6622 37.2908 86.0364 40.3218 86.3842C43.3528 86.0364 46.1706 84.6622 48.3058 82.4836C49.4669 81.4443 50.754 80.5658 52.1456 79.8657C53.6893 79.3439 55.2939 79.0308 56.916 78.9308C59.8948 78.9569 62.7865 77.961 65.1174 76.113C66.9656 73.7821 67.9614 70.8903 67.9352 67.9159C68.0352 66.2896 68.3483 64.685 68.8702 63.1411C69.5659 61.7539 70.4487 60.4625 71.488 59.31C73.6666 57.1705 75.0408 54.3484 75.3887 51.3174C75.0408 48.2864 73.6666 45.4686 71.488 43.3334C70.4487 42.1723 69.5703 40.8852 68.8702 39.4936C68.3483 37.9499 68.0352 36.3453 67.9352 34.7232C67.9613 31.7487 66.9655 28.8527 65.1174 26.5218C62.7865 24.6736 59.8948 23.6821 56.9203 23.704C55.294 23.6039 53.6894 23.2909 52.1456 22.769C50.7584 22.0733 49.4669 21.1948 48.3145 20.1555C46.175 17.9769 43.3528 16.5984 40.3218 16.2505C37.2908 16.5984 34.473 17.9725 32.3335 20.1511C31.1767 21.1904 29.8853 22.0689 28.4981 22.769C26.9543 23.2909 25.3497 23.6039 23.7233 23.704C20.7489 23.6779 17.8571 24.6737 15.5262 26.5218C13.678 28.8527 12.6823 31.7444 12.7084 34.7188C12.6084 36.3452 12.2953 37.9498 11.7735 39.4936C11.0777 40.8808 10.1949 42.1723 9.1556 43.329C6.977 45.4642 5.60283 48.2864 5.25494 51.3174C5.60283 54.3484 6.977 57.1662 9.1556 59.3014Z" stroke="url(#paint11_linear_1_186)"/>
<path d="M39.6064 52.8271C40.6849 53.2359 41.7198 53.7447 42.6939 54.3492C43.6332 54.7971 44.1028 55.8581 43.8071 56.8539C43.5897 57.7454 42.9461 58.4716 42.0894 58.7977C40.937 59.2761 39.6238 59.1717 38.5583 58.5194L36.2144 57.041L36.2188 57.0453C35.436 56.5496 34.4054 56.7844 33.914 57.5671C33.4183 58.3455 33.6531 59.3805 34.4359 59.8719L36.7754 61.346C37.3581 61.7113 37.9931 61.9939 38.6584 62.1766V64.677C38.6584 65.5989 39.4063 66.3469 40.3282 66.3469C41.2501 66.3469 41.9981 65.5989 41.9981 64.677V62.2984C42.472 62.2027 42.9373 62.0592 43.3852 61.8722C45.2551 61.133 46.638 59.5109 47.0728 57.5497C47.6555 55.2407 46.6467 52.8228 44.5985 51.6053C43.433 50.8617 42.1936 50.2398 40.8978 49.7484C37.2103 48.2004 36.3058 47.5003 36.9537 45.5303C37.2624 44.7127 37.9277 44.0778 38.7627 43.8082C39.8846 43.4125 41.1283 43.5386 42.1459 44.1561L44.468 45.6172C45.2464 46.1086 46.2813 45.8738 46.7727 45.0954C47.2597 44.3127 47.0249 43.2821 46.2465 42.7907L43.9331 41.3296L43.9288 41.3339C43.3287 40.9686 42.6807 40.6947 41.998 40.5251V37.9594C41.998 37.0375 41.25 36.2896 40.3281 36.2896C39.4062 36.2896 38.6583 37.0375 38.6583 37.9594V40.425C38.3104 40.4815 37.9712 40.5598 37.6364 40.6642C35.8274 41.273 34.4054 42.6862 33.7836 44.4866C32.079 49.67 36.6103 51.5748 39.6064 52.8271Z" fill="url(#paint12_linear_1_186)"/>
<path d="M39.6064 52.8271C40.6849 53.2359 41.7198 53.7447 42.6939 54.3492C43.6332 54.7971 44.1028 55.8581 43.8071 56.8539C43.5897 57.7454 42.9461 58.4716 42.0894 58.7977C40.937 59.2761 39.6238 59.1717 38.5583 58.5194L36.2144 57.041L36.2188 57.0453C35.436 56.5496 34.4054 56.7844 33.914 57.5671C33.4183 58.3455 33.6531 59.3805 34.4359 59.8719L36.7754 61.346C37.3581 61.7113 37.9931 61.9939 38.6584 62.1766V64.677C38.6584 65.5989 39.4063 66.3469 40.3282 66.3469C41.2501 66.3469 41.9981 65.5989 41.9981 64.677V62.2984C42.472 62.2027 42.9373 62.0592 43.3852 61.8722C45.2551 61.133 46.638 59.5109 47.0728 57.5497C47.6555 55.2407 46.6467 52.8228 44.5985 51.6053C43.433 50.8617 42.1936 50.2398 40.8978 49.7484C37.2103 48.2004 36.3058 47.5003 36.9537 45.5303C37.2624 44.7127 37.9277 44.0778 38.7627 43.8082C39.8846 43.4125 41.1283 43.5386 42.1459 44.1561L44.468 45.6172C45.2464 46.1086 46.2813 45.8738 46.7727 45.0954C47.2597 44.3127 47.0249 43.2821 46.2465 42.7907L43.9331 41.3296L43.9288 41.3339C43.3287 40.9686 42.6807 40.6947 41.998 40.5251V37.9594C41.998 37.0375 41.25 36.2896 40.3281 36.2896C39.4062 36.2896 38.6583 37.0375 38.6583 37.9594V40.425C38.3104 40.4815 37.9712 40.5598 37.6364 40.6642C35.8274 41.273 34.4054 42.6862 33.7836 44.4866C32.079 49.67 36.6103 51.5748 39.6064 52.8271Z" fill="url(#paint13_linear_1_186)"/>
<path d="M39.6064 52.8271C40.6849 53.2359 41.7198 53.7447 42.6939 54.3492C43.6332 54.7971 44.1028 55.8581 43.8071 56.8539C43.5897 57.7454 42.9461 58.4716 42.0894 58.7977C40.937 59.2761 39.6238 59.1717 38.5583 58.5194L36.2144 57.041L36.2188 57.0453C35.436 56.5496 34.4054 56.7844 33.914 57.5671C33.4183 58.3455 33.6531 59.3805 34.4359 59.8719L36.7754 61.346C37.3581 61.7113 37.9931 61.9939 38.6584 62.1766V64.677C38.6584 65.5989 39.4063 66.3469 40.3282 66.3469C41.2501 66.3469 41.9981 65.5989 41.9981 64.677V62.2984C42.472 62.2027 42.9373 62.0592 43.3852 61.8722C45.2551 61.133 46.638 59.5109 47.0728 57.5497C47.6555 55.2407 46.6467 52.8228 44.5985 51.6053C43.433 50.8617 42.1936 50.2398 40.8978 49.7484C37.2103 48.2004 36.3058 47.5003 36.9537 45.5303C37.2624 44.7127 37.9277 44.0778 38.7627 43.8082C39.8846 43.4125 41.1283 43.5386 42.1459 44.1561L44.468 45.6172C45.2464 46.1086 46.2813 45.8738 46.7727 45.0954C47.2597 44.3127 47.0249 43.2821 46.2465 42.7907L43.9331 41.3296L43.9288 41.3339C43.3287 40.9686 42.6807 40.6947 41.998 40.5251V37.9594C41.998 37.0375 41.25 36.2896 40.3281 36.2896C39.4062 36.2896 38.6583 37.0375 38.6583 37.9594V40.425C38.3104 40.4815 37.9712 40.5598 37.6364 40.6642C35.8274 41.273 34.4054 42.6862 33.7836 44.4866C32.079 49.67 36.6103 51.5748 39.6064 52.8271Z" stroke="url(#paint14_linear_1_186)"/>
<defs>
<linearGradient id="paint0_linear_1_186" x1="41.0396" y1="5.29027" x2="37.6591" y2="6.32772" gradientUnits="userSpaceOnUse">
<stop stop-color="#363CFF"/>
<stop offset="1" stop-color="#DB9CFF"/>
</linearGradient>
<linearGradient id="paint1_linear_1_186" x1="40.9878" y1="5.35611" x2="37.6658" y2="6.36267" gradientUnits="userSpaceOnUse">
<stop stop-color="#363CFF"/>
<stop offset="1" stop-color="#A300FF"/>
</linearGradient>
<linearGradient id="paint2_linear_1_186" x1="41.0396" y1="5.29027" x2="37.6591" y2="6.32772" gradientUnits="userSpaceOnUse">
<stop stop-color="#363CFF"/>
<stop offset="1" stop-color="#DB9CFF"/>
</linearGradient>
<linearGradient id="paint3_linear_1_186" x1="-0.0703592" y1="15.4979" x2="6.39754" y2="20.5135" gradientUnits="userSpaceOnUse">
<stop stop-color="#363CFF"/>
<stop offset="1" stop-color="#DB9CFF"/>
</linearGradient>
<linearGradient id="paint4_linear_1_186" x1="0.0737137" y1="15.5722" x2="6.48023" y2="20.47" gradientUnits="userSpaceOnUse">
<stop stop-color="#363CFF"/>
<stop offset="1" stop-color="#A300FF"/>
</linearGradient>
<linearGradient id="paint5_linear_1_186" x1="-0.0703592" y1="15.4979" x2="6.39754" y2="20.5135" gradientUnits="userSpaceOnUse">
<stop stop-color="#363CFF"/>
<stop offset="1" stop-color="#DB9CFF"/>
</linearGradient>
<linearGradient id="paint6_linear_1_186" x1="78.8146" y1="16.2088" x2="72.3467" y2="21.2244" gradientUnits="userSpaceOnUse">
<stop stop-color="#363CFF"/>
<stop offset="1" stop-color="#DB9CFF"/>
</linearGradient>
<linearGradient id="paint7_linear_1_186" x1="78.6705" y1="16.2831" x2="72.264" y2="21.1809" gradientUnits="userSpaceOnUse">
<stop stop-color="#363CFF"/>
<stop offset="1" stop-color="#A300FF"/>
</linearGradient>
<linearGradient id="paint8_linear_1_186" x1="78.8146" y1="16.2088" x2="72.3467" y2="21.2244" gradientUnits="userSpaceOnUse">
<stop stop-color="#363CFF"/>
<stop offset="1" stop-color="#DB9CFF"/>
</linearGradient>
<linearGradient id="paint9_linear_1_186" x1="135.148" y1="44.3845" x2="51.5116" y2="112.634" gradientUnits="userSpaceOnUse">
<stop stop-color="#363CFF"/>
<stop offset="1" stop-color="#DB9CFF"/>
</linearGradient>
<linearGradient id="paint10_linear_1_186" x1="76.9961" y1="53.3636" x2="27.1591" y2="88.0788" gradientUnits="userSpaceOnUse">
<stop stop-color="#363CFF"/>
<stop offset="1" stop-color="#A300FF"/>
</linearGradient>
<linearGradient id="paint11_linear_1_186" x1="122.023" y1="54.5297" x2="42.1635" y2="109.894" gradientUnits="userSpaceOnUse">
<stop stop-color="#363CFF"/>
<stop offset="1" stop-color="#DB9CFF"/>
</linearGradient>
<linearGradient id="paint12_linear_1_186" x1="66.0594" y1="51.3182" x2="36.5785" y2="62.0535" gradientUnits="userSpaceOnUse">
<stop stop-color="#363CFF"/>
<stop offset="1" stop-color="#DB9CFF"/>
</linearGradient>
<linearGradient id="paint13_linear_1_186" x1="47.5533" y1="52.1952" x2="34.3206" y2="56.4349" gradientUnits="userSpaceOnUse">
<stop stop-color="#363CFF"/>
<stop offset="1" stop-color="#A300FF"/>
</linearGradient>
<linearGradient id="paint14_linear_1_186" x1="47.7765" y1="51.9908" x2="34.3215" y2="56.3662" gradientUnits="userSpaceOnUse">
<stop stop-color="#363CFF"/>
<stop offset="1" stop-color="#DB9CFF"/>
</linearGradient>
</defs>
</svg>
