<svg width="81" height="87" viewBox="0 0 81 87" fill="none" xmlns="http://www.w3.org/2000/svg">
<path d="M28.9878 22.7106C28.5664 23.929 28.9204 25.2275 29.8811 26.1253L33.3532 29.4117L32.5442 33.9005C32.3251 35.1511 32.8476 36.4015 33.9432 37.155C35.0219 37.9085 36.4377 38.0046 37.6344 37.4115L41.9829 35.2953L46.2135 37.4115C46.736 37.668 47.2922 37.7962 47.8483 37.7962C48.5731 37.7962 49.281 37.5878 49.9046 37.155C50.9833 36.4015 51.5226 35.1511 51.3036 33.9005L50.5282 29.3155L53.9498 26.1412C54.9105 25.2434 55.2476 23.9449 54.8431 22.7265C54.4217 21.5081 53.343 20.6424 52.0115 20.466L47.1741 19.7446L45.0504 15.6565C44.4604 14.5183 43.2469 13.7969 41.9154 13.7969C40.584 13.7969 39.3703 14.5023 38.7805 15.6565L36.5725 19.8087L31.8363 20.466C30.5048 20.6424 29.4261 21.5241 29.0047 22.7265L28.9878 22.7106ZM32.2913 23.6243L37.0275 22.9671C38.1736 22.8067 39.1513 22.1334 39.6568 21.1395L41.8817 16.9873C41.8817 16.9873 41.9828 17.0194 41.9997 17.0514L44.1234 21.1395C44.6291 22.1174 45.6235 22.8068 46.7528 22.9671L51.4889 23.6243L51.5564 23.8328L48.1348 27.0071C47.3089 27.7766 46.9381 28.8667 47.1235 29.9569L47.9326 34.4457L47.7471 34.574L43.5166 32.4578C42.4884 31.9448 41.2749 31.9448 40.2636 32.4578L36.033 34.574L35.8476 34.4457L36.6567 29.9569C36.8589 28.8827 36.4713 27.7766 35.6454 27.0071L32.2238 23.8328L32.2913 23.6243Z" fill="url(#paint0_linear_1_198)"/>
<path d="M28.9878 22.7106C28.5664 23.929 28.9204 25.2275 29.8811 26.1253L33.3532 29.4117L32.5442 33.9005C32.3251 35.1511 32.8476 36.4015 33.9432 37.155C35.0219 37.9085 36.4377 38.0046 37.6344 37.4115L41.9829 35.2953L46.2135 37.4115C46.736 37.668 47.2922 37.7962 47.8483 37.7962C48.5731 37.7962 49.281 37.5878 49.9046 37.155C50.9833 36.4015 51.5226 35.1511 51.3036 33.9005L50.5282 29.3155L53.9498 26.1412C54.9105 25.2434 55.2476 23.9449 54.8431 22.7265C54.4217 21.5081 53.343 20.6424 52.0115 20.466L47.1741 19.7446L45.0504 15.6565C44.4604 14.5183 43.2469 13.7969 41.9154 13.7969C40.584 13.7969 39.3703 14.5023 38.7805 15.6565L36.5725 19.8087L31.8363 20.466C30.5048 20.6424 29.4261 21.5241 29.0047 22.7265L28.9878 22.7106ZM32.2913 23.6243L37.0275 22.9671C38.1736 22.8067 39.1513 22.1334 39.6568 21.1395L41.8817 16.9873C41.8817 16.9873 41.9828 17.0194 41.9997 17.0514L44.1234 21.1395C44.6291 22.1174 45.6235 22.8068 46.7528 22.9671L51.4889 23.6243L51.5564 23.8328L48.1348 27.0071C47.3089 27.7766 46.9381 28.8667 47.1235 29.9569L47.9326 34.4457L47.7471 34.574L43.5166 32.4578C42.4884 31.9448 41.2749 31.9448 40.2636 32.4578L36.033 34.574L35.8476 34.4457L36.6567 29.9569C36.8589 28.8827 36.4713 27.7766 35.6454 27.0071L32.2238 23.8328L32.2913 23.6243Z" fill="url(#paint1_linear_1_198)"/>
<path d="M8.13635 41.5128L7.55103 44.8189C7.3169 46.0956 7.85205 47.3722 8.9223 48.1415C9.52435 48.5671 10.2435 48.7962 10.9625 48.7962C11.5144 48.7962 12.0662 48.6653 12.5847 48.4034L15.7454 46.8321L18.7891 48.4034C19.9765 49.009 21.3645 48.9108 22.4516 48.1415C23.5219 47.3723 24.0571 46.0956 23.8397 44.8189L23.2878 41.3982L25.7462 39.0576C26.6994 38.141 27.0339 36.8153 26.6158 35.5714C26.1978 34.3274 25.1275 33.4437 23.823 33.2636L20.3278 32.7071L18.8059 29.6955C18.2206 28.5334 17.0165 27.7969 15.6954 27.7969C14.3743 27.7969 13.1701 28.517 12.5849 29.6955L10.9794 32.7726L7.5845 33.2636C6.26332 33.4436 5.19301 34.3438 4.79165 35.5714C4.39029 36.7989 4.72476 38.141 5.67799 39.0576L8.16977 41.5128H8.13635ZM8.05274 36.5044L11.4476 36.0134C12.5848 35.8497 13.5549 35.1623 14.0565 34.1639L15.6954 31.0868C15.6954 31.0868 15.7957 31.1195 15.8124 31.1523L17.3343 34.1639C17.836 35.1623 18.8227 35.8661 19.9432 36.0297L23.3381 36.5207L23.405 36.7335L20.9466 39.0741C20.1271 39.8597 19.7592 40.9727 19.9432 42.0857L20.5285 45.3918L20.3445 45.5228L17.3008 43.9515C16.7991 43.6896 16.2472 43.5587 15.6786 43.5587C15.1101 43.5587 14.5749 43.6896 14.0732 43.9515L11.0294 45.5228L10.8455 45.3918L11.4308 42.0857C11.6315 40.989 11.2468 39.8597 10.4274 39.0741L7.96902 36.7335L8.03591 36.5207L8.05274 36.5044Z" fill="url(#paint2_linear_1_198)"/>
<path d="M8.13635 41.5128L7.55103 44.8189C7.3169 46.0956 7.85205 47.3722 8.9223 48.1415C9.52435 48.5671 10.2435 48.7962 10.9625 48.7962C11.5144 48.7962 12.0662 48.6653 12.5847 48.4034L15.7454 46.8321L18.7891 48.4034C19.9765 49.009 21.3645 48.9108 22.4516 48.1415C23.5219 47.3723 24.0571 46.0956 23.8397 44.8189L23.2878 41.3982L25.7462 39.0576C26.6994 38.141 27.0339 36.8153 26.6158 35.5714C26.1978 34.3274 25.1275 33.4437 23.823 33.2636L20.3278 32.7071L18.8059 29.6955C18.2206 28.5334 17.0165 27.7969 15.6954 27.7969C14.3743 27.7969 13.1701 28.517 12.5849 29.6955L10.9794 32.7726L7.5845 33.2636C6.26332 33.4436 5.19301 34.3438 4.79165 35.5714C4.39029 36.7989 4.72476 38.141 5.67799 39.0576L8.16977 41.5128H8.13635ZM8.05274 36.5044L11.4476 36.0134C12.5848 35.8497 13.5549 35.1623 14.0565 34.1639L15.6954 31.0868C15.6954 31.0868 15.7957 31.1195 15.8124 31.1523L17.3343 34.1639C17.836 35.1623 18.8227 35.8661 19.9432 36.0297L23.3381 36.5207L23.405 36.7335L20.9466 39.0741C20.1271 39.8597 19.7592 40.9727 19.9432 42.0857L20.5285 45.3918L20.3445 45.5228L17.3008 43.9515C16.7991 43.6896 16.2472 43.5587 15.6786 43.5587C15.1101 43.5587 14.5749 43.6896 14.0732 43.9515L11.0294 45.5228L10.8455 45.3918L11.4308 42.0857C11.6315 40.989 11.2468 39.8597 10.4274 39.0741L7.96902 36.7335L8.03591 36.5207L8.05274 36.5044Z" fill="url(#paint3_linear_1_198)"/>
<path d="M61.5867 41.5128L61.0021 44.8189C60.785 46.0956 61.3027 47.3722 62.3883 48.1415C63.4571 48.9108 64.86 49.009 66.029 48.4034L69.1853 46.8321L72.2249 48.4034C72.7426 48.6653 73.2937 48.7962 73.8448 48.7962C74.5629 48.7962 75.2643 48.5835 75.8822 48.1415C76.9511 47.3723 77.4855 46.0956 77.2516 44.8189L76.7005 41.3982L79.1555 39.0576C80.1074 38.141 80.4414 36.8153 80.0406 35.5714C79.6398 34.3274 78.5543 33.4437 77.2349 33.2636L73.7446 32.7071L72.2248 29.6955C71.6403 28.5334 70.4378 27.7969 69.1185 27.7969C67.7993 27.7969 66.5967 28.517 66.0123 29.6955L64.3924 32.7726L61.0021 33.2636C59.6828 33.4436 58.6139 34.3438 58.2131 35.5714C57.7956 36.8153 58.1463 38.141 59.0815 39.0576L61.5699 41.5128H61.5867ZM61.4865 36.5044L64.8767 36.0134C66.0123 35.8497 66.981 35.1623 67.482 34.1639L69.0017 31.1523H69.2189L70.7386 34.1639C71.2396 35.1623 72.2249 35.8661 73.3439 36.0297L76.7341 36.5207L76.8009 36.7335L74.3459 39.0741C73.5276 39.8597 73.1602 40.9727 73.3439 42.0857L73.9284 45.3918L73.7447 45.5228L70.7052 43.9515C70.2042 43.6896 69.653 43.5587 69.0852 43.5587C68.5175 43.5587 67.9831 43.6896 67.482 43.9515L64.4424 45.5228L64.2587 45.3918L64.8433 42.0692C65.0437 40.9726 64.6595 39.8433 63.8412 39.0576L61.3862 36.7171L61.453 36.5043L61.4865 36.5044Z" fill="url(#paint4_linear_1_198)"/>
<path d="M61.5867 41.5128L61.0021 44.8189C60.785 46.0956 61.3027 47.3722 62.3883 48.1415C63.4571 48.9108 64.86 49.009 66.029 48.4034L69.1853 46.8321L72.2249 48.4034C72.7426 48.6653 73.2937 48.7962 73.8448 48.7962C74.5629 48.7962 75.2643 48.5835 75.8822 48.1415C76.9511 47.3723 77.4855 46.0956 77.2516 44.8189L76.7005 41.3982L79.1555 39.0576C80.1074 38.141 80.4414 36.8153 80.0406 35.5714C79.6398 34.3274 78.5543 33.4437 77.2349 33.2636L73.7446 32.7071L72.2248 29.6955C71.6403 28.5334 70.4378 27.7969 69.1185 27.7969C67.7993 27.7969 66.5967 28.517 66.0123 29.6955L64.3924 32.7726L61.0021 33.2636C59.6828 33.4436 58.6139 34.3438 58.2131 35.5714C57.7956 36.8153 58.1463 38.141 59.0815 39.0576L61.5699 41.5128H61.5867ZM61.4865 36.5044L64.8767 36.0134C66.0123 35.8497 66.981 35.1623 67.482 34.1639L69.0017 31.1523H69.2189L70.7386 34.1639C71.2396 35.1623 72.2249 35.8661 73.3439 36.0297L76.7341 36.5207L76.8009 36.7335L74.3459 39.0741C73.5276 39.8597 73.1602 40.9727 73.3439 42.0857L73.9284 45.3918L73.7447 45.5228L70.7052 43.9515C70.2042 43.6896 69.653 43.5587 69.0852 43.5587C68.5175 43.5587 67.9831 43.6896 67.482 43.9515L64.4424 45.5228L64.2587 45.3918L64.8433 42.0692C65.0437 40.9726 64.6595 39.8433 63.8412 39.0576L61.3862 36.7171L61.453 36.5043L61.4865 36.5044Z" fill="url(#paint5_linear_1_198)"/>
<path d="M76.0787 56.3263C74.5561 54.4905 72.2148 53.9056 70.1319 54.8154C67.7331 55.8552 65.0039 57.6586 62.0449 60.1768C60.7665 61.2653 59.1434 62.0614 57.3622 62.6463C57.6925 60.7129 57.3191 58.146 55.6816 56.7325C55.0496 56.1963 54.3026 55.8876 53.4264 55.8064C48.988 55.3677 42.5815 53.3207 35.3705 50.0551C25.9191 45.7822 15.0741 55.8389 14.6145 56.2776C14.5283 56.3589 14.4708 56.4726 14.4134 56.5701L13.6233 55.0266C13.2211 54.2468 12.345 53.9868 11.6555 54.4255L0.724076 61.5741C0.393698 61.7853 0.149512 62.1427 0.0489593 62.5651C-0.0515939 62.9875 0.00586661 63.4262 0.1926 63.7999L11.6269 86.1877C11.8998 86.7076 12.3738 87 12.8766 87C13.1208 87 13.3649 86.935 13.5948 86.7888L24.5262 79.6402C24.8566 79.429 25.1007 79.0716 25.2013 78.6492C25.3019 78.2268 25.2444 77.7881 25.0577 77.4144L24.1671 75.6598C27.6863 74.0676 31.9525 74.8637 37.1954 75.8547C40.9013 76.5533 44.952 77.3332 49.3909 77.3332C50.9853 77.3332 52.6228 77.2357 54.3178 76.992C63.7259 75.6761 71.1952 69.811 75.8211 65.0989C76.9416 63.9291 77.588 62.2882 77.588 60.566C77.588 58.9901 77.0565 57.4791 76.0941 56.3418L76.0787 56.3263ZM13.3934 83.1332L3.39596 63.556L11.842 58.0321L20.8627 75.7086C20.8627 75.7086 20.8627 75.7411 20.877 75.7573L20.9058 75.7898L21.8251 77.5932L13.379 83.1171L13.3934 83.1332ZM73.8806 62.6784C70.3614 66.2689 63.0935 72.4589 53.9575 73.7429C47.9821 74.5877 42.4948 73.5479 37.6684 72.6219C32.009 71.5496 27.068 70.6235 22.7151 72.7843L15.7197 59.0715C15.9927 59.039 16.2512 58.9416 16.4667 58.7304C16.5672 58.6329 26.4494 49.486 34.3066 53.0439C41.7616 56.4233 48.4694 58.5353 53.1808 59.0065C53.3101 59.0065 53.6692 59.0553 53.9565 59.299C54.5023 59.7701 54.7609 61.0049 54.5454 62.0934C54.5454 62.1259 54.5454 62.1422 54.531 62.1746C54.3874 62.7758 53.9708 63.2956 53.425 63.5881C47.0474 64.6442 40.3682 63.8318 40.268 63.8318C39.4923 63.7506 38.7741 64.368 38.6879 65.2616C38.6017 66.1551 39.1619 66.9512 39.9519 67.0488C40.311 67.0975 44.9506 67.6499 50.3373 67.2112C55.0487 66.8213 60.3062 65.684 63.7536 62.7597C67.1722 59.8515 69.6572 58.4705 71.1511 57.8369C72.1422 57.3982 73.2482 57.6744 73.9808 58.5517C74.4404 59.0879 74.6846 59.8027 74.6846 60.5501C74.6846 61.3624 74.383 62.126 73.8659 62.6785L73.8806 62.6784Z" fill="url(#paint6_linear_1_198)"/>
<path d="M76.0787 56.3263C74.5561 54.4905 72.2148 53.9056 70.1319 54.8154C67.7331 55.8552 65.0039 57.6586 62.0449 60.1768C60.7665 61.2653 59.1434 62.0614 57.3622 62.6463C57.6925 60.7129 57.3191 58.146 55.6816 56.7325C55.0496 56.1963 54.3026 55.8876 53.4264 55.8064C48.988 55.3677 42.5815 53.3207 35.3705 50.0551C25.9191 45.7822 15.0741 55.8389 14.6145 56.2776C14.5283 56.3589 14.4708 56.4726 14.4134 56.5701L13.6233 55.0266C13.2211 54.2468 12.345 53.9868 11.6555 54.4255L0.724076 61.5741C0.393698 61.7853 0.149512 62.1427 0.0489593 62.5651C-0.0515939 62.9875 0.00586661 63.4262 0.1926 63.7999L11.6269 86.1877C11.8998 86.7076 12.3738 87 12.8766 87C13.1208 87 13.3649 86.935 13.5948 86.7888L24.5262 79.6402C24.8566 79.429 25.1007 79.0716 25.2013 78.6492C25.3019 78.2268 25.2444 77.7881 25.0577 77.4144L24.1671 75.6598C27.6863 74.0676 31.9525 74.8637 37.1954 75.8547C40.9013 76.5533 44.952 77.3332 49.3909 77.3332C50.9853 77.3332 52.6228 77.2357 54.3178 76.992C63.7259 75.6761 71.1952 69.811 75.8211 65.0989C76.9416 63.9291 77.588 62.2882 77.588 60.566C77.588 58.9901 77.0565 57.4791 76.0941 56.3418L76.0787 56.3263ZM13.3934 83.1332L3.39596 63.556L11.842 58.0321L20.8627 75.7086C20.8627 75.7086 20.8627 75.7411 20.877 75.7573L20.9058 75.7898L21.8251 77.5932L13.379 83.1171L13.3934 83.1332ZM73.8806 62.6784C70.3614 66.2689 63.0935 72.4589 53.9575 73.7429C47.9821 74.5877 42.4948 73.5479 37.6684 72.6219C32.009 71.5496 27.068 70.6235 22.7151 72.7843L15.7197 59.0715C15.9927 59.039 16.2512 58.9416 16.4667 58.7304C16.5672 58.6329 26.4494 49.486 34.3066 53.0439C41.7616 56.4233 48.4694 58.5353 53.1808 59.0065C53.3101 59.0065 53.6692 59.0553 53.9565 59.299C54.5023 59.7701 54.7609 61.0049 54.5454 62.0934C54.5454 62.1259 54.5454 62.1422 54.531 62.1746C54.3874 62.7758 53.9708 63.2956 53.425 63.5881C47.0474 64.6442 40.3682 63.8318 40.268 63.8318C39.4923 63.7506 38.7741 64.368 38.6879 65.2616C38.6017 66.1551 39.1619 66.9512 39.9519 67.0488C40.311 67.0975 44.9506 67.6499 50.3373 67.2112C55.0487 66.8213 60.3062 65.684 63.7536 62.7597C67.1722 59.8515 69.6572 58.4705 71.1511 57.8369C72.1422 57.3982 73.2482 57.6744 73.9808 58.5517C74.4404 59.0879 74.6846 59.8027 74.6846 60.5501C74.6846 61.3624 74.383 62.126 73.8659 62.6785L73.8806 62.6784Z" fill="url(#paint7_linear_1_198)"/>
<path d="M41.3187 8.14223C42.1601 8.14223 42.8484 7.40944 42.8484 6.51378V1.62845C42.8484 0.732796 42.1601 0 41.3187 0C40.4774 0 39.7891 0.732796 39.7891 1.62845V6.51378C39.7891 7.40944 40.4774 8.14223 41.3187 8.14223Z" fill="url(#paint8_linear_1_198)"/>
<path d="M41.3187 8.14223C42.1601 8.14223 42.8484 7.40944 42.8484 6.51378V1.62845C42.8484 0.732796 42.1601 0 41.3187 0C40.4774 0 39.7891 0.732796 39.7891 1.62845V6.51378C39.7891 7.40944 40.4774 8.14223 41.3187 8.14223Z" fill="url(#paint9_linear_1_198)"/>
<path d="M30.4875 11.9435C30.7934 12.2692 31.1758 12.4157 31.5736 12.4157C31.9713 12.4157 32.3537 12.2529 32.6597 11.9435C33.2562 11.3084 33.2562 10.2824 32.6597 9.64738L29.4167 6.19507C28.8201 5.55998 27.8564 5.55998 27.2599 6.19507C26.6634 6.83017 26.6633 7.85614 27.2599 8.49116L30.5028 11.9435H30.4875Z" fill="url(#paint10_linear_1_198)"/>
<path d="M30.4875 11.9435C30.7934 12.2692 31.1758 12.4157 31.5736 12.4157C31.9713 12.4157 32.3537 12.2529 32.6597 11.9435C33.2562 11.3084 33.2562 10.2824 32.6597 9.64738L29.4167 6.19507C28.8201 5.55998 27.8564 5.55998 27.2599 6.19507C26.6634 6.83017 26.6633 7.85614 27.2599 8.49116L30.5028 11.9435H30.4875Z" fill="url(#paint11_linear_1_198)"/>
<path d="M51.0416 12.4157C51.4393 12.4157 51.8217 12.2528 52.1277 11.9434L55.3706 8.49113C55.9672 7.85603 55.9672 6.83006 55.3706 6.19504C54.774 5.56003 53.8103 5.55994 53.2138 6.19504L49.9709 9.64735C49.3743 10.2824 49.3743 11.3084 49.9709 11.9434C50.2768 12.2691 50.6592 12.4157 51.057 12.4157H51.0416Z" fill="url(#paint12_linear_1_198)"/>
<path d="M51.0416 12.4157C51.4393 12.4157 51.8217 12.2528 52.1277 11.9434L55.3706 8.49113C55.9672 7.85603 55.9672 6.83006 55.3706 6.19504C54.774 5.56003 53.8103 5.55994 53.2138 6.19504L49.9709 9.64735C49.3743 10.2824 49.3743 11.3084 49.9709 11.9434C50.2768 12.2691 50.6592 12.4157 51.057 12.4157H51.0416Z" fill="url(#paint13_linear_1_198)"/>
<defs>
<linearGradient id="paint0_linear_1_198" x1="70.4183" y1="28.6401" x2="43.6697" y2="48.4862" gradientUnits="userSpaceOnUse">
<stop stop-color="#363CFF"/>
<stop offset="1" stop-color="#DB9CFF"/>
</linearGradient>
<linearGradient id="paint1_linear_1_198" x1="55.6115" y1="26.4971" x2="38.0915" y2="39.819" gradientUnits="userSpaceOnUse">
<stop stop-color="#363CFF"/>
<stop offset="1" stop-color="#A300FF"/>
</linearGradient>
<linearGradient id="paint2_linear_1_198" x1="35.6317" y1="38.2969" x2="16.3397" y2="54.4762" gradientUnits="userSpaceOnUse">
<stop stop-color="#363CFF"/>
<stop offset="1" stop-color="#DB9CFF"/>
</linearGradient>
<linearGradient id="paint3_linear_1_198" x1="27.3011" y1="38.9096" x2="12.1157" y2="50.0756" gradientUnits="userSpaceOnUse">
<stop stop-color="#363CFF"/>
<stop offset="1" stop-color="#A300FF"/>
</linearGradient>
<linearGradient id="paint4_linear_1_198" x1="98.2797" y1="40.0745" x2="72.2845" y2="59.5785" gradientUnits="userSpaceOnUse">
<stop stop-color="#363CFF"/>
<stop offset="1" stop-color="#DB9CFF"/>
</linearGradient>
<linearGradient id="paint5_linear_1_198" x1="80.7151" y1="38.9096" x2="65.5297" y2="50.0756" gradientUnits="userSpaceOnUse">
<stop stop-color="#363CFF"/>
<stop offset="1" stop-color="#A300FF"/>
</linearGradient>
<linearGradient id="paint6_linear_1_198" x1="121.31" y1="70.1907" x2="80.4165" y2="128.538" gradientUnits="userSpaceOnUse">
<stop stop-color="#363CFF"/>
<stop offset="1" stop-color="#DB9CFF"/>
</linearGradient>
<linearGradient id="paint7_linear_1_198" x1="79.3662" y1="69.1087" x2="52.2769" y2="107.637" gradientUnits="userSpaceOnUse">
<stop stop-color="#363CFF"/>
<stop offset="1" stop-color="#A300FF"/>
</linearGradient>
<linearGradient id="paint8_linear_1_198" x1="43.0204" y1="5.0212" x2="39.9869" y2="5.7772" gradientUnits="userSpaceOnUse">
<stop stop-color="#363CFF"/>
<stop offset="1" stop-color="#DB9CFF"/>
</linearGradient>
<linearGradient id="paint9_linear_1_198" x1="42.9185" y1="4.30867" x2="39.8967" y2="5.09958" gradientUnits="userSpaceOnUse">
<stop stop-color="#363CFF"/>
<stop offset="1" stop-color="#A300FF"/>
</linearGradient>
<linearGradient id="paint10_linear_1_198" x1="33.4609" y1="9.84867" x2="28.6873" y2="12.8247" gradientUnits="userSpaceOnUse">
<stop stop-color="#363CFF"/>
<stop offset="1" stop-color="#DB9CFF"/>
</linearGradient>
<linearGradient id="paint11_linear_1_198" x1="33.2514" y1="9.26262" x2="28.6014" y2="12.3071" gradientUnits="userSpaceOnUse">
<stop stop-color="#363CFF"/>
<stop offset="1" stop-color="#A300FF"/>
</linearGradient>
<linearGradient id="paint12_linear_1_198" x1="56.1718" y1="9.84865" x2="51.3983" y2="12.8247" gradientUnits="userSpaceOnUse">
<stop stop-color="#363CFF"/>
<stop offset="1" stop-color="#DB9CFF"/>
</linearGradient>
<linearGradient id="paint13_linear_1_198" x1="55.9623" y1="9.2626" x2="51.3123" y2="12.3071" gradientUnits="userSpaceOnUse">
<stop stop-color="#363CFF"/>
<stop offset="1" stop-color="#A300FF"/>
</linearGradient>
</defs>
</svg>
