<svg width="82" height="72" viewBox="0 0 82 72" fill="none" xmlns="http://www.w3.org/2000/svg">
<path d="M39.3576 0.500012C38.9357 0.501656 38.5315 0.669983 38.2332 0.968314C37.9348 1.26664 37.7665 1.6708 37.7649 2.0927C37.7665 2.51459 37.9349 2.91873 38.2332 3.21704C38.5315 3.51536 38.9357 3.68368 39.3576 3.68533H43.2768V9.65952C29.7854 12.9196 19.7394 25.1638 19.7394 39.7332C19.7394 56.789 33.5071 70.6562 50.4533 70.6562C67.3994 70.6562 81.1515 56.789 81.1515 39.7332C81.1515 25.1652 71.1168 12.9241 57.6297 9.6626V3.68533H61.5365C61.9605 3.68699 62.3679 3.52013 62.6689 3.22145C62.9699 2.92278 63.14 2.51675 63.1417 2.0927C63.1408 1.88272 63.0987 1.67496 63.0176 1.48129C62.9364 1.28761 62.818 1.1118 62.6689 0.963908C62.5199 0.816013 62.3431 0.698924 62.1488 0.619329C61.9545 0.539733 61.7464 0.49919 61.5365 0.500012H39.3576ZM46.4747 3.68533H54.4287V9.06613C53.1267 8.89632 51.8009 8.8099 50.4533 8.8099C49.1056 8.8099 47.7768 8.89572 46.4747 9.06613V3.68533ZM50.4533 12.0079C65.658 12.0079 77.9661 24.3925 77.9661 39.7332C77.9661 55.0738 65.658 67.4709 50.4533 67.4709C35.2485 67.4709 22.9404 55.0738 22.9404 39.7332C22.9404 24.3925 35.2485 12.0079 50.4533 12.0079ZM12.798 12.2327C12.587 12.2319 12.3779 12.2728 12.1828 12.3532C11.9877 12.4336 11.8104 12.5518 11.6612 12.701C11.5119 12.8502 11.3937 13.0275 11.3134 13.2227C11.233 13.4178 11.192 13.6269 11.1929 13.8379C11.1937 14.0479 11.2359 14.2556 11.317 14.4493C11.3981 14.643 11.5165 14.8188 11.6656 14.9667C11.8147 15.1146 11.9914 15.2317 12.1857 15.3113C12.38 15.3909 12.5881 15.4314 12.798 15.4306H24.1111C24.3211 15.4314 24.5291 15.3909 24.7235 15.3113C24.9178 15.2317 25.0945 15.1146 25.2435 14.9667C25.3926 14.8188 25.5111 14.643 25.5922 14.4493C25.6733 14.2556 25.7155 14.0479 25.7163 13.8379C25.7171 13.6269 25.6761 13.4178 25.5958 13.2227C25.5154 13.0275 25.3972 12.8502 25.248 12.701C25.0988 12.5518 24.9215 12.4336 24.7263 12.3532C24.5312 12.2728 24.3221 12.2319 24.1111 12.2327H12.798ZM50.1566 20.8239C49.9466 20.8247 49.7388 20.8668 49.5452 20.948C49.3515 21.0291 49.1757 21.1475 49.0278 21.2966C48.8799 21.4457 48.7628 21.6224 48.6832 21.8167C48.6036 22.011 48.5631 22.2191 48.5639 22.4291V42.2689C48.5627 42.4791 48.6029 42.6875 48.6824 42.8822C48.7618 43.0768 48.8788 43.2539 49.0267 43.4033C49.1747 43.5527 49.3506 43.6714 49.5445 43.7527C49.7383 43.834 49.9463 43.8763 50.1566 43.8772H61.5708C61.7821 43.878 61.9915 43.8369 62.1868 43.7564C62.3821 43.6758 62.5595 43.5573 62.7088 43.4078C62.8581 43.2582 62.9762 43.0806 63.0564 42.8851C63.1366 42.6896 63.1772 42.4802 63.176 42.2689C63.1752 42.0589 63.133 41.8512 63.0519 41.6575C62.9708 41.4638 62.8523 41.288 62.7033 41.1401C62.5542 40.9922 62.3775 40.8751 62.1832 40.7955C61.9889 40.7159 61.7808 40.6754 61.5708 40.6762H51.7493V22.4291C51.7501 22.2191 51.7095 22.011 51.63 21.8167C51.5504 21.6224 51.4333 21.4456 51.2854 21.2966C51.1375 21.1475 50.9617 21.0291 50.768 20.948C50.5743 20.8668 50.3665 20.8247 50.1566 20.8239ZM5.10319 25.1928C4.89322 25.192 4.68513 25.2325 4.49083 25.3121C4.29652 25.3917 4.1198 25.5088 3.97074 25.6567C3.82168 25.8046 3.70322 25.9804 3.62211 26.1741C3.541 26.3677 3.49883 26.5755 3.49801 26.7855C3.49883 26.9954 3.541 27.2032 3.62211 27.3969C3.70322 27.5906 3.82168 27.7664 3.97074 27.9143C4.1198 28.0622 4.29652 28.1792 4.49083 28.2588C4.68513 28.3384 4.89322 28.379 5.10319 28.3782H16.4162C16.6262 28.379 16.8343 28.3384 17.0286 28.2588C17.2229 28.1792 17.3996 28.0622 17.5487 27.9143C17.6977 27.7664 17.8162 27.5906 17.8973 27.3969C17.9784 27.2032 18.0206 26.9954 18.0214 26.7855C18.0206 26.5755 17.9784 26.3677 17.8973 26.1741C17.8162 25.9804 17.6977 25.8046 17.5487 25.6567C17.3996 25.5088 17.2229 25.3917 17.0286 25.3121C16.8343 25.2325 16.6262 25.192 16.4162 25.1928H5.10319ZM2.1052 38.1404C1.89522 38.1396 1.68714 38.1801 1.49283 38.2597C1.29852 38.3393 1.1218 38.4564 0.972743 38.6043C0.823688 38.7522 0.705223 38.928 0.624111 39.1217C0.543 39.3154 0.500831 39.5231 0.500012 39.7331C0.499192 39.9441 0.540152 40.1532 0.62053 40.3483C0.700908 40.5435 0.819115 40.7207 0.968334 40.87C1.11755 41.0192 1.29483 41.1374 1.48995 41.2177C1.68507 41.2981 1.89417 41.3391 2.1052 41.3382H13.4182C13.6293 41.3391 13.8384 41.2981 14.0335 41.2177C14.2286 41.1374 14.4059 41.0192 14.5551 40.87C14.7043 40.7207 14.8225 40.5435 14.9029 40.3483C14.9833 40.1532 15.0242 39.9441 15.0234 39.7331C15.0226 39.5231 14.9804 39.3154 14.8993 39.1217C14.8182 38.928 14.6997 38.7522 14.5507 38.6043C14.4016 38.4564 14.2249 38.3393 14.0306 38.2597C13.8363 38.1801 13.6282 38.1396 13.4182 38.1404H2.1052ZM5.10319 51.088C4.89322 51.0872 4.68513 51.1277 4.49083 51.2073C4.29652 51.2869 4.1198 51.404 3.97074 51.5519C3.82168 51.6998 3.70322 51.8756 3.62211 52.0693C3.541 52.2629 3.49883 52.4707 3.49801 52.6807C3.49718 52.8917 3.53813 53.1008 3.61851 53.2959C3.69888 53.4911 3.81709 53.6683 3.96631 53.8176C4.11553 53.9668 4.29281 54.085 4.48793 54.1654C4.68306 54.2457 4.89216 54.2867 5.10319 54.2859H16.4162C16.6273 54.2867 16.8364 54.2457 17.0315 54.1654C17.2266 54.085 17.4039 53.9668 17.5531 53.8176C17.7023 53.6683 17.8205 53.4911 17.9009 53.2959C17.9813 53.1008 18.0222 52.8917 18.0214 52.6807C18.0206 52.4707 17.9784 52.2629 17.8973 52.0693C17.8162 51.8756 17.6977 51.6998 17.5487 51.5519C17.3996 51.404 17.2229 51.2869 17.0286 51.2073C16.8343 51.1277 16.6262 51.0872 16.4162 51.088H5.10319ZM12.798 64.0356C12.5881 64.0348 12.38 64.0753 12.1857 64.1549C11.9914 64.2345 11.8147 64.3516 11.6656 64.4995C11.5165 64.6474 11.3981 64.8232 11.317 65.0169C11.2359 65.2106 11.1937 65.4183 11.1929 65.6283C11.192 65.8393 11.233 66.0484 11.3134 66.2435C11.3938 66.4387 11.512 66.6159 11.6612 66.7651C11.8104 66.9144 11.9877 67.0326 12.1828 67.1129C12.3779 67.1933 12.587 67.2343 12.798 67.2334H24.1111C24.3221 67.2343 24.5312 67.1933 24.7263 67.1129C24.9215 67.0326 25.0987 66.9144 25.2479 66.7651C25.3972 66.6159 25.5154 66.4387 25.5958 66.2435C25.6761 66.0484 25.7171 65.8393 25.7163 65.6283C25.7155 65.4183 25.6733 65.2106 25.5922 65.0169C25.5111 64.8232 25.3926 64.6474 25.2435 64.4995C25.0945 64.3516 24.9178 64.2345 24.7235 64.1549C24.5291 64.0753 24.3211 64.0348 24.1111 64.0356H12.798Z" fill="url(#paint0_linear_1_211)"/>
<path d="M39.3576 0.500012C38.9357 0.501656 38.5315 0.669983 38.2332 0.968314C37.9348 1.26664 37.7665 1.6708 37.7649 2.0927C37.7665 2.51459 37.9349 2.91873 38.2332 3.21704C38.5315 3.51536 38.9357 3.68368 39.3576 3.68533H43.2768V9.65952C29.7854 12.9196 19.7394 25.1638 19.7394 39.7332C19.7394 56.789 33.5071 70.6562 50.4533 70.6562C67.3994 70.6562 81.1515 56.789 81.1515 39.7332C81.1515 25.1652 71.1168 12.9241 57.6297 9.6626V3.68533H61.5365C61.9605 3.68699 62.3679 3.52013 62.6689 3.22145C62.9699 2.92278 63.14 2.51675 63.1417 2.0927C63.1408 1.88272 63.0987 1.67496 63.0176 1.48129C62.9364 1.28761 62.818 1.1118 62.6689 0.963908C62.5199 0.816013 62.3431 0.698924 62.1488 0.619329C61.9545 0.539733 61.7464 0.49919 61.5365 0.500012H39.3576ZM46.4747 3.68533H54.4287V9.06613C53.1267 8.89632 51.8009 8.8099 50.4533 8.8099C49.1056 8.8099 47.7768 8.89572 46.4747 9.06613V3.68533ZM50.4533 12.0079C65.658 12.0079 77.9661 24.3925 77.9661 39.7332C77.9661 55.0738 65.658 67.4709 50.4533 67.4709C35.2485 67.4709 22.9404 55.0738 22.9404 39.7332C22.9404 24.3925 35.2485 12.0079 50.4533 12.0079ZM12.798 12.2327C12.587 12.2319 12.3779 12.2728 12.1828 12.3532C11.9877 12.4336 11.8104 12.5518 11.6612 12.701C11.5119 12.8502 11.3937 13.0275 11.3134 13.2227C11.233 13.4178 11.192 13.6269 11.1929 13.8379C11.1937 14.0479 11.2359 14.2556 11.317 14.4493C11.3981 14.643 11.5165 14.8188 11.6656 14.9667C11.8147 15.1146 11.9914 15.2317 12.1857 15.3113C12.38 15.3909 12.5881 15.4314 12.798 15.4306H24.1111C24.3211 15.4314 24.5291 15.3909 24.7235 15.3113C24.9178 15.2317 25.0945 15.1146 25.2435 14.9667C25.3926 14.8188 25.5111 14.643 25.5922 14.4493C25.6733 14.2556 25.7155 14.0479 25.7163 13.8379C25.7171 13.6269 25.6761 13.4178 25.5958 13.2227C25.5154 13.0275 25.3972 12.8502 25.248 12.701C25.0988 12.5518 24.9215 12.4336 24.7263 12.3532C24.5312 12.2728 24.3221 12.2319 24.1111 12.2327H12.798ZM50.1566 20.8239C49.9466 20.8247 49.7388 20.8668 49.5452 20.948C49.3515 21.0291 49.1757 21.1475 49.0278 21.2966C48.8799 21.4457 48.7628 21.6224 48.6832 21.8167C48.6036 22.011 48.5631 22.2191 48.5639 22.4291V42.2689C48.5627 42.4791 48.6029 42.6875 48.6824 42.8822C48.7618 43.0768 48.8788 43.2539 49.0267 43.4033C49.1747 43.5527 49.3506 43.6714 49.5445 43.7527C49.7383 43.834 49.9463 43.8763 50.1566 43.8772H61.5708C61.7821 43.878 61.9915 43.8369 62.1868 43.7564C62.3821 43.6758 62.5595 43.5573 62.7088 43.4078C62.8581 43.2582 62.9762 43.0806 63.0564 42.8851C63.1366 42.6896 63.1772 42.4802 63.176 42.2689C63.1752 42.0589 63.133 41.8512 63.0519 41.6575C62.9708 41.4638 62.8523 41.288 62.7033 41.1401C62.5542 40.9922 62.3775 40.8751 62.1832 40.7955C61.9889 40.7159 61.7808 40.6754 61.5708 40.6762H51.7493V22.4291C51.7501 22.2191 51.7095 22.011 51.63 21.8167C51.5504 21.6224 51.4333 21.4456 51.2854 21.2966C51.1375 21.1475 50.9617 21.0291 50.768 20.948C50.5743 20.8668 50.3665 20.8247 50.1566 20.8239ZM5.10319 25.1928C4.89322 25.192 4.68513 25.2325 4.49083 25.3121C4.29652 25.3917 4.1198 25.5088 3.97074 25.6567C3.82168 25.8046 3.70322 25.9804 3.62211 26.1741C3.541 26.3677 3.49883 26.5755 3.49801 26.7855C3.49883 26.9954 3.541 27.2032 3.62211 27.3969C3.70322 27.5906 3.82168 27.7664 3.97074 27.9143C4.1198 28.0622 4.29652 28.1792 4.49083 28.2588C4.68513 28.3384 4.89322 28.379 5.10319 28.3782H16.4162C16.6262 28.379 16.8343 28.3384 17.0286 28.2588C17.2229 28.1792 17.3996 28.0622 17.5487 27.9143C17.6977 27.7664 17.8162 27.5906 17.8973 27.3969C17.9784 27.2032 18.0206 26.9954 18.0214 26.7855C18.0206 26.5755 17.9784 26.3677 17.8973 26.1741C17.8162 25.9804 17.6977 25.8046 17.5487 25.6567C17.3996 25.5088 17.2229 25.3917 17.0286 25.3121C16.8343 25.2325 16.6262 25.192 16.4162 25.1928H5.10319ZM2.1052 38.1404C1.89522 38.1396 1.68714 38.1801 1.49283 38.2597C1.29852 38.3393 1.1218 38.4564 0.972743 38.6043C0.823688 38.7522 0.705223 38.928 0.624111 39.1217C0.543 39.3154 0.500831 39.5231 0.500012 39.7331C0.499192 39.9441 0.540152 40.1532 0.62053 40.3483C0.700908 40.5435 0.819115 40.7207 0.968334 40.87C1.11755 41.0192 1.29483 41.1374 1.48995 41.2177C1.68507 41.2981 1.89417 41.3391 2.1052 41.3382H13.4182C13.6293 41.3391 13.8384 41.2981 14.0335 41.2177C14.2286 41.1374 14.4059 41.0192 14.5551 40.87C14.7043 40.7207 14.8225 40.5435 14.9029 40.3483C14.9833 40.1532 15.0242 39.9441 15.0234 39.7331C15.0226 39.5231 14.9804 39.3154 14.8993 39.1217C14.8182 38.928 14.6997 38.7522 14.5507 38.6043C14.4016 38.4564 14.2249 38.3393 14.0306 38.2597C13.8363 38.1801 13.6282 38.1396 13.4182 38.1404H2.1052ZM5.10319 51.088C4.89322 51.0872 4.68513 51.1277 4.49083 51.2073C4.29652 51.2869 4.1198 51.404 3.97074 51.5519C3.82168 51.6998 3.70322 51.8756 3.62211 52.0693C3.541 52.2629 3.49883 52.4707 3.49801 52.6807C3.49718 52.8917 3.53813 53.1008 3.61851 53.2959C3.69888 53.4911 3.81709 53.6683 3.96631 53.8176C4.11553 53.9668 4.29281 54.085 4.48793 54.1654C4.68306 54.2457 4.89216 54.2867 5.10319 54.2859H16.4162C16.6273 54.2867 16.8364 54.2457 17.0315 54.1654C17.2266 54.085 17.4039 53.9668 17.5531 53.8176C17.7023 53.6683 17.8205 53.4911 17.9009 53.2959C17.9813 53.1008 18.0222 52.8917 18.0214 52.6807C18.0206 52.4707 17.9784 52.2629 17.8973 52.0693C17.8162 51.8756 17.6977 51.6998 17.5487 51.5519C17.3996 51.404 17.2229 51.2869 17.0286 51.2073C16.8343 51.1277 16.6262 51.0872 16.4162 51.088H5.10319ZM12.798 64.0356C12.5881 64.0348 12.38 64.0753 12.1857 64.1549C11.9914 64.2345 11.8147 64.3516 11.6656 64.4995C11.5165 64.6474 11.3981 64.8232 11.317 65.0169C11.2359 65.2106 11.1937 65.4183 11.1929 65.6283C11.192 65.8393 11.233 66.0484 11.3134 66.2435C11.3938 66.4387 11.512 66.6159 11.6612 66.7651C11.8104 66.9144 11.9877 67.0326 12.1828 67.1129C12.3779 67.1933 12.587 67.2343 12.798 67.2334H24.1111C24.3221 67.2343 24.5312 67.1933 24.7263 67.1129C24.9215 67.0326 25.0987 66.9144 25.2479 66.7651C25.3972 66.6159 25.5154 66.4387 25.5958 66.2435C25.6761 66.0484 25.7171 65.8393 25.7163 65.6283C25.7155 65.4183 25.6733 65.2106 25.5922 65.0169C25.5111 64.8232 25.3926 64.6474 25.2435 64.4995C25.0945 64.3516 24.9178 64.2345 24.7235 64.1549C24.5291 64.0753 24.3211 64.0348 24.1111 64.0356H12.798Z" fill="url(#paint1_linear_1_211)"/>
<path d="M39.3576 0.500012C38.9357 0.501656 38.5315 0.669983 38.2332 0.968314C37.9348 1.26664 37.7665 1.6708 37.7649 2.0927C37.7665 2.51459 37.9349 2.91873 38.2332 3.21704C38.5315 3.51536 38.9357 3.68368 39.3576 3.68533H43.2768V9.65952C29.7854 12.9196 19.7394 25.1638 19.7394 39.7332C19.7394 56.789 33.5071 70.6562 50.4533 70.6562C67.3994 70.6562 81.1515 56.789 81.1515 39.7332C81.1515 25.1652 71.1168 12.9241 57.6297 9.6626V3.68533H61.5365C61.9605 3.68699 62.3679 3.52013 62.6689 3.22145C62.9699 2.92278 63.14 2.51675 63.1417 2.0927C63.1408 1.88272 63.0987 1.67496 63.0176 1.48129C62.9364 1.28761 62.818 1.1118 62.6689 0.963908C62.5199 0.816013 62.3431 0.698924 62.1488 0.619329C61.9545 0.539733 61.7464 0.49919 61.5365 0.500012H39.3576ZM46.4747 3.68533H54.4287V9.06613C53.1267 8.89632 51.8009 8.8099 50.4533 8.8099C49.1056 8.8099 47.7768 8.89572 46.4747 9.06613V3.68533ZM50.4533 12.0079C65.658 12.0079 77.9661 24.3925 77.9661 39.7332C77.9661 55.0738 65.658 67.4709 50.4533 67.4709C35.2485 67.4709 22.9404 55.0738 22.9404 39.7332C22.9404 24.3925 35.2485 12.0079 50.4533 12.0079ZM12.798 12.2327C12.587 12.2319 12.3779 12.2728 12.1828 12.3532C11.9877 12.4336 11.8104 12.5518 11.6612 12.701C11.5119 12.8502 11.3937 13.0275 11.3134 13.2227C11.233 13.4178 11.192 13.6269 11.1929 13.8379C11.1937 14.0479 11.2359 14.2556 11.317 14.4493C11.3981 14.643 11.5165 14.8188 11.6656 14.9667C11.8147 15.1146 11.9914 15.2317 12.1857 15.3113C12.38 15.3909 12.5881 15.4314 12.798 15.4306H24.1111C24.3211 15.4314 24.5291 15.3909 24.7235 15.3113C24.9178 15.2317 25.0945 15.1146 25.2435 14.9667C25.3926 14.8188 25.5111 14.643 25.5922 14.4493C25.6733 14.2556 25.7155 14.0479 25.7163 13.8379C25.7171 13.6269 25.6761 13.4178 25.5958 13.2227C25.5154 13.0275 25.3972 12.8502 25.248 12.701C25.0988 12.5518 24.9215 12.4336 24.7263 12.3532C24.5312 12.2728 24.3221 12.2319 24.1111 12.2327H12.798ZM50.1566 20.8239C49.9466 20.8247 49.7388 20.8668 49.5452 20.948C49.3515 21.0291 49.1757 21.1475 49.0278 21.2966C48.8799 21.4457 48.7628 21.6224 48.6832 21.8167C48.6036 22.011 48.5631 22.2191 48.5639 22.4291V42.2689C48.5627 42.4791 48.6029 42.6875 48.6824 42.8822C48.7618 43.0768 48.8788 43.2539 49.0267 43.4033C49.1747 43.5527 49.3506 43.6714 49.5445 43.7527C49.7383 43.834 49.9463 43.8763 50.1566 43.8772H61.5708C61.7821 43.878 61.9915 43.8369 62.1868 43.7564C62.3821 43.6758 62.5595 43.5573 62.7088 43.4078C62.8581 43.2582 62.9762 43.0806 63.0564 42.8851C63.1366 42.6896 63.1772 42.4802 63.176 42.2689C63.1752 42.0589 63.133 41.8512 63.0519 41.6575C62.9708 41.4638 62.8523 41.288 62.7033 41.1401C62.5542 40.9922 62.3775 40.8751 62.1832 40.7955C61.9889 40.7159 61.7808 40.6754 61.5708 40.6762H51.7493V22.4291C51.7501 22.2191 51.7095 22.011 51.63 21.8167C51.5504 21.6224 51.4333 21.4456 51.2854 21.2966C51.1375 21.1475 50.9617 21.0291 50.768 20.948C50.5743 20.8668 50.3665 20.8247 50.1566 20.8239ZM5.10319 25.1928C4.89322 25.192 4.68513 25.2325 4.49083 25.3121C4.29652 25.3917 4.1198 25.5088 3.97074 25.6567C3.82168 25.8046 3.70322 25.9804 3.62211 26.1741C3.541 26.3677 3.49883 26.5755 3.49801 26.7855C3.49883 26.9954 3.541 27.2032 3.62211 27.3969C3.70322 27.5906 3.82168 27.7664 3.97074 27.9143C4.1198 28.0622 4.29652 28.1792 4.49083 28.2588C4.68513 28.3384 4.89322 28.379 5.10319 28.3782H16.4162C16.6262 28.379 16.8343 28.3384 17.0286 28.2588C17.2229 28.1792 17.3996 28.0622 17.5487 27.9143C17.6977 27.7664 17.8162 27.5906 17.8973 27.3969C17.9784 27.2032 18.0206 26.9954 18.0214 26.7855C18.0206 26.5755 17.9784 26.3677 17.8973 26.1741C17.8162 25.9804 17.6977 25.8046 17.5487 25.6567C17.3996 25.5088 17.2229 25.3917 17.0286 25.3121C16.8343 25.2325 16.6262 25.192 16.4162 25.1928H5.10319ZM2.1052 38.1404C1.89522 38.1396 1.68714 38.1801 1.49283 38.2597C1.29852 38.3393 1.1218 38.4564 0.972743 38.6043C0.823688 38.7522 0.705223 38.928 0.624111 39.1217C0.543 39.3154 0.500831 39.5231 0.500012 39.7331C0.499192 39.9441 0.540152 40.1532 0.62053 40.3483C0.700908 40.5435 0.819115 40.7207 0.968334 40.87C1.11755 41.0192 1.29483 41.1374 1.48995 41.2177C1.68507 41.2981 1.89417 41.3391 2.1052 41.3382H13.4182C13.6293 41.3391 13.8384 41.2981 14.0335 41.2177C14.2286 41.1374 14.4059 41.0192 14.5551 40.87C14.7043 40.7207 14.8225 40.5435 14.9029 40.3483C14.9833 40.1532 15.0242 39.9441 15.0234 39.7331C15.0226 39.5231 14.9804 39.3154 14.8993 39.1217C14.8182 38.928 14.6997 38.7522 14.5507 38.6043C14.4016 38.4564 14.2249 38.3393 14.0306 38.2597C13.8363 38.1801 13.6282 38.1396 13.4182 38.1404H2.1052ZM5.10319 51.088C4.89322 51.0872 4.68513 51.1277 4.49083 51.2073C4.29652 51.2869 4.1198 51.404 3.97074 51.5519C3.82168 51.6998 3.70322 51.8756 3.62211 52.0693C3.541 52.2629 3.49883 52.4707 3.49801 52.6807C3.49718 52.8917 3.53813 53.1008 3.61851 53.2959C3.69888 53.4911 3.81709 53.6683 3.96631 53.8176C4.11553 53.9668 4.29281 54.085 4.48793 54.1654C4.68306 54.2457 4.89216 54.2867 5.10319 54.2859H16.4162C16.6273 54.2867 16.8364 54.2457 17.0315 54.1654C17.2266 54.085 17.4039 53.9668 17.5531 53.8176C17.7023 53.6683 17.8205 53.4911 17.9009 53.2959C17.9813 53.1008 18.0222 52.8917 18.0214 52.6807C18.0206 52.4707 17.9784 52.2629 17.8973 52.0693C17.8162 51.8756 17.6977 51.6998 17.5487 51.5519C17.3996 51.404 17.2229 51.2869 17.0286 51.2073C16.8343 51.1277 16.6262 51.0872 16.4162 51.088H5.10319ZM12.798 64.0356C12.5881 64.0348 12.38 64.0753 12.1857 64.1549C11.9914 64.2345 11.8147 64.3516 11.6656 64.4995C11.5165 64.6474 11.3981 64.8232 11.317 65.0169C11.2359 65.2106 11.1937 65.4183 11.1929 65.6283C11.192 65.8393 11.233 66.0484 11.3134 66.2435C11.3938 66.4387 11.512 66.6159 11.6612 66.7651C11.8104 66.9144 11.9877 67.0326 12.1828 67.1129C12.3779 67.1933 12.587 67.2343 12.798 67.2334H24.1111C24.3221 67.2343 24.5312 67.1933 24.7263 67.1129C24.9215 67.0326 25.0987 66.9144 25.2479 66.7651C25.3972 66.6159 25.5154 66.4387 25.5958 66.2435C25.6761 66.0484 25.7171 65.8393 25.7163 65.6283C25.7155 65.4183 25.6733 65.2106 25.5922 65.0169C25.5111 64.8232 25.3926 64.6474 25.2435 64.4995C25.0945 64.3516 24.9178 64.2345 24.7235 64.1549C24.5291 64.0753 24.3211 64.0348 24.1111 64.0356H12.798Z" stroke="url(#paint2_linear_1_211)"/>
<path d="M39.3576 0.500012C38.9357 0.501656 38.5315 0.669983 38.2332 0.968314C37.9348 1.26664 37.7665 1.6708 37.7649 2.0927C37.7665 2.51459 37.9349 2.91873 38.2332 3.21704C38.5315 3.51536 38.9357 3.68368 39.3576 3.68533H43.2768V9.65952C29.7854 12.9196 19.7394 25.1638 19.7394 39.7332C19.7394 56.789 33.5071 70.6562 50.4533 70.6562C67.3994 70.6562 81.1515 56.789 81.1515 39.7332C81.1515 25.1652 71.1168 12.9241 57.6297 9.6626V3.68533H61.5365C61.9605 3.68699 62.3679 3.52013 62.6689 3.22145C62.9699 2.92278 63.14 2.51675 63.1417 2.0927C63.1408 1.88272 63.0987 1.67496 63.0176 1.48129C62.9364 1.28761 62.818 1.1118 62.6689 0.963908C62.5199 0.816013 62.3431 0.698924 62.1488 0.619329C61.9545 0.539733 61.7464 0.49919 61.5365 0.500012H39.3576ZM46.4747 3.68533H54.4287V9.06613C53.1267 8.89632 51.8009 8.8099 50.4533 8.8099C49.1056 8.8099 47.7768 8.89572 46.4747 9.06613V3.68533ZM50.4533 12.0079C65.658 12.0079 77.9661 24.3925 77.9661 39.7332C77.9661 55.0738 65.658 67.4709 50.4533 67.4709C35.2485 67.4709 22.9404 55.0738 22.9404 39.7332C22.9404 24.3925 35.2485 12.0079 50.4533 12.0079ZM12.798 12.2327C12.587 12.2319 12.3779 12.2728 12.1828 12.3532C11.9877 12.4336 11.8104 12.5518 11.6612 12.701C11.5119 12.8502 11.3937 13.0275 11.3134 13.2227C11.233 13.4178 11.192 13.6269 11.1929 13.8379C11.1937 14.0479 11.2359 14.2556 11.317 14.4493C11.3981 14.643 11.5165 14.8188 11.6656 14.9667C11.8147 15.1146 11.9914 15.2317 12.1857 15.3113C12.38 15.3909 12.5881 15.4314 12.798 15.4306H24.1111C24.3211 15.4314 24.5291 15.3909 24.7235 15.3113C24.9178 15.2317 25.0945 15.1146 25.2435 14.9667C25.3926 14.8188 25.5111 14.643 25.5922 14.4493C25.6733 14.2556 25.7155 14.0479 25.7163 13.8379C25.7171 13.6269 25.6761 13.4178 25.5958 13.2227C25.5154 13.0275 25.3972 12.8502 25.248 12.701C25.0988 12.5518 24.9215 12.4336 24.7263 12.3532C24.5312 12.2728 24.3221 12.2319 24.1111 12.2327H12.798ZM50.1566 20.8239C49.9466 20.8247 49.7388 20.8668 49.5452 20.948C49.3515 21.0291 49.1757 21.1475 49.0278 21.2966C48.8799 21.4457 48.7628 21.6224 48.6832 21.8167C48.6036 22.011 48.5631 22.2191 48.5639 22.4291V42.2689C48.5627 42.4791 48.6029 42.6875 48.6824 42.8822C48.7618 43.0768 48.8788 43.2539 49.0267 43.4033C49.1747 43.5527 49.3506 43.6714 49.5445 43.7527C49.7383 43.834 49.9463 43.8763 50.1566 43.8772H61.5708C61.7821 43.878 61.9915 43.8369 62.1868 43.7564C62.3821 43.6758 62.5595 43.5573 62.7088 43.4078C62.8581 43.2582 62.9762 43.0806 63.0564 42.8851C63.1366 42.6896 63.1772 42.4802 63.176 42.2689C63.1752 42.0589 63.133 41.8512 63.0519 41.6575C62.9708 41.4638 62.8523 41.288 62.7033 41.1401C62.5542 40.9922 62.3775 40.8751 62.1832 40.7955C61.9889 40.7159 61.7808 40.6754 61.5708 40.6762H51.7493V22.4291C51.7501 22.2191 51.7095 22.011 51.63 21.8167C51.5504 21.6224 51.4333 21.4456 51.2854 21.2966C51.1375 21.1475 50.9617 21.0291 50.768 20.948C50.5743 20.8668 50.3665 20.8247 50.1566 20.8239ZM5.10319 25.1928C4.89322 25.192 4.68513 25.2325 4.49083 25.3121C4.29652 25.3917 4.1198 25.5088 3.97074 25.6567C3.82168 25.8046 3.70322 25.9804 3.62211 26.1741C3.541 26.3677 3.49883 26.5755 3.49801 26.7855C3.49883 26.9954 3.541 27.2032 3.62211 27.3969C3.70322 27.5906 3.82168 27.7664 3.97074 27.9143C4.1198 28.0622 4.29652 28.1792 4.49083 28.2588C4.68513 28.3384 4.89322 28.379 5.10319 28.3782H16.4162C16.6262 28.379 16.8343 28.3384 17.0286 28.2588C17.2229 28.1792 17.3996 28.0622 17.5487 27.9143C17.6977 27.7664 17.8162 27.5906 17.8973 27.3969C17.9784 27.2032 18.0206 26.9954 18.0214 26.7855C18.0206 26.5755 17.9784 26.3677 17.8973 26.1741C17.8162 25.9804 17.6977 25.8046 17.5487 25.6567C17.3996 25.5088 17.2229 25.3917 17.0286 25.3121C16.8343 25.2325 16.6262 25.192 16.4162 25.1928H5.10319ZM2.1052 38.1404C1.89522 38.1396 1.68714 38.1801 1.49283 38.2597C1.29852 38.3393 1.1218 38.4564 0.972743 38.6043C0.823688 38.7522 0.705223 38.928 0.624111 39.1217C0.543 39.3154 0.500831 39.5231 0.500012 39.7331C0.499192 39.9441 0.540152 40.1532 0.62053 40.3483C0.700908 40.5435 0.819115 40.7207 0.968334 40.87C1.11755 41.0192 1.29483 41.1374 1.48995 41.2177C1.68507 41.2981 1.89417 41.3391 2.1052 41.3382H13.4182C13.6293 41.3391 13.8384 41.2981 14.0335 41.2177C14.2286 41.1374 14.4059 41.0192 14.5551 40.87C14.7043 40.7207 14.8225 40.5435 14.9029 40.3483C14.9833 40.1532 15.0242 39.9441 15.0234 39.7331C15.0226 39.5231 14.9804 39.3154 14.8993 39.1217C14.8182 38.928 14.6997 38.7522 14.5507 38.6043C14.4016 38.4564 14.2249 38.3393 14.0306 38.2597C13.8363 38.1801 13.6282 38.1396 13.4182 38.1404H2.1052ZM5.10319 51.088C4.89322 51.0872 4.68513 51.1277 4.49083 51.2073C4.29652 51.2869 4.1198 51.404 3.97074 51.5519C3.82168 51.6998 3.70322 51.8756 3.62211 52.0693C3.541 52.2629 3.49883 52.4707 3.49801 52.6807C3.49718 52.8917 3.53813 53.1008 3.61851 53.2959C3.69888 53.4911 3.81709 53.6683 3.96631 53.8176C4.11553 53.9668 4.29281 54.085 4.48793 54.1654C4.68306 54.2457 4.89216 54.2867 5.10319 54.2859H16.4162C16.6273 54.2867 16.8364 54.2457 17.0315 54.1654C17.2266 54.085 17.4039 53.9668 17.5531 53.8176C17.7023 53.6683 17.8205 53.4911 17.9009 53.2959C17.9813 53.1008 18.0222 52.8917 18.0214 52.6807C18.0206 52.4707 17.9784 52.2629 17.8973 52.0693C17.8162 51.8756 17.6977 51.6998 17.5487 51.5519C17.3996 51.404 17.2229 51.2869 17.0286 51.2073C16.8343 51.1277 16.6262 51.0872 16.4162 51.088H5.10319ZM12.798 64.0356C12.5881 64.0348 12.38 64.0753 12.1857 64.1549C11.9914 64.2345 11.8147 64.3516 11.6656 64.4995C11.5165 64.6474 11.3981 64.8232 11.317 65.0169C11.2359 65.2106 11.1937 65.4183 11.1929 65.6283C11.192 65.8393 11.233 66.0484 11.3134 66.2435C11.3938 66.4387 11.512 66.6159 11.6612 66.7651C11.8104 66.9144 11.9877 67.0326 12.1828 67.1129C12.3779 67.1933 12.587 67.2343 12.798 67.2334H24.1111C24.3221 67.2343 24.5312 67.1933 24.7263 67.1129C24.9215 67.0326 25.0987 66.9144 25.2479 66.7651C25.3972 66.6159 25.5154 66.4387 25.5958 66.2435C25.6761 66.0484 25.7171 65.8393 25.7163 65.6283C25.7155 65.4183 25.6733 65.2106 25.5922 65.0169C25.5111 64.8232 25.3926 64.6474 25.2435 64.4995C25.0945 64.3516 24.9178 64.2345 24.7235 64.1549C24.5291 64.0753 24.3211 64.0348 24.1111 64.0356H12.798Z" stroke="url(#paint3_linear_1_211)"/>
<defs>
<linearGradient id="paint0_linear_1_211" x1="-0.0506677" y1="0.500005" x2="91.226" y2="16.4215" gradientUnits="userSpaceOnUse">
<stop stop-color="#B5F4FF"/>
<stop offset="1" stop-color="#DB9CFF"/>
</linearGradient>
<linearGradient id="paint1_linear_1_211" x1="83" y1="37.625" x2="31.1376" y2="79.1554" gradientUnits="userSpaceOnUse">
<stop stop-color="#363CFF"/>
<stop offset="1" stop-color="#A300FF"/>
</linearGradient>
<linearGradient id="paint2_linear_1_211" x1="-0.0506677" y1="0.500005" x2="91.226" y2="16.4215" gradientUnits="userSpaceOnUse">
<stop stop-color="#B5F4FF"/>
<stop offset="1" stop-color="#DB9CFF"/>
</linearGradient>
<linearGradient id="paint3_linear_1_211" x1="134.78" y1="38.7915" x2="51.6239" y2="105.065" gradientUnits="userSpaceOnUse">
<stop stop-color="#363CFF"/>
<stop offset="1" stop-color="#DB9CFF"/>
</linearGradient>
</defs>
</svg>
